onset,offset,pitch,velocity
0,6,78,64
6,24,59,64
6,24,66,64
6,24,74,64
6,24,78,64
24,30,83,64
30,48,76,64
30,48,79,64
48,51,78,64
51,54,79,64
54,72,58,64
54,72,66,64
54,72,76,64
54,72,78,64
72,75,74,64
75,78,73,64
78,87,74,64
87,90,59,64
90,99,57,64
99,102,78,64
102,120,55,64
102,120,62,64
102,120,71,64
102,120,78,64
120,123,79,64
123,126,78,64
126,135,76,64
135,138,74,64
138,147,73,64
147,150,71,64
150,159,70,64
159,162,67,64
162,171,66,64
171,174,64,64
174,183,62,64
183,186,71,64
186,195,61,64
195,198,73,64
198,207,74,64
207,209,59,64
208,210,61,64
210,219,62,64
219,222,64,64
222,228,66,64
228,231,62,64
231,234,64,64
234,240,66,64
240,243,69,64
243,246,67,64
246,264,66,64
246,264,69,64
264,270,69,64
270,276,74,64
276,279,78,64
279,282,76,64
282,291,78,64
291,294,62,64
291,294,69,64
294,300,67,64
294,300,71,64
300,303,71,64
303,306,69,64
306,315,67,64
315,318,66,64
315,318,74,64
318,327,64,64
318,327,71,64
318,327,79,64
327,330,64,64
330,339,66,64
339,342,67,64
339,342,71,64
342,348,61,64
342,348,64,64
342,348,69,64
342,351,79,64
351,353,78,64
352,354,76,64
354,363,81,64
363,366,79,64
366,375,78,64
375,378,62,64
378,387,67,64
387,390,76,64
390,393,74,64
393,402,73,64
402,405,71,64
405,414,69,64
414,423,81,64
423,426,67,64
426,435,66,64
435,437,67,64
436,438,64,64
438,447,63,64
438,447,71,64
438,456,81,64
456,458,81,64
458,460,79,64
460,462,78,64
462,471,83,64
471,474,81,64
474,483,79,64
483,486,78,64
486,495,79,64
495,498,76,64
498,507,71,64
507,510,67,64
510,519,64,64
519,522,74,64
522,531,73,64
531,534,71,64
534,543,70,64
543,546,79,64
546,555,78,64
555,558,64,64
558,567,62,64
567,570,66,64
570,573,71,64
573,576,74,64
576,582,78,64
582,591,68,64
591,594,71,64
594,603,76,64
603,606,62,64
606,610,61,64
610,614,62,64
614,618,64,64
618,622,66,64
622,626,67,64
626,630,59,64
630,639,58,64
630,639,66,64
630,639,73,64
630,639,76,64
639,641,78,64
640,642,79,64
642,651,78,64
651,654,76,64
654,666,59,64
654,666,66,64
654,666,76,64
666,669,74,64
669,672,73,64
672,678,74,64
678,696,66,64
678,696,73,64
696,699,66,64
699,702,68,64
702,706,70,64
706,710,71,64
710,714,73,64
714,718,74,64
718,722,76,64
722,726,78,64
726,730,79,64
730,734,78,64
734,738,76,64
738,742,82,64
742,746,83,64
746,750,85,64
750,759,78,64
759,762,71,64
762,771,70,64
771,774,76,64
774,778,59,64
778,782,64,64
782,786,67,64
786,790,70,64
790,794,73,64
794,798,76,64
798,802,74,64
802,806,73,64
806,810,71,64
810,819,80,64
819,822,80,64
822,840,65,64
822,840,73,64
822,840,80,64
840,843,81,64
843,846,83,64
846,855,83,64
855,858,80,64
858,867,66,64
858,867,73,64
858,867,81,64
867,870,78,64
870,879,61,64
870,879,65,64
870,879,73,64
870,879,80,64
879,881,77,64
880,882,73,64
882,891,85,64
891,894,85,64
894,903,85,64
903,906,76,64
906,915,70,64
915,918,76,64
918,927,59,64
927,930,76,64
930,939,74,64
939,942,78,64
942,946,83,64
946,950,85,64
950,954,82,64
954,958,83,64
958,962,86,64
962,966,85,64
966,975,86,64
975,978,77,64
978,987,68,64
987,990,77,64
990,999,61,64
999,1002,86,64
1002,1011,85,64
1011,1014,83,64
1014,1023,81,64
1014,1026,66,64
1014,1026,73,64
1023,1024,80,64
1024,1025,78,64
1025,1026,77,64
1026,1035,69,64
1026,1035,78,64
1035,1038,71,64
1035,1038,83,64
1038,1056,80,64
1038,1062,73,64
1056,1062,78,64
1062,1080,66,64
1062,1080,73,64
1062,1080,78,64
1080,1083,76,64
1083,1086,74,64
1086,1090,76,64
1090,1094,74,64
1094,1098,73,64
1098,1102,74,64
1102,1106,71,64
1106,1110,65,64
1110,1114,66,64
1114,1118,70,64
1118,1122,73,64
1122,1152,78,64
1152,1158,73,64
1158,1167,66,64
1158,1167,73,64
1167,1169,74,64
1168,1170,76,64
1170,1179,74,64
1179,1182,71,64
1182,1191,70,64
1191,1194,66,64
1194,1203,64,64
1203,1205,62,64
1204,1206,64,64
1206,1210,62,64
1210,1214,66,64
1214,1218,71,64
1218,1222,62,64
1222,1226,61,64
1226,1230,59,64
1230,1239,58,64
1239,1242,73,64
1242,1251,66,64
1251,1254,64,64
1254,1263,62,64
1263,1265,59,64
1264,1266,61,64
1266,1275,62,64
1275,1278,64,64
1278,1282,66,64
1282,1286,67,64
1286,1290,69,64
1290,1294,71,64
1294,1298,72,64
1298,1302,69,64
1302,1320,57,64
1302,1320,63,64
1320,1326,66,64
1326,1335,71,64
1335,1338,71,64
1338,1347,73,64
1347,1350,75,64
1350,1359,55,64
1350,1359,64,64
1350,1359,71,64
1350,1359,76,64
1359,1361,79,64
1360,1362,78,64
1362,1371,79,64
1371,1374,71,64
1374,1378,72,64
1378,1382,71,64
1382,1386,69,64
1386,1390,79,64
1390,1394,78,64
1394,1398,76,64
1398,1402,76,64
1402,1406,75,64
1406,1410,73,64
1410,1414,75,64
1414,1418,73,64
1418,1422,71,64
1422,1431,83,64
1431,1433,71,64
1432,1434,73,64
1434,1437,74,64
1437,1440,76,64
1440,1446,77,64
1446,1452,68,64
1452,1458,76,64
1458,1464,83,64
1464,1467,84,64
1467,1470,86,64
1470,1479,86,64
1479,1482,84,64
1482,1491,86,64
1491,1494,83,64
1494,1512,69,64
1494,1512,76,64
1494,1512,84,64
1512,1518,71,64
1518,1522,72,64
1522,1526,71,64
1526,1530,69,64
1530,1534,78,64
1534,1538,79,64
1538,1542,81,64
1542,1551,75,64
1542,1551,81,64
1551,1553,79,64
1552,1554,78,64
1554,1563,83,64
1563,1566,81,64
1566,1575,79,64
1575,1578,78,64
1578,1581,79,64
1581,1584,81,64
1584,1590,78,64
1590,1594,79,64
1594,1598,76,64
1598,1602,71,64
1602,1606,67,64
1606,1610,64,64
1610,1614,59,64
1614,1618,62,64
1618,1622,67,64
1622,1626,71,64
1626,1630,74,64
1630,1634,76,64
1634,1638,77,64
1638,1647,60,64
1638,1647,67,64
1638,1647,72,64
1638,1647,76,64
1647,1648,74,64
1648,1649,72,64
1649,1650,71,64
1650,1659,72,64
1659,1662,76,64
1662,1680,70,64
1680,1683,71,64
1683,1686,70,64
1686,1690,71,64
1686,1692,55,64
1686,1692,64,64
1690,1694,73,64
1694,1698,75,64
1698,1702,76,64
1702,1706,79,64
1706,1710,78,64
1710,1722,59,64
1710,1722,66,64
1710,1722,76,64
1722,1731,75,64
1731,1734,76,64
1734,1752,64,64
1734,1752,76,64
1752,1758,66,64
1758,1762,67,64
1762,1766,69,64
1766,1770,71,64
1770,1774,73,64
1774,1778,74,64
1778,1782,76,64
1782,1791,61,64
1791,1794,64,64
1794,1803,69,64
1803,1806,67,64
1806,1815,66,64
1815,1818,81,64
1818,1827,64,64
1827,1830,79,64
1830,1834,62,64
1834,1838,69,64
1838,1842,79,64
1842,1846,78,64
1846,1850,76,64
1850,1854,82,64
1854,1858,83,64
1858,1862,78,64
1862,1866,76,64
1866,1870,74,64
1870,1874,73,64
1874,1878,76,64
1878,1882,70,64
1882,1886,67,64
1886,1890,66,64
1890,1894,64,64
1894,1898,70,64
1898,1902,79,64
1902,1911,78,64
1911,1914,62,64
1914,1923,61,64
1923,1926,76,64
1926,1935,59,64
1935,1936,76,64
1936,1937,74,64
1937,1938,73,64
1938,1947,74,64
1947,1950,76,64
1950,1954,78,64
1954,1958,76,64
1958,1962,78,64
1962,1966,79,64
1966,1970,81,64
1970,1974,83,64
1974,1983,72,64
1974,1992,57,64
1974,1992,66,64
1983,1985,81,64
1984,1986,79,64
1986,1990,78,64
1990,1994,76,64
1994,1998,74,64
1998,2002,72,64
2002,2006,71,64
2006,2010,72,64
2010,2019,81,64
2019,2022,72,64
2022,2026,63,64
2026,2030,66,64
2030,2034,71,64
2034,2038,75,64
2038,2042,78,64
2042,2046,81,64
2046,2050,84,64
2050,2054,83,64
2054,2058,81,64
2058,2062,79,64
2062,2066,81,64
2066,2070,78,64
2070,2079,64,64
2070,2079,71,64
2070,2079,79,64
2079,2082,78,64
2082,2091,76,64
2091,2094,74,64
2094,2098,72,64
2098,2102,76,64
2102,2106,74,64
2106,2110,72,64
2110,2114,70,64
2114,2118,71,64
2118,2122,70,64
2122,2126,73,64
2126,2130,79,64
2130,2134,78,64
2134,2138,70,64
2138,2142,64,64
2142,2151,62,64
2151,2153,83,64
2152,2154,81,64
2154,2163,79,64
2163,2166,78,64
2166,2170,77,64
2170,2174,78,64
2174,2178,80,64
2178,2187,78,64
2187,2190,64,64
2187,2190,71,64
2190,2202,74,64
2190,2214,66,64
2202,2205,73,64
2205,2208,71,64
2208,2214,73,64
2214,2232,59,64
2214,2232,66,64
2214,2232,71,64
2232,2235,74,64
2235,2238,73,64
2238,2242,74,64
2242,2246,71,64
2246,2250,74,64
2250,2254,78,64
2254,2258,83,64
2258,2262,82,64
2262,2298,59,64
2262,2298,66,64
2262,2298,74,64
2262,2298,83,64
