onset,offset,pitch,velocity
0,6,62,64
6,24,62,64
6,24,62,64
24,30,64,64
30,36,65,64
36,42,67,64
42,48,69,64
48,54,70,64
54,60,61,64
60,66,70,64
66,72,69,64
72,78,67,64
78,96,76,64
96,102,67,64
102,108,65,64
108,114,61,64
114,120,62,64
120,126,57,64
126,132,58,64
132,138,62,64
138,144,65,64
144,150,67,64
150,156,61,64
156,162,57,64
162,168,61,64
168,174,64,64
174,178,69,64
178,182,67,64
182,186,65,64
186,190,67,64
190,194,65,64
194,198,64,64
198,204,65,64
204,210,62,64
210,216,65,64
216,222,69,64
222,226,70,64
226,230,69,64
230,234,67,64
234,238,69,64
238,242,67,64
242,246,65,64
246,252,64,64
252,258,67,64
258,264,70,64
264,270,74,64
270,274,72,64
274,278,70,64
278,282,69,64
282,286,70,64
286,290,69,64
290,294,67,64
294,300,69,64
300,306,65,64
306,312,69,64
312,318,72,64
318,324,77,64
324,330,79,64
330,336,81,64
336,342,72,64
342,348,74,64
348,354,69,64
354,360,70,64
360,366,74,64
366,372,79,64
372,378,81,64
378,384,82,64
384,390,74,64
390,396,76,64
396,402,70,64
402,408,72,64
408,414,67,64
414,420,69,64
420,426,70,64
426,432,72,64
432,438,64,64
438,444,65,64
444,450,57,64
450,456,58,64
456,462,67,64
462,468,60,64
468,474,64,64
474,480,67,64
480,486,70,64
486,492,69,64
492,498,67,64
498,504,65,64
504,510,69,64
510,516,74,64
516,522,65,64
522,528,64,64
528,534,62,64
534,540,61,64
540,546,76,64
546,552,77,64
552,558,79,64
558,564,69,64
564,570,79,64
570,576,77,64
576,582,76,64
582,588,77,64
588,594,76,64
594,600,74,64
600,606,64,64
606,612,62,64
612,618,60,64
618,624,59,64
624,630,57,64
630,636,56,64
636,642,71,64
642,648,72,64
648,654,74,64
654,660,64,64
660,666,74,64
666,672,72,64
672,678,71,64
678,684,72,64
684,690,71,64
690,696,69,64
696,702,71,64
702,708,72,64
708,711,77,64
711,714,76,64
714,720,74,64
720,726,72,64
726,732,71,64
732,738,69,64
738,744,67,64
744,750,69,64
750,756,71,64
756,759,76,64
759,762,74,64
762,768,72,64
768,774,71,64
774,780,69,64
780,786,67,64
786,792,65,64
792,795,67,64
795,798,69,64
798,804,62,64
804,810,72,64
810,816,71,64
816,822,69,64
822,828,68,64
828,834,66,64
834,840,64,64
840,846,66,64
846,852,68,64
852,858,69,64
858,864,71,64
864,870,72,64
870,876,74,64
876,882,76,64
882,888,77,64
888,894,76,64
894,900,74,64
900,906,72,64
906,912,71,64
912,918,69,64
918,924,80,64
924,930,81,64
930,936,83,64
936,942,81,64
942,948,80,64
948,954,78,64
954,960,76,64
960,966,74,64
966,972,72,64
972,975,74,64
975,978,76,64
978,984,77,64
984,990,81,64
990,996,71,64
996,999,72,64
999,1002,74,64
1002,1008,76,64
1008,1014,79,64
1014,1020,69,64
1020,1023,71,64
1023,1026,72,64
1026,1032,74,64
1032,1038,77,64
1038,1044,67,64
1044,1047,69,64
1047,1050,71,64
1050,1056,72,64
1056,1062,76,64
1062,1068,65,64
1068,1071,67,64
1071,1074,69,64
1074,1080,71,64
1080,1086,74,64
1086,1092,64,64
1092,1095,66,64
1095,1098,68,64
1098,1104,69,64
1104,1110,72,64
1110,1116,62,64
1116,1122,61,64
1122,1128,62,64
1128,1134,65,64
1134,1140,70,64
1140,1146,72,64
1146,1152,74,64
1152,1158,70,64
1158,1164,65,64
1164,1170,64,64
1170,1176,65,64
1176,1182,70,64
1182,1188,74,64
1188,1194,76,64
1194,1200,77,64
1200,1206,74,64
1206,1212,70,64
1212,1218,69,64
1218,1224,70,64
1224,1230,74,64
1230,1236,77,64
1236,1239,79,64
1239,1242,81,64
1242,1248,82,64
1248,1254,81,64
1254,1260,80,64
1260,1263,83,64
1263,1266,81,64
1266,1272,80,64
1272,1275,77,64
1275,1278,76,64
1278,1284,74,64
1284,1287,77,64
1287,1290,76,64
1290,1296,74,64
1296,1299,71,64
1299,1302,69,64
1302,1308,68,64
1308,1314,71,64
1314,1320,76,64
1320,1326,80,64
1326,1332,83,64
1332,1338,76,64
1338,1344,86,64
1344,1347,84,64
1347,1350,83,64
1350,1356,84,64
1356,1359,83,64
1359,1362,81,64
1362,1368,80,64
1368,1374,81,64
1374,1378,72,64
1378,1382,74,64
1382,1386,76,64
1386,1390,74,64
1390,1394,72,64
1394,1398,71,64
1398,1416,69,64
1416,1422,71,64
1422,1428,73,64
1428,1434,74,64
1434,1440,76,64
1440,1446,67,64
1446,1452,65,64
1452,1458,62,64
1458,1464,65,64
1464,1470,69,64
1470,1476,74,64
1476,1482,77,64
1482,1488,80,64
1488,1494,62,64
1494,1530,57,64
1494,1530,64,64
1494,1530,73,64
1494,1530,81,64
1536,1542,62,64
1542,1560,62,64
1542,1560,62,64
1560,1566,64,64
1566,1572,65,64
1572,1578,67,64
1578,1584,69,64
1584,1590,70,64
1590,1596,61,64
1596,1602,70,64
1602,1608,69,64
1608,1614,67,64
1614,1632,76,64
1632,1638,67,64
1638,1644,65,64
1644,1650,61,64
1650,1656,62,64
1656,1662,57,64
1662,1668,58,64
1668,1674,62,64
1674,1680,65,64
1680,1686,67,64
1686,1692,61,64
1692,1698,57,64
1698,1704,61,64
1704,1710,64,64
1710,1714,69,64
1714,1718,67,64
1718,1722,65,64
1722,1726,67,64
1726,1730,65,64
1730,1734,64,64
1734,1740,65,64
1740,1746,62,64
1746,1752,65,64
1752,1758,69,64
1758,1762,70,64
1762,1766,69,64
1766,1770,67,64
1770,1774,69,64
1774,1778,67,64
1778,1782,65,64
1782,1788,64,64
1788,1794,67,64
1794,1800,70,64
1800,1806,74,64
1806,1810,72,64
1810,1814,70,64
1814,1818,69,64
1818,1822,70,64
1822,1826,69,64
1826,1830,67,64
1830,1836,69,64
1836,1842,65,64
1842,1848,69,64
1848,1854,72,64
1854,1860,77,64
1860,1866,79,64
1866,1872,81,64
1872,1878,72,64
1878,1884,74,64
1884,1890,69,64
1890,1896,70,64
1896,1902,74,64
1902,1908,79,64
1908,1914,81,64
1914,1920,82,64
1920,1926,74,64
1926,1932,76,64
1932,1938,70,64
1938,1944,72,64
1944,1950,67,64
1950,1956,69,64
1956,1962,70,64
1962,1968,72,64
1968,1974,64,64
1974,1980,65,64
1980,1986,57,64
1986,1992,58,64
1992,1998,67,64
1998,2004,60,64
2004,2010,64,64
2010,2016,67,64
2016,2022,70,64
2022,2028,69,64
2028,2034,67,64
2034,2040,65,64
2040,2046,69,64
2046,2052,74,64
2052,2058,65,64
2058,2064,64,64
2064,2070,62,64
2070,2076,61,64
2076,2082,76,64
2082,2088,77,64
2088,2094,79,64
2094,2100,69,64
2100,2106,79,64
2106,2112,77,64
2112,2118,76,64
2118,2124,77,64
2124,2130,76,64
2130,2136,74,64
2136,2142,64,64
2142,2148,62,64
2148,2154,60,64
2154,2160,59,64
2160,2166,57,64
2166,2172,56,64
2172,2178,71,64
2178,2184,72,64
2184,2190,74,64
2190,2196,64,64
2196,2202,74,64
2202,2208,72,64
2208,2214,71,64
2214,2220,72,64
2220,2226,71,64
2226,2232,69,64
2232,2238,71,64
2238,2244,72,64
2244,2247,77,64
2247,2250,76,64
2250,2256,74,64
2256,2262,72,64
2262,2268,71,64
2268,2274,69,64
2274,2280,67,64
2280,2286,69,64
2286,2292,71,64
2292,2295,76,64
2295,2298,74,64
2298,2304,72,64
2304,2310,71,64
2310,2316,69,64
2316,2322,67,64
2322,2328,65,64
2328,2331,67,64
2331,2334,69,64
2334,2340,62,64
2340,2346,72,64
2346,2352,71,64
2352,2358,69,64
2358,2364,68,64
2364,2370,66,64
2370,2376,64,64
2376,2382,66,64
2382,2388,68,64
2388,2394,69,64
2394,2400,71,64
2400,2406,72,64
2406,2412,74,64
2412,2418,76,64
2418,2424,77,64
2424,2430,76,64
2430,2436,74,64
2436,2442,72,64
2442,2448,71,64
2448,2454,69,64
2454,2460,80,64
2460,2466,81,64
2466,2472,83,64
2472,2478,81,64
2478,2484,80,64
2484,2490,78,64
2490,2496,76,64
2496,2502,74,64
2502,2508,72,64
2508,2511,74,64
2511,2514,76,64
2514,2520,77,64
2520,2526,81,64
2526,2532,71,64
2532,2535,72,64
2535,2538,74,64
2538,2544,76,64
2544,2550,79,64
2550,2556,69,64
2556,2559,71,64
2559,2562,72,64
2562,2568,74,64
2568,2574,77,64
2574,2580,67,64
2580,2583,69,64
2583,2586,71,64
2586,2592,72,64
2592,2598,76,64
2598,2604,65,64
2604,2607,67,64
2607,2610,69,64
2610,2616,71,64
2616,2622,74,64
2622,2628,64,64
2628,2631,66,64
2631,2634,68,64
2634,2640,69,64
2640,2646,72,64
2646,2652,62,64
2652,2658,61,64
2658,2664,62,64
2664,2670,65,64
2670,2676,70,64
2676,2682,72,64
2682,2688,74,64
2688,2694,70,64
2694,2700,65,64
2700,2706,64,64
2706,2712,65,64
2712,2718,70,64
2718,2724,74,64
2724,2730,76,64
2730,2736,77,64
2736,2742,74,64
2742,2748,70,64
2748,2754,69,64
2754,2760,70,64
2760,2766,74,64
2766,2772,77,64
2772,2775,79,64
2775,2778,81,64
2778,2784,82,64
2784,2790,81,64
2790,2796,80,64
2796,2799,83,64
2799,2802,81,64
2802,2808,80,64
2808,2811,77,64
2811,2814,76,64
2814,2820,74,64
2820,2823,77,64
2823,2826,76,64
2826,2832,74,64
2832,2835,71,64
2835,2838,69,64
2838,2844,68,64
2844,2850,71,64
2850,2856,76,64
2856,2862,80,64
2862,2868,83,64
2868,2874,76,64
2874,2880,86,64
2880,2883,84,64
2883,2886,83,64
2886,2892,84,64
2892,2895,83,64
2895,2898,81,64
2898,2904,80,64
2904,2910,81,64
2910,2914,72,64
2914,2918,74,64
2918,2922,76,64
2922,2926,74,64
2926,2930,72,64
2930,2934,71,64
2934,2952,69,64
2952,2958,71,64
2958,2964,73,64
2964,2970,74,64
2970,2976,76,64
2976,2982,67,64
2982,2988,65,64
2988,2994,62,64
2994,3000,65,64
3000,3006,69,64
3006,3012,74,64
3012,3018,77,64
3018,3024,80,64
3024,3030,62,64
3030,3066,57,64
3030,3066,64,64
3030,3066,73,64
3030,3066,81,64
3072,3078,76,64
3078,3096,76,64
3078,3096,76,64
3096,3102,77,64
3102,3108,76,64
3108,3114,74,64
3114,3120,73,64
3120,3126,71,64
3126,3132,69,64
3132,3135,67,64
3135,3138,69,64
3138,3144,70,64
3144,3150,69,64
3150,3156,67,64
3156,3162,65,64
3162,3168,64,64
3168,3174,65,64
3174,3180,67,64
3180,3186,65,64
3186,3192,64,64
3192,3198,62,64
3198,3204,77,64
3204,3210,69,64
3210,3216,70,64
3216,3222,62,64
3222,3228,60,64
3228,3234,67,64
3234,3240,70,64
3240,3246,75,64
3246,3252,69,64
3252,3258,72,64
3258,3264,77,64
3264,3270,75,64
3270,3276,74,64
3276,3282,69,64
3282,3288,70,64
3288,3294,74,64
3294,3300,63,64
3300,3306,67,64
3306,3312,69,64
3312,3318,71,64
3318,3324,72,64
3324,3330,74,64
3330,3336,75,64
3336,3342,72,64
3342,3346,81,64
3346,3350,79,64
3350,3354,78,64
3354,3358,79,64
3358,3362,78,64
3362,3366,76,64
3366,3372,78,64
3372,3375,72,64
3375,3378,74,64
3378,3384,75,64
3384,3390,74,64
3390,3396,72,64
3396,3399,70,64
3399,3402,69,64
3402,3408,74,64
3408,3414,72,64
3414,3420,70,64
3420,3423,72,64
3423,3426,74,64
3426,3432,75,64
3432,3438,79,64
3438,3444,69,64
3444,3447,70,64
3447,3450,72,64
3450,3456,74,64
3456,3462,77,64
3462,3468,67,64
3468,3471,69,64
3471,3474,70,64
3474,3480,72,64
3480,3486,75,64
3486,3492,65,64
3492,3495,67,64
3495,3498,69,64
3498,3504,70,64
3504,3510,74,64
3510,3516,63,64
3516,3519,79,64
3519,3522,77,64
3522,3528,75,64
3528,3531,72,64
3531,3534,70,64
3534,3540,69,64
3540,3543,72,64
3543,3546,70,64
3546,3552,69,64
3552,3555,66,64
3555,3558,64,64
3558,3564,62,64
3564,3570,66,64
3570,3576,69,64
3576,3582,72,64
3582,3586,75,64
3586,3590,74,64
3590,3594,72,64
3594,3598,78,64
3598,3602,76,64
3602,3606,74,64
3606,3612,82,64
3612,3615,81,64
3615,3618,79,64
3618,3624,78,64
3624,3630,79,64
3630,3634,70,64
3634,3638,72,64
3638,3642,74,64
3642,3646,72,64
3646,3650,70,64
3650,3654,69,64
3654,3672,67,64
3672,3678,69,64
3678,3684,70,64
3684,3690,72,64
3690,3696,74,64
3696,3702,65,64
3702,3708,64,64
3708,3714,60,64
3714,3720,64,64
3720,3726,67,64
3726,3732,70,64
3732,3735,76,64
3735,3738,77,64
3738,3744,79,64
3744,3750,70,64
3750,3756,69,64
3756,3762,65,64
3762,3768,69,64
3768,3774,72,64
3774,3780,77,64
3780,3786,69,64
3786,3792,67,64
3792,3798,65,64
3798,3804,60,64
3804,3810,67,64
3810,3816,72,64
3816,3822,74,64
3822,3828,76,64
3828,3834,70,64
3834,3840,69,64
3840,3846,67,64
3846,3852,65,64
3852,3858,62,64
3858,3864,65,64
3864,3870,69,64
3870,3876,74,64
3876,3882,65,64
3882,3888,64,64
3888,3894,62,64
3894,3900,57,64
3900,3906,64,64
3906,3912,69,64
3912,3918,70,64
3918,3924,72,64
3924,3930,67,64
3930,3936,65,64
3936,3942,63,64
3942,3948,62,64
3948,3954,58,64
3954,3960,62,64
3960,3966,65,64
3966,3972,70,64
3972,3978,69,64
3978,3984,67,64
3984,3990,65,64
3990,3996,76,64
3996,3999,77,64
3999,4002,79,64
4002,4008,77,64
4008,4014,76,64
4014,4020,74,64
4020,4026,72,64
4026,4032,70,64
4032,4038,79,64
4038,4041,69,64
4041,4044,67,64
4044,4047,65,64
4047,4050,64,64
4050,4056,65,64
4056,4062,58,64
4062,4068,60,64
4068,4074,64,64
4074,4080,67,64
4080,4086,69,64
4086,4092,70,64
4092,4098,69,64
4098,4104,67,64
4104,4110,65,64
4110,4116,81,64
4116,4122,76,64
4122,4128,77,64
4128,4134,74,64
4134,4140,71,64
4140,4146,74,64
4146,4152,77,64
4152,4158,81,64
4158,4164,79,64
4164,4170,76,64
4170,4176,73,64
4176,4182,79,64
4182,4188,62,64
4188,4194,69,64
4194,4200,73,64
4200,4206,79,64
4206,4212,77,64
4212,4218,73,64
4218,4224,74,64
4224,4230,70,64
4230,4236,67,64
4236,4242,70,64
4242,4248,74,64
4248,4254,77,64
4254,4260,75,64
4260,4266,72,64
4266,4272,69,64
4272,4278,75,64
4278,4284,58,64
4284,4290,65,64
4290,4296,69,64
4296,4302,75,64
4302,4308,74,64
4308,4314,69,64
4314,4320,70,64
4320,4326,67,64
4326,4332,64,64
4332,4338,67,64
4338,4344,70,64
4344,4350,74,64
4350,4356,72,64
4356,4362,69,64
4362,4368,66,64
4368,4374,72,64
4374,4380,70,64
4380,4386,69,64
4386,4392,67,64
4392,4398,65,64
4398,4404,63,64
4404,4410,62,64
4410,4416,63,64
4416,4422,67,64
4422,4428,70,64
4428,4434,69,64
4434,4440,70,64
4440,4446,75,64
4446,4452,79,64
4452,4458,78,64
4458,4464,79,64
4464,4470,82,64
4470,4476,73,64
4476,4479,69,64
4479,4482,71,64
4482,4488,73,64
4488,4494,76,64
4494,4500,67,64
4500,4503,70,64
4503,4506,69,64
4506,4512,67,64
4512,4515,65,64
4515,4518,64,64
4518,4524,65,64
4524,4527,69,64
4527,4530,67,64
4530,4536,65,64
4536,4539,64,64
4539,4542,62,64
4542,4548,57,64
4548,4554,64,64
4554,4560,74,64
4560,4566,73,64
4566,4602,62,64
4566,4602,74,64
4608,4614,76,64
4614,4632,76,64
4614,4632,76,64
4632,4638,77,64
4638,4644,76,64
4644,4650,74,64
4650,4656,73,64
4656,4662,71,64
4662,4668,69,64
4668,4671,67,64
4671,4674,69,64
4674,4680,70,64
4680,4686,69,64
4686,4692,67,64
4692,4698,65,64
4698,4704,64,64
4704,4710,65,64
4710,4716,67,64
4716,4722,65,64
4722,4728,64,64
4728,4734,62,64
4734,4740,77,64
4740,4746,69,64
4746,4752,70,64
4752,4758,62,64
4758,4764,60,64
4764,4770,67,64
4770,4776,70,64
4776,4782,75,64
4782,4788,69,64
4788,4794,72,64
4794,4800,77,64
4800,4806,75,64
4806,4812,74,64
4812,4818,69,64
4818,4824,70,64
4824,4830,74,64
4830,4836,63,64
4836,4842,67,64
4842,4848,69,64
4848,4854,71,64
4854,4860,72,64
4860,4866,74,64
4866,4872,75,64
4872,4878,72,64
4878,4882,81,64
4882,4886,79,64
4886,4890,78,64
4890,4894,79,64
4894,4898,78,64
4898,4902,76,64
4902,4908,78,64
4908,4911,72,64
4911,4914,74,64
4914,4920,75,64
4920,4926,74,64
4926,4932,72,64
4932,4935,70,64
4935,4938,69,64
4938,4944,74,64
4944,4950,72,64
4950,4956,70,64
4956,4959,72,64
4959,4962,74,64
4962,4968,75,64
4968,4974,79,64
4974,4980,69,64
4980,4983,70,64
4983,4986,72,64
4986,4992,74,64
4992,4998,77,64
4998,5004,67,64
5004,5007,69,64
5007,5010,70,64
5010,5016,72,64
5016,5022,75,64
5022,5028,65,64
5028,5031,67,64
5031,5034,69,64
5034,5040,70,64
5040,5046,74,64
5046,5052,63,64
5052,5055,79,64
5055,5058,77,64
5058,5064,75,64
5064,5067,72,64
5067,5070,70,64
5070,5076,69,64
5076,5079,72,64
5079,5082,70,64
5082,5088,69,64
5088,5091,66,64
5091,5094,64,64
5094,5100,62,64
5100,5106,66,64
5106,5112,69,64
5112,5118,72,64
5118,5122,75,64
5122,5126,74,64
5126,5130,72,64
5130,5134,78,64
5134,5138,76,64
5138,5142,74,64
5142,5148,82,64
5148,5151,81,64
5151,5154,79,64
5154,5160,78,64
5160,5166,79,64
5166,5170,70,64
5170,5174,72,64
5174,5178,74,64
5178,5182,72,64
5182,5186,70,64
5186,5190,69,64
5190,5208,67,64
5208,5214,69,64
5214,5220,70,64
5220,5226,72,64
5226,5232,74,64
5232,5238,65,64
5238,5244,64,64
5244,5250,60,64
5250,5256,64,64
5256,5262,67,64
5262,5268,70,64
5268,5271,76,64
5271,5274,77,64
5274,5280,79,64
5280,5286,70,64
5286,5292,69,64
5292,5298,65,64
5298,5304,69,64
5304,5310,72,64
5310,5316,77,64
5316,5322,69,64
5322,5328,67,64
5328,5334,65,64
5334,5340,60,64
5340,5346,67,64
5346,5352,72,64
5352,5358,74,64
5358,5364,76,64
5364,5370,70,64
5370,5376,69,64
5376,5382,67,64
5382,5388,65,64
5388,5394,62,64
5394,5400,65,64
5400,5406,69,64
5406,5412,74,64
5412,5418,65,64
5418,5424,64,64
5424,5430,62,64
5430,5436,57,64
5436,5442,64,64
5442,5448,69,64
5448,5454,70,64
5454,5460,72,64
5460,5466,67,64
5466,5472,65,64
5472,5478,63,64
5478,5484,62,64
5484,5490,58,64
5490,5496,62,64
5496,5502,65,64
5502,5508,70,64
5508,5514,69,64
5514,5520,67,64
5520,5526,65,64
5526,5532,76,64
5532,5535,77,64
5535,5538,79,64
5538,5544,77,64
5544,5550,76,64
5550,5556,74,64
5556,5562,72,64
5562,5568,70,64
5568,5574,79,64
5574,5577,69,64
5577,5580,67,64
5580,5583,65,64
5583,5586,64,64
5586,5592,65,64
5592,5598,58,64
5598,5604,60,64
5604,5610,64,64
5610,5616,67,64
5616,5622,69,64
5622,5628,70,64
5628,5634,69,64
5634,5640,67,64
5640,5646,65,64
5646,5652,81,64
5652,5658,76,64
5658,5664,77,64
5664,5670,74,64
5670,5676,71,64
5676,5682,74,64
5682,5688,77,64
5688,5694,81,64
5694,5700,79,64
5700,5706,76,64
5706,5712,73,64
5712,5718,79,64
5718,5724,62,64
5724,5730,69,64
5730,5736,73,64
5736,5742,79,64
5742,5748,77,64
5748,5754,73,64
5754,5760,74,64
5760,5766,70,64
5766,5772,67,64
5772,5778,70,64
5778,5784,74,64
5784,5790,77,64
5790,5796,75,64
5796,5802,72,64
5802,5808,69,64
5808,5814,75,64
5814,5820,58,64
5820,5826,65,64
5826,5832,69,64
5832,5838,75,64
5838,5844,74,64
5844,5850,69,64
5850,5856,70,64
5856,5862,67,64
5862,5868,64,64
5868,5874,67,64
5874,5880,70,64
5880,5886,74,64
5886,5892,72,64
5892,5898,69,64
5898,5904,66,64
5904,5910,72,64
5910,5916,70,64
5916,5922,69,64
5922,5928,67,64
5928,5934,65,64
5934,5940,63,64
5940,5946,62,64
5946,5952,63,64
5952,5958,67,64
5958,5964,70,64
5964,5970,69,64
5970,5976,70,64
5976,5982,75,64
5982,5988,79,64
5988,5994,78,64
5994,6000,79,64
6000,6006,82,64
6006,6012,73,64
6012,6015,69,64
6015,6018,71,64
6018,6024,73,64
6024,6030,76,64
6030,6036,67,64
6036,6039,70,64
6039,6042,69,64
6042,6048,67,64
6048,6051,65,64
6051,6054,64,64
6054,6060,65,64
6060,6063,69,64
6063,6066,67,64
6066,6072,65,64
6072,6075,64,64
6075,6078,62,64
6078,6084,57,64
6084,6090,64,64
6090,6096,74,64
6096,6102,73,64
6102,6138,62,64
6102,6138,74,64
