onset,offset,pitch,velocity
0,12,71,64
12,36,83,64
36,72,80,64
72,84,81,64
84,108,78,64
108,132,80,64
132,156,76,64
144,156,64,64
156,180,76,64
156,180,80,64
180,216,75,64
180,216,78,64
216,228,76,64
216,228,80,64
228,252,73,64
228,252,81,64
252,264,81,64
252,276,71,64
264,276,78,64
276,300,75,64
300,324,68,64
300,324,76,64
324,360,73,64
324,372,69,64
360,372,75,64
372,396,68,64
372,396,76,64
396,432,69,64
396,444,66,64
432,444,68,64
444,468,59,64
444,468,69,64
468,492,64,64
468,492,69,64
492,510,68,64
510,516,69,64
516,540,66,64
540,552,69,64
552,564,68,64
564,576,66,64
576,588,64,64
588,612,80,64
612,648,73,64
648,660,75,64
660,684,66,64
660,684,72,64
684,708,64,64
684,708,73,64
708,732,80,64
732,744,78,64
744,756,76,64
756,780,75,64
780,798,73,64
798,804,75,64
804,828,65,64
804,828,71,64
828,852,66,64
828,852,71,64
852,870,70,64
870,876,73,64
876,900,66,64
876,900,75,64
900,924,75,64
900,948,68,64
924,942,76,64
942,948,80,64
948,972,70,64
948,972,78,64
972,996,78,64
972,1020,71,64
996,1014,80,64
1014,1020,83,64
1020,1044,73,64
1020,1044,82,64
1044,1068,75,64
1044,1068,83,64
1068,1080,82,64
1068,1092,76,64
1080,1092,80,64
1092,1098,82,64
1092,1116,73,64
1098,1104,83,64
1104,1116,85,64
1116,1140,78,64
1116,1140,82,64
1140,1152,80,64
1152,1164,78,64
1164,1188,85,64
1188,1224,76,64
1224,1236,78,64
1236,1260,66,64
1236,1260,75,64
1260,1272,76,64
1260,1284,58,64
1260,1284,66,64
1272,1284,75,64
1284,1308,76,64
1308,1332,85,64
1332,1338,83,64
1338,1356,82,64
1356,1362,80,64
1362,1374,78,64
1374,1380,75,64
1380,1404,58,64
1380,1404,66,64
1380,1404,76,64
1404,1428,59,64
1404,1428,66,64
1404,1428,76,64
1428,1446,75,64
1446,1452,78,64
1452,1476,64,64
1452,1476,70,64
1476,1484,66,64
1484,1492,70,64
1492,1500,73,64
1500,1524,76,64
1524,1532,75,64
1524,1548,66,64
1532,1540,76,64
1540,1548,73,64
1548,1584,59,64
1548,1584,66,64
1548,1584,71,64
1584,1596,71,64
1596,1620,83,64
1620,1656,80,64
1656,1668,81,64
1668,1692,78,64
1692,1716,80,64
1716,1740,76,64
1728,1740,64,64
1740,1764,76,64
1740,1764,80,64
1764,1800,75,64
1764,1800,78,64
1800,1812,76,64
1800,1812,80,64
1812,1836,73,64
1812,1836,81,64
1836,1848,81,64
1836,1860,71,64
1848,1860,78,64
1860,1884,75,64
1884,1908,68,64
1884,1908,76,64
1908,1944,73,64
1908,1956,69,64
1944,1956,75,64
1956,1980,68,64
1956,1980,76,64
1980,2016,69,64
1980,2028,66,64
2016,2028,68,64
2028,2052,59,64
2028,2052,69,64
2052,2076,64,64
2052,2076,69,64
2076,2094,68,64
2094,2100,69,64
2100,2124,66,64
2124,2136,69,64
2136,2148,68,64
2148,2160,66,64
2160,2172,64,64
2172,2196,80,64
2196,2232,73,64
2232,2244,75,64
2244,2268,66,64
2244,2268,72,64
2268,2292,64,64
2268,2292,73,64
2292,2316,80,64
2316,2328,78,64
2328,2340,76,64
2340,2364,75,64
2364,2382,73,64
2382,2388,75,64
2388,2412,65,64
2388,2412,71,64
2412,2436,66,64
2412,2436,71,64
2436,2454,70,64
2454,2460,73,64
2460,2484,66,64
2460,2484,75,64
2484,2508,75,64
2484,2532,68,64
2508,2526,76,64
2526,2532,80,64
2532,2556,70,64
2532,2556,78,64
2556,2580,78,64
2556,2604,71,64
2580,2598,80,64
2598,2604,83,64
2604,2628,73,64
2604,2628,82,64
2628,2652,75,64
2628,2652,83,64
2652,2664,82,64
2652,2676,76,64
2664,2676,80,64
2676,2682,82,64
2676,2700,73,64
2682,2688,83,64
2688,2700,85,64
2700,2724,78,64
2700,2724,82,64
2724,2736,80,64
2736,2748,78,64
2748,2772,85,64
2772,2808,76,64
2808,2820,78,64
2820,2844,66,64
2820,2844,75,64
2844,2856,76,64
2844,2868,58,64
2844,2868,66,64
2856,2868,75,64
2868,2892,76,64
2892,2916,85,64
2916,2922,83,64
2922,2940,82,64
2940,2946,80,64
2946,2958,78,64
2958,2964,75,64
2964,2988,58,64
2964,2988,66,64
2964,2988,76,64
2988,3012,59,64
2988,3012,66,64
2988,3012,76,64
3012,3030,75,64
3030,3036,78,64
3036,3060,64,64
3036,3060,70,64
3060,3068,66,64
3068,3076,70,64
3076,3084,73,64
3084,3108,76,64
3108,3116,75,64
3108,3132,66,64
3116,3124,76,64
3124,3132,73,64
3132,3168,59,64
3132,3168,66,64
3132,3168,71,64
3168,3180,78,64
3180,3204,80,64
3204,3240,81,64
3240,3252,73,64
3240,3252,83,64
3252,3276,75,64
3252,3276,81,64
3276,3300,80,64
3276,3312,76,64
3300,3312,78,64
3312,3324,74,64
3312,3324,76,64
3324,3348,73,64
3324,3348,81,64
3348,3372,74,64
3348,3384,78,64
3372,3396,73,64
3384,3396,78,64
3396,3408,81,64
3396,3420,71,64
3408,3420,80,64
3420,3432,78,64
3420,3444,73,64
3432,3444,77,64
3444,3456,75,64
3456,3468,73,64
3468,3492,83,64
3492,3528,65,64
3492,3528,73,64
3492,3528,83,64
3528,3540,81,64
3540,3546,80,64
3546,3552,78,64
3552,3564,80,64
3564,3588,66,64
3564,3588,73,64
3564,3588,81,64
3588,3612,74,64
3588,3612,78,64
3612,3624,80,64
3612,3636,71,64
3624,3636,81,64
3636,3660,78,64
3636,3684,73,64
3660,3684,77,64
3684,3708,78,64
3708,3744,66,64
3708,3744,69,64
3708,3744,78,64
3744,3756,80,64
3756,3780,81,64
3780,3816,75,64
3816,3828,73,64
3828,3852,69,64
3828,3852,71,64
3852,3888,68,64
3852,3888,71,64
3852,3888,76,64
3888,3900,78,64
3900,3924,64,64
3900,3924,71,64
3900,3924,80,64
3924,3948,69,64
3924,3948,73,64
3924,3948,80,64
3948,3966,78,64
3966,3972,80,64
3972,3996,66,64
3972,3996,73,64
3972,3996,81,64
3996,4020,81,64
3996,4044,72,64
4020,4038,80,64
4038,4044,78,64
4044,4068,73,64
4044,4068,76,64
4068,4092,66,64
4068,4104,75,64
4092,4116,68,64
4104,4116,76,64
4116,4140,69,64
4116,4140,73,64
4140,4176,68,64
4140,4176,72,64
4140,4176,80,64
4176,4188,75,64
4188,4212,83,64
4212,4236,83,64
4212,4260,73,64
4236,4254,82,64
4254,4260,85,64
4260,4284,79,64
4284,4308,76,64
4284,4320,67,64
4308,4326,75,64
4326,4332,85,64
4332,4356,68,64
4332,4356,75,64
4332,4356,83,64
4356,4368,83,64
4356,4380,73,64
4368,4380,82,64
4380,4392,83,64
4380,4404,75,64
4392,4404,82,64
4404,4416,80,64
4416,4422,82,64
4422,4428,79,64
4428,4464,68,64
4428,4464,71,64
4428,4464,80,64
4464,4470,80,64
4470,4476,81,64
4476,4494,81,64
4494,4497,80,64
4497,4500,81,64
4500,4536,83,64
4536,4548,81,64
4548,4572,65,64
4548,4572,73,64
4548,4572,80,64
4572,4596,66,64
4572,4596,73,64
4572,4596,81,64
4596,4608,80,64
4608,4620,78,64
4620,4644,64,64
4620,4644,73,64
4620,4644,81,64
4644,4656,63,64
4644,4656,71,64
4656,4668,75,64
4668,4680,78,64
4680,4692,83,64
4692,4704,81,64
4692,4716,64,64
4692,4716,71,64
4704,4716,80,64
4716,4740,80,64
4716,4752,71,64
4740,4758,78,64
4758,4764,71,64
4764,4782,73,64
4782,4785,71,64
4785,4788,73,64
4788,4824,74,64
4824,4836,66,64
4824,4836,76,64
4836,4860,68,64
4836,4860,74,64
4860,4884,69,64
4860,4884,73,64
4884,4896,73,64
4884,4908,66,64
4896,4920,75,64
4908,4932,64,64
4920,4932,76,64
4932,4956,76,64
4932,4980,59,64
4932,4980,66,64
4956,4980,75,64
4980,5004,76,64
5004,5040,64,64
5004,5040,76,64
5040,5052,78,64
5052,5076,80,64
5076,5112,81,64
5112,5124,73,64
5112,5124,83,64
5124,5148,75,64
5124,5148,81,64
5148,5172,80,64
5148,5184,76,64
5172,5184,78,64
5184,5196,74,64
5184,5196,76,64
5196,5220,73,64
5196,5220,81,64
5220,5244,74,64
5220,5256,78,64
5244,5268,73,64
5256,5268,78,64
5268,5280,81,64
5268,5292,71,64
5280,5292,80,64
5292,5304,78,64
5292,5316,73,64
5304,5316,77,64
5316,5328,75,64
5328,5340,73,64
5340,5364,83,64
5364,5400,65,64
5364,5400,73,64
5364,5400,83,64
5400,5412,81,64
5412,5418,80,64
5418,5424,78,64
5424,5436,80,64
5436,5460,66,64
5436,5460,73,64
5436,5460,81,64
5460,5484,74,64
5460,5484,78,64
5484,5496,80,64
5484,5508,71,64
5496,5508,81,64
5508,5532,78,64
5508,5556,73,64
5532,5556,77,64
5556,5580,78,64
5580,5616,66,64
5580,5616,69,64
5580,5616,78,64
5616,5628,80,64
5628,5652,81,64
5652,5688,75,64
5688,5700,73,64
5700,5724,69,64
5700,5724,71,64
5724,5760,68,64
5724,5760,71,64
5724,5760,76,64
5760,5772,78,64
5772,5796,64,64
5772,5796,71,64
5772,5796,80,64
5796,5820,69,64
5796,5820,73,64
5796,5820,80,64
5820,5838,78,64
5838,5844,80,64
5844,5868,66,64
5844,5868,73,64
5844,5868,81,64
5868,5892,81,64
5868,5916,72,64
5892,5910,80,64
5910,5916,78,64
5916,5940,73,64
5916,5940,76,64
5940,5964,66,64
5940,5976,75,64
5964,5988,68,64
5976,5988,76,64
5988,6012,69,64
5988,6012,73,64
6012,6048,68,64
6012,6048,72,64
6012,6048,80,64
6048,6060,75,64
6060,6084,83,64
6084,6108,83,64
6084,6132,73,64
6108,6126,82,64
6126,6132,85,64
6132,6156,79,64
6156,6180,76,64
6156,6192,67,64
6180,6198,75,64
6198,6204,85,64
6204,6228,68,64
6204,6228,75,64
6204,6228,83,64
6228,6240,83,64
6228,6252,73,64
6240,6252,82,64
6252,6264,83,64
6252,6276,75,64
6264,6276,82,64
6276,6288,80,64
6288,6294,82,64
6294,6300,79,64
6300,6336,68,64
6300,6336,71,64
6300,6336,80,64
6336,6342,80,64
6342,6348,81,64
6348,6366,81,64
6366,6369,80,64
6369,6372,81,64
6372,6408,83,64
6408,6420,81,64
6420,6444,65,64
6420,6444,73,64
6420,6444,80,64
6444,6468,66,64
6444,6468,73,64
6444,6468,81,64
6468,6480,80,64
6480,6492,78,64
6492,6516,64,64
6492,6516,73,64
6492,6516,81,64
6516,6528,63,64
6516,6528,71,64
6528,6540,75,64
6540,6552,78,64
6552,6564,83,64
6564,6576,81,64
6564,6588,64,64
6564,6588,71,64
6576,6588,80,64
6588,6612,80,64
6588,6624,71,64
6612,6630,78,64
6630,6636,71,64
6636,6654,73,64
6654,6657,71,64
6657,6660,73,64
6660,6696,74,64
6696,6708,66,64
6696,6708,76,64
6708,6732,68,64
6708,6732,74,64
6732,6756,69,64
6732,6756,73,64
6756,6768,73,64
6756,6780,66,64
6768,6792,75,64
6780,6804,64,64
6792,6804,76,64
6804,6828,76,64
6804,6852,59,64
6804,6852,66,64
6828,6852,75,64
6852,6876,76,64
6876,6912,64,64
6876,6912,76,64
