onset,offset,pitch,velocity
0,36,69,64
0,48,62,64
0,48,65,64
36,48,69,64
48,72,62,64
48,72,67,64
48,72,70,64
48,72,76,64
72,108,76,64
72,120,61,64
72,120,67,64
72,120,69,64
108,120,76,64
120,144,62,64
120,144,65,64
120,144,69,64
120,144,77,64
144,180,74,64
144,192,58,64
144,192,65,64
180,192,72,64
192,216,55,64
192,216,67,64
192,216,70,64
216,240,57,64
216,240,65,64
216,240,69,64
240,246,67,64
240,264,61,64
246,252,65,64
252,258,64,64
258,264,65,64
264,270,67,64
264,276,62,64
270,276,64,64
276,282,65,64
282,288,62,64
288,324,69,64
288,336,62,64
288,336,65,64
324,336,69,64
336,360,62,64
336,360,67,64
336,360,70,64
336,360,76,64
360,396,76,64
360,408,61,64
360,408,67,64
360,408,69,64
396,408,76,64
408,432,62,64
408,432,65,64
408,432,69,64
408,432,77,64
432,468,74,64
432,480,58,64
432,480,65,64
468,480,74,64
480,504,55,64
480,504,64,64
480,504,74,64
480,504,82,64
504,522,57,64
504,522,64,64
504,522,73,64
504,522,81,64
522,525,79,64
525,528,77,64
528,546,79,64
546,552,76,64
552,564,74,64
552,564,77,64
552,570,62,64
570,576,64,64
576,594,65,64
594,597,67,64
597,600,69,64
600,618,70,64
618,624,69,64
624,636,62,64
624,636,70,64
624,636,76,64
624,642,67,64
642,648,65,64
648,660,61,64
648,660,69,64
648,660,76,64
648,666,67,64
666,672,70,64
672,690,69,64
690,696,67,64
696,708,62,64
696,708,69,64
696,708,76,64
696,714,65,64
714,720,64,64
720,732,58,64
720,738,65,64
720,738,74,64
738,744,69,64
738,744,77,64
744,762,67,64
744,762,76,64
762,768,55,64
762,768,65,64
762,768,74,64
768,780,57,64
768,780,74,64
768,786,64,64
786,792,62,64
792,804,73,64
792,810,64,64
810,816,67,64
816,834,65,64
834,840,57,64
834,840,64,64
834,840,73,64
834,840,81,64
840,852,74,64
840,852,77,64
840,858,62,64
840,858,62,64
858,864,64,64
864,882,65,64
882,885,67,64
885,888,69,64
888,906,70,64
906,912,69,64
912,924,62,64
912,924,70,64
912,924,76,64
912,930,67,64
930,936,65,64
936,948,61,64
936,948,69,64
936,948,76,64
936,954,67,64
954,960,70,64
960,978,69,64
978,984,67,64
984,996,62,64
984,996,69,64
984,996,76,64
984,1002,65,64
1002,1008,64,64
1008,1020,58,64
1008,1026,65,64
1008,1026,74,64
1026,1032,69,64
1026,1032,77,64
1032,1050,67,64
1032,1050,76,64
1050,1056,58,64
1050,1056,64,64
1050,1056,73,64
1056,1074,57,64
1056,1074,65,64
1056,1074,74,64
1074,1080,55,64
1074,1080,67,64
1074,1080,76,64
1080,1104,74,64
1080,1128,57,64
1080,1128,67,64
1104,1122,73,64
1122,1128,74,64
1128,1140,62,64
1128,1140,62,64
1128,1146,74,64
1146,1152,76,64
1152,1170,77,64
1170,1173,79,64
1173,1176,81,64
1176,1194,82,64
1194,1200,74,64
1194,1200,77,64
1200,1218,76,64
1200,1224,73,64
1218,1224,82,64
1224,1242,81,64
1224,1248,72,64
1242,1248,79,64
1248,1266,81,64
1266,1272,72,64
1266,1272,78,64
1272,1290,79,64
1272,1296,71,64
1290,1296,77,64
1296,1314,76,64
1296,1320,70,64
1314,1317,74,64
1317,1320,73,64
1320,1338,74,64
1338,1344,70,64
1338,1344,76,64
1344,1362,69,64
1344,1362,77,64
1362,1368,71,64
1362,1368,79,64
1368,1386,73,64
1368,1386,76,64
1386,1392,74,64
1386,1392,77,64
1392,1410,76,64
1392,1410,79,64
1410,1416,73,64
1410,1416,76,64
1416,1434,74,64
1416,1434,77,64
1434,1437,74,64
1437,1440,76,64
1440,1458,77,64
1458,1461,79,64
1461,1464,81,64
1464,1482,82,64
1482,1488,74,64
1482,1488,77,64
1488,1506,76,64
1488,1512,73,64
1506,1512,82,64
1512,1530,81,64
1512,1536,72,64
1530,1536,79,64
1536,1554,81,64
1554,1560,72,64
1554,1560,78,64
1560,1578,79,64
1560,1584,71,64
1578,1584,77,64
1584,1602,76,64
1584,1608,70,64
1602,1605,74,64
1605,1608,73,64
1608,1626,74,64
1626,1632,68,64
1626,1632,74,64
1626,1632,76,64
1632,1650,77,64
1632,1656,69,64
1632,1656,74,64
1650,1656,79,64
1656,1674,74,64
1656,1680,69,64
1656,1680,76,64
1674,1677,73,64
1677,1680,71,64
1680,1698,73,64
1698,1704,57,64
1698,1704,67,64
1704,1716,62,64
1704,1716,65,64
1716,1728,77,64
1728,1740,76,64
1740,1752,74,64
1752,1764,73,64
1764,1776,74,64
1776,1788,62,64
1776,1788,67,64
1788,1794,69,64
1794,1800,70,64
1800,1812,61,64
1812,1824,70,64
1824,1836,69,64
1836,1848,67,64
1848,1860,62,64
1848,1860,65,64
1860,1866,67,64
1866,1872,69,64
1872,1884,58,64
1884,1896,62,64
1896,1908,67,64
1908,1914,74,64
1914,1920,73,64
1920,1932,74,64
1932,1944,55,64
1932,1944,65,64
1944,1950,64,64
1944,1956,57,64
1950,1956,65,64
1956,1962,67,64
1962,1968,70,64
1968,1974,69,64
1974,1980,67,64
1980,1986,65,64
1986,1992,64,64
1992,1998,62,64
1992,1998,65,64
1998,2004,69,64
2004,2010,74,64
2010,2016,77,64
2016,2022,77,64
2022,2028,76,64
2028,2034,79,64
2034,2040,77,64
2040,2046,76,64
2046,2052,74,64
2052,2058,73,64
2058,2064,74,64
2064,2070,67,64
2070,2076,70,64
2076,2082,66,64
2082,2088,67,64
2088,2094,61,64
2094,2100,64,64
2100,2106,67,64
2106,2112,70,64
2112,2118,69,64
2118,2124,67,64
2124,2130,76,64
2130,2136,67,64
2136,2142,65,64
2142,2148,61,64
2148,2154,62,64
2154,2160,57,64
2160,2166,58,64
2166,2172,62,64
2172,2178,67,64
2178,2184,69,64
2184,2190,70,64
2190,2196,75,64
2196,2202,73,64
2202,2208,74,64
2208,2214,68,64
2214,2220,71,64
2220,2226,74,64
2226,2232,77,64
2232,2238,76,64
2238,2244,79,64
2244,2250,73,64
2250,2256,74,64
2256,2262,57,64
2262,2268,64,64
2268,2274,74,64
2274,2280,73,64
2280,2292,74,64
2292,2304,77,64
2304,2316,82,64
2316,2328,81,64
2328,2340,80,64
2340,2352,62,64
2352,2364,61,64
2364,2376,76,64
2376,2388,81,64
2388,2400,79,64
2400,2412,78,64
2412,2424,60,64
2424,2436,59,64
2436,2448,74,64
2448,2460,79,64
2460,2472,77,64
2472,2484,76,64
2484,2496,58,64
2496,2502,57,64
2502,2508,77,64
2508,2514,76,64
2514,2520,74,64
2520,2532,73,64
2532,2544,69,64
2544,2556,76,64
2556,2568,67,64
2568,2574,65,64
2574,2580,62,64
2580,2586,65,64
2586,2592,69,64
2592,2598,74,64
2598,2604,77,64
2604,2610,82,64
2610,2616,81,64
2616,2622,80,64
2622,2628,83,64
2628,2634,80,64
2634,2640,76,64
2640,2646,73,64
2646,2652,76,64
2652,2658,81,64
2658,2664,79,64
2664,2670,78,64
2670,2676,81,64
2676,2682,78,64
2682,2688,72,64
2688,2694,69,64
2694,2700,66,64
2700,2706,62,64
2706,2712,60,64
2712,2718,59,64
2718,2724,62,64
2724,2730,67,64
2730,2736,66,64
2736,2742,67,64
2742,2748,75,64
2748,2754,74,64
2754,2760,73,64
2760,2766,82,64
2766,2772,81,64
2772,2778,80,64
2778,2784,81,64
2784,2790,77,64
2790,2796,76,64
2796,2802,74,64
2802,2808,72,64
2808,2814,70,64
2814,2820,69,64
2820,2826,68,64
2826,2832,69,64
2832,2838,61,64
2838,2844,67,64
2844,2850,65,64
2850,2856,64,64
2856,2862,65,64
2862,2868,62,64
2868,2874,64,64
2874,2880,65,64
2880,2886,67,64
2886,2892,69,64
2892,2898,71,64
2898,2904,73,64
2904,2910,74,64
2910,2916,65,64
2916,2922,64,64
2922,2928,62,64
2928,2934,57,64
2934,2940,64,64
2940,2946,74,64
2946,2952,73,64
2952,2958,62,64
2958,2964,66,64
2964,2970,69,64
2970,2976,72,64
2976,2982,72,64
2982,2988,70,64
2988,2994,72,64
2994,3000,69,64
3000,3006,70,64
3006,3012,67,64
3012,3018,65,64
3018,3024,63,64
3024,3030,62,64
3030,3036,60,64
3036,3042,58,64
3042,3048,57,64
3048,3054,55,64
3054,3060,67,64
3060,3066,75,64
3066,3072,74,64
3072,3078,73,64
3078,3084,76,64
3084,3090,69,64
3090,3096,67,64
3096,3102,65,64
3102,3108,74,64
3108,3114,64,64
3114,3120,62,64
3120,3126,57,64
3126,3132,64,64
3132,3138,74,64
3138,3144,73,64
3144,3150,79,64
3150,3156,76,64
3156,3162,77,64
3162,3168,73,64
3168,3174,74,64
3174,3180,72,64
3180,3186,70,64
3186,3192,69,64
3192,3198,67,64
3198,3204,65,64
3204,3210,64,64
3210,3216,62,64
3216,3222,61,64
3222,3228,70,64
3228,3234,69,64
3234,3240,67,64
3240,3246,66,64
3246,3252,62,64
3252,3258,69,64
3258,3264,62,64
3264,3270,60,64
3270,3276,58,64
3276,3282,60,64
3282,3288,57,64
3288,3294,58,64
3294,3300,55,64
3300,3306,57,64
3306,3312,58,64
3312,3318,60,64
3318,3324,62,64
3324,3330,64,64
3330,3336,66,64
3336,3342,67,64
3342,3348,69,64
3348,3354,70,64
3354,3360,69,64
3360,3366,68,64
3366,3372,69,64
3372,3378,64,64
3378,3384,65,64
3384,3390,67,64
3390,3396,61,64
3396,3402,62,64
3402,3408,56,64
3408,3414,57,64
3414,3420,65,64
3420,3426,64,64
3426,3432,61,64
3432,3438,62,64
3438,3444,74,64
3444,3450,69,64
3450,3456,67,64
3456,3462,65,64
3462,3468,64,64
3468,3474,62,64
3474,3480,60,64
3480,3486,58,64
3486,3492,74,64
3492,3498,67,64
3498,3504,65,64
3504,3510,64,64
3510,3516,72,64
3516,3522,67,64
3522,3528,65,64
3528,3534,64,64
3534,3540,62,64
3540,3546,60,64
3546,3552,58,64
3552,3558,57,64
3558,3564,72,64
3564,3570,65,64
3570,3576,63,64
3576,3582,62,64
3582,3588,70,64
3588,3594,65,64
3594,3600,63,64
3600,3606,62,64
3606,3612,60,64
3612,3618,58,64
3618,3624,57,64
3624,3630,55,64
3630,3636,70,64
3636,3642,64,64
3642,3648,62,64
3648,3654,61,64
3654,3660,57,64
3660,3666,61,64
3666,3672,64,64
3672,3678,69,64
3678,3684,64,64
3684,3690,69,64
3690,3696,73,64
3696,3702,76,64
3702,3708,67,64
3708,3714,69,64
3714,3720,64,64
3720,3726,65,64
3726,3732,62,64
3732,3738,65,64
3738,3744,69,64
3744,3750,74,64
3750,3756,69,64
3756,3762,74,64
3762,3768,77,64
3768,3774,70,64
3774,3780,79,64
3780,3786,81,64
3786,3792,82,64
3792,3798,76,64
3798,3804,60,64
3804,3810,64,64
3810,3816,67,64
3816,3822,72,64
3822,3828,67,64
3828,3834,72,64
3834,3840,76,64
3840,3846,69,64
3846,3852,77,64
3852,3858,79,64
3858,3864,81,64
3864,3870,74,64
3870,3876,58,64
3876,3882,62,64
3882,3888,65,64
3888,3894,70,64
3894,3900,65,64
3900,3906,70,64
3906,3912,74,64
3912,3918,67,64
3918,3924,76,64
3924,3930,77,64
3930,3936,79,64
3936,3942,73,64
3942,3948,69,64
3948,3954,73,64
3954,3960,76,64
3960,3966,81,64
3966,3972,76,64
3972,3978,81,64
3978,3984,85,64
3984,3990,88,64
3990,3996,79,64
3996,4002,77,64
4002,4008,76,64
4008,4020,74,64
4008,4020,77,64
4020,4032,69,64
4032,4044,62,64
4044,4056,74,64
4044,4056,77,64
4056,4062,70,64
4056,4068,79,64
4062,4068,69,64
4068,4074,70,64
4074,4080,67,64
4080,4092,72,64
4080,4092,76,64
4092,4104,67,64
4104,4116,60,64
4116,4128,72,64
4116,4128,76,64
4128,4134,69,64
4128,4140,77,64
4134,4140,67,64
4140,4146,69,64
4146,4152,65,64
4152,4164,70,64
4152,4164,74,64
4164,4176,65,64
4176,4188,58,64
4188,4200,70,64
4188,4200,74,64
4200,4206,67,64
4200,4212,76,64
4206,4212,65,64
4212,4218,67,64
4218,4224,64,64
4224,4230,65,64
4224,4236,69,64
4230,4236,64,64
4236,4242,65,64
4236,4248,74,64
4242,4248,62,64
4248,4254,74,64
4248,4260,57,64
4248,4260,64,64
4254,4260,73,64
4260,4266,74,64
4260,4272,81,64
4266,4272,71,64
4272,4278,81,64
4272,4284,73,64
4278,4284,79,64
4284,4290,81,64
4290,4296,76,64
4296,4302,74,64
4296,4308,77,64
4302,4308,73,64
4308,4314,74,64
4314,4320,69,64
4320,4326,65,64
4320,4332,74,64
4326,4332,64,64
4332,4338,65,64
4338,4344,62,64
4344,4350,58,64
4350,4356,67,64
4356,4362,74,64
4362,4368,82,64
4368,4374,72,64
4368,4380,76,64
4374,4380,71,64
4380,4386,72,64
4386,4392,67,64
4392,4398,64,64
4392,4404,72,64
4398,4404,62,64
4404,4410,64,64
4410,4416,60,64
4416,4422,57,64
4422,4428,65,64
4428,4434,72,64
4434,4440,81,64
4440,4446,65,64
4440,4452,74,64
4446,4452,63,64
4452,4458,65,64
4458,4464,62,64
4464,4470,62,64
4464,4476,70,64
4470,4476,60,64
4476,4482,62,64
4482,4488,58,64
4488,4494,55,64
4494,4500,64,64
4500,4506,71,64
4506,4512,79,64
4512,4518,57,64
4518,4524,64,64
4524,4530,73,64
4530,4536,79,64
4536,4542,57,64
4542,4548,65,64
4548,4554,74,64
4554,4560,77,64
4560,4566,57,64
4566,4572,67,64
4572,4578,73,64
4578,4584,76,64
4584,4590,62,64
4584,4590,74,64
4590,4593,69,64
4593,4596,67,64
4596,4602,65,64
4602,4608,64,64
4608,4614,62,64
4614,4620,60,64
4620,4626,58,64
4626,4632,57,64
4632,4638,58,64
4638,4641,74,64
4641,4644,72,64
4644,4647,70,64
4647,4650,69,64
4650,4653,67,64
4653,4656,65,64
4656,4662,60,64
4656,4662,64,64
4662,4665,67,64
4665,4668,65,64
4668,4674,64,64
4674,4680,62,64
4680,4686,60,64
4686,4692,58,64
4692,4698,57,64
4698,4704,55,64
4704,4710,57,64
4710,4713,72,64
4713,4716,70,64
4716,4719,69,64
4719,4722,67,64
4722,4725,65,64
4725,4728,63,64
4728,4734,58,64
4728,4734,62,64
4734,4737,65,64
4737,4740,63,64
4740,4746,62,64
4746,4752,60,64
4752,4758,58,64
4758,4761,62,64
4761,4764,60,64
4764,4770,58,64
4770,4776,57,64
4776,4782,55,64
4782,4785,70,64
4785,4788,69,64
4788,4791,67,64
4791,4794,65,64
4794,4797,64,64
4797,4800,62,64
4800,4803,61,64
4803,4806,59,64
4806,4809,57,64
4809,4812,59,64
4812,4815,61,64
4815,4818,62,64
4818,4821,64,64
4821,4824,65,64
4824,4827,67,64
4827,4830,69,64
4830,4833,70,64
4833,4836,69,64
4836,4839,67,64
4839,4842,65,64
4842,4845,64,64
4845,4848,62,64
4848,4854,61,64
4854,4857,76,64
4857,4860,74,64
4860,4863,73,64
4863,4866,71,64
4866,4869,69,64
4869,4872,67,64
4872,4878,65,64
4878,4881,62,64
4881,4884,64,64
4884,4890,65,64
4890,4896,69,64
4896,4902,65,64
4902,4908,62,64
4908,4914,65,64
4914,4920,69,64
4920,4923,70,64
4923,4926,72,64
4926,4929,74,64
4929,4932,76,64
4932,4935,77,64
4935,4938,79,64
4938,4941,81,64
4941,4944,82,64
4944,4950,76,64
4950,4953,60,64
4953,4956,62,64
4956,4962,64,64
4962,4968,67,64
4968,4974,64,64
4974,4980,60,64
4980,4986,64,64
4986,4992,67,64
4992,4995,69,64
4995,4998,70,64
4998,5001,72,64
5001,5004,74,64
5004,5007,76,64
5007,5010,77,64
5010,5013,79,64
5013,5016,81,64
5016,5022,74,64
5022,5025,58,64
5025,5028,60,64
5028,5034,62,64
5034,5040,65,64
5040,5046,62,64
5046,5052,58,64
5052,5058,62,64
5058,5064,65,64
5064,5067,67,64
5067,5070,69,64
5070,5073,70,64
5073,5076,72,64
5076,5079,74,64
5079,5082,76,64
5082,5085,77,64
5085,5088,79,64
5088,5091,73,64
5091,5094,82,64
5094,5097,81,64
5097,5100,79,64
5100,5103,77,64
5103,5106,76,64
5106,5109,74,64
5109,5112,72,64
5112,5115,70,64
5115,5118,69,64
5118,5121,67,64
5121,5124,65,64
5124,5127,64,64
5127,5130,62,64
5130,5133,61,64
5133,5136,59,64
5136,5139,57,64
5139,5142,59,64
5142,5145,61,64
5145,5148,62,64
5148,5151,64,64
5151,5154,65,64
5154,5157,67,64
5157,5160,64,64
5160,5163,65,64
5163,5166,62,64
5166,5169,64,64
5169,5172,65,64
5172,5175,67,64
5175,5178,69,64
5178,5181,71,64
5181,5184,73,64
5184,5187,74,64
5187,5190,71,64
5190,5193,73,64
5193,5196,74,64
5196,5199,76,64
5199,5202,77,64
5202,5205,79,64
5205,5208,81,64
5208,5214,82,64
5214,5220,62,64
5220,5226,60,64
5226,5232,58,64
5232,5235,60,64
5235,5238,62,64
5238,5241,64,64
5241,5244,66,64
5244,5247,67,64
5247,5250,69,64
5250,5253,70,64
5253,5256,72,64
5256,5259,74,64
5259,5262,69,64
5262,5265,70,64
5265,5268,72,64
5268,5271,74,64
5271,5274,76,64
5274,5277,78,64
5277,5280,79,64
5280,5286,81,64
5286,5292,60,64
5292,5298,58,64
5298,5304,57,64
5304,5307,58,64
5307,5310,62,64
5310,5313,64,64
5313,5316,66,64
5316,5319,67,64
5319,5322,69,64
5322,5325,70,64
5325,5328,72,64
5328,5331,74,64
5331,5334,67,64
5334,5337,69,64
5337,5340,70,64
5340,5343,72,64
5343,5346,74,64
5346,5349,76,64
5349,5352,78,64
5352,5355,79,64
5355,5358,81,64
5358,5361,82,64
5361,5364,81,64
5364,5367,79,64
5367,5370,77,64
5370,5373,76,64
5373,5376,74,64
5376,5379,73,64
5379,5382,81,64
5382,5385,79,64
5385,5388,77,64
5388,5391,76,64
5391,5394,74,64
5394,5397,73,64
5397,5400,71,64
5400,5403,69,64
5403,5406,71,64
5406,5409,73,64
5409,5412,74,64
5412,5415,76,64
5415,5418,77,64
5418,5421,79,64
5421,5424,81,64
5424,5427,82,64
5427,5430,79,64
5430,5433,76,64
5433,5436,73,64
5436,5439,69,64
5439,5442,67,64
5442,5445,64,64
5445,5448,61,64
5448,5454,62,64
5454,5460,69,64
5460,5466,74,64
5466,5472,76,64
5472,5478,77,64
5478,5484,74,64
5484,5490,70,64
5490,5496,69,64
5496,5502,68,64
5502,5508,71,64
5508,5514,74,64
5514,5520,77,64
5520,5526,60,64
5526,5532,64,64
5532,5538,69,64
5538,5544,72,64
5544,5550,76,64
5550,5556,72,64
5556,5562,69,64
5562,5568,67,64
5568,5574,66,64
5574,5580,69,64
5580,5586,72,64
5586,5592,75,64
5592,5598,58,64
5598,5604,62,64
5604,5610,67,64
5610,5616,70,64
5616,5622,74,64
5622,5628,70,64
5628,5634,67,64
5634,5640,65,64
5640,5646,64,64
5646,5652,67,64
5652,5658,70,64
5658,5664,73,64
5664,5670,57,64
5670,5676,62,64
5676,5682,65,64
5682,5688,69,64
5688,5694,74,64
5694,5700,69,64
5700,5706,65,64
5706,5712,62,64
5712,5718,57,64
5718,5724,64,64
5724,5730,67,64
5730,5736,73,64
5736,5742,62,64
5742,5748,82,64
5748,5754,82,64
5754,5760,80,64
5760,5766,80,64
5766,5772,77,64
5772,5778,77,64
5778,5784,74,64
5784,5790,74,64
5790,5796,71,64
5796,5802,68,64
5802,5808,64,64
5808,5814,61,64
5814,5820,81,64
5820,5826,81,64
5826,5832,78,64
5832,5838,78,64
5838,5844,75,64
5844,5850,75,64
5850,5856,72,64
5856,5862,72,64
5862,5868,69,64
5868,5874,66,64
5874,5880,62,64
5880,5886,59,64
5886,5892,79,64
5892,5898,79,64
5898,5904,75,64
5904,5910,75,64
5910,5916,73,64
5916,5922,73,64
5922,5928,70,64
5928,5934,70,64
5934,5940,67,64
5940,5946,64,64
5946,5952,61,64
5952,5958,57,64
5958,5964,61,64
5964,5970,61,64
5970,5976,64,64
5976,5982,64,64
5982,5985,67,64
5985,5988,65,64
5988,5994,67,64
5994,5997,70,64
5997,6000,69,64
6000,6006,70,64
6006,6009,73,64
6009,6012,74,64
6012,6018,76,64
6018,6024,67,64
6024,6027,65,64
6027,6030,69,64
6030,6033,71,64
6033,6036,73,64
6036,6039,74,64
6039,6042,73,64
6042,6045,71,64
6045,6048,69,64
6048,6051,77,64
6051,6054,76,64
6054,6057,74,64
6057,6060,73,64
6060,6063,74,64
6063,6066,76,64
6066,6069,77,64
6069,6072,79,64
6072,6075,81,64
6075,6078,79,64
6078,6081,77,64
6081,6084,76,64
6084,6087,82,64
6087,6090,81,64
6090,6093,79,64
6093,6096,77,64
6096,6099,72,64
6099,6102,76,64
6102,6105,78,64
6105,6108,80,64
6108,6111,81,64
6111,6114,80,64
6114,6117,78,64
6117,6120,76,64
6120,6123,84,64
6123,6126,83,64
6126,6129,81,64
6129,6132,80,64
6132,6135,81,64
6135,6138,83,64
6138,6141,84,64
6141,6144,86,64
6144,6147,88,64
6147,6150,86,64
6150,6153,84,64
6153,6156,83,64
6156,6159,89,64
6159,6162,88,64
6162,6165,86,64
6165,6168,85,64
6168,6171,86,64
6171,6174,88,64
6174,6177,89,64
6177,6180,88,64
6180,6183,86,64
6183,6186,89,64
6186,6189,88,64
6189,6192,86,64
6192,6195,89,64
6195,6198,88,64
6198,6201,86,64
6201,6204,89,64
6204,6207,88,64
6207,6210,86,64
6210,6213,89,64
6213,6216,88,64
6216,6219,86,64
6219,6222,91,64
6222,6225,89,64
6225,6228,88,64
6228,6231,86,64
6231,6234,84,64
6234,6237,82,64
6237,6240,81,64
6240,6243,79,64
6243,6246,81,64
6246,6249,82,64
6249,6252,81,64
6252,6255,79,64
6255,6258,82,64
6258,6261,81,64
6261,6264,79,64
6264,6267,82,64
6267,6270,81,64
6270,6273,79,64
6273,6276,82,64
6276,6279,81,64
6279,6282,79,64
6282,6285,82,64
6285,6288,81,64
6288,6291,79,64
6291,6294,77,64
6294,6297,76,64
6297,6300,74,64
6300,6303,73,64
6303,6306,71,64
6306,6309,69,64
6309,6312,67,64
6312,6315,65,64
6312,6384,62,64
6312,6384,65,64
6312,6384,81,64
6315,6318,62,64
6318,6321,81,64
6321,6324,62,64
6324,6327,65,64
6327,6330,62,64
6330,6333,81,64
6333,6336,62,64
6336,6339,65,64
6339,6342,62,64
6342,6345,81,64
6345,6348,62,64
6348,6351,65,64
6351,6354,62,64
6354,6357,81,64
6357,6360,62,64
6360,6363,65,64
6363,6366,62,64
6366,6369,81,64
6369,6372,62,64
6372,6375,65,64
6375,6378,62,64
6378,6381,81,64
6381,6384,62,64
6384,6432,62,64
6384,6432,64,64
6384,6432,79,64
6432,6456,64,64
6432,6456,73,64
6432,6456,79,64
6456,6504,62,64
6456,6504,62,64
6456,6504,77,64
6504,6528,62,64
6504,6528,69,64
6504,6528,77,64
6528,6540,70,64
6528,6540,76,64
6528,6576,55,64
6540,6552,69,64
6540,6552,77,64
6552,6564,67,64
6552,6564,76,64
6564,6576,65,64
6564,6576,74,64
6576,6588,64,64
6576,6588,74,64
6576,6600,57,64
6588,6600,64,64
6588,6600,73,64
6600,6624,62,64
6600,6672,65,64
6600,6672,74,64
6624,6648,57,64
6648,6672,58,64
6672,6696,60,64
6672,6744,66,64
6672,6744,75,64
6696,6720,58,64
6720,6744,57,64
6744,6768,58,64
6744,6768,67,64
6744,6816,74,64
6768,6792,57,64
6768,6792,65,64
6792,6816,55,64
6792,6816,64,64
6816,6840,65,64
6816,6864,74,64
6816,6888,57,64
6840,6864,64,64
6864,6888,67,64
6864,6888,73,64
6888,6912,74,64
6888,6960,62,64
6888,6960,65,64
6912,6936,69,64
6936,6960,70,64
6960,6984,72,64
6960,7032,62,64
6960,7032,66,64
6984,7008,70,64
7008,7032,69,64
7032,7056,62,64
7032,7056,67,64
7032,7056,70,64
7056,7080,64,64
7056,7080,73,64
7056,7080,82,64
7080,7104,65,64
7080,7104,74,64
7080,7104,81,64
7104,7116,79,64
7104,7128,67,64
7104,7128,74,64
7116,7128,77,64
7128,7152,74,64
7128,7176,69,64
7128,7176,76,64
7152,7176,73,64
7176,7200,74,64
7176,7248,62,64
7176,7248,77,64
7200,7224,69,64
7224,7248,70,64
7248,7272,72,64
7248,7320,62,64
7248,7320,78,64
7272,7296,70,64
7296,7320,69,64
7320,7344,70,64
7320,7344,79,64
7320,7368,62,64
7344,7368,69,64
7344,7368,77,64
7368,7392,61,64
7368,7392,67,64
7368,7392,69,64
7368,7392,76,64
7392,7416,62,64
7392,7416,65,64
7392,7416,69,64
7392,7416,77,64
7416,7464,57,64
7416,7464,64,64
7416,7464,73,64
7464,7488,62,64
7464,7488,65,64
7464,7488,74,64
7488,7512,62,64
7488,7512,69,64
7488,7512,77,64
7512,7536,62,64
7512,7536,69,64
7512,7536,72,64
7512,7536,77,64
7536,7560,77,64
7536,7584,55,64
7536,7584,67,64
7536,7584,70,64
7560,7584,76,64
7584,7608,57,64
7584,7608,65,64
7584,7608,75,64
7608,7632,75,64
7608,7656,58,64
7608,7656,65,64
7632,7656,74,64
7632,7656,82,64
7656,7680,58,64
7656,7680,67,64
7656,7680,74,64
7656,7680,76,64
7680,7704,57,64
7680,7704,69,64
7680,7704,74,64
7680,7704,76,64
7704,7728,81,64
7704,7752,57,64
7704,7752,64,64
7704,7752,73,64
7728,7752,79,64
7752,7776,62,64
7752,7776,62,64
7752,7776,69,64
7752,7776,77,64
7776,7800,69,64
7776,7800,74,64
7776,7824,62,64
7776,7824,78,64
7800,7824,72,64
7824,7848,62,64
7824,7848,70,64
7824,7848,79,64
7848,7872,62,64
7848,7872,71,64
7848,7896,80,64
7872,7896,64,64
7872,7896,74,64
7896,7920,65,64
7896,7920,72,64
7896,7920,81,64
7920,7944,66,64
7920,7944,75,64
7920,7944,84,64
7944,7968,67,64
7944,7968,74,64
7944,7968,83,64
7968,7992,68,64
7968,7992,77,64
7968,7992,86,64
7992,8016,86,64
7992,8040,69,64
7992,8040,76,64
8016,8040,85,64
8040,8064,62,64
8040,8112,77,64
8040,8112,86,64
8064,8088,70,64
8088,8112,69,64
8112,8136,68,64
8112,8136,86,64
8112,8184,76,64
8136,8160,69,64
8136,8184,85,64
8160,8184,67,64
8184,8208,66,64
8184,8208,84,64
8184,8256,74,64
8208,8232,67,64
8208,8256,83,64
8232,8256,65,64
8256,8280,64,64
8256,8280,73,64
8256,8280,82,64
8280,8304,65,64
8280,8304,74,64
8280,8304,81,64
8304,8328,64,64
8304,8328,73,64
8304,8328,79,64
8328,8352,62,64
8328,8352,74,64
8328,8352,78,64
8352,8376,57,64
8352,8376,69,64
8352,8376,72,64
8352,8376,77,64
8376,8400,59,64
8376,8400,67,64
8376,8400,74,64
8376,8400,77,64
8400,8424,60,64
8400,8424,67,64
8400,8424,72,64
8400,8424,76,64
8424,8448,55,64
8424,8448,67,64
8424,8448,75,64
8448,8472,57,64
8448,8472,65,64
8448,8472,75,64
8472,8496,58,64
8472,8496,65,64
8472,8496,74,64
8496,8520,58,64
8496,8520,67,64
8496,8520,74,64
8520,8544,57,64
8520,8544,65,64
8520,8544,74,64
8544,8568,56,64
8544,8568,64,64
8544,8568,74,64
8568,8592,74,64
8568,8616,57,64
8568,8616,64,64
8592,8616,73,64
8616,8628,62,64
8628,8631,77,64
8631,8634,76,64
8634,8637,74,64
8637,8640,76,64
8640,8643,74,64
8643,8646,72,64
8646,8649,74,64
8649,8652,72,64
8652,8655,70,64
8655,8658,72,64
8658,8661,70,64
8661,8664,69,64
8664,8667,70,64
8667,8670,72,64
8670,8673,74,64
8673,8676,76,64
8676,8682,77,64
8682,8688,62,64
8688,8700,60,64
8700,8703,76,64
8703,8706,74,64
8706,8709,72,64
8709,8712,74,64
8712,8715,72,64
8715,8718,70,64
8718,8721,72,64
8721,8724,70,64
8724,8727,69,64
8727,8730,70,64
8730,8733,69,64
8733,8736,67,64
8736,8739,69,64
8739,8742,70,64
8742,8745,72,64
8745,8748,74,64
8748,8754,75,64
8754,8760,60,64
8760,8772,58,64
8772,8775,74,64
8775,8778,72,64
8778,8781,70,64
8781,8784,72,64
8784,8787,70,64
8787,8790,69,64
8790,8793,70,64
8793,8796,69,64
8796,8799,67,64
8799,8802,69,64
8802,8805,67,64
8805,8808,65,64
8808,8811,67,64
8811,8814,69,64
8814,8817,70,64
8817,8820,72,64
8820,8826,74,64
8826,8832,58,64
8832,8835,57,64
8835,8838,69,64
8838,8841,71,64
8841,8844,73,64
8844,8850,74,64
8850,8856,57,64
8856,8859,55,64
8859,8862,69,64
8862,8865,71,64
8865,8868,73,64
8868,8874,74,64
8874,8880,55,64
8880,8883,57,64
8883,8886,74,64
8886,8889,73,64
8889,8892,71,64
8892,8898,73,64
8898,8904,67,64
8904,8910,65,64
8910,8916,64,64
8916,8922,62,64
8922,8928,61,64
8928,8934,62,64
8934,8940,65,64
8940,8946,67,64
8946,8952,69,64
8952,8958,70,64
8958,8964,69,64
8964,8970,70,64
8970,8976,67,64
8976,9000,62,64
8976,9000,67,64
8976,9000,70,64
8976,9000,76,64
9000,9036,76,64
9000,9048,61,64
9000,9048,67,64
9000,9048,69,64
9036,9048,76,64
9048,9072,62,64
9048,9072,65,64
9048,9072,69,64
9048,9072,77,64
9072,9108,74,64
9072,9120,58,64
9072,9120,65,64
9108,9120,74,64
9120,9144,55,64
9120,9144,67,64
9120,9144,74,64
9120,9144,82,64
9144,9168,57,64
9144,9168,65,64
9144,9168,74,64
9144,9168,81,64
9168,9192,57,64
9168,9192,64,64
9168,9192,73,64
9168,9192,79,64
9192,9216,62,64
9192,9216,69,64
9192,9216,74,64
9192,9216,79,64
9216,9240,62,64
9216,9240,69,64
9216,9240,74,64
9216,9240,78,64
9240,9252,60,64
9252,9264,77,64
9264,9288,59,64
9264,9288,67,64
9264,9288,74,64
9264,9288,77,64
9288,9312,60,64
9288,9312,67,64
9288,9312,72,64
9288,9312,76,64
9312,9324,60,64
9324,9336,75,64
9336,9360,57,64
9336,9360,65,64
9336,9360,75,64
9360,9384,58,64
9360,9384,65,64
9360,9384,74,64
9384,9396,57,64
9396,9408,74,64
9408,9420,56,64
9420,9432,74,64
9432,9468,73,64
9432,9480,57,64
9432,9480,64,64
9468,9480,74,64
9480,9504,62,64
9480,9504,74,64
9504,9540,66,64
9504,9552,62,64
9540,9552,67,64
9552,9576,61,64
9552,9576,64,64
9576,9612,66,64
9576,9624,57,64
9612,9618,67,64
9618,9624,69,64
9624,9648,59,64
9624,9648,62,64
9648,9684,64,64
9648,9696,55,64
9684,9690,66,64
9690,9696,67,64
9696,9708,66,64
9696,9720,57,64
9708,9720,64,64
9720,9756,64,64
9720,9768,61,64
9756,9768,69,64
9768,9792,62,64
9768,9792,66,64
9792,9804,71,64
9792,9828,62,64
9792,9828,66,64
9804,9816,69,64
9816,9828,67,64
9828,9840,62,64
9828,9840,66,64
9840,9852,61,64
9840,9864,64,64
9852,9864,59,64
9864,9870,66,64
9864,9900,57,64
9870,9876,67,64
9876,9882,69,64
9882,9888,67,64
9888,9900,66,64
9900,9912,57,64
9900,9912,64,64
9912,9924,59,64
9912,9936,62,64
9924,9936,57,64
9936,9948,64,64
9936,9972,55,64
9948,9954,67,64
9954,9960,66,64
9960,9972,64,64
9972,9984,55,64
9972,9984,62,64
9984,9996,67,64
9984,9996,73,64
9984,10008,57,64
9996,10008,66,64
9996,10008,74,64
10008,10044,64,64
10008,10056,57,64
10044,10056,69,64
10056,10068,66,64
10056,10080,62,64
10068,10080,64,64
10080,10092,62,64
10080,10116,62,64
10092,10104,64,64
10104,10116,66,64
10116,10128,62,64
10116,10128,68,64
10128,10140,69,64
10128,10152,61,64
10128,10152,64,64
10140,10152,71,64
10152,10164,73,64
10152,10188,57,64
10152,10188,64,64
10164,10176,74,64
10176,10188,71,64
10188,10200,57,64
10188,10200,67,64
10188,10200,73,64
10200,10212,74,64
10200,10224,59,64
10200,10224,66,64
10212,10224,78,64
10224,10236,76,64
10224,10260,55,64
10224,10260,67,64
10224,10260,71,64
10236,10248,74,64
10248,10260,73,64
10260,10272,55,64
10260,10272,67,64
10260,10272,71,64
10272,10284,66,64
10272,10284,69,64
10272,10296,57,64
10284,10296,62,64
10284,10296,71,64
10296,10308,64,64
10296,10308,73,64
10296,10332,57,64
10308,10320,66,64
10308,10320,74,64
10320,10332,67,64
10320,10332,76,64
10332,10344,57,64
10332,10344,64,64
10332,10344,73,64
10344,10356,62,64
10344,10356,66,64
10344,10368,74,64
10356,10368,64,64
10368,10380,62,64
10368,10404,74,64
10368,10404,78,64
10380,10392,64,64
10392,10404,66,64
10404,10416,67,64
10404,10416,74,64
10404,10416,78,64
10416,10428,69,64
10416,10428,73,64
10416,10440,76,64
10428,10440,71,64
10440,10452,73,64
10440,10476,81,64
10452,10464,69,64
10464,10476,71,64
10476,10488,73,64
10476,10488,79,64
10488,10500,74,64
10488,10500,78,64
10500,10512,73,64
10500,10512,76,64
10512,10524,71,64
10512,10524,79,64
10524,10536,69,64
10524,10536,78,64
10536,10548,67,64
10536,10548,74,64
10536,10548,83,64
10548,10560,66,64
10548,10560,71,64
10548,10560,81,64
10560,10572,64,64
10560,10572,73,64
10560,10572,79,64
10572,10584,62,64
10572,10584,74,64
10572,10584,78,64
10584,10608,74,64
10584,10632,69,64
10584,10632,76,64
10608,10632,73,64
10632,10638,74,64
10632,10644,62,64
10638,10644,73,64
10644,10650,71,64
10650,10656,69,64
10656,10662,68,64
10662,10668,71,64
10668,10674,74,64
10674,10680,78,64
10680,10692,76,64
10692,10704,62,64
10692,10704,68,64
10692,10704,71,64
10692,10704,76,64
10704,10710,61,64
10704,10716,69,64
10704,10716,73,64
10704,10716,76,64
10710,10716,62,64
10716,10722,61,64
10722,10728,59,64
10728,10734,57,64
10734,10740,61,64
10740,10746,64,64
10746,10752,67,64
10752,10764,66,64
10764,10776,58,64
10764,10776,66,64
10764,10776,73,64
10764,10776,76,64
10776,10782,59,64
10776,10788,66,64
10776,10788,74,64
10782,10788,61,64
10788,10794,62,64
10794,10800,59,64
10800,10806,55,64
10806,10812,59,64
10812,10818,62,64
10818,10824,66,64
10824,10836,64,64
10836,10848,56,64
10836,10848,64,64
10836,10848,74,64
10848,10854,57,64
10848,10854,64,64
10848,10854,73,64
10854,10860,71,64
10860,10866,69,64
10866,10872,71,64
10872,10878,73,64
10878,10884,76,64
10884,10890,79,64
10890,10896,83,64
10896,10902,81,64
10902,10908,79,64
10908,10914,78,64
10914,10920,76,64
10920,10926,78,64
10926,10932,81,64
10932,10938,78,64
10938,10944,74,64
10944,10950,69,64
10950,10956,74,64
10956,10962,69,64
10962,10968,66,64
10968,10974,62,64
10974,10980,66,64
10980,10986,64,64
10986,10992,62,64
10992,10998,61,64
10998,11004,81,64
11004,11010,76,64
11010,11016,73,64
11016,11022,69,64
11022,11028,73,64
11028,11034,69,64
11034,11040,64,64
11040,11046,61,64
11046,11052,64,64
11052,11058,62,64
11058,11064,61,64
11064,11070,59,64
11070,11076,80,64
11076,11082,74,64
11082,11088,71,64
11088,11094,68,64
11094,11100,71,64
11100,11106,68,64
11106,11112,64,64
11112,11118,59,64
11118,11124,62,64
11124,11130,61,64
11130,11136,59,64
11136,11142,57,64
11142,11148,59,64
11148,11154,61,64
11154,11160,62,64
11160,11166,64,64
11166,11172,61,64
11172,11178,57,64
11178,11184,61,64
11184,11190,64,64
11190,11196,67,64
11196,11202,66,64
11202,11208,64,64
11208,11214,66,64
11214,11220,62,64
11220,11226,57,64
11226,11232,62,64
11232,11238,66,64
11238,11244,62,64
11244,11250,69,64
11250,11256,66,64
11256,11262,74,64
11262,11268,69,64
11268,11274,78,64
11274,11280,74,64
11280,11286,81,64
11286,11292,76,64
11292,11298,73,64
11298,11304,76,64
11304,11310,81,64
11310,11316,76,64
11316,11322,85,64
11322,11328,81,64
11328,11334,88,64
11334,11340,85,64
11340,11346,90,64
11346,11352,85,64
11352,11358,86,64
11358,11364,90,64
11364,11370,86,64
11370,11376,83,64
11376,11382,78,64
11382,11388,83,64
11388,11394,74,64
11394,11400,78,64
11400,11406,71,64
11406,11412,74,64
11412,11418,73,64
11418,11424,71,64
11424,11430,73,64
11430,11436,76,64
11436,11442,73,64
11442,11448,69,64
11448,11454,64,64
11454,11460,69,64
11460,11466,61,64
11466,11472,64,64
11472,11478,57,64
11478,11484,61,64
11484,11490,64,64
11490,11496,67,64
11496,11502,66,64
11502,11508,62,64
11508,11514,81,64
11514,11520,81,64
11520,11526,81,64
11526,11532,78,64
11532,11538,74,64
11538,11544,69,64
11544,11550,66,64
11550,11556,62,64
11556,11562,57,64
11562,11568,62,64
11568,11574,64,64
11574,11580,61,64
11580,11586,81,64
11586,11592,81,64
11592,11598,81,64
11598,11604,76,64
11604,11610,73,64
11610,11616,69,64
11616,11622,64,64
11622,11628,61,64
11628,11634,57,64
11634,11640,61,64
11640,11646,62,64
11646,11652,59,64
11652,11658,81,64
11658,11664,81,64
11664,11670,81,64
11670,11676,78,64
11676,11682,74,64
11682,11688,71,64
11688,11694,74,64
11694,11700,80,64
11700,11706,83,64
11706,11712,80,64
11712,11718,81,64
11718,11724,76,64
11724,11730,81,64
11730,11736,81,64
11736,11742,81,64
11742,11748,73,64
11748,11754,76,64
11754,11760,76,64
11760,11766,76,64
11766,11772,69,64
11772,11778,73,64
11778,11784,67,64
11784,11790,66,64
11790,11796,62,64
11796,11802,69,64
11796,11802,69,64
11802,11808,69,64
11802,11808,69,64
11808,11814,69,64
11808,11814,69,64
11814,11820,66,64
11820,11826,62,64
11826,11832,66,64
11832,11838,69,64
11838,11844,74,64
11844,11850,78,64
11850,11856,59,64
11856,11862,61,64
11862,11868,64,64
11868,11874,69,64
11868,11874,69,64
11874,11880,69,64
11874,11880,69,64
11880,11886,69,64
11880,11886,69,64
11886,11892,64,64
11892,11898,61,64
11898,11904,64,64
11904,11910,69,64
11910,11916,73,64
11916,11922,76,64
11922,11928,57,64
11928,11934,59,64
11934,11940,62,64
11940,11946,69,64
11940,11946,69,64
11946,11952,69,64
11946,11952,69,64
11952,11958,69,64
11952,11958,69,64
11958,11964,62,64
11964,11970,59,64
11970,11976,62,64
11976,11982,68,64
11982,11988,71,64
11988,11994,74,64
11994,12000,64,64
12000,12006,57,64
12006,12012,64,64
12012,12018,69,64
12012,12018,69,64
12018,12024,69,64
12018,12024,69,64
12024,12030,69,64
12024,12030,69,64
12030,12036,64,64
12036,12042,69,64
12042,12048,73,64
12048,12054,76,64
12054,12060,73,64
12060,12066,69,64
12066,12072,67,64
12072,12078,66,64
12078,12084,57,64
12084,12090,57,64
12090,12096,57,64
12096,12102,57,64
12102,12108,81,64
12108,12114,81,64
12114,12120,74,64
12114,12120,78,64
12120,12126,74,64
12120,12126,78,64
12126,12132,69,64
12126,12132,74,64
12132,12138,69,64
12132,12138,74,64
12138,12144,74,64
12138,12144,78,64
12144,12150,73,64
12144,12150,76,64
12150,12156,57,64
12156,12162,57,64
12162,12168,57,64
12168,12174,57,64
12174,12180,81,64
12180,12186,81,64
12186,12192,73,64
12186,12192,76,64
12192,12198,73,64
12192,12198,76,64
12198,12204,69,64
12198,12204,73,64
12204,12210,69,64
12204,12210,73,64
12210,12216,73,64
12210,12216,76,64
12216,12222,68,64
12216,12222,74,64
12222,12228,57,64
12228,12234,57,64
12234,12240,57,64
12240,12246,57,64
12246,12252,83,64
12252,12258,83,64
12258,12264,71,64
12258,12264,80,64
12264,12270,71,64
12264,12270,80,64
12270,12276,74,64
12270,12276,76,64
12276,12282,74,64
12276,12282,76,64
12282,12288,74,64
12282,12288,80,64
12288,12294,73,64
12288,12294,81,64
12294,12300,57,64
12300,12306,57,64
12306,12312,57,64
12312,12318,57,64
12318,12324,69,64
12318,12324,81,64
12324,12330,69,64
12324,12330,81,64
12330,12336,69,64
12330,12336,81,64
12336,12342,71,64
12336,12342,81,64
12342,12348,71,64
12342,12348,79,64
12348,12354,73,64
12348,12354,79,64
12354,12360,73,64
12354,12360,79,64
12360,12366,74,64
12360,12366,78,64
12366,12372,62,64
12366,12372,62,64
12372,12378,62,64
12372,12378,62,64
12378,12384,62,64
12378,12384,62,64
12384,12390,62,64
12384,12390,62,64
12390,12396,69,64
12390,12396,69,64
12396,12402,69,64
12396,12402,69,64
12402,12408,69,64
12402,12408,69,64
12408,12414,69,64
12408,12414,71,64
12414,12420,67,64
12414,12420,71,64
12420,12426,67,64
12420,12426,73,64
12426,12432,67,64
12426,12432,73,64
12432,12438,66,64
12432,12438,74,64
12438,12444,62,64
12438,12444,62,64
12444,12450,62,64
12444,12450,62,64
12450,12456,62,64
12450,12456,62,64
12456,12462,62,64
12456,12462,62,64
12462,12468,74,64
12462,12468,86,64
12468,12474,74,64
12468,12474,86,64
12474,12480,74,64
12474,12480,86,64
12480,12486,76,64
12480,12486,86,64
12486,12492,76,64
12486,12492,84,64
12492,12498,78,64
12492,12498,84,64
12498,12504,78,64
12498,12504,84,64
12504,12510,79,64
12504,12510,83,64
12510,12516,62,64
12510,12516,62,64
12516,12522,62,64
12516,12522,62,64
12522,12528,62,64
12522,12528,62,64
12528,12534,62,64
12528,12534,62,64
12534,12540,79,64
12534,12540,83,64
12540,12546,79,64
12540,12546,83,64
12546,12552,79,64
12546,12552,83,64
12552,12558,79,64
12552,12558,85,64
12558,12564,78,64
12558,12564,86,64
12564,12570,78,64
12564,12570,86,64
12570,12576,78,64
12570,12576,86,64
12576,12582,78,64
12576,12582,79,64
12582,12588,76,64
12582,12588,79,64
12588,12594,76,64
12588,12594,79,64
12594,12600,76,64
12594,12600,79,64
12600,12606,76,64
12600,12606,78,64
12606,12612,66,64
12606,12612,74,64
12606,12612,78,64
12612,12618,66,64
12612,12618,74,64
12612,12618,78,64
12618,12624,66,64
12618,12624,74,64
12618,12624,78,64
12624,12630,67,64
12624,12630,74,64
12624,12630,76,64
12630,12636,69,64
12630,12636,73,64
12630,12636,76,64
12636,12642,69,64
12636,12642,73,64
12636,12642,76,64
12642,12648,69,64
12642,12648,73,64
12642,12648,76,64
12648,12672,62,64
12648,12672,74,64
12648,12672,78,64
12672,12708,74,64
12672,12708,78,64
12708,12720,74,64
12708,12720,78,64
12720,12732,78,64
12720,12744,74,64
12732,12744,76,64
12744,12756,74,64
12744,12780,76,64
12756,12768,73,64
12768,12780,71,64
12780,12792,70,64
12780,12792,76,64
12792,12804,76,64
12792,12816,71,64
12804,12816,74,64
12816,12828,71,64
12816,12852,72,64
12828,12840,69,64
12840,12852,67,64
12852,12864,66,64
12852,12864,72,64
12864,12876,72,64
12864,12888,67,64
12876,12888,71,64
12888,12900,73,64
12900,12912,67,64
12900,12912,69,64
12900,12912,83,64
12912,12924,66,64
12912,12924,71,64
12912,12924,81,64
12924,12936,64,64
12924,12936,73,64
12924,12936,79,64
12936,12948,62,64
12936,12960,74,64
12936,12960,78,64
12948,12960,66,64
12960,12972,71,64
12960,12996,74,64
12960,12996,78,64
12972,12984,69,64
12984,12996,67,64
12996,13008,66,64
12996,13008,74,64
12996,13008,78,64
13008,13020,67,64
13008,13032,74,64
13008,13032,76,64
13020,13032,64,64
13032,13044,69,64
13032,13068,73,64
13032,13068,76,64
13044,13056,67,64
13056,13068,66,64
13068,13080,64,64
13068,13080,73,64
13068,13080,76,64
13080,13092,66,64
13080,13092,72,64
13080,13092,81,64
13092,13104,62,64
13092,13104,74,64
13092,13104,78,64
13104,13116,55,64
13104,13116,67,64
13104,13116,74,64
13104,13116,83,64
13116,13128,72,64
13116,13128,81,64
13128,13140,71,64
13128,13140,79,64
13140,13152,69,64
13140,13152,78,64
13152,13164,67,64
13152,13164,76,64
13164,13176,66,64
13164,13176,74,64
13176,13212,73,64
13176,13224,57,64
13176,13224,64,64
13212,13224,74,64
13224,13248,57,64
13224,13248,66,64
13224,13248,74,64
13248,13284,62,64
13248,13284,66,64
13248,13284,69,64
13284,13296,62,64
13284,13296,66,64
13284,13296,69,64
13296,13320,60,64
13296,13320,66,64
13296,13320,69,64
13320,13356,66,64
13320,13356,69,64
13320,13368,60,64
13356,13368,66,64
13356,13368,69,64
13368,13392,59,64
13368,13392,67,64
13368,13392,71,64
13392,13428,67,64
13392,13428,71,64
13392,13440,64,64
13428,13440,67,64
13428,13440,71,64
13440,13452,67,64
13440,13452,73,64
13440,13464,57,64
13452,13464,66,64
13452,13464,74,64
13464,13476,64,64
13464,13500,74,64
13476,13488,62,64
13488,13512,64,64
13500,13512,73,64
13512,13536,62,64
13512,13536,74,64
13536,13572,62,64
13536,13572,69,64
13536,13572,74,64
13536,13572,78,64
13572,13584,62,64
13572,13584,69,64
13572,13584,74,64
13572,13584,78,64
13584,13608,60,64
13584,13608,62,64
13584,13608,69,64
13584,13608,78,64
13608,13644,60,64
13608,13644,62,64
13608,13644,69,64
13608,13644,78,64
13644,13656,60,64
13644,13656,62,64
13644,13656,69,64
13644,13656,78,64
13656,13680,59,64
13656,13680,67,64
13656,13680,74,64
13656,13680,78,64
13680,13716,61,64
13680,13716,67,64
13680,13716,69,64
13680,13716,76,64
13716,13728,61,64
13716,13728,67,64
13716,13728,69,64
13716,13728,76,64
13728,13740,76,64
13728,13752,62,64
13728,13752,66,64
13728,13752,69,64
13740,13752,74,64
13752,13764,64,64
13752,13776,57,64
13752,13788,74,64
13764,13776,66,64
13776,13800,67,64
13788,13800,73,64
13800,13812,66,64
13800,13824,74,64
13812,13824,64,64
13824,13860,62,64
13824,13860,74,64
13824,13860,78,64
13860,13872,62,64
13860,13872,74,64
13860,13872,78,64
13872,13896,64,64
13872,13896,74,64
13872,13896,79,64
13896,13932,66,64
13896,13932,74,64
13896,13932,81,64
13932,13944,66,64
13932,13944,74,64
13932,13944,81,64
13944,13968,67,64
13944,13968,74,64
13944,13968,83,64
13968,14004,68,64
13968,14004,76,64
13968,14004,83,64
14004,14016,68,64
14004,14016,76,64
14004,14016,83,64
14016,14028,76,64
14016,14028,85,64
14016,14040,69,64
14028,14040,78,64
14028,14040,86,64
14040,14064,86,64
14040,14088,69,64
14040,14088,76,64
14064,14088,85,64
14088,14112,62,64
14088,14112,78,64
14088,14112,86,64
14112,14148,62,64
14112,14148,78,64
14112,14148,86,64
14148,14160,62,64
14148,14160,78,64
14148,14160,86,64
14160,14184,69,64
14160,14184,76,64
14160,14184,85,64
14184,14220,62,64
14184,14220,78,64
14184,14220,84,64
14220,14232,62,64
14220,14232,78,64
14220,14232,84,64
14232,14244,79,64
14232,14256,67,64
14232,14256,83,64
14244,14256,74,64
14256,14292,68,64
14256,14292,74,64
14256,14292,76,64
14292,14304,68,64
14292,14304,74,64
14292,14304,76,64
14304,14316,76,64
14304,14328,69,64
14304,14328,73,64
14316,14328,78,64
14328,14340,79,64
14328,14364,57,64
14328,14364,64,64
14328,14364,73,64
14340,14352,83,64
14352,14364,81,64
14364,14376,57,64
14364,14376,64,64
14364,14376,73,64
14364,14376,79,64
14376,14400,62,64
14376,14400,74,64
14376,14400,78,64
14400,14424,62,64
14400,14424,62,64
14400,14424,69,64
14400,14424,78,64
14424,14448,61,64
14424,14448,62,64
14424,14448,69,64
14424,14448,78,64
14448,14472,59,64
14448,14472,62,64
14448,14472,71,64
14448,14472,78,64
14472,14496,59,64
14472,14496,62,64
14472,14496,71,64
14472,14496,78,64
14496,14520,57,64
14496,14520,62,64
14496,14520,71,64
14496,14520,78,64
14520,14544,55,64
14520,14544,62,64
14520,14544,71,64
14520,14544,76,64
14544,14568,55,64
14544,14568,64,64
14544,14568,73,64
14544,14568,81,64
14568,14592,55,64
14568,14592,64,64
14568,14592,73,64
14592,14616,56,64
14592,14616,64,64
14592,14616,74,64
14592,14616,83,64
14616,14628,76,64
14616,14640,57,64
14616,14640,64,64
14616,14640,74,64
14628,14640,78,64
14640,14664,57,64
14640,14664,64,64
14640,14664,73,64
14640,14664,79,64
14664,14688,62,64
14664,14688,62,64
14664,14688,74,64
14664,14688,79,64
14688,14700,69,64
14688,14712,62,64
14688,14712,62,64
14688,14712,78,64
14700,14712,71,64
14712,14736,62,64
14712,14736,62,64
14712,14736,72,64
14712,14736,78,64
14736,14760,55,64
14736,14760,62,64
14736,14760,71,64
14736,14760,78,64
14760,14772,71,64
14760,14784,55,64
14760,14784,64,64
14760,14784,76,64
14772,14784,73,64
14784,14808,56,64
14784,14808,64,64
14784,14808,74,64
14784,14808,76,64
14808,14832,57,64
14808,14832,64,64
14808,14832,74,64
14808,14832,76,64
14832,14844,64,64
14832,14856,57,64
14832,14856,73,64
14832,14856,76,64
14844,14856,66,64
14856,14880,58,64
14856,14880,67,64
14856,14880,73,64
14856,14880,76,64
14880,14892,59,64
14880,14892,66,64
14880,14892,74,64
14892,14904,55,64
14892,14904,64,64
14892,14904,74,64
14892,14904,83,64
14904,14940,73,64
14904,14952,57,64
14904,14952,64,64
14940,14952,74,64
14952,14976,62,64
14952,14976,74,64
14976,15012,70,64
14976,15024,62,64
14976,15024,65,64
15012,15024,70,64
15024,15042,60,64
15024,15042,64,64
15024,15042,70,64
15042,15048,76,64
15048,15054,70,64
15054,15060,67,64
15060,15066,69,64
15066,15072,64,64
15072,15084,60,64
15084,15096,60,64
15084,15096,64,64
15084,15096,69,64
15096,15114,58,64
15096,15114,62,64
15096,15114,69,64
15114,15120,74,64
15120,15126,69,64
15126,15132,66,64
15132,15138,67,64
15138,15144,62,64
15144,15156,58,64
15156,15168,58,64
15156,15168,67,64
15168,15186,57,64
15168,15186,67,64
15186,15192,76,64
15192,15198,73,64
15198,15204,69,64
15204,15210,70,64
15210,15216,67,64
15216,15228,61,64
15228,15240,61,64
15228,15240,64,64
15228,15240,69,64
15240,15258,62,64
15240,15258,65,64
15258,15264,62,64
15264,15270,65,64
15270,15276,69,64
15276,15282,74,64
15282,15288,73,64
15288,15294,74,64
15294,15300,76,64
15300,15306,77,64
15306,15312,69,64
15312,15330,55,64
15312,15330,62,64
15312,15330,70,64
15312,15330,77,64
15330,15336,62,64
15336,15342,67,64
15342,15348,70,64
15348,15354,75,64
15354,15360,74,64
15360,15366,75,64
15366,15372,72,64
15372,15378,65,64
15378,15384,57,64
15384,15402,58,64
15384,15402,65,64
15384,15402,75,64
15402,15408,73,64
15408,15414,74,64
15414,15420,69,64
15420,15426,70,64
15426,15432,66,64
15432,15438,67,64
15438,15444,62,64
15444,15450,63,64
15450,15456,67,64
15456,15468,57,64
15456,15468,67,64
15456,15468,73,64
15468,15480,55,64
15468,15480,65,64
15468,15480,74,64
15480,15498,57,64
15480,15498,64,64
15480,15498,74,64
15498,15504,71,64
15504,15510,73,64
15510,15516,76,64
15516,15522,79,64
15522,15528,69,64
15528,15534,62,64
15534,15540,69,64
15540,15546,73,64
15546,15552,79,64
15552,15558,77,64
15558,15564,74,64
15564,15570,73,64
15570,15576,74,64
15576,15582,62,64
15582,15588,74,64
15588,15594,73,64
15594,15600,74,64
15600,15606,64,64
15606,15612,67,64
15612,15618,73,64
15618,15624,81,64
15624,15630,79,64
15630,15636,74,64
15636,15642,73,64
15642,15648,74,64
15648,15654,64,64
15654,15660,74,64
15660,15666,73,64
15666,15672,74,64
15672,15678,65,64
15678,15684,69,64
15684,15690,73,64
15690,15696,82,64
15696,15702,81,64
15702,15708,74,64
15708,15714,73,64
15714,15720,74,64
15720,15726,65,64
15726,15732,74,64
15732,15738,73,64
15738,15744,74,64
15744,15750,67,64
15750,15756,70,64
15756,15762,74,64
15762,15768,82,64
15768,15774,76,64
15774,15780,74,64
15780,15786,73,64
15786,15792,74,64
15792,15798,69,64
15798,15804,74,64
15804,15810,73,64
15810,15816,76,64
15816,15822,77,64
15822,15828,74,64
15828,15834,69,64
15834,15840,67,64
15840,15846,65,64
15846,15852,69,64
15852,15858,62,64
15858,15864,60,64
15864,15870,59,64
15870,15876,67,64
15876,15882,74,64
15882,15888,77,64
15888,15894,76,64
15894,15900,72,64
15900,15906,67,64
15906,15912,65,64
15912,15918,64,64
15918,15924,67,64
15924,15930,60,64
15930,15936,58,64
15936,15942,57,64
15942,15948,65,64
15948,15954,72,64
15954,15960,75,64
15960,15966,74,64
15966,15972,70,64
15972,15978,65,64
15978,15984,63,64
15984,15990,62,64
15990,15996,65,64
15996,16002,58,64
16002,16008,57,64
16008,16014,55,64
16014,16020,61,64
16020,16026,64,64
16026,16032,70,64
16032,16038,69,64
16038,16044,65,64
16044,16050,62,64
16050,16056,70,64
16056,16062,67,64
16062,16068,64,64
16068,16074,61,64
16074,16080,64,64
16080,16086,57,64
16086,16092,67,64
16092,16098,65,64
16098,16104,64,64
16104,16110,62,64
16110,16116,69,64
16116,16122,71,64
16122,16128,73,64
16128,16134,74,64
16134,16140,77,64
16140,16146,79,64
16146,16152,81,64
16152,16158,82,64
16158,16161,67,64
16161,16164,65,64
16164,16167,64,64
16167,16170,65,64
16170,16176,67,64
16176,16182,60,64
16182,16188,67,64
16188,16194,69,64
16194,16200,70,64
16200,16206,72,64
16206,16212,76,64
16212,16218,77,64
16218,16224,79,64
16224,16230,81,64
16230,16233,65,64
16233,16236,64,64
16236,16239,62,64
16239,16242,64,64
16242,16248,65,64
16248,16254,58,64
16254,16257,86,64
16257,16260,84,64
16260,16263,82,64
16263,16266,84,64
16266,16272,86,64
16272,16278,79,64
16278,16281,82,64
16281,16284,81,64
16284,16287,79,64
16287,16290,81,64
16290,16296,82,64
16296,16302,76,64
16302,16305,79,64
16305,16308,77,64
16308,16311,76,64
16311,16314,77,64
16314,16320,79,64
16320,16326,73,64
16326,16329,76,64
16329,16332,74,64
16332,16335,73,64
16335,16338,74,64
16338,16341,76,64
16341,16344,73,64
16344,16350,67,64
16350,16353,70,64
16353,16356,69,64
16356,16359,67,64
16359,16362,69,64
16362,16365,70,64
16365,16368,67,64
16368,16371,64,64
16371,16374,62,64
16374,16377,61,64
16377,16380,62,64
16380,16383,64,64
16383,16386,65,64
16386,16389,67,64
16389,16392,64,64
16392,16398,62,64
16392,16398,65,64
16398,16404,69,64
16404,16410,69,64
16410,16416,69,64
16416,16422,70,64
16422,16428,69,64
16428,16434,69,64
16434,16440,69,64
16440,16446,67,64
16446,16452,69,64
16452,16458,65,64
16458,16464,69,64
16464,16470,60,64
16464,16470,64,64
16470,16476,69,64
16476,16482,70,64
16482,16488,69,64
16488,16494,69,64
16494,16500,69,64
16500,16506,67,64
16506,16512,69,64
16512,16518,65,64
16518,16524,69,64
16524,16530,64,64
16530,16536,69,64
16536,16542,58,64
16536,16542,62,64
16542,16548,69,64
16548,16554,69,64
16554,16560,69,64
16560,16566,67,64
16566,16572,69,64
16572,16578,65,64
16578,16584,69,64
16584,16590,64,64
16590,16596,69,64
16596,16602,62,64
16602,16608,69,64
16608,16614,57,64
16608,16614,64,64
16614,16620,69,64
16620,16626,65,64
16626,16632,69,64
16632,16638,67,64
16638,16644,69,64
16644,16650,70,64
16650,16656,69,64
16656,16662,69,64
16662,16668,69,64
16668,16674,67,64
16674,16680,69,64
16680,16686,62,64
16680,16686,65,64
16686,16692,69,64
16692,16698,69,64
16698,16704,69,64
16704,16710,68,64
16710,16716,69,64
16716,16722,67,64
16722,16728,69,64
16728,16734,66,64
16734,16740,69,64
16740,16746,65,64
16746,16752,69,64
16752,16758,60,64
16752,16758,64,64
16758,16764,69,64
16764,16770,67,64
16770,16776,69,64
16776,16782,66,64
16782,16788,69,64
16788,16794,65,64
16794,16800,69,64
16800,16806,64,64
16806,16812,69,64
16812,16818,63,64
16818,16824,69,64
16824,16830,58,64
16824,16830,62,64
16830,16836,69,64
16836,16842,64,64
16842,16848,69,64
16848,16854,65,64
16854,16860,69,64
16860,16866,66,64
16866,16872,69,64
16872,16878,67,64
16878,16884,69,64
16884,16890,68,64
16890,16896,69,64
16896,16902,57,64
16896,16902,69,64
16902,16908,69,64
16908,16914,59,64
16908,16914,69,64
16914,16920,69,64
16920,16926,60,64
16920,16926,69,64
16926,16932,69,64
16932,16938,61,64
16932,16938,69,64
16938,16944,69,64
16944,16950,62,64
16944,16950,71,64
16950,16956,69,64
16956,16962,64,64
16956,16962,73,64
16962,16968,69,64
16968,16974,65,64
16968,16974,74,64
16974,16980,69,64
16980,16986,62,64
16980,16986,72,64
16986,16992,69,64
16992,16998,67,64
16992,16998,70,64
16998,17004,69,64
17004,17010,65,64
17004,17010,70,64
17010,17016,69,64
17016,17022,64,64
17016,17022,70,64
17022,17028,69,64
17028,17034,62,64
17028,17034,70,64
17034,17040,69,64
17040,17046,64,64
17040,17046,70,64
17046,17052,69,64
17052,17058,60,64
17052,17058,70,64
17058,17064,69,64
17064,17070,65,64
17064,17070,69,64
17070,17076,69,64
17076,17082,64,64
17076,17082,69,64
17082,17088,69,64
17088,17094,62,64
17088,17094,69,64
17094,17100,69,64
17100,17106,60,64
17100,17106,69,64
17106,17112,69,64
17112,17118,62,64
17112,17118,69,64
17118,17124,69,64
17124,17130,59,64
17124,17130,69,64
17130,17136,69,64
17136,17142,64,64
17136,17142,67,64
17142,17148,69,64
17148,17154,62,64
17148,17154,67,64
17154,17160,69,64
17160,17166,61,64
17160,17166,67,64
17166,17172,69,64
17172,17178,59,64
17172,17178,67,64
17178,17184,69,64
17184,17190,61,64
17184,17190,67,64
17190,17196,69,64
17196,17202,61,64
17196,17202,64,64
17202,17208,69,64
17208,17214,61,64
17208,17214,69,64
17214,17220,69,64
17220,17226,57,64
17220,17226,67,64
17226,17232,69,64
17232,17238,59,64
17232,17238,65,64
17238,17244,69,64
17244,17250,61,64
17244,17250,64,64
17250,17256,69,64
17256,17262,62,64
17256,17262,65,64
17262,17268,69,64
17268,17272,62,64
17272,17276,65,64
17276,17280,69,64
17280,17284,65,64
17284,17288,69,64
17288,17292,74,64
17292,17296,69,64
17296,17300,74,64
17300,17304,77,64
17304,17308,70,64
17308,17312,74,64
17312,17316,79,64
17316,17320,67,64
17320,17324,74,64
17324,17328,82,64
17328,17332,64,64
17332,17336,72,64
17336,17340,82,64
17340,17344,60,64
17344,17348,64,64
17348,17352,67,64
17352,17356,64,64
17356,17360,67,64
17360,17364,72,64
17364,17368,67,64
17368,17372,72,64
17372,17376,76,64
17376,17380,69,64
17380,17384,72,64
17384,17388,77,64
17388,17392,65,64
17392,17396,72,64
17396,17400,81,64
17400,17404,62,64
17404,17408,70,64
17408,17412,81,64
17412,17416,58,64
17416,17420,62,64
17420,17424,65,64
17424,17428,62,64
17428,17432,65,64
17432,17436,70,64
17436,17440,65,64
17440,17444,70,64
17444,17448,74,64
17448,17452,67,64
17452,17456,70,64
17456,17460,75,64
17460,17464,63,64
17464,17468,70,64
17468,17472,79,64
17472,17476,64,64
17476,17480,73,64
17480,17484,82,64
17484,17488,65,64
17488,17492,74,64
17492,17496,81,64
17496,17500,67,64
17500,17504,76,64
17504,17508,79,64
17508,17512,68,64
17512,17516,74,64
17516,17520,77,64
17520,17524,69,64
17524,17528,74,64
17528,17532,76,64
17532,17536,69,64
17536,17540,73,64
17540,17544,76,64
17544,17548,62,64
17548,17552,81,64
17552,17556,79,64
17556,17560,77,64
17560,17564,77,64
17564,17568,76,64
17568,17572,74,64
17572,17576,74,64
17576,17580,72,64
17580,17584,70,64
17584,17588,70,64
17588,17592,69,64
17592,17596,67,64
17596,17600,70,64
17600,17604,72,64
17604,17608,74,64
17608,17612,76,64
17612,17616,77,64
17616,17620,60,64
17620,17624,79,64
17624,17628,77,64
17628,17632,76,64
17632,17636,76,64
17636,17640,74,64
17640,17644,72,64
17644,17648,72,64
17648,17652,70,64
17652,17656,69,64
17656,17660,69,64
17660,17664,67,64
17664,17668,65,64
17668,17672,69,64
17672,17676,70,64
17676,17680,72,64
17680,17684,74,64
17684,17688,75,64
17688,17692,58,64
17692,17696,77,64
17696,17700,75,64
17700,17704,74,64
17704,17708,74,64
17708,17712,72,64
17712,17716,70,64
17716,17720,70,64
17720,17724,69,64
17724,17728,67,64
17728,17732,67,64
17732,17736,65,64
17736,17740,64,64
17740,17744,64,64
17744,17748,62,64
17748,17752,61,64
17752,17756,61,64
17756,17760,59,64
17760,17766,57,64
17766,17769,59,64
17769,17772,61,64
17772,17775,62,64
17775,17778,64,64
17778,17781,65,64
17781,17784,67,64
17784,17787,69,64
17787,17790,71,64
17790,17793,73,64
17793,17796,74,64
17796,17799,76,64
17799,17802,77,64
17802,17805,79,64
17805,17808,77,64
17808,17811,76,64
17811,17814,74,64
17814,17817,73,64
17817,17820,71,64
17820,17823,69,64
17823,17826,67,64
17826,17829,65,64
17829,17832,64,64
17832,17844,62,64
17856,17892,69,64
17856,17904,62,64
17856,17904,65,64
17892,17904,69,64
17904,17928,62,64
17904,17928,67,64
17904,17928,70,64
17904,17928,76,64
17928,17964,76,64
17928,17976,61,64
17928,17976,67,64
17928,17976,69,64
17964,17976,76,64
17976,18000,62,64
17976,18000,65,64
17976,18000,69,64
17976,18000,77,64
18000,18036,74,64
18000,18048,58,64
18000,18048,65,64
18036,18048,72,64
18048,18072,55,64
18048,18072,67,64
18048,18072,70,64
18072,18096,57,64
18072,18096,65,64
18072,18096,69,64
18096,18102,67,64
18096,18120,61,64
18102,18108,65,64
18108,18114,64,64
18114,18120,65,64
18120,18126,67,64
18120,18132,62,64
18126,18132,64,64
18132,18138,65,64
18138,18144,62,64
18144,18168,62,64
18144,18168,65,64
18144,18168,70,64
18168,18192,60,64
18168,18192,66,64
18168,18192,69,64
18192,18216,58,64
18192,18216,67,64
18192,18216,74,64
18216,18240,57,64
18216,18240,66,64
18216,18240,72,64
18240,18264,55,64
18240,18264,67,64
18240,18264,70,64
18264,18270,61,64
18270,18276,64,64
18276,18282,67,64
18282,18288,70,64
18288,18294,69,64
18294,18300,67,64
18300,18306,76,64
18306,18312,67,64
18312,18336,62,64
18312,18348,65,64
18336,18360,55,64
18348,18360,64,64
18360,18396,64,64
18360,18408,57,64
18396,18408,62,64
18408,18480,62,64
18408,18480,62,64
