onset,offset,pitch,velocity
0,6,72,64
6,12,74,64
12,18,76,64
18,24,77,64
24,36,79,64
36,48,72,64
48,54,74,64
54,60,72,64
60,66,71,64
66,72,69,64
72,78,67,64
78,84,69,64
84,90,71,64
90,96,72,64
96,102,74,64
102,108,76,64
108,114,77,64
114,120,81,64
120,126,79,64
126,132,77,64
132,138,76,64
138,144,74,64
144,150,72,64
150,156,74,64
156,162,76,64
162,168,77,64
168,180,79,64
180,192,72,64
192,198,74,64
198,204,72,64
204,210,71,64
210,216,69,64
216,222,67,64
222,228,69,64
228,234,71,64
234,240,74,64
240,246,72,64
246,252,71,64
252,258,69,64
258,264,67,64
264,270,65,64
270,276,64,64
276,282,65,64
282,288,62,64
288,294,64,64
294,300,72,64
300,306,71,64
306,312,72,64
312,318,74,64
318,324,72,64
324,330,71,64
330,336,72,64
336,342,79,64
342,348,72,64
348,354,71,64
354,360,72,64
360,366,64,64
366,372,72,64
372,378,79,64
378,384,72,64
384,390,81,64
390,396,72,64
396,402,82,64
402,408,72,64
408,414,81,64
414,420,72,64
420,426,79,64
426,432,72,64
432,438,65,64
438,444,72,64
444,450,71,64
450,456,72,64
456,462,74,64
462,468,72,64
468,474,71,64
474,480,72,64
480,486,81,64
486,492,72,64
492,498,71,64
498,504,72,64
504,510,65,64
510,516,72,64
516,522,81,64
522,528,72,64
528,534,65,64
534,540,72,64
540,546,64,64
546,552,72,64
552,558,65,64
558,564,72,64
564,570,62,64
570,576,72,64
576,582,64,64
582,588,72,64
588,594,71,64
594,600,72,64
600,606,74,64
606,612,72,64
612,618,71,64
618,624,72,64
624,630,79,64
630,636,72,64
636,642,71,64
642,648,72,64
648,654,64,64
654,660,72,64
660,666,79,64
666,672,72,64
672,678,81,64
678,684,72,64
684,690,82,64
690,696,72,64
696,702,81,64
702,708,72,64
708,714,79,64
714,720,72,64
720,726,65,64
726,732,72,64
732,738,71,64
738,744,72,64
744,750,74,64
750,756,72,64
756,762,71,64
762,768,72,64
768,774,81,64
774,780,72,64
780,786,71,64
786,792,72,64
792,798,65,64
798,804,72,64
804,810,81,64
810,816,72,64
816,822,65,64
822,828,72,64
828,834,64,64
834,840,72,64
840,846,65,64
846,852,72,64
852,858,62,64
858,864,72,64
864,870,64,64
870,876,72,64
876,882,71,64
882,888,72,64
888,894,79,64
894,900,72,64
900,906,71,64
906,912,72,64
912,918,69,64
918,924,72,64
924,930,71,64
930,936,72,64
936,942,62,64
942,948,72,64
948,954,71,64
954,960,72,64
960,966,77,64
966,972,72,64
972,978,71,64
978,984,72,64
984,990,67,64
990,996,72,64
996,1002,71,64
1002,1008,72,64
1008,1014,60,64
1014,1020,62,64
1020,1026,64,64
1026,1032,65,64
1032,1038,67,64
1038,1044,72,64
1044,1050,74,64
1050,1056,76,64
1056,1062,77,64
1062,1068,76,64
1068,1074,74,64
1074,1080,72,64
1080,1086,74,64
1086,1092,72,64
1092,1098,71,64
1098,1104,69,64
1104,1116,67,64
1116,1128,74,64
1128,1134,65,64
1134,1140,64,64
1140,1146,65,64
1146,1152,62,64
1152,1158,64,64
1158,1164,67,64
1164,1170,69,64
1170,1176,71,64
1176,1188,72,64
1188,1200,79,64
1200,1206,70,64
1206,1212,69,64
1212,1218,70,64
1218,1224,67,64
1224,1230,69,64
1230,1236,71,64
1236,1242,73,64
1242,1248,82,64
1248,1254,79,64
1254,1260,77,64
1260,1266,76,64
1266,1272,74,64
1272,1278,73,64
1278,1284,71,64
1284,1290,69,64
1290,1296,67,64
1296,1302,65,64
1302,1308,64,64
1308,1314,62,64
1314,1320,64,64
1320,1332,65,64
1332,1344,74,64
1344,1350,69,64
1350,1356,67,64
1356,1362,65,64
1362,1368,64,64
1368,1374,62,64
1374,1380,60,64
1380,1386,59,64
1386,1392,60,64
1392,1398,62,64
1398,1404,69,64
1404,1410,65,64
1410,1416,64,64
1416,1422,62,64
1422,1428,60,64
1428,1434,59,64
1434,1440,57,64
1440,1446,55,64
1446,1452,65,64
1452,1458,64,64
1458,1464,62,64
1464,1470,55,64
1470,1476,64,64
1476,1482,62,64
1482,1488,60,64
1488,1494,55,64
1494,1500,67,64
1500,1506,65,64
1506,1512,64,64
1512,1518,62,64
1518,1524,59,64
1524,1530,57,64
1530,1536,55,64
1536,1542,65,64
1542,1548,59,64
1548,1554,57,64
1554,1560,55,64
1560,1566,62,64
1566,1572,60,64
1572,1578,59,64
1578,1584,57,64
1584,1590,55,64
1590,1596,65,64
1596,1602,64,64
1602,1608,62,64
1608,1614,55,64
1614,1620,64,64
1620,1626,62,64
1626,1632,60,64
1632,1638,55,64
1638,1644,67,64
1644,1650,65,64
1650,1656,64,64
1656,1662,62,64
1662,1668,59,64
1668,1674,57,64
1674,1680,55,64
1680,1686,67,64
1686,1692,59,64
1692,1698,57,64
1698,1704,55,64
1704,1710,62,64
1710,1716,60,64
1716,1722,59,64
1722,1728,57,64
1728,1734,55,64
1734,1740,65,64
1740,1746,64,64
1746,1752,65,64
1752,1758,71,64
1758,1764,65,64
1764,1770,64,64
1770,1776,65,64
1776,1782,74,64
1782,1788,65,64
1788,1794,64,64
1794,1800,65,64
1800,1806,55,64
1806,1812,64,64
1812,1818,74,64
1818,1824,64,64
1824,1830,72,64
1830,1836,64,64
1836,1842,71,64
1842,1848,64,64
1848,1854,72,64
1854,1860,64,64
1860,1866,55,64
1866,1872,64,64
1872,1878,57,64
1878,1884,67,64
1884,1890,66,64
1890,1896,67,64
1896,1902,73,64
1902,1908,67,64
1908,1914,66,64
1914,1920,67,64
1920,1926,76,64
1926,1932,67,64
1932,1938,66,64
1938,1944,67,64
1944,1950,57,64
1950,1956,66,64
1956,1962,76,64
1962,1968,66,64
1968,1974,74,64
1974,1980,66,64
1980,1986,73,64
1986,1992,66,64
1992,1998,74,64
1998,2004,66,64
2004,2010,57,64
2010,2016,66,64
2016,2022,62,64
2022,2028,72,64
2028,2034,71,64
2034,2040,72,64
2040,2046,74,64
2046,2052,72,64
2052,2058,71,64
2058,2064,72,64
2064,2070,81,64
2070,2076,72,64
2076,2082,71,64
2082,2088,72,64
2088,2094,62,64
2094,2100,72,64
2100,2106,81,64
2106,2112,72,64
2112,2118,71,64
2118,2124,81,64
2124,2130,72,64
2130,2136,81,64
2136,2142,71,64
2142,2148,81,64
2148,2154,69,64
2154,2160,81,64
2160,2166,62,64
2166,2172,71,64
2172,2178,69,64
2178,2184,71,64
2184,2190,72,64
2190,2196,71,64
2196,2202,69,64
2202,2208,71,64
2208,2214,81,64
2214,2220,71,64
2220,2226,69,64
2226,2232,71,64
2232,2238,62,64
2238,2244,71,64
2244,2250,79,64
2250,2256,71,64
2256,2262,69,64
2262,2268,79,64
2268,2274,71,64
2274,2280,79,64
2280,2286,73,64
2286,2292,79,64
2292,2298,74,64
2298,2304,79,64
2304,2310,62,64
2310,2316,73,64
2316,2322,71,64
2322,2328,73,64
2328,2334,74,64
2334,2340,73,64
2340,2346,71,64
2346,2352,73,64
2352,2358,79,64
2358,2364,73,64
2364,2370,71,64
2370,2376,73,64
2376,2382,62,64
2382,2388,73,64
2388,2394,79,64
2394,2400,73,64
2400,2406,76,64
2406,2412,79,64
2412,2418,73,64
2418,2424,79,64
2424,2430,69,64
2430,2436,79,64
2436,2442,73,64
2442,2448,79,64
2448,2454,62,64
2454,2460,74,64
2460,2466,79,64
2466,2472,76,64
2472,2478,78,64
2478,2484,74,64
2484,2490,79,64
2490,2496,76,64
2496,2502,78,64
2502,2508,74,64
2508,2514,79,64
2514,2520,76,64
2520,2526,78,64
2526,2532,76,64
2532,2538,74,64
2538,2544,76,64
2544,2550,78,64
2550,2556,79,64
2556,2562,81,64
2562,2568,83,64
2568,2574,84,64
2574,2580,83,64
2580,2586,84,64
2586,2592,81,64
2592,2598,74,64
2598,2604,84,64
2604,2610,82,64
2610,2616,81,64
2616,2622,74,64
2622,2628,82,64
2628,2634,81,64
2634,2640,79,64
2640,2646,74,64
2646,2652,86,64
2652,2658,84,64
2658,2664,82,64
2664,2670,81,64
2670,2676,78,64
2676,2682,76,64
2682,2688,74,64
2688,2694,84,64
2694,2700,78,64
2700,2706,76,64
2706,2712,74,64
2712,2718,81,64
2718,2724,79,64
2724,2730,78,64
2730,2736,76,64
2736,2742,74,64
2742,2748,72,64
2748,2754,70,64
2754,2760,69,64
2760,2766,74,64
2766,2772,70,64
2772,2778,69,64
2778,2784,67,64
2784,2790,75,64
2790,2796,74,64
2796,2802,72,64
2802,2808,70,64
2808,2814,69,64
2814,2820,66,64
2820,2826,64,64
2826,2832,62,64
2832,2838,72,64
2838,2844,66,64
2844,2850,64,64
2850,2856,62,64
2856,2862,78,64
2862,2868,74,64
2868,2874,76,64
2874,2880,78,64
2880,2886,79,64
2886,2892,81,64
2892,2898,82,64
2898,2904,84,64
2904,2916,86,64
2916,2928,79,64
2928,2934,82,64
2934,2940,81,64
2940,2946,79,64
2946,2952,78,64
2952,2958,79,64
2958,2964,74,64
2964,2970,72,64
2970,2976,71,64
2976,2982,74,64
2982,2988,72,64
2988,2994,71,64
2994,3000,69,64
3000,3024,67,64
3024,3030,72,64
3030,3036,74,64
3036,3042,76,64
3042,3048,77,64
3048,3060,79,64
3060,3072,72,64
3072,3078,74,64
3078,3084,72,64
3084,3090,71,64
3090,3096,69,64
3096,3102,67,64
3102,3108,69,64
3108,3114,71,64
3114,3120,72,64
3120,3126,74,64
3126,3132,76,64
3132,3138,77,64
3138,3144,81,64
3144,3150,79,64
3150,3156,77,64
3156,3162,76,64
3162,3168,74,64
3168,3174,72,64
3174,3180,74,64
3180,3186,76,64
3186,3192,77,64
3192,3204,79,64
3204,3216,72,64
3216,3222,74,64
3222,3228,72,64
3228,3234,71,64
3234,3240,69,64
3240,3246,67,64
3246,3252,69,64
3252,3258,71,64
3258,3264,74,64
3264,3270,72,64
3270,3276,71,64
3276,3282,69,64
3282,3288,67,64
3288,3294,65,64
3294,3300,64,64
3300,3306,65,64
3306,3312,62,64
3312,3318,64,64
3318,3324,72,64
3324,3330,71,64
3330,3336,72,64
3336,3342,74,64
3342,3348,72,64
3348,3354,71,64
3354,3360,72,64
3360,3366,79,64
3366,3372,72,64
3372,3378,71,64
3378,3384,72,64
3384,3390,64,64
3390,3396,72,64
3396,3402,79,64
3402,3408,72,64
3408,3414,81,64
3414,3420,72,64
3420,3426,82,64
3426,3432,72,64
3432,3438,81,64
3438,3444,72,64
3444,3450,79,64
3450,3456,72,64
3456,3462,65,64
3462,3468,72,64
3468,3474,71,64
3474,3480,72,64
3480,3486,74,64
3486,3492,72,64
3492,3498,71,64
3498,3504,72,64
3504,3510,81,64
3510,3516,72,64
3516,3522,71,64
3522,3528,72,64
3528,3534,65,64
3534,3540,72,64
3540,3546,81,64
3546,3552,72,64
3552,3558,65,64
3558,3564,72,64
3564,3570,64,64
3570,3576,72,64
3576,3582,65,64
3582,3588,72,64
3588,3594,62,64
3594,3600,72,64
3600,3606,64,64
3606,3612,72,64
3612,3618,71,64
3618,3624,72,64
3624,3630,74,64
3630,3636,72,64
3636,3642,71,64
3642,3648,72,64
3648,3654,79,64
3654,3660,72,64
3660,3666,71,64
3666,3672,72,64
3672,3678,64,64
3678,3684,72,64
3684,3690,79,64
3690,3696,72,64
3696,3702,81,64
3702,3708,72,64
3708,3714,82,64
3714,3720,72,64
3720,3726,81,64
3726,3732,72,64
3732,3738,79,64
3738,3744,72,64
3744,3750,65,64
3750,3756,72,64
3756,3762,71,64
3762,3768,72,64
3768,3774,74,64
3774,3780,72,64
3780,3786,71,64
3786,3792,72,64
3792,3798,81,64
3798,3804,72,64
3804,3810,71,64
3810,3816,72,64
3816,3822,65,64
3822,3828,72,64
3828,3834,81,64
3834,3840,72,64
3840,3846,65,64
3846,3852,72,64
3852,3858,64,64
3858,3864,72,64
3864,3870,65,64
3870,3876,72,64
3876,3882,62,64
3882,3888,72,64
3888,3894,64,64
3894,3900,72,64
3900,3906,71,64
3906,3912,72,64
3912,3918,79,64
3918,3924,72,64
3924,3930,71,64
3930,3936,72,64
3936,3942,69,64
3942,3948,72,64
3948,3954,71,64
3954,3960,72,64
3960,3966,62,64
3966,3972,72,64
3972,3978,71,64
3978,3984,72,64
3984,3990,77,64
3990,3996,72,64
3996,4002,71,64
4002,4008,72,64
4008,4014,67,64
4014,4020,72,64
4020,4026,71,64
4026,4032,72,64
4032,4038,60,64
4038,4044,62,64
4044,4050,64,64
4050,4056,65,64
4056,4062,67,64
4062,4068,72,64
4068,4074,74,64
4074,4080,76,64
4080,4086,77,64
4086,4092,76,64
4092,4098,74,64
4098,4104,72,64
4104,4110,74,64
4110,4116,72,64
4116,4122,71,64
4122,4128,69,64
4128,4140,67,64
4140,4152,74,64
4152,4158,65,64
4158,4164,64,64
4164,4170,65,64
4170,4176,62,64
4176,4182,64,64
4182,4188,67,64
4188,4194,69,64
4194,4200,71,64
4200,4212,72,64
4212,4224,79,64
4224,4230,70,64
4230,4236,69,64
4236,4242,70,64
4242,4248,67,64
4248,4254,69,64
4254,4260,71,64
4260,4266,73,64
4266,4272,82,64
4272,4278,79,64
4278,4284,77,64
4284,4290,76,64
4290,4296,74,64
4296,4302,73,64
4302,4308,71,64
4308,4314,69,64
4314,4320,67,64
4320,4326,65,64
4326,4332,64,64
4332,4338,62,64
4338,4344,64,64
4344,4356,65,64
4356,4368,74,64
4368,4374,69,64
4374,4380,67,64
4380,4386,65,64
4386,4392,64,64
4392,4398,62,64
4398,4404,60,64
4404,4410,59,64
4410,4416,60,64
4416,4422,62,64
4422,4428,69,64
4428,4434,65,64
4434,4440,64,64
4440,4446,62,64
4446,4452,60,64
4452,4458,59,64
4458,4464,57,64
4464,4470,55,64
4470,4476,65,64
4476,4482,64,64
4482,4488,62,64
4488,4494,55,64
4494,4500,64,64
4500,4506,62,64
4506,4512,60,64
4512,4518,55,64
4518,4524,67,64
4524,4530,65,64
4530,4536,64,64
4536,4542,62,64
4542,4548,59,64
4548,4554,57,64
4554,4560,55,64
4560,4566,65,64
4566,4572,59,64
4572,4578,57,64
4578,4584,55,64
4584,4590,62,64
4590,4596,60,64
4596,4602,59,64
4602,4608,57,64
4608,4614,55,64
4614,4620,65,64
4620,4626,64,64
4626,4632,62,64
4632,4638,55,64
4638,4644,64,64
4644,4650,62,64
4650,4656,60,64
4656,4662,55,64
4662,4668,67,64
4668,4674,65,64
4674,4680,64,64
4680,4686,62,64
4686,4692,59,64
4692,4698,57,64
4698,4704,55,64
4704,4710,67,64
4710,4716,59,64
4716,4722,57,64
4722,4728,55,64
4728,4734,62,64
4734,4740,60,64
4740,4746,59,64
4746,4752,57,64
4752,4758,55,64
4758,4764,65,64
4764,4770,64,64
4770,4776,65,64
4776,4782,71,64
4782,4788,65,64
4788,4794,64,64
4794,4800,65,64
4800,4806,74,64
4806,4812,65,64
4812,4818,64,64
4818,4824,65,64
4824,4830,55,64
4830,4836,64,64
4836,4842,74,64
4842,4848,64,64
4848,4854,72,64
4854,4860,64,64
4860,4866,71,64
4866,4872,64,64
4872,4878,72,64
4878,4884,64,64
4884,4890,55,64
4890,4896,64,64
4896,4902,57,64
4902,4908,67,64
4908,4914,66,64
4914,4920,67,64
4920,4926,73,64
4926,4932,67,64
4932,4938,66,64
4938,4944,67,64
4944,4950,76,64
4950,4956,67,64
4956,4962,66,64
4962,4968,67,64
4968,4974,57,64
4974,4980,66,64
4980,4986,76,64
4986,4992,66,64
4992,4998,74,64
4998,5004,66,64
5004,5010,73,64
5010,5016,66,64
5016,5022,74,64
5022,5028,66,64
5028,5034,57,64
5034,5040,66,64
5040,5046,62,64
5046,5052,72,64
5052,5058,71,64
5058,5064,72,64
5064,5070,74,64
5070,5076,72,64
5076,5082,71,64
5082,5088,72,64
5088,5094,81,64
5094,5100,72,64
5100,5106,71,64
5106,5112,72,64
5112,5118,62,64
5118,5124,72,64
5124,5130,81,64
5130,5136,72,64
5136,5142,71,64
5142,5148,81,64
5148,5154,72,64
5154,5160,81,64
5160,5166,71,64
5166,5172,81,64
5172,5178,69,64
5178,5184,81,64
5184,5190,62,64
5190,5196,71,64
5196,5202,69,64
5202,5208,71,64
5208,5214,72,64
5214,5220,71,64
5220,5226,69,64
5226,5232,71,64
5232,5238,81,64
5238,5244,71,64
5244,5250,69,64
5250,5256,71,64
5256,5262,62,64
5262,5268,71,64
5268,5274,79,64
5274,5280,71,64
5280,5286,69,64
5286,5292,79,64
5292,5298,71,64
5298,5304,79,64
5304,5310,73,64
5310,5316,79,64
5316,5322,74,64
5322,5328,79,64
5328,5334,62,64
5334,5340,73,64
5340,5346,71,64
5346,5352,73,64
5352,5358,74,64
5358,5364,73,64
5364,5370,71,64
5370,5376,73,64
5376,5382,79,64
5382,5388,73,64
5388,5394,71,64
5394,5400,73,64
5400,5406,62,64
5406,5412,73,64
5412,5418,79,64
5418,5424,73,64
5424,5430,76,64
5430,5436,79,64
5436,5442,73,64
5442,5448,79,64
5448,5454,69,64
5454,5460,79,64
5460,5466,73,64
5466,5472,79,64
5472,5478,62,64
5478,5484,74,64
5484,5490,79,64
5490,5496,76,64
5496,5502,78,64
5502,5508,74,64
5508,5514,79,64
5514,5520,76,64
5520,5526,78,64
5526,5532,74,64
5532,5538,79,64
5538,5544,76,64
5544,5550,78,64
5550,5556,76,64
5556,5562,74,64
5562,5568,76,64
5568,5574,78,64
5574,5580,79,64
5580,5586,81,64
5586,5592,83,64
5592,5598,84,64
5598,5604,83,64
5604,5610,84,64
5610,5616,81,64
5616,5622,74,64
5622,5628,84,64
5628,5634,82,64
5634,5640,81,64
5640,5646,74,64
5646,5652,82,64
5652,5658,81,64
5658,5664,79,64
5664,5670,74,64
5670,5676,86,64
5676,5682,84,64
5682,5688,82,64
5688,5694,81,64
5694,5700,78,64
5700,5706,76,64
5706,5712,74,64
5712,5718,84,64
5718,5724,78,64
5724,5730,76,64
5730,5736,74,64
5736,5742,81,64
5742,5748,79,64
5748,5754,78,64
5754,5760,76,64
5760,5766,74,64
5766,5772,72,64
5772,5778,70,64
5778,5784,69,64
5784,5790,74,64
5790,5796,70,64
5796,5802,69,64
5802,5808,67,64
5808,5814,75,64
5814,5820,74,64
5820,5826,72,64
5826,5832,70,64
5832,5838,69,64
5838,5844,66,64
5844,5850,64,64
5850,5856,62,64
5856,5862,72,64
5862,5868,66,64
5868,5874,64,64
5874,5880,62,64
5880,5886,78,64
5886,5892,74,64
5892,5898,76,64
5898,5904,78,64
5904,5910,79,64
5910,5916,81,64
5916,5922,82,64
5922,5928,84,64
5928,5940,86,64
5940,5952,79,64
5952,5958,82,64
5958,5964,81,64
5964,5970,79,64
5970,5976,78,64
5976,5982,79,64
5982,5988,74,64
5988,5994,72,64
5994,6000,71,64
6000,6006,74,64
6006,6012,72,64
6012,6018,71,64
6018,6024,69,64
6024,6048,67,64
6048,6054,67,64
6054,6060,69,64
6060,6066,71,64
6066,6072,72,64
6072,6084,74,64
6084,6096,67,64
6096,6102,69,64
6102,6108,67,64
6108,6114,66,64
6114,6120,64,64
6120,6126,62,64
6126,6132,64,64
6132,6138,66,64
6138,6144,67,64
6144,6150,69,64
6150,6156,71,64
6156,6162,72,64
6162,6168,76,64
6168,6174,74,64
6174,6180,72,64
6180,6186,71,64
6186,6192,69,64
6192,6198,67,64
6198,6204,69,64
6204,6210,71,64
6210,6216,72,64
6216,6228,74,64
6228,6240,67,64
6240,6246,69,64
6246,6252,67,64
6252,6258,66,64
6258,6264,64,64
6264,6270,62,64
6270,6276,64,64
6276,6282,66,64
6282,6288,69,64
6288,6294,67,64
6294,6300,66,64
6300,6306,64,64
6306,6312,62,64
6312,6318,60,64
6318,6324,59,64
6324,6330,60,64
6330,6336,57,64
6336,6342,59,64
6342,6348,67,64
6348,6354,66,64
6354,6360,67,64
6360,6366,69,64
6366,6372,67,64
6372,6378,66,64
6378,6384,67,64
6384,6390,74,64
6390,6396,67,64
6396,6402,66,64
6402,6408,67,64
6408,6414,59,64
6414,6420,67,64
6420,6426,74,64
6426,6432,67,64
6432,6438,76,64
6438,6444,67,64
6444,6450,77,64
6450,6456,67,64
6456,6462,76,64
6462,6468,67,64
6468,6474,74,64
6474,6480,67,64
6480,6486,60,64
6486,6492,67,64
6492,6498,66,64
6498,6504,67,64
6504,6510,69,64
6510,6516,67,64
6516,6522,66,64
6522,6528,67,64
6528,6534,76,64
6534,6540,67,64
6540,6546,66,64
6546,6552,67,64
6552,6558,60,64
6558,6564,67,64
6564,6570,76,64
6570,6576,67,64
6576,6582,60,64
6582,6588,67,64
6588,6594,59,64
6594,6600,67,64
6600,6606,60,64
6606,6612,67,64
6612,6618,57,64
6618,6624,67,64
6624,6630,59,64
6630,6636,67,64
6636,6642,66,64
6642,6648,67,64
6648,6654,69,64
6654,6660,67,64
6660,6666,66,64
6666,6672,67,64
6672,6678,74,64
6678,6684,67,64
6684,6690,66,64
6690,6696,67,64
6696,6702,59,64
6702,6708,67,64
6708,6714,74,64
6714,6720,67,64
6720,6726,76,64
6726,6732,67,64
6732,6738,77,64
6738,6744,67,64
6744,6750,76,64
6750,6756,67,64
6756,6762,74,64
6762,6768,67,64
6768,6774,60,64
6774,6780,67,64
6780,6786,66,64
6786,6792,67,64
6792,6798,69,64
6798,6804,67,64
6804,6810,66,64
6810,6816,67,64
6816,6822,76,64
6822,6828,67,64
6828,6834,66,64
6834,6840,67,64
6840,6846,60,64
6846,6852,67,64
6852,6858,76,64
6858,6864,67,64
6864,6870,60,64
6870,6876,67,64
6876,6882,62,64
6882,6888,67,64
6888,6894,64,64
6894,6900,67,64
6900,6906,62,64
6906,6912,67,64
6912,6918,61,64
6918,6924,69,64
6924,6930,68,64
6930,6936,69,64
6936,6942,71,64
6942,6948,69,64
6948,6954,68,64
6954,6960,69,64
6960,6966,76,64
6966,6972,69,64
6972,6978,68,64
6978,6984,69,64
6984,6990,61,64
6990,6996,69,64
6996,7002,76,64
7002,7008,69,64
7008,7014,77,64
7014,7020,69,64
7020,7026,79,64
7026,7032,69,64
7032,7038,77,64
7038,7044,69,64
7044,7050,76,64
7050,7056,69,64
7056,7062,62,64
7062,7068,69,64
7068,7074,68,64
7074,7080,69,64
7080,7086,71,64
7086,7092,69,64
7092,7098,68,64
7098,7104,69,64
7104,7110,77,64
7110,7116,69,64
7116,7122,68,64
7122,7128,69,64
7128,7134,62,64
7134,7140,69,64
7140,7146,77,64
7146,7152,69,64
7152,7158,62,64
7158,7164,69,64
7164,7170,61,64
7170,7176,69,64
7176,7182,62,64
7182,7188,69,64
7188,7194,59,64
7194,7200,69,64
7200,7206,61,64
7206,7212,69,64
7212,7218,68,64
7218,7224,69,64
7224,7230,71,64
7230,7236,69,64
7236,7242,68,64
7242,7248,69,64
7248,7254,76,64
7254,7260,69,64
7260,7266,68,64
7266,7272,69,64
7272,7278,61,64
7278,7284,69,64
7284,7290,76,64
7290,7296,69,64
7296,7302,77,64
7302,7308,69,64
7308,7314,79,64
7314,7320,69,64
7320,7326,77,64
7326,7332,69,64
7332,7338,76,64
7338,7344,69,64
7344,7350,62,64
7350,7356,69,64
7356,7362,68,64
7362,7368,69,64
7368,7374,71,64
7374,7380,69,64
7380,7386,68,64
7386,7392,69,64
7392,7398,77,64
7398,7404,69,64
7404,7410,68,64
7410,7416,69,64
7416,7422,62,64
7422,7428,69,64
7428,7434,77,64
7434,7440,69,64
7440,7446,62,64
7446,7452,69,64
7452,7458,64,64
7458,7464,69,64
7464,7470,65,64
7470,7476,69,64
7476,7482,62,64
7482,7488,69,64
7488,7494,67,64
7494,7500,69,64
7500,7506,70,64
7506,7512,72,64
7512,7524,74,64
7524,7536,82,64
7536,7542,65,64
7542,7548,64,64
7548,7554,65,64
7554,7560,62,64
7560,7566,64,64
7566,7572,67,64
7572,7578,69,64
7578,7584,71,64
7584,7590,72,64
7590,7596,74,64
7596,7602,76,64
7602,7608,77,64
7608,7614,79,64
7614,7620,81,64
7620,7626,82,64
7626,7632,79,64
7632,7638,81,64
7638,7644,79,64
7644,7650,77,64
7650,7656,76,64
7656,7668,77,64
7668,7680,81,64
7680,7686,64,64
7686,7692,62,64
7692,7698,64,64
7698,7704,60,64
7704,7710,62,64
7710,7716,65,64
7716,7722,67,64
7722,7728,69,64
7728,7734,70,64
7734,7740,72,64
7740,7746,74,64
7746,7752,76,64
7752,7758,77,64
7758,7764,79,64
7764,7770,81,64
7770,7776,77,64
7776,7782,79,64
7782,7788,77,64
7788,7794,76,64
7794,7800,74,64
7800,7806,73,64
7806,7812,74,64
7812,7818,76,64
7818,7824,69,64
7824,7830,67,64
7830,7836,65,64
7836,7842,67,64
7842,7848,64,64
7848,7854,69,64
7854,7860,67,64
7860,7866,65,64
7866,7872,64,64
7872,7878,62,64
7878,7884,64,64
7884,7890,65,64
7890,7896,60,64
7896,7902,58,64
7902,7908,57,64
7908,7914,58,64
7914,7920,55,64
7920,7926,57,64
7926,7932,67,64
7932,7938,65,64
7938,7944,64,64
7944,7950,57,64
7950,7956,65,64
7956,7962,64,64
7962,7968,62,64
7968,7974,57,64
7974,7980,69,64
7980,7986,67,64
7986,7992,65,64
7992,7998,64,64
7998,8004,61,64
8004,8010,59,64
8010,8016,57,64
8016,8022,67,64
8022,8028,61,64
8028,8034,59,64
8034,8040,57,64
8040,8046,64,64
8046,8052,62,64
8052,8058,61,64
8058,8064,59,64
8064,8070,57,64
8070,8076,67,64
8076,8082,65,64
8082,8088,64,64
8088,8094,57,64
8094,8100,65,64
8100,8106,64,64
8106,8112,62,64
8112,8118,57,64
8118,8124,69,64
8124,8130,67,64
8130,8136,65,64
8136,8142,64,64
8142,8148,61,64
8148,8154,59,64
8154,8160,57,64
8160,8166,69,64
8166,8172,61,64
8172,8178,59,64
8178,8184,57,64
8184,8190,64,64
8190,8196,62,64
8196,8202,61,64
8202,8208,59,64
8208,8214,57,64
8214,8220,67,64
8220,8226,66,64
8226,8232,67,64
8232,8238,73,64
8238,8244,67,64
8244,8250,66,64
8250,8256,67,64
8256,8262,76,64
8262,8268,67,64
8268,8274,66,64
8274,8280,67,64
8280,8286,57,64
8286,8292,65,64
8292,8298,76,64
8298,8304,65,64
8304,8310,74,64
8310,8316,65,64
8316,8322,73,64
8322,8328,65,64
8328,8334,74,64
8334,8340,65,64
8340,8346,57,64
8346,8352,65,64
8352,8358,56,64
8358,8364,65,64
8364,8370,64,64
8370,8376,65,64
8376,8382,71,64
8382,8388,65,64
8388,8394,64,64
8394,8400,65,64
8400,8406,74,64
8406,8412,65,64
8412,8418,64,64
8418,8424,65,64
8424,8430,56,64
8430,8436,65,64
8436,8442,74,64
8442,8448,65,64
8448,8454,56,64
8454,8460,64,64
8460,8466,62,64
8466,8472,64,64
8472,8478,60,64
8478,8484,64,64
8484,8490,59,64
8490,8496,64,64
8496,8502,57,64
8502,8508,64,64
8508,8514,66,64
8514,8520,68,64
8520,8526,69,64
8526,8532,71,64
8532,8538,72,64
8538,8544,69,64
8544,8550,72,64
8550,8556,71,64
8556,8562,69,64
8562,8568,68,64
8568,8574,69,64
8574,8580,72,64
8580,8586,71,64
8586,8592,69,64
8592,8598,76,64
8598,8604,74,64
8604,8610,72,64
8610,8616,71,64
8616,8622,69,64
8622,8628,67,64
8628,8634,65,64
8634,8640,64,64
8640,8646,65,64
8646,8652,69,64
8652,8658,71,64
8658,8664,73,64
8664,8670,74,64
8670,8676,76,64
8676,8682,77,64
8682,8688,74,64
8688,8694,77,64
8694,8700,76,64
8700,8706,74,64
8706,8712,72,64
8712,8718,79,64
8718,8724,74,64
8724,8730,72,64
8730,8736,71,64
8736,8742,74,64
8742,8748,72,64
8748,8754,71,64
8754,8760,69,64
8760,8766,67,64
8766,8772,65,64
8772,8778,64,64
8778,8784,62,64
8784,8790,64,64
8790,8796,67,64
8796,8802,69,64
8802,8808,71,64
8808,8814,72,64
8814,8820,74,64
8820,8826,76,64
8826,8832,77,64
8832,8838,79,64
8838,8844,77,64
8844,8850,76,64
8850,8856,74,64
8856,8862,81,64
8862,8868,72,64
8868,8874,70,64
8874,8880,69,64
8880,8886,72,64
8886,8892,70,64
8892,8898,69,64
8898,8904,67,64
8904,8910,65,64
8910,8916,64,64
8916,8922,62,64
8922,8928,60,64
8928,8934,62,64
8934,8940,65,64
8940,8946,67,64
8946,8952,69,64
8952,8958,71,64
8958,8964,72,64
8964,8970,74,64
8970,8976,76,64
8976,8982,77,64
8982,8988,76,64
8988,8994,74,64
8994,9000,72,64
9000,9006,83,64
9006,9012,77,64
9012,9018,76,64
9018,9024,74,64
9024,9030,72,64
9030,9036,71,64
9036,9042,69,64
9042,9048,67,64
9048,9054,65,64
9054,9060,64,64
9060,9066,65,64
9066,9072,62,64
9072,9078,64,64
9078,9084,67,64
9084,9090,62,64
9090,9096,67,64
9096,9102,64,64
9102,9108,67,64
9108,9114,72,64
9114,9120,67,64
9120,9126,76,64
9126,9132,67,64
9132,9138,72,64
9138,9144,67,64
9144,9150,71,64
9150,9156,74,64
9156,9162,69,64
9162,9168,74,64
9168,9174,71,64
9174,9180,74,64
9180,9186,79,64
9186,9192,74,64
9192,9198,83,64
9198,9204,74,64
9204,9210,79,64
9210,9216,74,64
9216,9222,76,64
9222,9228,79,64
9228,9234,74,64
9234,9240,79,64
9240,9246,72,64
9246,9252,79,64
9252,9258,71,64
9258,9264,79,64
9264,9270,69,64
9270,9276,79,64
9276,9282,81,64
9282,9288,79,64
9288,9294,78,64
9294,9300,76,64
9300,9306,74,64
9306,9312,76,64
9312,9318,78,64
9318,9324,79,64
9324,9330,81,64
9330,9336,83,64
9336,9342,84,64
9342,9348,86,64
9348,9354,88,64
9354,9360,90,64
9360,9366,91,64
9366,9372,86,64
9372,9378,83,64
9378,9384,86,64
9384,9390,79,64
9390,9396,86,64
9396,9402,81,64
9402,9408,86,64
9408,9414,83,64
9414,9420,86,64
9420,9426,79,64
9426,9432,86,64
9432,9438,89,64
9438,9444,86,64
9444,9450,83,64
9450,9456,86,64
9456,9462,79,64
9462,9468,86,64
9468,9474,81,64
9474,9480,86,64
9480,9486,83,64
9486,9492,86,64
9492,9498,79,64
9498,9504,86,64
9504,9510,88,64
9510,9516,84,64
9516,9522,83,64
9522,9528,84,64
9528,9534,79,64
9534,9540,84,64
9540,9546,88,64
9546,9552,84,64
9552,9558,91,64
9558,9564,84,64
9564,9570,88,64
9570,9576,84,64
9576,9582,86,64
9582,9588,83,64
9588,9594,81,64
9594,9600,83,64
9600,9606,79,64
9606,9612,83,64
9612,9618,86,64
9618,9624,83,64
9624,9630,91,64
9630,9636,83,64
9636,9642,86,64
9642,9648,83,64
9648,9654,69,64
9654,9660,81,64
9660,9666,84,64
9666,9672,83,64
9672,9678,81,64
9678,9684,84,64
9684,9690,79,64
9690,9696,84,64
9696,9702,78,64
9702,9708,84,64
9708,9714,76,64
9714,9720,84,64
9720,9726,62,64
9726,9732,72,64
9732,9738,81,64
9738,9744,79,64
9744,9750,78,64
9750,9756,81,64
9756,9762,76,64
9762,9768,81,64
9768,9774,74,64
9774,9780,81,64
9780,9786,72,64
9786,9792,81,64
9792,9798,71,64
9798,9804,74,64
9804,9810,79,64
9810,9816,78,64
9816,9822,79,64
9822,9828,74,64
9828,9834,76,64
9834,9840,72,64
9840,9846,74,64
9846,9852,71,64
9852,9858,72,64
9858,9864,69,64
9864,9870,71,64
9870,9876,67,64
9876,9882,72,64
9882,9888,69,64
9888,9894,71,64
9894,9900,67,64
9900,9906,72,64
9906,9912,69,64
9912,9918,71,64
9918,9924,67,64
9924,9930,74,64
9930,9936,71,64
9936,9942,67,64
9942,9948,77,64
9948,9954,75,64
9954,9960,74,64
9960,9966,67,64
9966,9972,75,64
9972,9978,74,64
9978,9984,72,64
9984,9990,67,64
9990,9996,79,64
9996,10002,77,64
10002,10008,75,64
10008,10014,74,64
10014,10020,71,64
10020,10026,69,64
10026,10032,67,64
10032,10038,77,64
10038,10044,71,64
10044,10050,69,64
10050,10056,67,64
10056,10062,74,64
10062,10068,72,64
10068,10074,71,64
10074,10080,69,64
10080,10086,67,64
10086,10092,65,64
10092,10098,63,64
10098,10104,62,64
10104,10110,67,64
10110,10116,63,64
10116,10122,62,64
10122,10128,60,64
10128,10134,68,64
10134,10140,67,64
10140,10146,65,64
10146,10152,63,64
10152,10158,62,64
10158,10164,59,64
10164,10170,57,64
10170,10176,55,64
10176,10182,65,64
10182,10188,59,64
10188,10194,57,64
10194,10200,55,64
10200,10206,71,64
10206,10212,67,64
10212,10218,69,64
10218,10224,71,64
10224,10230,72,64
10230,10236,74,64
10236,10242,76,64
10242,10248,77,64
10248,10260,79,64
10260,10272,72,64
10272,10278,76,64
10278,10284,74,64
10284,10290,72,64
10290,10296,71,64
10296,10302,72,64
10302,10308,67,64
10308,10314,65,64
10314,10320,64,64
10320,10326,67,64
10326,10332,65,64
10332,10338,64,64
10338,10344,62,64
10344,10368,60,64
10368,10374,67,64
10374,10380,69,64
10380,10386,71,64
10386,10392,72,64
10392,10404,74,64
10404,10416,67,64
10416,10422,69,64
10422,10428,67,64
10428,10434,66,64
10434,10440,64,64
10440,10446,62,64
10446,10452,64,64
10452,10458,66,64
10458,10464,67,64
10464,10470,69,64
10470,10476,71,64
10476,10482,72,64
10482,10488,76,64
10488,10494,74,64
10494,10500,72,64
10500,10506,71,64
10506,10512,69,64
10512,10518,67,64
10518,10524,69,64
10524,10530,71,64
10530,10536,72,64
10536,10548,74,64
10548,10560,67,64
10560,10566,69,64
10566,10572,67,64
10572,10578,66,64
10578,10584,64,64
10584,10590,62,64
10590,10596,64,64
10596,10602,66,64
10602,10608,69,64
10608,10614,67,64
10614,10620,66,64
10620,10626,64,64
10626,10632,62,64
10632,10638,60,64
10638,10644,59,64
10644,10650,60,64
10650,10656,57,64
10656,10662,59,64
10662,10668,67,64
10668,10674,66,64
10674,10680,67,64
10680,10686,69,64
10686,10692,67,64
10692,10698,66,64
10698,10704,67,64
10704,10710,74,64
10710,10716,67,64
10716,10722,66,64
10722,10728,67,64
10728,10734,59,64
10734,10740,67,64
10740,10746,74,64
10746,10752,67,64
10752,10758,76,64
10758,10764,67,64
10764,10770,77,64
10770,10776,67,64
10776,10782,76,64
10782,10788,67,64
10788,10794,74,64
10794,10800,67,64
10800,10806,60,64
10806,10812,67,64
10812,10818,66,64
10818,10824,67,64
10824,10830,69,64
10830,10836,67,64
10836,10842,66,64
10842,10848,67,64
10848,10854,76,64
10854,10860,67,64
10860,10866,66,64
10866,10872,67,64
10872,10878,60,64
10878,10884,67,64
10884,10890,76,64
10890,10896,67,64
10896,10902,60,64
10902,10908,67,64
10908,10914,59,64
10914,10920,67,64
10920,10926,60,64
10926,10932,67,64
10932,10938,57,64
10938,10944,67,64
10944,10950,59,64
10950,10956,67,64
10956,10962,66,64
10962,10968,67,64
10968,10974,69,64
10974,10980,67,64
10980,10986,66,64
10986,10992,67,64
10992,10998,74,64
10998,11004,67,64
11004,11010,66,64
11010,11016,67,64
11016,11022,59,64
11022,11028,67,64
11028,11034,74,64
11034,11040,67,64
11040,11046,76,64
11046,11052,67,64
11052,11058,77,64
11058,11064,67,64
11064,11070,76,64
11070,11076,67,64
11076,11082,74,64
11082,11088,67,64
11088,11094,60,64
11094,11100,67,64
11100,11106,66,64
11106,11112,67,64
11112,11118,69,64
11118,11124,67,64
11124,11130,66,64
11130,11136,67,64
11136,11142,76,64
11142,11148,67,64
11148,11154,66,64
11154,11160,67,64
11160,11166,60,64
11166,11172,67,64
11172,11178,76,64
11178,11184,67,64
11184,11190,60,64
11190,11196,67,64
11196,11202,62,64
11202,11208,67,64
11208,11214,64,64
11214,11220,67,64
11220,11226,62,64
11226,11232,67,64
11232,11238,61,64
11238,11244,69,64
11244,11250,68,64
11250,11256,69,64
11256,11262,71,64
11262,11268,69,64
11268,11274,68,64
11274,11280,69,64
11280,11286,76,64
11286,11292,69,64
11292,11298,68,64
11298,11304,69,64
11304,11310,61,64
11310,11316,69,64
11316,11322,76,64
11322,11328,69,64
11328,11334,77,64
11334,11340,69,64
11340,11346,79,64
11346,11352,69,64
11352,11358,77,64
11358,11364,69,64
11364,11370,76,64
11370,11376,69,64
11376,11382,62,64
11382,11388,69,64
11388,11394,68,64
11394,11400,69,64
11400,11406,71,64
11406,11412,69,64
11412,11418,68,64
11418,11424,69,64
11424,11430,77,64
11430,11436,69,64
11436,11442,68,64
11442,11448,69,64
11448,11454,62,64
11454,11460,69,64
11460,11466,77,64
11466,11472,69,64
11472,11478,62,64
11478,11484,69,64
11484,11490,61,64
11490,11496,69,64
11496,11502,62,64
11502,11508,69,64
11508,11514,59,64
11514,11520,69,64
11520,11526,61,64
11526,11532,69,64
11532,11538,68,64
11538,11544,69,64
11544,11550,71,64
11550,11556,69,64
11556,11562,68,64
11562,11568,69,64
11568,11574,76,64
11574,11580,69,64
11580,11586,68,64
11586,11592,69,64
11592,11598,61,64
11598,11604,69,64
11604,11610,76,64
11610,11616,69,64
11616,11622,77,64
11622,11628,69,64
11628,11634,79,64
11634,11640,69,64
11640,11646,77,64
11646,11652,69,64
11652,11658,76,64
11658,11664,69,64
11664,11670,62,64
11670,11676,69,64
11676,11682,68,64
11682,11688,69,64
11688,11694,71,64
11694,11700,69,64
11700,11706,68,64
11706,11712,69,64
11712,11718,77,64
11718,11724,69,64
11724,11730,68,64
11730,11736,69,64
11736,11742,62,64
11742,11748,69,64
11748,11754,77,64
11754,11760,69,64
11760,11766,62,64
11766,11772,69,64
11772,11778,64,64
11778,11784,69,64
11784,11790,65,64
11790,11796,69,64
11796,11802,62,64
11802,11808,69,64
11808,11814,67,64
11814,11820,69,64
11820,11826,70,64
11826,11832,72,64
11832,11844,74,64
11844,11856,82,64
11856,11862,65,64
11862,11868,64,64
11868,11874,65,64
11874,11880,62,64
11880,11886,64,64
11886,11892,67,64
11892,11898,69,64
11898,11904,71,64
11904,11910,72,64
11910,11916,74,64
11916,11922,76,64
11922,11928,77,64
11928,11934,79,64
11934,11940,81,64
11940,11946,82,64
11946,11952,79,64
11952,11958,81,64
11958,11964,79,64
11964,11970,77,64
11970,11976,76,64
11976,11988,77,64
11988,12000,81,64
12000,12006,64,64
12006,12012,62,64
12012,12018,64,64
12018,12024,60,64
12024,12030,62,64
12030,12036,65,64
12036,12042,67,64
12042,12048,69,64
12048,12054,70,64
12054,12060,72,64
12060,12066,74,64
12066,12072,76,64
12072,12078,77,64
12078,12084,79,64
12084,12090,81,64
12090,12096,77,64
12096,12102,79,64
12102,12108,77,64
12108,12114,76,64
12114,12120,74,64
12120,12126,73,64
12126,12132,74,64
12132,12138,76,64
12138,12144,69,64
12144,12150,67,64
12150,12156,65,64
12156,12162,67,64
12162,12168,64,64
12168,12174,69,64
12174,12180,67,64
12180,12186,65,64
12186,12192,64,64
12192,12198,62,64
12198,12204,64,64
12204,12210,65,64
12210,12216,60,64
12216,12222,58,64
12222,12228,57,64
12228,12234,58,64
12234,12240,55,64
12240,12246,57,64
12246,12252,67,64
12252,12258,65,64
12258,12264,64,64
12264,12270,57,64
12270,12276,65,64
12276,12282,64,64
12282,12288,62,64
12288,12294,57,64
12294,12300,69,64
12300,12306,67,64
12306,12312,65,64
12312,12318,64,64
12318,12324,61,64
12324,12330,59,64
12330,12336,57,64
12336,12342,67,64
12342,12348,61,64
12348,12354,59,64
12354,12360,57,64
12360,12366,64,64
12366,12372,62,64
12372,12378,61,64
12378,12384,59,64
12384,12390,57,64
12390,12396,67,64
12396,12402,65,64
12402,12408,64,64
12408,12414,57,64
12414,12420,65,64
12420,12426,64,64
12426,12432,62,64
12432,12438,57,64
12438,12444,69,64
12444,12450,67,64
12450,12456,65,64
12456,12462,64,64
12462,12468,61,64
12468,12474,59,64
12474,12480,57,64
12480,12486,69,64
12486,12492,61,64
12492,12498,59,64
12498,12504,57,64
12504,12510,64,64
12510,12516,62,64
12516,12522,61,64
12522,12528,59,64
12528,12534,57,64
12534,12540,67,64
12540,12546,66,64
12546,12552,67,64
12552,12558,73,64
12558,12564,67,64
12564,12570,66,64
12570,12576,67,64
12576,12582,76,64
12582,12588,67,64
12588,12594,66,64
12594,12600,67,64
12600,12606,57,64
12606,12612,65,64
12612,12618,76,64
12618,12624,65,64
12624,12630,74,64
12630,12636,65,64
12636,12642,73,64
12642,12648,65,64
12648,12654,74,64
12654,12660,65,64
12660,12666,57,64
12666,12672,65,64
12672,12678,56,64
12678,12684,65,64
12684,12690,64,64
12690,12696,65,64
12696,12702,71,64
12702,12708,65,64
12708,12714,64,64
12714,12720,65,64
12720,12726,74,64
12726,12732,65,64
12732,12738,64,64
12738,12744,65,64
12744,12750,56,64
12750,12756,65,64
12756,12762,74,64
12762,12768,65,64
12768,12774,56,64
12774,12780,64,64
12780,12786,62,64
12786,12792,64,64
12792,12798,60,64
12798,12804,64,64
12804,12810,59,64
12810,12816,64,64
12816,12822,57,64
12822,12828,64,64
12828,12834,66,64
12834,12840,68,64
12840,12846,69,64
12846,12852,71,64
12852,12858,72,64
12858,12864,69,64
12864,12870,72,64
12870,12876,71,64
12876,12882,69,64
12882,12888,68,64
12888,12894,69,64
12894,12900,72,64
12900,12906,71,64
12906,12912,69,64
12912,12918,76,64
12918,12924,74,64
12924,12930,72,64
12930,12936,71,64
12936,12942,69,64
12942,12948,67,64
12948,12954,65,64
12954,12960,64,64
12960,12966,65,64
12966,12972,69,64
12972,12978,71,64
12978,12984,73,64
12984,12990,74,64
12990,12996,76,64
12996,13002,77,64
13002,13008,74,64
13008,13014,77,64
13014,13020,76,64
13020,13026,74,64
13026,13032,72,64
13032,13038,79,64
13038,13044,74,64
13044,13050,72,64
13050,13056,71,64
13056,13062,74,64
13062,13068,72,64
13068,13074,71,64
13074,13080,69,64
13080,13086,67,64
13086,13092,65,64
13092,13098,64,64
13098,13104,62,64
13104,13110,64,64
13110,13116,67,64
13116,13122,69,64
13122,13128,71,64
13128,13134,72,64
13134,13140,74,64
13140,13146,76,64
13146,13152,77,64
13152,13158,79,64
13158,13164,77,64
13164,13170,76,64
13170,13176,74,64
13176,13182,81,64
13182,13188,72,64
13188,13194,70,64
13194,13200,69,64
13200,13206,72,64
13206,13212,70,64
13212,13218,69,64
13218,13224,67,64
13224,13230,65,64
13230,13236,64,64
13236,13242,62,64
13242,13248,60,64
13248,13254,62,64
13254,13260,65,64
13260,13266,67,64
13266,13272,69,64
13272,13278,71,64
13278,13284,72,64
13284,13290,74,64
13290,13296,76,64
13296,13302,77,64
13302,13308,76,64
13308,13314,74,64
13314,13320,72,64
13320,13326,83,64
13326,13332,77,64
13332,13338,76,64
13338,13344,74,64
13344,13350,72,64
13350,13356,71,64
13356,13362,69,64
13362,13368,67,64
13368,13374,65,64
13374,13380,64,64
13380,13386,65,64
13386,13392,62,64
13392,13398,64,64
13398,13404,67,64
13404,13410,62,64
13410,13416,67,64
13416,13422,64,64
13422,13428,67,64
13428,13434,72,64
13434,13440,67,64
13440,13446,76,64
13446,13452,67,64
13452,13458,72,64
13458,13464,67,64
13464,13470,71,64
13470,13476,74,64
13476,13482,69,64
13482,13488,74,64
13488,13494,71,64
13494,13500,74,64
13500,13506,79,64
13506,13512,74,64
13512,13518,83,64
13518,13524,74,64
13524,13530,79,64
13530,13536,74,64
13536,13542,76,64
13542,13548,79,64
13548,13554,74,64
13554,13560,79,64
13560,13566,72,64
13566,13572,79,64
13572,13578,71,64
13578,13584,79,64
13584,13590,69,64
13590,13596,79,64
13596,13602,81,64
13602,13608,79,64
13608,13614,78,64
13614,13620,76,64
13620,13626,74,64
13626,13632,76,64
13632,13638,78,64
13638,13644,79,64
13644,13650,81,64
13650,13656,83,64
13656,13662,84,64
13662,13668,86,64
13668,13674,88,64
13674,13680,90,64
13680,13686,91,64
13686,13692,86,64
13692,13698,83,64
13698,13704,86,64
13704,13710,79,64
13710,13716,86,64
13716,13722,81,64
13722,13728,86,64
13728,13734,83,64
13734,13740,86,64
13740,13746,79,64
13746,13752,86,64
13752,13758,89,64
13758,13764,86,64
13764,13770,83,64
13770,13776,86,64
13776,13782,79,64
13782,13788,86,64
13788,13794,81,64
13794,13800,86,64
13800,13806,83,64
13806,13812,86,64
13812,13818,79,64
13818,13824,86,64
13824,13830,88,64
13830,13836,84,64
13836,13842,83,64
13842,13848,84,64
13848,13854,79,64
13854,13860,84,64
13860,13866,88,64
13866,13872,84,64
13872,13878,91,64
13878,13884,84,64
13884,13890,88,64
13890,13896,84,64
13896,13902,86,64
13902,13908,83,64
13908,13914,81,64
13914,13920,83,64
13920,13926,79,64
13926,13932,83,64
13932,13938,86,64
13938,13944,83,64
13944,13950,91,64
13950,13956,83,64
13956,13962,86,64
13962,13968,83,64
13968,13974,69,64
13974,13980,81,64
13980,13986,84,64
13986,13992,83,64
13992,13998,81,64
13998,14004,84,64
14004,14010,79,64
14010,14016,84,64
14016,14022,78,64
14022,14028,84,64
14028,14034,76,64
14034,14040,84,64
14040,14046,62,64
14046,14052,72,64
14052,14058,81,64
14058,14064,79,64
14064,14070,78,64
14070,14076,81,64
14076,14082,76,64
14082,14088,81,64
14088,14094,74,64
14094,14100,81,64
14100,14106,72,64
14106,14112,81,64
14112,14118,71,64
14118,14124,74,64
14124,14130,79,64
14130,14136,78,64
14136,14142,79,64
14142,14148,74,64
14148,14154,76,64
14154,14160,72,64
14160,14166,74,64
14166,14172,71,64
14172,14178,72,64
14178,14184,69,64
14184,14190,71,64
14190,14196,67,64
14196,14202,72,64
14202,14208,69,64
14208,14214,71,64
14214,14220,67,64
14220,14226,72,64
14226,14232,69,64
14232,14238,71,64
14238,14244,67,64
14244,14250,74,64
14250,14256,71,64
14256,14262,67,64
14262,14268,77,64
14268,14274,75,64
14274,14280,74,64
14280,14286,67,64
14286,14292,75,64
14292,14298,74,64
14298,14304,72,64
14304,14310,67,64
14310,14316,79,64
14316,14322,77,64
14322,14328,75,64
14328,14334,74,64
14334,14340,71,64
14340,14346,69,64
14346,14352,67,64
14352,14358,77,64
14358,14364,71,64
14364,14370,69,64
14370,14376,67,64
14376,14382,74,64
14382,14388,72,64
14388,14394,71,64
14394,14400,69,64
14400,14406,67,64
14406,14412,65,64
14412,14418,63,64
14418,14424,62,64
14424,14430,67,64
14430,14436,63,64
14436,14442,62,64
14442,14448,60,64
14448,14454,68,64
14454,14460,67,64
14460,14466,65,64
14466,14472,63,64
14472,14478,62,64
14478,14484,59,64
14484,14490,57,64
14490,14496,55,64
14496,14502,65,64
14502,14508,59,64
14508,14514,57,64
14514,14520,55,64
14520,14526,71,64
14526,14532,67,64
14532,14538,69,64
14538,14544,71,64
14544,14550,72,64
14550,14556,74,64
14556,14562,76,64
14562,14568,77,64
14568,14580,79,64
14580,14592,72,64
14592,14598,76,64
14598,14604,74,64
14604,14610,72,64
14610,14616,71,64
14616,14622,72,64
14622,14628,67,64
14628,14634,65,64
14634,14640,64,64
14640,14646,67,64
14646,14652,65,64
14652,14658,64,64
14658,14664,62,64
14664,14688,60,64
