onset,offset,pitch,velocity
0,6,78,64
6,12,71,64
12,18,74,64
18,24,78,64
24,30,83,64
30,36,79,64
36,42,76,64
42,48,73,64
48,54,76,64
54,60,70,64
60,66,79,64
66,72,78,64
72,78,76,64
78,84,74,64
84,90,71,64
90,96,66,64
96,102,69,64
102,108,67,64
108,114,78,64
114,120,76,64
120,126,74,64
126,132,73,64
132,138,76,64
138,144,79,64
144,150,71,64
150,156,70,64
156,162,73,64
162,168,66,64
168,174,64,64
174,180,62,64
180,186,71,64
186,192,61,64
192,198,73,64
198,204,74,64
204,210,66,64
210,216,59,64
216,222,61,64
222,228,62,64
228,234,64,64
234,240,66,64
240,246,67,64
246,252,69,64
252,258,62,64
258,264,66,64
264,270,69,64
270,276,74,64
276,282,76,64
282,288,78,64
288,294,69,64
294,300,71,64
300,306,67,64
306,312,71,64
312,318,74,64
318,324,79,64
324,330,71,64
330,336,67,64
336,342,64,64
342,348,61,64
348,354,64,64
354,360,69,64
360,366,79,64
366,372,78,64
372,378,62,64
378,384,67,64
384,390,76,64
390,396,73,64
396,402,69,64
402,408,73,64
408,414,76,64
414,420,81,64
420,426,72,64
426,432,69,64
432,438,66,64
438,444,63,64
444,450,66,64
450,456,71,64
456,462,78,64
462,468,81,64
468,474,84,64
474,480,83,64
480,486,81,64
486,492,79,64
492,498,83,64
498,504,79,64
504,510,76,64
510,516,71,64
516,522,74,64
522,528,73,64
528,534,71,64
534,540,70,64
540,546,79,64
546,552,78,64
552,558,64,64
558,564,62,64
564,570,66,64
570,576,71,64
576,582,74,64
582,588,68,64
588,594,78,64
594,600,76,64
600,606,62,64
606,612,61,64
612,618,64,64
618,624,67,64
624,630,59,64
630,636,58,64
636,642,66,64
642,648,73,64
648,654,76,64
654,660,74,64
660,666,66,64
666,672,59,64
672,678,74,64
678,684,73,64
684,690,78,64
690,696,73,64
696,702,70,64
702,708,66,64
708,714,70,64
714,720,73,64
720,726,64,64
726,732,62,64
732,738,78,64
738,744,74,64
744,750,71,64
750,756,68,64
756,762,71,64
762,768,76,64
768,774,70,64
774,780,71,64
780,786,76,64
786,792,78,64
792,798,73,64
798,804,74,64
804,810,71,64
810,816,80,64
816,822,71,64
822,828,65,64
828,834,73,64
834,840,83,64
840,846,80,64
846,852,81,64
852,858,73,64
858,864,66,64
864,870,81,64
870,876,80,64
876,882,73,64
882,888,77,64
888,894,80,64
894,900,85,64
900,906,76,64
906,912,70,64
912,918,76,64
918,924,59,64
924,930,66,64
930,936,76,64
936,942,73,64
942,948,74,64
948,954,78,64
954,960,83,64
960,966,85,64
966,972,86,64
972,978,77,64
978,984,68,64
984,990,77,64
990,996,61,64
996,1002,86,64
1002,1008,77,64
1008,1014,85,64
1014,1020,83,64
1020,1026,81,64
1026,1032,80,64
1032,1038,78,64
1038,1044,73,64
1044,1050,78,64
1050,1056,80,64
1056,1062,77,64
1062,1068,78,64
1068,1074,73,64
1074,1080,70,64
1080,1086,76,64
1086,1092,74,64
1092,1098,65,64
1098,1104,68,64
1104,1110,71,64
1110,1116,70,64
1116,1122,66,64
1122,1128,70,64
1128,1134,73,64
1134,1152,78,64
1152,1158,78,64
1158,1164,71,64
1164,1170,74,64
1170,1176,78,64
1176,1182,83,64
1182,1188,79,64
1188,1194,76,64
1194,1200,73,64
1200,1206,76,64
1206,1212,70,64
1212,1218,79,64
1218,1224,78,64
1224,1230,76,64
1230,1236,74,64
1236,1242,71,64
1242,1248,66,64
1248,1254,69,64
1254,1260,67,64
1260,1266,78,64
1266,1272,76,64
1272,1278,74,64
1278,1284,73,64
1284,1290,76,64
1290,1296,79,64
1296,1302,71,64
1302,1308,70,64
1308,1314,73,64
1314,1320,66,64
1320,1326,64,64
1326,1332,62,64
1332,1338,71,64
1338,1344,61,64
1344,1350,73,64
1350,1356,74,64
1356,1362,66,64
1362,1368,59,64
1368,1374,61,64
1374,1380,62,64
1380,1386,64,64
1386,1392,66,64
1392,1398,67,64
1398,1404,69,64
1404,1410,62,64
1410,1416,66,64
1416,1422,69,64
1422,1428,74,64
1428,1434,76,64
1434,1440,78,64
1440,1446,69,64
1446,1452,71,64
1452,1458,67,64
1458,1464,71,64
1464,1470,74,64
1470,1476,79,64
1476,1482,71,64
1482,1488,67,64
1488,1494,64,64
1494,1500,61,64
1500,1506,64,64
1506,1512,69,64
1512,1518,79,64
1518,1524,78,64
1524,1530,62,64
1530,1536,67,64
1536,1542,76,64
1542,1548,73,64
1548,1554,69,64
1554,1560,73,64
1560,1566,76,64
1566,1572,81,64
1572,1578,72,64
1578,1584,69,64
1584,1590,66,64
1590,1596,63,64
1596,1602,66,64
1602,1608,71,64
1608,1614,78,64
1614,1620,81,64
1620,1626,84,64
1626,1632,83,64
1632,1638,81,64
1638,1644,79,64
1644,1650,83,64
1650,1656,79,64
1656,1662,76,64
1662,1668,71,64
1668,1674,74,64
1674,1680,73,64
1680,1686,71,64
1686,1692,70,64
1692,1698,79,64
1698,1704,78,64
1704,1710,64,64
1710,1716,62,64
1716,1722,66,64
1722,1728,71,64
1728,1734,74,64
1734,1740,68,64
1740,1746,78,64
1746,1752,76,64
1752,1758,62,64
1758,1764,61,64
1764,1770,64,64
1770,1776,67,64
1776,1782,59,64
1782,1788,58,64
1788,1794,66,64
1794,1800,73,64
1800,1806,76,64
1806,1812,74,64
1812,1818,66,64
1818,1824,59,64
1824,1830,74,64
1830,1836,73,64
1836,1842,78,64
1842,1848,73,64
1848,1854,70,64
1854,1860,66,64
1860,1866,70,64
1866,1872,73,64
1872,1878,64,64
1878,1884,62,64
1884,1890,78,64
1890,1896,74,64
1896,1902,71,64
1902,1908,68,64
1908,1914,71,64
1914,1920,76,64
1920,1926,70,64
1926,1932,71,64
1932,1938,76,64
1938,1944,78,64
1944,1950,73,64
1950,1956,74,64
1956,1962,71,64
1962,1968,80,64
1968,1974,71,64
1974,1980,65,64
1980,1986,73,64
1986,1992,83,64
1992,1998,80,64
1998,2004,81,64
2004,2010,73,64
2010,2016,66,64
2016,2022,81,64
2022,2028,80,64
2028,2034,73,64
2034,2040,77,64
2040,2046,80,64
2046,2052,85,64
2052,2058,76,64
2058,2064,70,64
2064,2070,76,64
2070,2076,59,64
2076,2082,66,64
2082,2088,76,64
2088,2094,73,64
2094,2100,74,64
2100,2106,78,64
2106,2112,83,64
2112,2118,85,64
2118,2124,86,64
2124,2130,77,64
2130,2136,68,64
2136,2142,77,64
2142,2148,61,64
2148,2154,86,64
2154,2160,77,64
2160,2166,85,64
2166,2172,83,64
2172,2178,81,64
2178,2184,80,64
2184,2190,78,64
2190,2196,73,64
2196,2202,78,64
2202,2208,80,64
2208,2214,77,64
2214,2220,78,64
2220,2226,73,64
2226,2232,70,64
2232,2238,76,64
2238,2244,74,64
2244,2250,65,64
2250,2256,68,64
2256,2262,71,64
2262,2268,70,64
2268,2274,66,64
2274,2280,70,64
2280,2286,73,64
2286,2304,78,64
2304,2310,73,64
2310,2316,73,64
2316,2322,79,64
2322,2328,76,64
2328,2334,73,64
2334,2340,70,64
2340,2346,66,64
2346,2352,73,64
2352,2358,64,64
2358,2364,62,64
2364,2370,66,64
2370,2376,71,64
2376,2382,62,64
2382,2388,61,64
2388,2394,59,64
2394,2400,58,64
2400,2406,64,64
2406,2412,62,64
2412,2418,59,64
2418,2424,62,64
2424,2430,66,64
2430,2436,71,64
2436,2442,67,64
2442,2448,66,64
2448,2454,64,64
2454,2460,63,64
2460,2466,66,64
2466,2472,69,64
2472,2478,72,64
2478,2484,71,64
2484,2490,69,64
2490,2496,78,64
2496,2502,69,64
2502,2508,67,64
2508,2514,71,64
2514,2520,76,64
2520,2526,79,64
2526,2532,78,64
2532,2538,81,64
2538,2544,75,64
2544,2550,76,64
2550,2556,71,64
2556,2562,76,64
2562,2568,75,64
2568,2574,78,64
2574,2580,83,64
2580,2586,78,64
2586,2592,75,64
2592,2598,69,64
2598,2604,68,64
2604,2610,71,64
2610,2616,76,64
2616,2622,80,64
2622,2628,83,64
2628,2634,86,64
2634,2640,84,64
2640,2646,83,64
2646,2652,84,64
2652,2658,81,64
2658,2664,76,64
2664,2670,72,64
2670,2676,69,64
2676,2682,79,64
2682,2688,78,64
2688,2694,76,64
2694,2700,75,64
2700,2706,78,64
2706,2712,81,64
2712,2718,84,64
2718,2724,83,64
2724,2730,81,64
2730,2736,75,64
2736,2742,81,64
2742,2748,79,64
2748,2754,83,64
2754,2760,79,64
2760,2766,76,64
2766,2772,71,64
2772,2778,79,64
2778,2784,86,64
2784,2790,77,64
2790,2796,76,64
2796,2802,71,64
2802,2808,72,64
2808,2814,76,64
2814,2820,70,64
2820,2826,71,64
2826,2832,63,64
2832,2838,64,64
2838,2844,55,64
2844,2850,64,64
2850,2856,71,64
2856,2862,79,64
2862,2868,78,64
2868,2874,76,64
2874,2880,71,64
2880,2886,75,64
2886,2892,64,64
2892,2898,67,64
2898,2904,71,64
2904,2910,76,64
2910,2916,71,64
2916,2922,67,64
2922,2928,64,64
2928,2934,67,64
2934,2940,61,64
2940,2946,69,64
2946,2952,76,64
2952,2958,67,64
2958,2964,66,64
2964,2970,81,64
2970,2976,64,64
2976,2982,79,64
2982,2988,62,64
2988,2994,79,64
2994,3000,78,64
3000,3006,76,64
3006,3012,74,64
3012,3018,78,64
3018,3024,82,64
3024,3030,83,64
3030,3036,76,64
3036,3042,73,64
3042,3048,70,64
3048,3054,73,64
3054,3060,62,64
3060,3066,78,64
3066,3072,61,64
3072,3078,76,64
3078,3084,59,64
3084,3090,76,64
3090,3096,74,64
3096,3102,73,64
3102,3108,71,64
3108,3114,74,64
3114,3120,78,64
3120,3126,79,64
3126,3132,72,64
3132,3138,69,64
3138,3144,66,64
3144,3150,69,64
3150,3156,62,64
3156,3162,66,64
3162,3168,69,64
3168,3174,72,64
3174,3180,78,64
3180,3186,71,64
3186,3192,63,64
3192,3198,66,64
3198,3204,71,64
3204,3210,75,64
3210,3216,78,64
3216,3222,81,64
3222,3228,79,64
3228,3234,76,64
3234,3240,71,64
3240,3246,74,64
3246,3252,72,64
3252,3258,76,64
3258,3264,79,64
3264,3270,71,64
3270,3276,70,64
3276,3282,79,64
3282,3288,78,64
3288,3294,64,64
3294,3300,62,64
3300,3306,83,64
3306,3312,82,64
3312,3318,83,64
3318,3324,77,64
3324,3330,78,64
3330,3336,70,64
3336,3342,71,64
3342,3348,66,64
3348,3354,74,64
3354,3360,73,64
3360,3366,70,64
3366,3372,71,64
3372,3378,59,64
3378,3384,62,64
3384,3390,66,64
3390,3396,71,64
3396,3402,74,64
3402,3408,78,64
3408,3414,82,64
3414,3420,83,64
3420,3426,78,64
3426,3432,74,64
3432,3438,71,64
3438,3456,59,64
3456,3462,73,64
3462,3468,73,64
3468,3474,79,64
3474,3480,76,64
3480,3486,73,64
3486,3492,70,64
3492,3498,66,64
3498,3504,73,64
3504,3510,64,64
3510,3516,62,64
3516,3522,66,64
3522,3528,71,64
3528,3534,62,64
3534,3540,61,64
3540,3546,59,64
3546,3552,58,64
3552,3558,64,64
3558,3564,62,64
3564,3570,59,64
3570,3576,62,64
3576,3582,66,64
3582,3588,71,64
3588,3594,67,64
3594,3600,66,64
3600,3606,64,64
3606,3612,63,64
3612,3618,66,64
3618,3624,69,64
3624,3630,72,64
3630,3636,71,64
3636,3642,69,64
3642,3648,78,64
3648,3654,69,64
3654,3660,67,64
3660,3666,71,64
3666,3672,76,64
3672,3678,79,64
3678,3684,78,64
3684,3690,81,64
3690,3696,75,64
3696,3702,76,64
3702,3708,71,64
3708,3714,76,64
3714,3720,75,64
3720,3726,78,64
3726,3732,83,64
3732,3738,78,64
3738,3744,75,64
3744,3750,69,64
3750,3756,68,64
3756,3762,71,64
3762,3768,76,64
3768,3774,80,64
3774,3780,83,64
3780,3786,86,64
3786,3792,84,64
3792,3798,83,64
3798,3804,84,64
3804,3810,81,64
3810,3816,76,64
3816,3822,72,64
3822,3828,69,64
3828,3834,79,64
3834,3840,78,64
3840,3846,76,64
3846,3852,75,64
3852,3858,78,64
3858,3864,81,64
3864,3870,84,64
3870,3876,83,64
3876,3882,81,64
3882,3888,75,64
3888,3894,81,64
3894,3900,79,64
3900,3906,83,64
3906,3912,79,64
3912,3918,76,64
3918,3924,71,64
3924,3930,79,64
3930,3936,86,64
3936,3942,77,64
3942,3948,76,64
3948,3954,71,64
3954,3960,72,64
3960,3966,76,64
3966,3972,70,64
3972,3978,71,64
3978,3984,63,64
3984,3990,64,64
3990,3996,55,64
3996,4002,64,64
4002,4008,71,64
4008,4014,79,64
4014,4020,78,64
4020,4026,76,64
4026,4032,71,64
4032,4038,75,64
4038,4044,64,64
4044,4050,67,64
4050,4056,71,64
4056,4062,76,64
4062,4068,71,64
4068,4074,67,64
4074,4080,64,64
4080,4086,67,64
4086,4092,61,64
4092,4098,69,64
4098,4104,76,64
4104,4110,67,64
4110,4116,66,64
4116,4122,81,64
4122,4128,64,64
4128,4134,79,64
4134,4140,62,64
4140,4146,79,64
4146,4152,78,64
4152,4158,76,64
4158,4164,74,64
4164,4170,78,64
4170,4176,82,64
4176,4182,83,64
4182,4188,76,64
4188,4194,73,64
4194,4200,70,64
4200,4206,73,64
4206,4212,62,64
4212,4218,78,64
4218,4224,61,64
4224,4230,76,64
4230,4236,59,64
4236,4242,76,64
4242,4248,74,64
4248,4254,73,64
4254,4260,71,64
4260,4266,74,64
4266,4272,78,64
4272,4278,79,64
4278,4284,72,64
4284,4290,69,64
4290,4296,66,64
4296,4302,69,64
4302,4308,62,64
4308,4314,66,64
4314,4320,69,64
4320,4326,72,64
4326,4332,78,64
4332,4338,71,64
4338,4344,63,64
4344,4350,66,64
4350,4356,71,64
4356,4362,75,64
4362,4368,78,64
4368,4374,81,64
4374,4380,79,64
4380,4386,76,64
4386,4392,71,64
4392,4398,74,64
4398,4404,72,64
4404,4410,76,64
4410,4416,79,64
4416,4422,71,64
4422,4428,70,64
4428,4434,79,64
4434,4440,78,64
4440,4446,64,64
4446,4452,62,64
4452,4458,83,64
4458,4464,82,64
4464,4470,83,64
4470,4476,77,64
4476,4482,78,64
4482,4488,70,64
4488,4494,71,64
4494,4500,66,64
4500,4506,74,64
4506,4512,73,64
4512,4518,70,64
4518,4524,71,64
4524,4530,59,64
4530,4536,62,64
4536,4542,66,64
4542,4548,71,64
4548,4554,74,64
4554,4560,78,64
4560,4566,82,64
4566,4572,83,64
4572,4578,78,64
4578,4584,74,64
4584,4590,71,64
4590,4608,59,64
