onset,offset,pitch,velocity
0,6,69,64
6,12,72,64
12,18,76,64
18,24,81,64
24,30,76,64
30,36,74,64
36,42,72,64
42,48,71,64
48,54,69,64
54,60,72,64
60,66,76,64
66,72,81,64
72,78,76,64
78,84,74,64
84,90,72,64
90,96,71,64
96,102,69,64
102,105,72,64
105,108,74,64
108,114,76,64
114,120,64,64
120,126,69,64
126,132,72,64
132,138,76,64
138,144,68,64
144,150,69,64
150,153,72,64
153,156,74,64
156,162,76,64
162,168,64,64
168,174,69,64
174,180,72,64
180,186,76,64
186,192,68,64
192,198,69,64
198,201,71,64
201,204,72,64
204,210,74,64
210,213,72,64
213,216,71,64
216,222,72,64
222,225,74,64
225,228,76,64
228,234,77,64
234,237,76,64
237,240,74,64
240,246,76,64
246,252,81,64
252,258,77,64
258,264,74,64
264,270,76,64
270,276,74,64
276,282,72,64
282,288,71,64
288,294,69,64
294,297,71,64
297,300,72,64
300,306,74,64
306,309,72,64
309,312,71,64
312,318,72,64
318,321,74,64
321,324,76,64
324,330,77,64
330,333,76,64
333,336,74,64
336,342,76,64
342,348,81,64
348,354,77,64
354,360,74,64
360,366,76,64
366,372,74,64
372,378,72,64
378,384,71,64
384,390,69,64
390,396,72,64
396,402,76,64
402,408,81,64
408,414,84,64
414,420,76,64
420,426,72,64
426,432,69,64
432,438,68,64
438,444,71,64
444,450,76,64
450,456,80,64
456,462,83,64
462,468,74,64
468,474,72,64
474,480,71,64
480,486,69,64
486,492,72,64
492,498,76,64
498,504,81,64
504,510,84,64
510,516,76,64
516,522,72,64
522,528,69,64
528,534,68,64
534,540,71,64
540,546,76,64
546,552,80,64
552,558,83,64
558,564,74,64
564,570,72,64
570,576,71,64
576,582,69,64
582,588,72,64
588,594,76,64
594,600,79,64
600,606,77,64
606,612,72,64
612,618,71,64
618,624,69,64
624,630,67,64
630,636,71,64
636,642,74,64
642,648,77,64
648,654,76,64
654,660,71,64
660,666,69,64
666,672,67,64
672,678,65,64
678,684,69,64
684,690,72,64
690,696,76,64
696,702,74,64
702,708,72,64
708,714,71,64
714,720,69,64
720,726,68,64
726,732,76,64
732,738,71,64
738,744,68,64
744,750,64,64
750,756,65,64
756,762,62,64
762,768,64,64
768,774,61,64
774,780,69,64
780,786,76,64
786,792,67,64
792,798,65,64
798,804,62,64
804,810,65,64
810,816,60,64
816,822,59,64
822,828,67,64
828,834,74,64
834,840,65,64
840,846,64,64
846,852,60,64
852,858,64,64
858,864,59,64
864,870,57,64
870,876,65,64
876,882,72,64
882,888,64,64
888,894,62,64
894,900,59,64
900,906,62,64
906,912,57,64
912,918,56,64
918,924,64,64
924,930,71,64
930,936,62,64
936,942,60,64
942,948,57,64
948,954,62,64
954,960,59,64
960,966,64,64
966,972,60,64
972,978,57,64
978,984,60,64
984,990,64,64
990,996,69,64
996,1002,72,64
1002,1008,64,64
1008,1014,63,64
1014,1020,72,64
1020,1026,71,64
1026,1032,69,64
1032,1038,78,64
1038,1044,69,64
1044,1050,67,64
1050,1056,66,64
1056,1062,64,64
1062,1068,59,64
1068,1074,55,64
1074,1080,59,64
1080,1086,64,64
1086,1092,67,64
1092,1098,71,64
1098,1104,62,64
1104,1110,61,64
1110,1116,71,64
1116,1122,69,64
1122,1128,67,64
1128,1134,76,64
1134,1140,79,64
1140,1146,78,64
1146,1152,76,64
1152,1158,75,64
1158,1164,69,64
1164,1170,66,64
1170,1176,69,64
1176,1182,75,64
1182,1188,78,64
1188,1194,81,64
1194,1200,72,64
1200,1206,71,64
1206,1212,66,64
1212,1218,63,64
1218,1224,66,64
1224,1230,71,64
1230,1236,75,64
1236,1242,78,64
1242,1248,81,64
1248,1254,79,64
1254,1257,83,64
1257,1260,81,64
1260,1266,79,64
1266,1272,78,64
1272,1278,76,64
1278,1284,84,64
1284,1290,69,64
1290,1293,71,64
1293,1296,72,64
1296,1302,62,64
1302,1305,81,64
1305,1308,79,64
1308,1314,78,64
1314,1320,76,64
1320,1326,74,64
1326,1332,83,64
1332,1338,67,64
1338,1341,69,64
1341,1344,71,64
1344,1350,60,64
1350,1353,79,64
1353,1356,78,64
1356,1362,76,64
1362,1368,74,64
1368,1374,72,64
1374,1377,81,64
1377,1380,79,64
1380,1386,78,64
1386,1392,76,64
1392,1398,75,64
1398,1401,78,64
1401,1404,75,64
1404,1410,71,64
1410,1416,69,64
1416,1422,67,64
1422,1428,76,64
1428,1434,66,64
1434,1440,74,64
1440,1446,64,64
1446,1449,74,64
1449,1452,71,64
1452,1458,67,64
1458,1464,65,64
1464,1470,64,64
1470,1476,72,64
1476,1482,62,64
1482,1488,71,64
1488,1494,60,64
1494,1497,71,64
1497,1500,67,64
1500,1506,64,64
1506,1512,62,64
1512,1518,60,64
1518,1524,69,64
1524,1530,59,64
1530,1536,67,64
1536,1542,57,64
1542,1545,59,64
1545,1548,60,64
1548,1554,62,64
1554,1557,60,64
1557,1560,59,64
1560,1566,60,64
1566,1569,62,64
1569,1572,64,64
1572,1578,65,64
1578,1581,64,64
1581,1584,62,64
1584,1590,64,64
1590,1593,66,64
1593,1596,68,64
1596,1602,69,64
1602,1605,68,64
1605,1608,66,64
1608,1614,68,64
1614,1617,69,64
1617,1620,71,64
1620,1626,72,64
1626,1629,71,64
1629,1632,69,64
1632,1638,78,64
1638,1644,72,64
1644,1650,63,64
1650,1656,72,64
1656,1662,71,64
1662,1668,69,64
1668,1674,67,64
1674,1680,66,64
1680,1686,67,64
1686,1692,69,64
1692,1698,71,64
1698,1704,72,64
1704,1722,66,64
1704,1728,59,64
1722,1728,64,64
1728,1734,64,64
1734,1737,61,64
1737,1740,62,64
1740,1746,64,64
1746,1752,69,64
1752,1758,66,64
1758,1761,63,64
1761,1764,64,64
1764,1770,66,64
1770,1776,71,64
1776,1782,67,64
1782,1785,64,64
1785,1788,66,64
1788,1794,67,64
1794,1800,72,64
1800,1806,69,64
1806,1809,66,64
1809,1812,67,64
1812,1818,69,64
1818,1824,74,64
1824,1830,71,64
1830,1836,67,64
1836,1842,71,64
1842,1848,75,64
1848,1854,76,64
1854,1860,79,64
1860,1866,83,64
1866,1872,74,64
1872,1878,72,64
1878,1884,69,64
1884,1890,72,64
1890,1896,76,64
1896,1902,77,64
1902,1908,81,64
1908,1914,84,64
1914,1920,76,64
1920,1926,71,64
1926,1932,75,64
1932,1938,78,64
1938,1944,83,64
1944,1950,78,64
1950,1956,76,64
1956,1962,75,64
1962,1968,73,64
1968,1974,71,64
1974,1980,75,64
1980,1986,78,64
1986,1992,81,64
1992,1998,78,64
1998,2004,76,64
2004,2010,75,64
2010,2016,73,64
2016,2022,71,64
2022,2028,75,64
2028,2034,76,64
2034,2040,77,64
2040,2046,76,64
2046,2052,74,64
2052,2058,72,64
2058,2064,71,64
2064,2070,69,64
2070,2076,71,64
2076,2082,72,64
2082,2088,78,64
2088,2094,72,64
2094,2100,71,64
2100,2106,69,64
2106,2112,67,64
2112,2118,66,64
2118,2124,67,64
2124,2130,69,64
2130,2136,72,64
2136,2142,69,64
2142,2148,67,64
2148,2154,66,64
2154,2160,64,64
2160,2166,63,64
2166,2172,66,64
2172,2178,69,64
2178,2184,72,64
2184,2190,71,64
2190,2196,69,64
2196,2202,67,64
2202,2208,66,64
2208,2214,67,64
2214,2217,71,64
2217,2220,67,64
2220,2226,64,64
2226,2232,59,64
2232,2238,66,64
2238,2244,69,64
2244,2250,76,64
2250,2256,75,64
2256,2304,76,64
2304,2310,64,64
2310,2316,76,64
2316,2322,79,64
2322,2328,83,64
2328,2334,79,64
2334,2340,76,64
2340,2346,75,64
2346,2352,76,64
2352,2358,64,64
2358,2364,76,64
2364,2370,79,64
2370,2376,83,64
2376,2382,79,64
2382,2388,76,64
2388,2394,75,64
2394,2400,76,64
2400,2406,64,64
2406,2409,67,64
2409,2412,69,64
2412,2418,71,64
2418,2424,59,64
2424,2430,64,64
2430,2436,67,64
2436,2442,71,64
2442,2448,63,64
2448,2454,64,64
2454,2457,67,64
2457,2460,69,64
2460,2466,71,64
2466,2472,59,64
2472,2478,64,64
2478,2484,67,64
2484,2490,71,64
2490,2496,63,64
2496,2502,64,64
2502,2505,66,64
2505,2508,67,64
2508,2514,69,64
2514,2517,67,64
2517,2520,66,64
2520,2526,67,64
2526,2529,69,64
2529,2532,71,64
2532,2538,72,64
2538,2541,71,64
2541,2544,69,64
2544,2550,71,64
2550,2553,67,64
2553,2556,69,64
2556,2562,71,64
2562,2565,73,64
2565,2568,75,64
2568,2574,76,64
2574,2577,71,64
2577,2580,69,64
2580,2586,67,64
2586,2592,66,64
2592,2598,64,64
2598,2601,66,64
2601,2604,67,64
2604,2610,69,64
2610,2613,67,64
2613,2616,66,64
2616,2622,67,64
2622,2625,69,64
2625,2628,71,64
2628,2634,72,64
2634,2637,71,64
2637,2640,69,64
2640,2646,71,64
2646,2649,67,64
2649,2652,69,64
2652,2658,71,64
2658,2661,73,64
2661,2664,75,64
2664,2670,76,64
2670,2673,71,64
2673,2676,69,64
2676,2682,67,64
2682,2688,66,64
2688,2694,64,64
2694,2700,67,64
2700,2706,71,64
2706,2712,76,64
2712,2718,79,64
2718,2724,83,64
2724,2730,79,64
2730,2736,76,64
2736,2742,75,64
2742,2748,78,64
2748,2754,75,64
2754,2760,71,64
2760,2766,66,64
2766,2772,69,64
2772,2778,67,64
2778,2784,66,64
2784,2790,64,64
2790,2796,67,64
2796,2802,71,64
2802,2808,76,64
2808,2814,79,64
2814,2820,83,64
2820,2826,79,64
2826,2832,76,64
2832,2838,75,64
2838,2844,78,64
2844,2850,75,64
2850,2856,71,64
2856,2862,66,64
2862,2868,69,64
2868,2874,67,64
2874,2880,66,64
2880,2886,64,64
2886,2892,67,64
2892,2898,71,64
2898,2904,74,64
2904,2910,72,64
2910,2916,67,64
2916,2922,66,64
2922,2928,64,64
2928,2934,62,64
2934,2940,66,64
2940,2946,69,64
2946,2952,72,64
2952,2958,71,64
2958,2964,66,64
2964,2970,64,64
2970,2976,62,64
2976,2982,60,64
2982,2988,64,64
2988,2994,67,64
2994,3000,71,64
3000,3006,69,64
3006,3012,67,64
3012,3018,66,64
3018,3024,64,64
3024,3030,63,64
3030,3036,71,64
3036,3042,66,64
3042,3048,63,64
3048,3054,59,64
3054,3060,60,64
3060,3066,57,64
3066,3072,59,64
3072,3078,55,64
3078,3081,64,64
3081,3084,66,64
3084,3090,67,64
3090,3096,71,64
3096,3102,76,64
3102,3108,78,64
3108,3114,74,64
3114,3120,76,64
3120,3126,72,64
3126,3129,76,64
3129,3132,74,64
3132,3138,72,64
3138,3144,71,64
3144,3150,69,64
3150,3156,71,64
3156,3162,67,64
3162,3168,69,64
3168,3174,66,64
3174,3177,62,64
3177,3180,64,64
3180,3186,66,64
3186,3192,69,64
3192,3198,74,64
3198,3204,76,64
3204,3210,72,64
3210,3216,74,64
3216,3222,71,64
3222,3225,67,64
3225,3228,69,64
3228,3234,71,64
3234,3240,74,64
3240,3246,79,64
3246,3252,81,64
3252,3258,78,64
3258,3264,79,64
3264,3270,76,64
3270,3276,79,64
3276,3282,76,64
3282,3288,71,64
3288,3294,72,64
3294,3300,64,64
3300,3306,67,64
3306,3312,72,64
3312,3318,74,64
3318,3324,79,64
3324,3330,74,64
3330,3336,69,64
3336,3342,71,64
3342,3348,62,64
3348,3354,67,64
3354,3360,71,64
3360,3366,72,64
3366,3372,79,64
3372,3378,72,64
3378,3384,69,64
3384,3390,62,64
3390,3393,78,64
3393,3396,79,64
3396,3402,81,64
3402,3408,72,64
3408,3414,71,64
3414,3420,79,64
3420,3426,74,64
3426,3432,71,64
3432,3438,67,64
3438,3444,69,64
3444,3450,65,64
3450,3456,67,64
3456,3462,64,64
3462,3468,72,64
3468,3474,79,64
3474,3480,70,64
3480,3486,69,64
3486,3492,65,64
3492,3498,69,64
3498,3504,64,64
3504,3510,62,64
3510,3516,71,64
3516,3522,77,64
3522,3528,69,64
3528,3534,67,64
3534,3540,64,64
3540,3546,67,64
3546,3552,62,64
3552,3558,60,64
3558,3564,69,64
3564,3570,76,64
3570,3576,67,64
3576,3582,65,64
3582,3588,62,64
3588,3594,65,64
3594,3600,60,64
3600,3606,59,64
3606,3612,67,64
3612,3618,74,64
3618,3624,65,64
3624,3630,64,64
3630,3636,60,64
3636,3642,65,64
3642,3648,62,64
3648,3654,67,64
3654,3660,64,64
3660,3666,60,64
3666,3672,64,64
3672,3678,67,64
3678,3684,64,64
3684,3690,69,64
3690,3696,65,64
3696,3702,70,64
3702,3708,67,64
3708,3714,64,64
3714,3720,67,64
3720,3726,70,64
3726,3732,67,64
3732,3738,72,64
3738,3744,67,64
3744,3750,69,64
3750,3756,65,64
3756,3762,69,64
3762,3768,72,64
3768,3774,77,64
3774,3780,74,64
3780,3786,81,64
3786,3792,72,64
3792,3798,71,64
3798,3804,67,64
3804,3810,71,64
3810,3816,74,64
3816,3822,79,64
3822,3828,76,64
3828,3834,83,64
3834,3840,74,64
3840,3846,72,64
3846,3852,69,64
3852,3858,72,64
3858,3864,76,64
3864,3870,81,64
3870,3876,77,64
3876,3882,84,64
3882,3888,76,64
3888,3894,74,64
3894,3900,71,64
3900,3906,74,64
3906,3912,79,64
3912,3918,83,64
3918,3924,79,64
3924,3930,86,64
3930,3936,77,64
3936,3942,76,64
3942,3945,79,64
3945,3948,77,64
3948,3954,76,64
3954,3957,77,64
3957,3960,79,64
3960,3966,81,64
3966,3969,71,64
3969,3972,72,64
3972,3978,74,64
3978,3981,76,64
3981,3984,77,64
3984,3990,79,64
3990,3993,69,64
3993,3996,71,64
3996,4002,72,64
4002,4005,74,64
4005,4008,76,64
4008,4014,77,64
4014,4017,67,64
4017,4020,69,64
4020,4026,71,64
4026,4029,72,64
4029,4032,74,64
4032,4038,76,64
4038,4041,60,64
4041,4044,62,64
4044,4050,64,64
4050,4053,65,64
4053,4056,67,64
4056,4062,69,64
4062,4068,65,64
4068,4074,74,64
4074,4080,65,64
4080,4086,55,64
4086,4092,65,64
4092,4098,71,64
4098,4104,74,64
4104,4110,72,64
4110,4116,71,64
4116,4122,69,64
4122,4128,67,64
4128,4134,65,64
4134,4137,64,64
4137,4140,62,64
4140,4146,64,64
4146,4152,72,64
4152,4158,55,64
4158,4164,62,64
4164,4170,72,64
4170,4176,71,64
4176,4182,72,64
4182,4185,76,64
4185,4188,72,64
4188,4194,67,64
4194,4200,65,64
4200,4206,64,64
4206,4209,67,64
4209,4212,64,64
4212,4218,60,64
4218,4224,58,64
4224,4230,57,64
4230,4236,67,64
4236,4242,73,64
4242,4248,67,64
4248,4254,73,64
4254,4260,67,64
4260,4266,76,64
4266,4272,67,64
4272,4278,65,64
4278,4281,74,64
4281,4284,69,64
4284,4290,65,64
4290,4296,64,64
4296,4302,62,64
4302,4305,69,64
4305,4308,65,64
4308,4314,62,64
4314,4320,60,64
4320,4326,59,64
4326,4332,69,64
4332,4338,75,64
4338,4344,69,64
4344,4350,75,64
4350,4356,69,64
4356,4362,78,64
4362,4368,69,64
4368,4374,68,64
4374,4377,76,64
4377,4380,71,64
4380,4386,68,64
4386,4392,66,64
4392,4398,64,64
4398,4401,71,64
4401,4404,68,64
4404,4410,64,64
4410,4416,62,64
4416,4419,60,64
4419,4422,76,64
4422,4425,74,64
4425,4428,72,64
4428,4434,71,64
4434,4437,72,64
4437,4440,74,64
4440,4446,72,64
4446,4449,71,64
4449,4452,69,64
4452,4458,68,64
4458,4461,69,64
4461,4464,71,64
4464,4467,61,64
4467,4470,69,64
4470,4473,67,64
4473,4476,65,64
4476,4482,64,64
4482,4485,65,64
4485,4488,67,64
4488,4494,65,64
4494,4497,64,64
4497,4500,62,64
4500,4506,61,64
4506,4509,62,64
4509,4512,64,64
4512,4518,62,64
4518,4521,77,64
4521,4524,76,64
4524,4530,74,64
4530,4536,72,64
4536,4542,71,64
4542,4548,74,64
4548,4554,67,64
4554,4557,69,64
4557,4560,71,64
4560,4566,60,64
4566,4569,76,64
4569,4572,74,64
4572,4578,72,64
4578,4584,71,64
4584,4590,69,64
4590,4596,72,64
4596,4602,65,64
4602,4605,67,64
4605,4608,69,64
4608,4614,59,64
4614,4617,74,64
4617,4620,72,64
4620,4626,71,64
4626,4632,69,64
4632,4638,68,64
4638,4644,74,64
4644,4650,83,64
4650,4656,74,64
4656,4662,72,64
4662,4665,69,64
4665,4668,71,64
4668,4674,72,64
4674,4680,77,64
4680,4686,71,64
4686,4689,67,64
4689,4692,69,64
4692,4698,71,64
4698,4704,76,64
4704,4710,69,64
4710,4713,65,64
4713,4716,67,64
4716,4722,69,64
4722,4728,73,64
4728,4734,74,64
4734,4737,71,64
4737,4740,72,64
4740,4746,74,64
4746,4752,77,64
4752,4758,80,64
4758,4761,76,64
4761,4764,78,64
4764,4770,80,64
4770,4776,83,64
4776,4782,86,64
4782,4785,83,64
4785,4788,80,64
4788,4794,76,64
4794,4797,80,64
4797,4800,83,64
4800,4806,84,64
4806,4809,88,64
4809,4812,84,64
4812,4818,81,64
4818,4824,79,64
4824,4830,77,64
4830,4836,86,64
4836,4842,76,64
4842,4848,84,64
4848,4854,74,64
4854,4857,84,64
4857,4860,81,64
4860,4866,77,64
4866,4872,76,64
4872,4878,74,64
4878,4884,83,64
4884,4890,72,64
4890,4896,81,64
4896,4902,71,64
4902,4905,77,64
4905,4908,74,64
4908,4914,71,64
4914,4920,69,64
4920,4926,68,64
4926,4932,74,64
4932,4938,66,64
4938,4944,74,64
4944,4950,64,64
4950,4956,68,64
4956,4962,71,64
4962,4968,74,64
4968,4974,77,64
4974,4977,76,64
4977,4980,74,64
4980,4986,72,64
4986,4992,71,64
4992,4998,72,64
4998,5004,68,64
5004,5010,69,64
5010,5016,63,64
5016,5022,64,64
5022,5028,72,64
5028,5034,71,64
5034,5037,69,64
5037,5040,68,64
5040,5046,69,64
5046,5049,65,64
5049,5052,67,64
5052,5058,69,64
5058,5064,65,64
5064,5070,64,64
5070,5076,62,64
5076,5082,60,64
5082,5088,59,64
5088,5091,60,64
5091,5094,64,64
5094,5097,66,64
5097,5100,68,64
5100,5106,69,64
5106,5112,64,64
5112,5118,62,64
5118,5124,60,64
5124,5130,59,64
5130,5136,57,64
5136,5139,59,64
5139,5142,60,64
5142,5145,62,64
5145,5148,64,64
5148,5154,65,64
5154,5160,64,64
5160,5166,62,64
5166,5172,71,64
5172,5178,77,64
5178,5184,69,64
5184,5187,68,64
5187,5190,69,64
5190,5193,71,64
5193,5196,72,64
5196,5202,74,64
5202,5208,72,64
5208,5214,71,64
5214,5217,80,64
5217,5220,81,64
5220,5226,83,64
5226,5232,74,64
5232,5235,72,64
5235,5238,76,64
5238,5241,78,64
5241,5244,80,64
5244,5250,81,64
5250,5256,72,64
5256,5262,64,64
5262,5268,71,64
5268,5274,81,64
5274,5280,80,64
5280,5286,69,64
5286,5292,73,64
5292,5298,79,64
5298,5304,76,64
5304,5310,69,64
5310,5316,74,64
5316,5322,78,64
5322,5328,74,64
5328,5334,68,64
5334,5340,74,64
5340,5346,77,64
5346,5352,74,64
5352,5358,67,64
5358,5364,73,64
5364,5370,76,64
5370,5376,73,64
5376,5382,66,64
5382,5388,69,64
5388,5394,76,64
5394,5400,69,64
5400,5406,65,64
5406,5412,74,64
5412,5418,81,64
5418,5424,74,64
5424,5430,64,64
5430,5436,74,64
5436,5442,83,64
5442,5448,81,64
5448,5454,80,64
5454,5460,77,64
5460,5466,76,64
5466,5472,74,64
5472,5478,72,64
5478,5481,76,64
5481,5484,72,64
5484,5490,69,64
5490,5496,64,64
5496,5502,71,64
5502,5508,74,64
5508,5514,81,64
5514,5520,80,64
5520,5568,57,64
