onset,offset,pitch,velocity
12,18,88,64
18,24,87,64
24,36,88,64
36,48,83,64
48,60,80,64
60,72,83,64
72,78,76,64
78,84,78,64
84,90,76,64
90,96,75,64
96,108,76,64
108,120,71,64
120,132,68,64
132,144,71,64
144,150,64,64
150,156,71,64
156,162,66,64
162,168,71,64
168,174,68,64
174,180,71,64
180,186,69,64
186,192,71,64
192,198,68,64
198,204,71,64
204,210,66,64
210,216,71,64
216,222,64,64
222,228,76,64
228,234,75,64
234,240,73,64
240,246,71,64
246,252,76,64
252,258,75,64
258,264,73,64
264,270,71,64
270,276,69,64
276,282,68,64
282,288,66,64
288,294,64,64
294,300,71,64
300,306,66,64
306,312,71,64
312,318,68,64
318,324,71,64
324,330,69,64
330,336,71,64
336,342,68,64
342,348,71,64
348,354,66,64
354,360,71,64
360,366,64,64
366,372,76,64
372,378,75,64
378,384,73,64
384,390,71,64
390,396,76,64
396,402,75,64
402,408,73,64
408,414,71,64
414,420,69,64
420,426,68,64
426,432,66,64
432,438,64,64
438,444,66,64
444,450,68,64
450,456,69,64
456,462,71,64
462,468,73,64
468,474,75,64
474,480,76,64
480,486,78,64
486,492,80,64
492,498,81,64
498,504,78,64
504,510,80,64
510,516,83,64
516,522,76,64
522,528,78,64
528,534,80,64
534,540,81,64
540,546,83,64
546,552,85,64
552,558,87,64
558,564,88,64
564,570,85,64
570,576,87,64
576,582,88,64
582,588,83,64
588,594,81,64
594,600,83,64
600,606,80,64
606,612,83,64
612,618,81,64
618,624,83,64
624,630,80,64
630,636,83,64
636,642,78,64
642,648,83,64
648,654,76,64
654,660,88,64
660,666,87,64
666,672,85,64
672,678,83,64
678,684,76,64
684,690,85,64
690,696,76,64
696,702,83,64
702,708,76,64
708,714,81,64
714,720,76,64
720,726,80,64
726,732,83,64
732,738,78,64
738,744,83,64
744,750,80,64
750,756,83,64
756,762,81,64
762,768,83,64
768,774,80,64
774,780,83,64
780,786,78,64
786,792,83,64
792,798,76,64
798,804,88,64
804,810,87,64
810,816,85,64
816,822,83,64
822,828,76,64
828,834,85,64
834,840,76,64
840,846,83,64
846,852,76,64
852,858,81,64
858,864,76,64
864,870,80,64
870,876,76,64
876,882,76,64
882,888,76,64
888,894,75,64
894,900,76,64
900,906,76,64
906,912,76,64
912,918,78,64
918,924,76,64
924,930,75,64
930,936,76,64
936,942,76,64
942,948,76,64
948,954,80,64
954,960,76,64
960,966,78,64
966,972,76,64
972,978,80,64
978,984,76,64
984,990,81,64
990,996,76,64
996,1002,78,64
1002,1008,76,64
1008,1014,80,64
1014,1020,76,64
1020,1026,76,64
1026,1032,76,64
1032,1038,75,64
1038,1044,76,64
1044,1050,76,64
1050,1056,76,64
1056,1062,78,64
1062,1068,76,64
1068,1074,75,64
1074,1080,76,64
1080,1086,76,64
1086,1092,76,64
1092,1098,80,64
1098,1104,76,64
1104,1110,78,64
1110,1116,76,64
1116,1122,80,64
1122,1128,76,64
1128,1134,81,64
1134,1140,76,64
1140,1146,78,64
1146,1152,76,64
1152,1158,80,64
1158,1164,76,64
1164,1170,80,64
1170,1176,76,64
1176,1182,80,64
1182,1188,76,64
1188,1194,80,64
1194,1200,76,64
1200,1206,80,64
1206,1212,76,64
1212,1218,80,64
1218,1224,76,64
1224,1230,80,64
1230,1236,76,64
1236,1242,80,64
1242,1248,75,64
1248,1254,80,64
1254,1260,76,64
1260,1266,80,64
1266,1272,75,64
1272,1278,80,64
1278,1284,76,64
1284,1290,80,64
1290,1296,75,64
1296,1302,80,64
1302,1308,76,64
1308,1314,80,64
1314,1320,74,64
1320,1326,80,64
1326,1332,76,64
1332,1338,80,64
1338,1344,74,64
1344,1350,80,64
1350,1356,76,64
1356,1362,80,64
1362,1368,74,64
1368,1374,81,64
1374,1380,76,64
1380,1386,81,64
1386,1392,73,64
1392,1398,81,64
1398,1404,76,64
1404,1410,81,64
1410,1416,73,64
1416,1422,81,64
1422,1428,76,64
1428,1434,81,64
1434,1440,73,64
1440,1446,81,64
1446,1452,76,64
1452,1458,81,64
1458,1464,71,64
1464,1470,81,64
1470,1476,76,64
1476,1482,81,64
1482,1488,71,64
1488,1494,81,64
1494,1500,76,64
1500,1506,81,64
1506,1512,71,64
1512,1518,80,64
1518,1524,76,64
1524,1530,80,64
1530,1536,71,64
1536,1542,80,64
1542,1548,76,64
1548,1554,80,64
1554,1560,71,64
1560,1566,80,64
1566,1572,76,64
1572,1578,80,64
1578,1584,71,64
1584,1590,80,64
1590,1596,76,64
1596,1602,80,64
1602,1608,69,64
1608,1614,80,64
1614,1620,76,64
1620,1626,80,64
1626,1632,69,64
1632,1638,80,64
1638,1644,76,64
1644,1650,80,64
1650,1656,69,64
1656,1662,78,64
1662,1668,76,64
1668,1674,78,64
1674,1680,69,64
1680,1686,78,64
1686,1692,76,64
1692,1698,78,64
1698,1704,69,64
1704,1710,78,64
1710,1716,76,64
1716,1722,78,64
1722,1728,69,64
1728,1734,78,64
1734,1740,76,64
1740,1746,78,64
1746,1752,68,64
1752,1758,78,64
1758,1764,76,64
1764,1770,78,64
1770,1776,68,64
1776,1782,78,64
1782,1788,76,64
1788,1794,78,64
1794,1800,68,64
1800,1806,76,64
1806,1812,76,64
1812,1818,76,64
1818,1824,68,64
1824,1830,76,64
1830,1836,76,64
1836,1842,76,64
1842,1848,68,64
1848,1854,76,64
1854,1860,76,64
1860,1866,76,64
1866,1872,68,64
1872,1878,76,64
1878,1884,76,64
1884,1890,76,64
1890,1896,66,64
1896,1902,76,64
1902,1908,76,64
1908,1914,76,64
1914,1920,66,64
1920,1926,76,64
1926,1932,76,64
1932,1938,76,64
1938,1944,66,64
1944,1950,75,64
1950,1956,76,64
1956,1962,75,64
1962,1968,66,64
1968,1974,75,64
1974,1980,76,64
1980,1986,75,64
1986,1992,66,64
1992,1998,75,64
1998,2004,76,64
2004,2010,75,64
2010,2016,66,64
2016,2022,64,64
2022,2028,66,64
2028,2034,64,64
2034,2040,66,64
2040,2046,68,64
2046,2052,71,64
2052,2058,64,64
2058,2064,66,64
2064,2070,68,64
2070,2076,71,64
2076,2082,64,64
2082,2088,66,64
2088,2094,68,64
2094,2100,69,64
2100,2106,68,64
2106,2112,69,64
2112,2118,71,64
2118,2124,76,64
2124,2130,68,64
2130,2136,69,64
2136,2142,71,64
2142,2148,76,64
2148,2154,68,64
2154,2160,69,64
2160,2166,71,64
2166,2172,73,64
2172,2178,71,64
2178,2184,73,64
2184,2190,74,64
2190,2196,80,64
2196,2202,71,64
2202,2208,73,64
2208,2214,74,64
2214,2220,80,64
2220,2226,71,64
2226,2232,73,64
2232,2238,74,64
2238,2244,83,64
2244,2250,80,64
2250,2256,76,64
2256,2262,74,64
2262,2268,71,64
2268,2274,68,64
2274,2280,64,64
2280,2286,62,64
2286,2292,61,64
2292,2298,62,64
2298,2304,59,64
2304,2310,61,64
2310,2316,63,64
2316,2322,61,64
2322,2328,63,64
2328,2334,65,64
2334,2340,68,64
2340,2346,61,64
2346,2352,63,64
2352,2358,65,64
2358,2364,68,64
2364,2370,61,64
2370,2376,63,64
2376,2382,65,64
2382,2388,66,64
2388,2394,65,64
2394,2400,66,64
2400,2406,68,64
2406,2412,73,64
2412,2418,65,64
2418,2424,66,64
2424,2430,68,64
2430,2436,73,64
2436,2442,65,64
2442,2448,66,64
2448,2454,68,64
2454,2460,69,64
2460,2466,68,64
2466,2472,69,64
2472,2478,71,64
2478,2484,77,64
2484,2490,68,64
2490,2496,69,64
2496,2502,71,64
2502,2508,77,64
2508,2514,68,64
2514,2520,69,64
2520,2526,71,64
2526,2532,80,64
2532,2538,77,64
2538,2544,73,64
2544,2550,83,64
2550,2556,80,64
2556,2562,81,64
2562,2568,78,64
2568,2574,77,64
2574,2580,80,64
2580,2586,73,64
2586,2592,71,64
2592,2598,69,64
2598,2604,73,64
2604,2610,69,64
2610,2616,66,64
2616,2622,78,64
2622,2628,75,64
2628,2634,76,64
2634,2640,73,64
2640,2646,72,64
2646,2652,75,64
2652,2658,68,64
2658,2664,66,64
2664,2670,64,64
2670,2676,68,64
2676,2682,64,64
2682,2688,61,64
2688,2694,64,64
2694,2700,68,64
2700,2706,73,64
2706,2712,68,64
2712,2718,76,64
2718,2724,73,64
2724,2730,80,64
2730,2736,73,64
2736,2742,72,64
2742,2748,75,64
2748,2754,72,64
2754,2760,68,64
2760,2766,80,64
2766,2772,79,64
2772,2778,80,64
2778,2784,79,64
2784,2790,80,64
2790,2796,75,64
2796,2802,76,64
2802,2808,73,64
2808,2814,72,64
2814,2820,75,64
2820,2826,72,64
2826,2832,68,64
2832,2838,78,64
2838,2844,77,64
2844,2850,78,64
2850,2856,77,64
2856,2862,78,64
2862,2868,75,64
2868,2874,76,64
2874,2880,73,64
2880,2886,72,64
2886,2892,75,64
2892,2898,72,64
2898,2904,68,64
2904,2910,69,64
2910,2916,68,64
2916,2922,69,64
2922,2928,68,64
2928,2934,69,64
2934,2940,63,64
2940,2946,64,64
2946,2952,61,64
2952,2958,60,64
2958,2964,66,64
2964,2970,61,64
2970,2976,66,64
2976,2982,63,64
2982,2988,66,64
2988,2994,61,64
2994,3000,66,64
3000,3006,60,64
3006,3012,66,64
3012,3018,63,64
3018,3024,66,64
3024,3030,56,64
3030,3036,66,64
3036,3042,75,64
3042,3048,66,64
3048,3054,72,64
3054,3060,66,64
3060,3066,75,64
3066,3072,66,64
3072,3078,72,64
3078,3084,66,64
3084,3090,75,64
3090,3096,66,64
3096,3102,56,64
3102,3108,64,64
3108,3114,73,64
3114,3120,64,64
3120,3126,76,64
3126,3132,64,64
3132,3138,73,64
3138,3144,64,64
3144,3150,76,64
3150,3156,64,64
3156,3162,73,64
3162,3168,64,64
3168,3174,56,64
3174,3180,66,64
3180,3186,75,64
3186,3192,66,64
3192,3198,72,64
3198,3204,66,64
3204,3210,75,64
3210,3216,66,64
3216,3222,72,64
3222,3228,66,64
3228,3234,75,64
3234,3240,66,64
3240,3246,56,64
3246,3252,64,64
3252,3258,73,64
3258,3264,64,64
3264,3270,76,64
3270,3276,64,64
3276,3282,73,64
3282,3288,64,64
3288,3294,76,64
3294,3300,64,64
3300,3306,73,64
3306,3312,64,64
3312,3318,56,64
3318,3324,67,64
3324,3330,73,64
3330,3336,67,64
3336,3342,76,64
3342,3348,67,64
3348,3354,73,64
3354,3360,67,64
3360,3366,76,64
3366,3372,67,64
3372,3378,73,64
3378,3384,67,64
3384,3390,56,64
3390,3396,67,64
3396,3402,73,64
3402,3408,67,64
3408,3414,76,64
3414,3420,67,64
3420,3426,73,64
3426,3432,67,64
3432,3438,76,64
3438,3444,67,64
3444,3450,73,64
3450,3456,67,64
3456,3462,56,64
3462,3468,68,64
3468,3474,73,64
3474,3480,68,64
3480,3486,75,64
3486,3492,68,64
3492,3498,73,64
3498,3504,68,64
3504,3510,75,64
3510,3516,68,64
3516,3522,73,64
3522,3528,68,64
3528,3534,56,64
3534,3540,66,64
3540,3546,72,64
3546,3552,66,64
3552,3558,75,64
3558,3564,66,64
3564,3570,72,64
3570,3576,66,64
3576,3582,75,64
3582,3588,66,64
3588,3594,72,64
3594,3600,66,64
3600,3606,61,64
3606,3612,73,64
3612,3618,71,64
3618,3624,69,64
3624,3630,68,64
3630,3636,73,64
3636,3642,68,64
3642,3648,66,64
3648,3654,64,64
3654,3660,68,64
3660,3666,64,64
3666,3672,63,64
3672,3678,61,64
3678,3684,73,64
3684,3690,68,64
3690,3696,66,64
3696,3702,64,64
3702,3708,68,64
3708,3714,64,64
3714,3720,63,64
3720,3726,61,64
3726,3732,64,64
3732,3738,61,64
3738,3744,59,64
3744,3750,58,64
3750,3756,66,64
3756,3762,73,64
3762,3768,66,64
3768,3774,76,64
3774,3780,66,64
3780,3786,73,64
3786,3792,66,64
3792,3798,76,64
3798,3804,66,64
3804,3810,73,64
3810,3816,66,64
3816,3822,58,64
3822,3828,66,64
3828,3834,76,64
3834,3840,66,64
3840,3846,73,64
3846,3852,66,64
3852,3858,76,64
3858,3864,66,64
3864,3870,73,64
3870,3876,66,64
3876,3882,76,64
3882,3888,66,64
3888,3894,59,64
3894,3900,83,64
3900,3906,82,64
3906,3912,80,64
3912,3918,78,64
3918,3924,83,64
3924,3930,78,64
3930,3936,76,64
3936,3942,75,64
3942,3948,78,64
3948,3954,75,64
3954,3960,73,64
3960,3966,71,64
3966,3972,83,64
3972,3978,78,64
3978,3984,76,64
3984,3990,75,64
3990,3996,78,64
3996,4002,75,64
4002,4008,73,64
4008,4014,71,64
4014,4020,75,64
4020,4026,71,64
4026,4032,69,64
4032,4038,68,64
4038,4044,74,64
4044,4050,76,64
4050,4056,74,64
4056,4062,80,64
4062,4068,74,64
4068,4074,83,64
4074,4080,74,64
4080,4086,80,64
4086,4092,74,64
4092,4098,76,64
4098,4104,74,64
4104,4110,68,64
4110,4116,74,64
4116,4122,76,64
4122,4128,74,64
4128,4134,68,64
4134,4140,74,64
4140,4146,66,64
4146,4152,74,64
4152,4158,68,64
4158,4164,74,64
4164,4170,64,64
4170,4176,74,64
4176,4182,73,64
4182,4188,76,64
4188,4194,81,64
4194,4200,80,64
4200,4206,81,64
4206,4212,76,64
4212,4218,74,64
4218,4224,76,64
4224,4230,73,64
4230,4236,76,64
4236,4242,71,64
4242,4248,76,64
4248,4254,69,64
4254,4260,81,64
4260,4266,80,64
4266,4272,78,64
4272,4278,76,64
4278,4284,69,64
4284,4290,78,64
4290,4296,69,64
4296,4302,76,64
4302,4308,69,64
4308,4314,74,64
4314,4320,69,64
4320,4326,73,64
4326,4332,76,64
4332,4338,71,64
4338,4344,76,64
4344,4350,73,64
4350,4356,76,64
4356,4362,74,64
4362,4368,76,64
4368,4374,73,64
4374,4380,76,64
4380,4386,71,64
4386,4392,76,64
4392,4398,69,64
4398,4404,81,64
4404,4410,80,64
4410,4416,78,64
4416,4422,76,64
4422,4428,69,64
4428,4434,78,64
4434,4440,69,64
4440,4446,76,64
4446,4452,69,64
4452,4458,74,64
4458,4464,69,64
4464,4470,73,64
4470,4476,69,64
4476,4482,69,64
4482,4488,69,64
4488,4494,68,64
4494,4500,69,64
4500,4506,69,64
4506,4512,69,64
4512,4518,71,64
4518,4524,69,64
4524,4530,68,64
4530,4536,69,64
4536,4542,69,64
4542,4548,69,64
4548,4554,73,64
4554,4560,69,64
4560,4566,71,64
4566,4572,69,64
4572,4578,73,64
4578,4584,69,64
4584,4590,74,64
4590,4596,69,64
4596,4602,71,64
4602,4608,69,64
4608,4614,73,64
4614,4620,69,64
4620,4626,69,64
4626,4632,69,64
4632,4638,68,64
4638,4644,69,64
4644,4650,69,64
4650,4656,69,64
4656,4662,71,64
4662,4668,69,64
4668,4674,68,64
4674,4680,69,64
4680,4686,69,64
4686,4692,69,64
4692,4698,73,64
4698,4704,69,64
4704,4710,71,64
4710,4716,69,64
4716,4722,73,64
4722,4728,69,64
4728,4734,74,64
4734,4740,69,64
4740,4746,71,64
4746,4752,69,64
4752,4758,73,64
4758,4764,69,64
4764,4770,73,64
4770,4776,69,64
4776,4782,73,64
4782,4788,69,64
4788,4794,73,64
4794,4800,69,64
4800,4806,73,64
4806,4812,69,64
4812,4818,73,64
4818,4824,69,64
4824,4830,73,64
4830,4836,69,64
4836,4842,73,64
4842,4848,68,64
4848,4854,73,64
4854,4860,69,64
4860,4866,73,64
4866,4872,68,64
4872,4878,73,64
4878,4884,69,64
4884,4890,73,64
4890,4896,68,64
4896,4902,73,64
4902,4908,69,64
4908,4914,73,64
4914,4920,67,64
4920,4926,73,64
4926,4932,69,64
4932,4938,73,64
4938,4944,67,64
4944,4950,73,64
4950,4956,69,64
4956,4962,73,64
4962,4968,67,64
4968,4974,74,64
4974,4980,69,64
4980,4986,74,64
4986,4992,66,64
4992,4998,74,64
4998,5004,69,64
5004,5010,74,64
5010,5016,66,64
5016,5022,74,64
5022,5028,69,64
5028,5034,74,64
5034,5040,66,64
5040,5046,74,64
5046,5052,69,64
5052,5058,74,64
5058,5064,64,64
5064,5070,74,64
5070,5076,69,64
5076,5082,74,64
5082,5088,64,64
5088,5094,74,64
5094,5100,69,64
5100,5106,74,64
5106,5112,64,64
5112,5118,73,64
5118,5124,69,64
5124,5130,73,64
5130,5136,64,64
5136,5142,73,64
5142,5148,69,64
5148,5154,73,64
5154,5160,64,64
5160,5166,73,64
5166,5172,69,64
5172,5178,73,64
5178,5184,64,64
5184,5190,73,64
5190,5196,69,64
5196,5202,73,64
5202,5208,62,64
5208,5214,73,64
5214,5220,69,64
5220,5226,73,64
5226,5232,62,64
5232,5238,73,64
5238,5244,69,64
5244,5250,73,64
5250,5256,62,64
5256,5262,71,64
5262,5268,69,64
5268,5274,71,64
5274,5280,62,64
5280,5286,71,64
5286,5292,69,64
5292,5298,71,64
5298,5304,62,64
5304,5310,71,64
5310,5316,69,64
5316,5322,71,64
5322,5328,62,64
5328,5334,71,64
5334,5340,69,64
5340,5346,71,64
5346,5352,61,64
5352,5358,71,64
5358,5364,69,64
5364,5370,71,64
5370,5376,61,64
5376,5382,71,64
5382,5388,69,64
5388,5394,71,64
5394,5400,61,64
5400,5406,69,64
5406,5412,69,64
5412,5418,69,64
5418,5424,61,64
5424,5430,69,64
5430,5436,69,64
5436,5442,69,64
5442,5448,61,64
5448,5454,69,64
5454,5460,69,64
5460,5466,69,64
5466,5472,61,64
5472,5478,69,64
5478,5484,69,64
5484,5490,69,64
5490,5496,59,64
5496,5502,69,64
5502,5508,69,64
5508,5514,69,64
5514,5520,59,64
5520,5526,69,64
5526,5532,69,64
5532,5538,69,64
5538,5544,59,64
5544,5550,68,64
5550,5556,69,64
5556,5562,68,64
5562,5568,59,64
5568,5574,68,64
5574,5580,69,64
5580,5586,68,64
5586,5592,59,64
5592,5598,68,64
5598,5604,69,64
5604,5610,68,64
5610,5616,59,64
5616,5622,57,64
5622,5628,59,64
5628,5634,57,64
5634,5640,59,64
5640,5646,61,64
5646,5652,64,64
5652,5658,57,64
5658,5664,59,64
5664,5670,61,64
5670,5676,64,64
5676,5682,57,64
5682,5688,59,64
5688,5694,61,64
5694,5700,62,64
5700,5706,61,64
5706,5712,62,64
5712,5718,64,64
5718,5724,69,64
5724,5730,61,64
5730,5736,62,64
5736,5742,64,64
5742,5748,69,64
5748,5754,61,64
5754,5760,62,64
5760,5766,64,64
5766,5772,66,64
5772,5778,64,64
5778,5784,66,64
5784,5790,67,64
5790,5796,73,64
5796,5802,64,64
5802,5808,66,64
5808,5814,67,64
5814,5820,73,64
5820,5826,64,64
5826,5832,66,64
5832,5838,67,64
5838,5844,76,64
5844,5850,73,64
5850,5856,74,64
5856,5862,76,64
5862,5868,73,64
5868,5874,70,64
5874,5880,71,64
5880,5886,73,64
5886,5892,70,64
5892,5898,66,64
5898,5904,64,64
5904,5910,62,64
5910,5916,61,64
5916,5922,59,64
5922,5928,61,64
5928,5934,62,64
5934,5940,66,64
5940,5946,59,64
5946,5952,61,64
5952,5958,62,64
5958,5964,66,64
5964,5970,59,64
5970,5976,61,64
5976,5982,62,64
5982,5988,64,64
5988,5994,62,64
5994,6000,64,64
6000,6006,66,64
6006,6012,71,64
6012,6018,62,64
6018,6024,64,64
6024,6030,66,64
6030,6036,71,64
6036,6042,62,64
6042,6048,64,64
6048,6054,66,64
6054,6060,68,64
6060,6066,66,64
6066,6072,68,64
6072,6078,69,64
6078,6084,75,64
6084,6090,66,64
6090,6096,68,64
6096,6102,69,64
6102,6108,75,64
6108,6114,66,64
6114,6120,68,64
6120,6126,69,64
6126,6132,78,64
6132,6138,75,64
6138,6144,76,64
6144,6150,78,64
6150,6156,75,64
6156,6162,72,64
6162,6168,73,64
6168,6174,75,64
6174,6180,72,64
6180,6186,68,64
6186,6192,66,64
6192,6198,65,64
6198,6204,83,64
6204,6210,80,64
6210,6216,81,64
6216,6222,83,64
6222,6228,80,64
6228,6234,77,64
6234,6240,78,64
6240,6246,80,64
6246,6252,77,64
6252,6258,73,64
6258,6264,71,64
6264,6270,69,64
6270,6276,85,64
6276,6282,81,64
6282,6288,83,64
6288,6294,85,64
6294,6300,81,64
6300,6306,78,64
6306,6312,80,64
6312,6318,81,64
6318,6324,78,64
6324,6330,74,64
6330,6336,73,64
6336,6342,71,64
6342,6348,86,64
6348,6354,83,64
6354,6360,85,64
6360,6366,86,64
6366,6372,83,64
6372,6378,80,64
6378,6384,81,64
6384,6390,83,64
6390,6396,80,64
6396,6402,77,64
6402,6408,80,64
6408,6414,73,64
6414,6420,75,64
6420,6426,73,64
6426,6432,75,64
6432,6438,77,64
6438,6444,80,64
6444,6450,73,64
6450,6456,75,64
6456,6462,77,64
6462,6468,80,64
6468,6474,73,64
6474,6480,75,64
6480,6486,77,64
6486,6492,78,64
6492,6498,77,64
6498,6504,78,64
6504,6510,80,64
6510,6516,83,64
6516,6522,77,64
6522,6528,78,64
6528,6534,80,64
6534,6540,83,64
6540,6546,77,64
6546,6552,78,64
6552,6558,80,64
6558,6564,81,64
6564,6570,80,64
6570,6576,81,64
6576,6582,83,64
6582,6588,86,64
6588,6594,80,64
6594,6600,81,64
6600,6606,83,64
6606,6612,86,64
6612,6618,80,64
6618,6624,81,64
6624,6630,83,64
6630,6636,86,64
6636,6642,83,64
6642,6648,80,64
6648,6654,77,64
6654,6660,83,64
6660,6666,80,64
6666,6672,77,64
6672,6678,73,64
6678,6684,83,64
6684,6690,81,64
6690,6696,80,64
6696,6702,78,64
6702,6708,80,64
6708,6714,81,64
6714,6720,78,64
6720,6726,71,64
6726,6732,81,64
6732,6738,80,64
6738,6744,78,64
6744,6750,73,64
6750,6756,80,64
6756,6762,78,64
6762,6768,77,64
6768,6774,74,64
6774,6780,76,64
6780,6786,78,64
6786,6792,74,64
6792,6798,68,64
6798,6804,78,64
6804,6810,76,64
6810,6816,74,64
6816,6822,70,64
6822,6828,76,64
6828,6834,74,64
6834,6840,73,64
6840,6846,71,64
6846,6852,73,64
6852,6858,74,64
6858,6864,71,64
6864,6870,65,64
6870,6876,74,64
6876,6882,73,64
6882,6888,71,64
6888,6894,66,64
6894,6900,73,64
6900,6906,71,64
6906,6912,69,64
6912,6918,68,64
6918,6924,69,64
6924,6930,71,64
6930,6936,69,64
6936,6942,68,64
6942,6948,71,64
6948,6954,69,64
6954,6960,71,64
6960,6966,68,64
6966,6972,71,64
6972,6978,66,64
6978,6984,71,64
6984,6990,65,64
6990,6996,66,64
6996,7002,68,64
7002,7008,69,64
7008,7014,71,64
7014,7020,65,64
7020,7026,74,64
7026,7032,65,64
7032,7038,73,64
7038,7044,65,64
7044,7050,71,64
7050,7056,65,64
7056,7062,66,64
7062,7068,69,64
7068,7074,66,64
7074,7080,61,64
7080,7086,57,64
7086,7092,61,64
7092,7098,66,64
7098,7104,61,64
7104,7110,69,64
7110,7116,61,64
7116,7122,66,64
7122,7128,61,64
7128,7134,65,64
7134,7140,68,64
7140,7146,65,64
7146,7152,61,64
7152,7158,65,64
7158,7164,68,64
7164,7170,73,64
7170,7176,68,64
7176,7182,77,64
7182,7188,73,64
7188,7194,80,64
7194,7200,71,64
7200,7206,69,64
7206,7212,73,64
7212,7218,69,64
7218,7224,66,64
7224,7230,69,64
7230,7236,73,64
7236,7242,78,64
7242,7248,73,64
7248,7254,81,64
7254,7260,78,64
7260,7266,85,64
7266,7272,78,64
7272,7278,77,64
7278,7284,80,64
7284,7290,77,64
7290,7296,73,64
7296,7302,85,64
7302,7308,84,64
7308,7314,85,64
7314,7320,84,64
7320,7326,85,64
7326,7332,80,64
7332,7338,81,64
7338,7344,78,64
7344,7350,77,64
7350,7356,80,64
7356,7362,77,64
7362,7368,73,64
7368,7374,83,64
7374,7380,82,64
7380,7386,83,64
7386,7392,82,64
7392,7398,83,64
7398,7404,80,64
7404,7410,81,64
7410,7416,78,64
7416,7422,77,64
7422,7428,80,64
7428,7434,77,64
7434,7440,73,64
7440,7446,74,64
7446,7452,73,64
7452,7458,74,64
7458,7464,73,64
7464,7470,74,64
7470,7476,68,64
7476,7482,69,64
7482,7488,66,64
7488,7494,65,64
7494,7500,68,64
7500,7506,73,64
7506,7512,83,64
7512,7518,83,64
7518,7524,80,64
7524,7530,81,64
7530,7536,78,64
7536,7542,77,64
7542,7548,80,64
7548,7554,73,64
7554,7560,71,64
7560,7566,69,64
7566,7572,73,64
7572,7578,78,64
7578,7584,85,64
7584,7590,85,64
7590,7596,81,64
7596,7602,83,64
7602,7608,80,64
7608,7614,78,64
7614,7620,81,64
7620,7626,74,64
7626,7632,73,64
7632,7638,71,64
7638,7644,74,64
7644,7650,67,64
7650,7656,66,64
7656,7662,65,64
7662,7668,68,64
7668,7674,61,64
7674,7680,59,64
7680,7686,57,64
7686,7692,61,64
7692,7698,66,64
7698,7704,68,64
7704,7710,69,64
7710,7716,66,64
7716,7722,71,64
7722,7728,66,64
7728,7734,73,64
7734,7740,66,64
7740,7746,74,64
7746,7752,66,64
7752,7758,61,64
7758,7764,66,64
7764,7770,68,64
7770,7776,65,64
7776,7782,66,64
7782,7788,69,64
7788,7794,68,64
7794,7800,69,64
7800,7806,69,64
7806,7812,69,64
7812,7818,68,64
7818,7824,69,64
7824,7830,66,64
7830,7836,69,64
7836,7842,64,64
7842,7848,69,64
7848,7854,63,64
7854,7860,69,64
7860,7866,64,64
7866,7872,69,64
7872,7878,66,64
7878,7884,69,64
7884,7890,68,64
7890,7896,69,64
7896,7902,69,64
7902,7908,69,64
7908,7914,66,64
7914,7920,69,64
7920,7926,68,64
7926,7932,69,64
7932,7938,68,64
7938,7944,66,64
7944,7950,64,64
7950,7956,76,64
7956,7962,75,64
7962,7968,76,64
7968,7974,73,64
7974,7980,76,64
7980,7986,71,64
7986,7992,76,64
7992,7998,70,64
7998,8004,76,64
8004,8010,71,64
8010,8016,76,64
8016,8022,73,64
8022,8028,76,64
8028,8034,75,64
8034,8040,76,64
8040,8046,76,64
8046,8052,76,64
8052,8058,73,64
8058,8064,76,64
8064,8070,75,64
8070,8076,76,64
8076,8082,75,64
8082,8088,73,64
8088,8094,71,64
8094,8100,73,64
8100,8106,75,64
8106,8112,76,64
8112,8118,78,64
8118,8124,80,64
8124,8130,81,64
8130,8136,78,64
8136,8142,83,64
8142,8148,71,64
8148,8154,69,64
8154,8160,71,64
8160,8166,68,64
8166,8172,71,64
8172,8178,66,64
8178,8184,71,64
8184,8190,64,64
8190,8196,71,64
8196,8202,62,64
8202,8208,71,64
8208,8214,61,64
8214,8220,64,64
8220,8226,66,64
8226,8232,68,64
8232,8238,69,64
8238,8244,71,64
8244,8250,73,64
8250,8256,74,64
8256,8262,76,64
8262,8268,78,64
8268,8274,80,64
8274,8280,76,64
8280,8286,81,64
8286,8292,69,64
8292,8298,68,64
8298,8304,69,64
8304,8310,66,64
8310,8316,69,64
8316,8322,64,64
8322,8328,69,64
8328,8334,63,64
8334,8340,69,64
8340,8346,61,64
8346,8352,69,64
8352,8358,59,64
8358,8364,63,64
8364,8370,64,64
8370,8376,66,64
8376,8382,68,64
8382,8388,69,64
8388,8394,71,64
8394,8400,73,64
8400,8406,75,64
8406,8412,76,64
8412,8418,78,64
8418,8424,75,64
8424,8430,80,64
8430,8436,64,64
8436,8442,62,64
8442,8448,64,64
8448,8454,61,64
8454,8460,64,64
8460,8466,59,64
8466,8472,64,64
8472,8478,57,64
8478,8484,64,64
8484,8490,56,64
8490,8496,64,64
8496,8502,57,64
8502,8508,64,64
8508,8514,73,64
8514,8520,71,64
8520,8526,73,64
8526,8532,76,64
8532,8538,81,64
8538,8544,80,64
8544,8550,81,64
8550,8556,78,64
8556,8562,73,64
8562,8568,76,64
8568,8574,59,64
8574,8580,66,64
8580,8586,75,64
8586,8592,73,64
8592,8598,75,64
8598,8604,78,64
8604,8610,81,64
8610,8616,80,64
8616,8622,81,64
8622,8628,78,64
8628,8634,75,64
8634,8640,78,64
8640,8646,59,64
8646,8652,68,64
8652,8658,71,64
8658,8664,69,64
8664,8670,71,64
8670,8676,76,64
8676,8682,80,64
8682,8688,78,64
8688,8694,80,64
8694,8700,76,64
8700,8706,71,64
8706,8712,76,64
8712,8718,59,64
8718,8724,70,64
8724,8730,73,64
8730,8736,71,64
8736,8742,73,64
8742,8748,76,64
8748,8754,82,64
8754,8760,80,64
8760,8766,82,64
8766,8772,76,64
8772,8778,73,64
8778,8784,76,64
8784,8790,75,64
8790,8796,83,64
8796,8802,82,64
8802,8808,80,64
8808,8814,78,64
8814,8820,83,64
8820,8826,78,64
8826,8832,76,64
8832,8838,75,64
8838,8844,78,64
8844,8850,75,64
8850,8856,73,64
8856,8862,71,64
8862,8868,83,64
8868,8874,81,64
8874,8880,80,64
8880,8886,78,64
8886,8892,81,64
8892,8898,78,64
8898,8904,76,64
8904,8910,75,64
8910,8916,78,64
8916,8922,75,64
8922,8928,73,64
8928,8934,71,64
8934,8940,81,64
8940,8946,80,64
8946,8952,78,64
8952,8958,76,64
8958,8964,80,64
8964,8970,76,64
8970,8976,75,64
8976,8982,73,64
8982,8988,76,64
8988,8994,73,64
8994,9000,71,64
9000,9006,69,64
9006,9012,80,64
9012,9018,78,64
9018,9024,76,64
9024,9030,75,64
9030,9036,78,64
9036,9042,75,64
9042,9048,73,64
9048,9054,71,64
9054,9060,75,64
9060,9066,71,64
9066,9072,69,64
9072,9078,68,64
9078,9084,76,64
9084,9090,73,64
9090,9096,71,64
9096,9102,69,64
9102,9108,73,64
9108,9114,69,64
9114,9120,68,64
9120,9126,66,64
9126,9132,69,64
9132,9138,66,64
9138,9144,64,64
9144,9150,63,64
9150,9156,66,64
9156,9162,69,64
9162,9168,73,64
9168,9174,71,64
9174,9180,75,64
9180,9186,78,64
9186,9192,81,64
9192,9198,81,64
9198,9204,80,64
9204,9210,81,64
9210,9216,78,64
9216,9222,80,64
9222,9228,76,64
9228,9234,80,64
9234,9240,83,64
9240,9246,88,64
9246,9252,83,64
9252,9258,80,64
9258,9264,76,64
9264,9270,71,64
9270,9276,78,64
9276,9282,88,64
9282,9288,87,64
9288,9294,88,64
9294,9300,83,64
9300,9306,80,64
9306,9312,76,64
9312,9318,74,64
9318,9324,76,64
9324,9330,73,64
9330,9336,76,64
9336,9342,74,64
9342,9348,76,64
9348,9354,71,64
9354,9360,76,64
9360,9366,73,64
9366,9372,76,64
9372,9378,81,64
9378,9384,76,64
9384,9390,73,64
9390,9396,76,64
9396,9402,71,64
9402,9408,76,64
9408,9414,73,64
9414,9420,76,64
9420,9426,69,64
9426,9432,76,64
9432,9438,71,64
9438,9444,76,64
9444,9450,80,64
9450,9456,76,64
9456,9462,71,64
9462,9468,76,64
9468,9474,69,64
9474,9480,76,64
9480,9486,71,64
9486,9492,76,64
9492,9498,68,64
9498,9504,76,64
9504,9510,69,64
9510,9516,76,64
9516,9522,78,64
9522,9528,76,64
9528,9534,75,64
9534,9540,76,64
9540,9546,76,64
9546,9552,76,64
9552,9558,78,64
9558,9564,76,64
9564,9570,80,64
9570,9576,76,64
9576,9612,59,64
9576,9612,66,64
9576,9612,75,64
9576,9612,81,64
9612,9624,83,64
9624,9648,64,64
9624,9648,71,64
9624,9648,80,64
9648,9654,57,64
9654,9660,81,64
9660,9666,80,64
9666,9669,81,64
9669,9672,78,64
9672,9708,78,64
9672,9720,71,64
9708,9720,76,64
9720,9726,76,64
9726,9732,88,64
9732,9738,87,64
9738,9744,85,64
9744,9750,83,64
9750,9756,88,64
9756,9762,81,64
9762,9768,88,64
9768,9774,80,64
9774,9780,88,64
9780,9786,78,64
9786,9792,88,64
9792,9798,76,64
9798,9804,76,64
9804,9810,75,64
9810,9816,73,64
9816,9822,71,64
9822,9828,76,64
9828,9834,69,64
9834,9840,76,64
9840,9846,68,64
9846,9852,76,64
9852,9858,66,64
9858,9864,76,64
9864,9870,64,64
9870,9876,68,64
9876,9882,71,64
9882,9888,75,64
9888,9894,76,64
9894,9900,80,64
9900,9906,83,64
9906,9912,87,64
9912,9924,88,64
