onset,offset,pitch,velocity
0,6,69,64
6,12,72,64
12,18,76,64
18,24,81,64
24,30,76,64
30,36,74,64
36,42,72,64
42,48,71,64
48,54,69,64
54,60,72,64
60,66,76,64
66,72,81,64
72,78,76,64
78,84,74,64
84,90,72,64
90,96,71,64
96,102,69,64
102,105,72,64
105,108,74,64
108,114,76,64
114,120,64,64
120,126,69,64
126,132,72,64
132,138,76,64
138,144,68,64
144,150,69,64
150,153,72,64
153,156,74,64
156,162,76,64
162,168,64,64
168,174,69,64
174,180,72,64
180,186,76,64
186,192,68,64
192,198,69,64
198,201,71,64
201,204,72,64
204,210,74,64
210,213,72,64
213,216,71,64
216,222,72,64
222,225,74,64
225,228,76,64
228,234,77,64
234,237,76,64
237,240,74,64
240,246,76,64
246,252,81,64
252,258,77,64
258,264,74,64
264,270,76,64
270,276,74,64
276,282,72,64
282,288,71,64
288,294,69,64
294,297,71,64
297,300,72,64
300,306,74,64
306,309,72,64
309,312,71,64
312,318,72,64
318,321,74,64
321,324,76,64
324,330,77,64
330,333,76,64
333,336,74,64
336,342,76,64
342,348,81,64
348,354,77,64
354,360,74,64
360,366,76,64
366,372,74,64
372,378,72,64
378,384,71,64
384,390,69,64
390,396,72,64
396,402,76,64
402,408,81,64
408,414,84,64
414,420,76,64
420,426,72,64
426,432,69,64
432,438,68,64
438,444,71,64
444,450,76,64
450,456,80,64
456,462,83,64
462,468,74,64
468,474,72,64
474,480,71,64
480,486,69,64
486,492,72,64
492,498,76,64
498,504,81,64
504,510,84,64
510,516,76,64
516,522,72,64
522,528,69,64
528,534,68,64
534,540,71,64
540,546,76,64
546,552,80,64
552,558,83,64
558,564,74,64
564,570,72,64
570,576,71,64
576,582,69,64
582,588,72,64
588,594,76,64
594,600,79,64
600,606,77,64
606,612,72,64
612,618,71,64
618,624,69,64
624,630,67,64
630,636,71,64
636,642,74,64
642,648,77,64
648,654,76,64
654,660,71,64
660,666,69,64
666,672,67,64
672,678,65,64
678,684,69,64
684,690,72,64
690,696,76,64
696,702,74,64
702,708,72,64
708,714,71,64
714,720,69,64
720,726,68,64
726,732,76,64
732,738,71,64
738,744,68,64
744,750,64,64
750,756,65,64
756,762,62,64
762,768,64,64
768,774,61,64
774,780,69,64
780,786,76,64
786,792,67,64
792,798,65,64
798,804,62,64
804,810,65,64
810,816,60,64
816,822,59,64
822,828,67,64
828,834,74,64
834,840,65,64
840,846,64,64
846,852,60,64
852,858,64,64
858,864,59,64
864,870,57,64
870,876,65,64
876,882,72,64
882,888,64,64
888,894,62,64
894,900,59,64
900,906,62,64
906,912,57,64
912,918,56,64
918,924,64,64
924,930,71,64
930,936,62,64
936,942,60,64
942,948,57,64
948,954,62,64
954,960,59,64
960,966,64,64
966,972,60,64
972,978,57,64
978,984,60,64
984,990,64,64
990,996,69,64
996,1002,72,64
1002,1008,64,64
1008,1014,63,64
1014,1020,72,64
1020,1026,71,64
1026,1032,69,64
1032,1038,78,64
1038,1044,69,64
1044,1050,67,64
1050,1056,66,64
1056,1062,64,64
1062,1068,59,64
1068,1074,55,64
1074,1080,59,64
1080,1086,64,64
1086,1092,67,64
1092,1098,71,64
1098,1104,62,64
1104,1110,61,64
1110,1116,71,64
1116,1122,69,64
1122,1128,67,64
1128,1134,76,64
1134,1140,79,64
1140,1146,78,64
1146,1152,76,64
1152,1158,75,64
1158,1164,69,64
1164,1170,66,64
1170,1176,69,64
1176,1182,75,64
1182,1188,78,64
1188,1194,81,64
1194,1200,72,64
1200,1206,71,64
1206,1212,66,64
1212,1218,63,64
1218,1224,66,64
1224,1230,71,64
1230,1236,75,64
1236,1242,78,64
1242,1248,81,64
1248,1254,79,64
1254,1257,83,64
1257,1260,81,64
1260,1266,79,64
1266,1272,78,64
1272,1278,76,64
1278,1284,84,64
1284,1290,69,64
1290,1293,71,64
1293,1296,72,64
1296,1302,62,64
1302,1305,81,64
1305,1308,79,64
1308,1314,78,64
1314,1320,76,64
1320,1326,74,64
1326,1332,83,64
1332,1338,67,64
1338,1341,69,64
1341,1344,71,64
1344,1350,60,64
1350,1353,79,64
1353,1356,78,64
1356,1362,76,64
1362,1368,74,64
1368,1374,72,64
1374,1377,81,64
1377,1380,79,64
1380,1386,78,64
1386,1392,76,64
1392,1398,75,64
1398,1401,78,64
1401,1404,75,64
1404,1410,71,64
1410,1416,69,64
1416,1422,67,64
1422,1428,76,64
1428,1434,66,64
1434,1440,74,64
1440,1446,64,64
1446,1449,74,64
1449,1452,71,64
1452,1458,67,64
1458,1464,65,64
1464,1470,64,64
1470,1476,72,64
1476,1482,62,64
1482,1488,71,64
1488,1494,60,64
1494,1497,71,64
1497,1500,67,64
1500,1506,64,64
1506,1512,62,64
1512,1518,60,64
1518,1524,69,64
1524,1530,59,64
1530,1536,67,64
1536,1542,57,64
1542,1545,59,64
1545,1548,60,64
1548,1554,62,64
1554,1557,60,64
1557,1560,59,64
1560,1566,60,64
1566,1569,62,64
1569,1572,64,64
1572,1578,65,64
1578,1581,64,64
1581,1584,62,64
1584,1590,64,64
1590,1593,66,64
1593,1596,68,64
1596,1602,69,64
1602,1605,68,64
1605,1608,66,64
1608,1614,68,64
1614,1617,69,64
1617,1620,71,64
1620,1626,72,64
1626,1629,71,64
1629,1632,69,64
1632,1638,78,64
1638,1644,72,64
1644,1650,63,64
1650,1656,72,64
1656,1662,71,64
1662,1668,69,64
1668,1674,67,64
1674,1680,66,64
1680,1686,67,64
1686,1692,69,64
1692,1698,71,64
1698,1704,72,64
1704,1722,66,64
1704,1728,59,64
1722,1728,64,64
1728,1734,64,64
1734,1737,61,64
1737,1740,62,64
1740,1746,64,64
1746,1752,69,64
1752,1758,66,64
1758,1761,63,64
1761,1764,64,64
1764,1770,66,64
1770,1776,71,64
1776,1782,67,64
1782,1785,64,64
1785,1788,66,64
1788,1794,67,64
1794,1800,72,64
1800,1806,69,64
1806,1809,66,64
1809,1812,67,64
1812,1818,69,64
1818,1824,74,64
1824,1830,71,64
1830,1836,67,64
1836,1842,71,64
1842,1848,75,64
1848,1854,76,64
1854,1860,79,64
1860,1866,83,64
1866,1872,74,64
1872,1878,72,64
1878,1884,69,64
1884,1890,72,64
1890,1896,76,64
1896,1902,77,64
1902,1908,81,64
1908,1914,84,64
1914,1920,76,64
1920,1926,71,64
1926,1932,75,64
1932,1938,78,64
1938,1944,83,64
1944,1950,78,64
1950,1956,76,64
1956,1962,75,64
1962,1968,73,64
1968,1974,71,64
1974,1980,75,64
1980,1986,78,64
1986,1992,81,64
1992,1998,78,64
1998,2004,76,64
2004,2010,75,64
2010,2016,73,64
2016,2022,71,64
2022,2028,75,64
2028,2034,76,64
2034,2040,77,64
2040,2046,76,64
2046,2052,74,64
2052,2058,72,64
2058,2064,71,64
2064,2070,69,64
2070,2076,71,64
2076,2082,72,64
2082,2088,78,64
2088,2094,72,64
2094,2100,71,64
2100,2106,69,64
2106,2112,67,64
2112,2118,66,64
2118,2124,67,64
2124,2130,69,64
2130,2136,72,64
2136,2142,69,64
2142,2148,67,64
2148,2154,66,64
2154,2160,64,64
2160,2166,63,64
2166,2172,66,64
2172,2178,69,64
2178,2184,72,64
2184,2190,71,64
2190,2196,69,64
2196,2202,67,64
2202,2208,66,64
2208,2214,67,64
2214,2217,71,64
2217,2220,67,64
2220,2226,64,64
2226,2232,59,64
2232,2238,66,64
2238,2244,69,64
2244,2250,76,64
2250,2256,75,64
2256,2304,76,64
2304,2310,69,64
2310,2316,72,64
2316,2322,76,64
2322,2328,81,64
2328,2334,76,64
2334,2340,74,64
2340,2346,72,64
2346,2352,71,64
2352,2358,69,64
2358,2364,72,64
2364,2370,76,64
2370,2376,81,64
2376,2382,76,64
2382,2388,74,64
2388,2394,72,64
2394,2400,71,64
2400,2406,69,64
2406,2409,72,64
2409,2412,74,64
2412,2418,76,64
2418,2424,64,64
2424,2430,69,64
2430,2436,72,64
2436,2442,76,64
2442,2448,68,64
2448,2454,69,64
2454,2457,72,64
2457,2460,74,64
2460,2466,76,64
2466,2472,64,64
2472,2478,69,64
2478,2484,72,64
2484,2490,76,64
2490,2496,68,64
2496,2502,69,64
2502,2505,71,64
2505,2508,72,64
2508,2514,74,64
2514,2517,72,64
2517,2520,71,64
2520,2526,72,64
2526,2529,74,64
2529,2532,76,64
2532,2538,77,64
2538,2541,76,64
2541,2544,74,64
2544,2550,76,64
2550,2556,81,64
2556,2562,77,64
2562,2568,74,64
2568,2574,76,64
2574,2580,74,64
2580,2586,72,64
2586,2592,71,64
2592,2598,69,64
2598,2601,71,64
2601,2604,72,64
2604,2610,74,64
2610,2613,72,64
2613,2616,71,64
2616,2622,72,64
2622,2625,74,64
2625,2628,76,64
2628,2634,77,64
2634,2637,76,64
2637,2640,74,64
2640,2646,76,64
2646,2652,81,64
2652,2658,77,64
2658,2664,74,64
2664,2670,76,64
2670,2676,74,64
2676,2682,72,64
2682,2688,71,64
2688,2694,69,64
2694,2700,72,64
2700,2706,76,64
2706,2712,81,64
2712,2718,84,64
2718,2724,76,64
2724,2730,72,64
2730,2736,69,64
2736,2742,68,64
2742,2748,71,64
2748,2754,76,64
2754,2760,80,64
2760,2766,83,64
2766,2772,74,64
2772,2778,72,64
2778,2784,71,64
2784,2790,69,64
2790,2796,72,64
2796,2802,76,64
2802,2808,81,64
2808,2814,84,64
2814,2820,76,64
2820,2826,72,64
2826,2832,69,64
2832,2838,68,64
2838,2844,71,64
2844,2850,76,64
2850,2856,80,64
2856,2862,83,64
2862,2868,74,64
2868,2874,72,64
2874,2880,71,64
2880,2886,69,64
2886,2892,72,64
2892,2898,76,64
2898,2904,79,64
2904,2910,77,64
2910,2916,72,64
2916,2922,71,64
2922,2928,69,64
2928,2934,67,64
2934,2940,71,64
2940,2946,74,64
2946,2952,77,64
2952,2958,76,64
2958,2964,71,64
2964,2970,69,64
2970,2976,67,64
2976,2982,65,64
2982,2988,69,64
2988,2994,72,64
2994,3000,76,64
3000,3006,74,64
3006,3012,72,64
3012,3018,71,64
3018,3024,69,64
3024,3030,68,64
3030,3036,76,64
3036,3042,71,64
3042,3048,68,64
3048,3054,64,64
3054,3060,65,64
3060,3066,62,64
3066,3072,64,64
3072,3078,61,64
3078,3084,69,64
3084,3090,76,64
3090,3096,67,64
3096,3102,65,64
3102,3108,62,64
3108,3114,65,64
3114,3120,60,64
3120,3126,59,64
3126,3132,67,64
3132,3138,74,64
3138,3144,65,64
3144,3150,64,64
3150,3156,60,64
3156,3162,64,64
3162,3168,59,64
3168,3174,57,64
3174,3180,65,64
3180,3186,72,64
3186,3192,64,64
3192,3198,62,64
3198,3204,59,64
3204,3210,62,64
3210,3216,57,64
3216,3222,56,64
3222,3228,64,64
3228,3234,71,64
3234,3240,62,64
3240,3246,60,64
3246,3252,57,64
3252,3258,62,64
3258,3264,59,64
3264,3270,64,64
3270,3276,60,64
3276,3282,57,64
3282,3288,60,64
3288,3294,64,64
3294,3300,69,64
3300,3306,72,64
3306,3312,64,64
3312,3318,63,64
3318,3324,72,64
3324,3330,71,64
3330,3336,69,64
3336,3342,78,64
3342,3348,69,64
3348,3354,67,64
3354,3360,66,64
3360,3366,64,64
3366,3372,59,64
3372,3378,55,64
3378,3384,59,64
3384,3390,64,64
3390,3396,67,64
3396,3402,71,64
3402,3408,62,64
3408,3414,61,64
3414,3420,71,64
3420,3426,69,64
3426,3432,67,64
3432,3438,76,64
3438,3444,79,64
3444,3450,78,64
3450,3456,76,64
3456,3462,75,64
3462,3468,69,64
3468,3474,66,64
3474,3480,69,64
3480,3486,75,64
3486,3492,78,64
3492,3498,81,64
3498,3504,72,64
3504,3510,71,64
3510,3516,66,64
3516,3522,63,64
3522,3528,66,64
3528,3534,71,64
3534,3540,75,64
3540,3546,78,64
3546,3552,81,64
3552,3558,79,64
3558,3561,83,64
3561,3564,81,64
3564,3570,79,64
3570,3576,78,64
3576,3582,76,64
3582,3588,84,64
3588,3594,69,64
3594,3597,71,64
3597,3600,72,64
3600,3606,62,64
3606,3609,81,64
3609,3612,79,64
3612,3618,78,64
3618,3624,76,64
3624,3630,74,64
3630,3636,83,64
3636,3642,67,64
3642,3645,69,64
3645,3648,71,64
3648,3654,60,64
3654,3657,79,64
3657,3660,78,64
3660,3666,76,64
3666,3672,74,64
3672,3678,72,64
3678,3681,81,64
3681,3684,79,64
3684,3690,78,64
3690,3696,76,64
3696,3702,75,64
3702,3705,78,64
3705,3708,75,64
3708,3714,71,64
3714,3720,69,64
3720,3726,67,64
3726,3732,76,64
3732,3738,66,64
3738,3744,74,64
3744,3750,64,64
3750,3753,74,64
3753,3756,71,64
3756,3762,67,64
3762,3768,65,64
3768,3774,64,64
3774,3780,72,64
3780,3786,62,64
3786,3792,71,64
3792,3798,60,64
3798,3801,71,64
3801,3804,67,64
3804,3810,64,64
3810,3816,62,64
3816,3822,60,64
3822,3828,69,64
3828,3834,59,64
3834,3840,67,64
3840,3846,57,64
3846,3849,59,64
3849,3852,60,64
3852,3858,62,64
3858,3861,60,64
3861,3864,59,64
3864,3870,60,64
3870,3873,62,64
3873,3876,64,64
3876,3882,65,64
3882,3885,64,64
3885,3888,62,64
3888,3894,64,64
3894,3897,66,64
3897,3900,68,64
3900,3906,69,64
3906,3909,68,64
3909,3912,66,64
3912,3918,68,64
3918,3921,69,64
3921,3924,71,64
3924,3930,72,64
3930,3933,71,64
3933,3936,69,64
3936,3942,78,64
3942,3948,72,64
3948,3954,63,64
3954,3960,72,64
3960,3966,71,64
3966,3972,69,64
3972,3978,67,64
3978,3984,66,64
3984,3990,67,64
3990,3996,69,64
3996,4002,71,64
4002,4008,72,64
4008,4026,66,64
4008,4032,59,64
4026,4032,64,64
4032,4038,64,64
4038,4041,61,64
4041,4044,62,64
4044,4050,64,64
4050,4056,69,64
4056,4062,66,64
4062,4065,63,64
4065,4068,64,64
4068,4074,66,64
4074,4080,71,64
4080,4086,67,64
4086,4089,64,64
4089,4092,66,64
4092,4098,67,64
4098,4104,72,64
4104,4110,69,64
4110,4113,66,64
4113,4116,67,64
4116,4122,69,64
4122,4128,74,64
4128,4134,71,64
4134,4140,67,64
4140,4146,71,64
4146,4152,75,64
4152,4158,76,64
4158,4164,79,64
4164,4170,83,64
4170,4176,74,64
4176,4182,72,64
4182,4188,69,64
4188,4194,72,64
4194,4200,76,64
4200,4206,77,64
4206,4212,81,64
4212,4218,84,64
4218,4224,76,64
4224,4230,71,64
4230,4236,75,64
4236,4242,78,64
4242,4248,83,64
4248,4254,78,64
4254,4260,76,64
4260,4266,75,64
4266,4272,73,64
4272,4278,71,64
4278,4284,75,64
4284,4290,78,64
4290,4296,81,64
4296,4302,78,64
4302,4308,76,64
4308,4314,75,64
4314,4320,73,64
4320,4326,71,64
4326,4332,75,64
4332,4338,76,64
4338,4344,77,64
4344,4350,76,64
4350,4356,74,64
4356,4362,72,64
4362,4368,71,64
4368,4374,69,64
4374,4380,71,64
4380,4386,72,64
4386,4392,78,64
4392,4398,72,64
4398,4404,71,64
4404,4410,69,64
4410,4416,67,64
4416,4422,66,64
4422,4428,67,64
4428,4434,69,64
4434,4440,72,64
4440,4446,69,64
4446,4452,67,64
4452,4458,66,64
4458,4464,64,64
4464,4470,63,64
4470,4476,66,64
4476,4482,69,64
4482,4488,72,64
4488,4494,71,64
4494,4500,69,64
4500,4506,67,64
4506,4512,66,64
4512,4518,67,64
4518,4521,71,64
4521,4524,67,64
4524,4530,64,64
4530,4536,59,64
4536,4542,66,64
4542,4548,69,64
4548,4554,76,64
4554,4560,75,64
4560,4608,76,64
4608,4614,64,64
4614,4620,76,64
4620,4626,79,64
4626,4632,83,64
4632,4638,79,64
4638,4644,76,64
4644,4650,75,64
4650,4656,76,64
4656,4662,64,64
4662,4668,76,64
4668,4674,79,64
4674,4680,83,64
4680,4686,79,64
4686,4692,76,64
4692,4698,75,64
4698,4704,76,64
4704,4710,64,64
4710,4713,67,64
4713,4716,69,64
4716,4722,71,64
4722,4728,59,64
4728,4734,64,64
4734,4740,67,64
4740,4746,71,64
4746,4752,63,64
4752,4758,64,64
4758,4761,67,64
4761,4764,69,64
4764,4770,71,64
4770,4776,59,64
4776,4782,64,64
4782,4788,67,64
4788,4794,71,64
4794,4800,63,64
4800,4806,64,64
4806,4809,66,64
4809,4812,67,64
4812,4818,69,64
4818,4821,67,64
4821,4824,66,64
4824,4830,67,64
4830,4833,69,64
4833,4836,71,64
4836,4842,72,64
4842,4845,71,64
4845,4848,69,64
4848,4854,71,64
4854,4857,67,64
4857,4860,69,64
4860,4866,71,64
4866,4869,73,64
4869,4872,75,64
4872,4878,76,64
4878,4881,71,64
4881,4884,69,64
4884,4890,67,64
4890,4896,66,64
4896,4902,64,64
4902,4905,66,64
4905,4908,67,64
4908,4914,69,64
4914,4917,67,64
4917,4920,66,64
4920,4926,67,64
4926,4929,69,64
4929,4932,71,64
4932,4938,72,64
4938,4941,71,64
4941,4944,69,64
4944,4950,71,64
4950,4953,67,64
4953,4956,69,64
4956,4962,71,64
4962,4965,73,64
4965,4968,75,64
4968,4974,76,64
4974,4977,71,64
4977,4980,69,64
4980,4986,67,64
4986,4992,66,64
4992,4998,64,64
4998,5004,67,64
5004,5010,71,64
5010,5016,76,64
5016,5022,79,64
5022,5028,83,64
5028,5034,79,64
5034,5040,76,64
5040,5046,75,64
5046,5052,78,64
5052,5058,75,64
5058,5064,71,64
5064,5070,66,64
5070,5076,69,64
5076,5082,67,64
5082,5088,66,64
5088,5094,64,64
5094,5100,67,64
5100,5106,71,64
5106,5112,76,64
5112,5118,79,64
5118,5124,83,64
5124,5130,79,64
5130,5136,76,64
5136,5142,75,64
5142,5148,78,64
5148,5154,75,64
5154,5160,71,64
5160,5166,66,64
5166,5172,69,64
5172,5178,67,64
5178,5184,66,64
5184,5190,64,64
5190,5196,67,64
5196,5202,71,64
5202,5208,74,64
5208,5214,72,64
5214,5220,67,64
5220,5226,66,64
5226,5232,64,64
5232,5238,62,64
5238,5244,66,64
5244,5250,69,64
5250,5256,72,64
5256,5262,71,64
5262,5268,66,64
5268,5274,64,64
5274,5280,62,64
5280,5286,60,64
5286,5292,64,64
5292,5298,67,64
5298,5304,71,64
5304,5310,69,64
5310,5316,67,64
5316,5322,66,64
5322,5328,64,64
5328,5334,63,64
5334,5340,71,64
5340,5346,66,64
5346,5352,63,64
5352,5358,59,64
5358,5364,60,64
5364,5370,57,64
5370,5376,59,64
5376,5382,55,64
5382,5385,64,64
5385,5388,66,64
5388,5394,67,64
5394,5400,71,64
5400,5406,76,64
5406,5412,78,64
5412,5418,74,64
5418,5424,76,64
5424,5430,72,64
5430,5433,76,64
5433,5436,74,64
5436,5442,72,64
5442,5448,71,64
5448,5454,69,64
5454,5460,71,64
5460,5466,67,64
5466,5472,69,64
5472,5478,66,64
5478,5481,62,64
5481,5484,64,64
5484,5490,66,64
5490,5496,69,64
5496,5502,74,64
5502,5508,76,64
5508,5514,72,64
5514,5520,74,64
5520,5526,71,64
5526,5529,67,64
5529,5532,69,64
5532,5538,71,64
5538,5544,74,64
5544,5550,79,64
5550,5556,81,64
5556,5562,78,64
5562,5568,79,64
5568,5574,76,64
5574,5580,79,64
5580,5586,76,64
5586,5592,71,64
5592,5598,72,64
5598,5604,64,64
5604,5610,67,64
5610,5616,72,64
5616,5622,74,64
5622,5628,79,64
5628,5634,74,64
5634,5640,69,64
5640,5646,71,64
5646,5652,62,64
5652,5658,67,64
5658,5664,71,64
5664,5670,72,64
5670,5676,79,64
5676,5682,72,64
5682,5688,69,64
5688,5694,62,64
5694,5697,78,64
5697,5700,79,64
5700,5706,81,64
5706,5712,72,64
5712,5718,71,64
5718,5724,79,64
5724,5730,74,64
5730,5736,71,64
5736,5742,67,64
5742,5748,69,64
5748,5754,65,64
5754,5760,67,64
5760,5766,64,64
5766,5772,72,64
5772,5778,79,64
5778,5784,70,64
5784,5790,69,64
5790,5796,65,64
5796,5802,69,64
5802,5808,64,64
5808,5814,62,64
5814,5820,71,64
5820,5826,77,64
5826,5832,69,64
5832,5838,67,64
5838,5844,64,64
5844,5850,67,64
5850,5856,62,64
5856,5862,60,64
5862,5868,69,64
5868,5874,76,64
5874,5880,67,64
5880,5886,65,64
5886,5892,62,64
5892,5898,65,64
5898,5904,60,64
5904,5910,59,64
5910,5916,67,64
5916,5922,74,64
5922,5928,65,64
5928,5934,64,64
5934,5940,60,64
5940,5946,65,64
5946,5952,62,64
5952,5958,67,64
5958,5964,64,64
5964,5970,60,64
5970,5976,64,64
5976,5982,67,64
5982,5988,64,64
5988,5994,69,64
5994,6000,65,64
6000,6006,70,64
6006,6012,67,64
6012,6018,64,64
6018,6024,67,64
6024,6030,70,64
6030,6036,67,64
6036,6042,72,64
6042,6048,67,64
6048,6054,69,64
6054,6060,65,64
6060,6066,69,64
6066,6072,72,64
6072,6078,77,64
6078,6084,74,64
6084,6090,81,64
6090,6096,72,64
6096,6102,71,64
6102,6108,67,64
6108,6114,71,64
6114,6120,74,64
6120,6126,79,64
6126,6132,76,64
6132,6138,83,64
6138,6144,74,64
6144,6150,72,64
6150,6156,69,64
6156,6162,72,64
6162,6168,76,64
6168,6174,81,64
6174,6180,77,64
6180,6186,84,64
6186,6192,76,64
6192,6198,74,64
6198,6204,71,64
6204,6210,74,64
6210,6216,79,64
6216,6222,83,64
6222,6228,79,64
6228,6234,86,64
6234,6240,77,64
6240,6246,76,64
6246,6249,79,64
6249,6252,77,64
6252,6258,76,64
6258,6261,77,64
6261,6264,79,64
6264,6270,81,64
6270,6273,71,64
6273,6276,72,64
6276,6282,74,64
6282,6285,76,64
6285,6288,77,64
6288,6294,79,64
6294,6297,69,64
6297,6300,71,64
6300,6306,72,64
6306,6309,74,64
6309,6312,76,64
6312,6318,77,64
6318,6321,67,64
6321,6324,69,64
6324,6330,71,64
6330,6333,72,64
6333,6336,74,64
6336,6342,76,64
6342,6345,60,64
6345,6348,62,64
6348,6354,64,64
6354,6357,65,64
6357,6360,67,64
6360,6366,69,64
6366,6372,65,64
6372,6378,74,64
6378,6384,65,64
6384,6390,55,64
6390,6396,65,64
6396,6402,71,64
6402,6408,74,64
6408,6414,72,64
6414,6420,71,64
6420,6426,69,64
6426,6432,67,64
6432,6438,65,64
6438,6441,64,64
6441,6444,62,64
6444,6450,64,64
6450,6456,72,64
6456,6462,55,64
6462,6468,62,64
6468,6474,72,64
6474,6480,71,64
6480,6486,72,64
6486,6489,76,64
6489,6492,72,64
6492,6498,67,64
6498,6504,65,64
6504,6510,64,64
6510,6513,67,64
6513,6516,64,64
6516,6522,60,64
6522,6528,58,64
6528,6534,57,64
6534,6540,67,64
6540,6546,73,64
6546,6552,67,64
6552,6558,73,64
6558,6564,67,64
6564,6570,76,64
6570,6576,67,64
6576,6582,65,64
6582,6585,74,64
6585,6588,69,64
6588,6594,65,64
6594,6600,64,64
6600,6606,62,64
6606,6609,69,64
6609,6612,65,64
6612,6618,62,64
6618,6624,60,64
6624,6630,59,64
6630,6636,69,64
6636,6642,75,64
6642,6648,69,64
6648,6654,75,64
6654,6660,69,64
6660,6666,78,64
6666,6672,69,64
6672,6678,68,64
6678,6681,76,64
6681,6684,71,64
6684,6690,68,64
6690,6696,66,64
6696,6702,64,64
6702,6705,71,64
6705,6708,68,64
6708,6714,64,64
6714,6720,62,64
6720,6723,60,64
6723,6726,76,64
6726,6729,74,64
6729,6732,72,64
6732,6738,71,64
6738,6741,72,64
6741,6744,74,64
6744,6750,72,64
6750,6753,71,64
6753,6756,69,64
6756,6762,68,64
6762,6765,69,64
6765,6768,71,64
6768,6771,61,64
6771,6774,69,64
6774,6777,67,64
6777,6780,65,64
6780,6786,64,64
6786,6789,65,64
6789,6792,67,64
6792,6798,65,64
6798,6801,64,64
6801,6804,62,64
6804,6810,61,64
6810,6813,62,64
6813,6816,64,64
6816,6822,62,64
6822,6825,77,64
6825,6828,76,64
6828,6834,74,64
6834,6840,72,64
6840,6846,71,64
6846,6852,74,64
6852,6858,67,64
6858,6861,69,64
6861,6864,71,64
6864,6870,60,64
6870,6873,76,64
6873,6876,74,64
6876,6882,72,64
6882,6888,71,64
6888,6894,69,64
6894,6900,72,64
6900,6906,65,64
6906,6909,67,64
6909,6912,69,64
6912,6918,59,64
6918,6921,74,64
6921,6924,72,64
6924,6930,71,64
6930,6936,69,64
6936,6942,68,64
6942,6948,74,64
6948,6954,83,64
6954,6960,74,64
6960,6966,72,64
6966,6969,69,64
6969,6972,71,64
6972,6978,72,64
6978,6984,77,64
6984,6990,71,64
6990,6993,67,64
6993,6996,69,64
6996,7002,71,64
7002,7008,76,64
7008,7014,69,64
7014,7017,65,64
7017,7020,67,64
7020,7026,69,64
7026,7032,73,64
7032,7038,74,64
7038,7041,71,64
7041,7044,72,64
7044,7050,74,64
7050,7056,77,64
7056,7062,80,64
7062,7065,76,64
7065,7068,78,64
7068,7074,80,64
7074,7080,83,64
7080,7086,86,64
7086,7089,83,64
7089,7092,80,64
7092,7098,76,64
7098,7101,80,64
7101,7104,83,64
7104,7110,84,64
7110,7113,88,64
7113,7116,84,64
7116,7122,81,64
7122,7128,79,64
7128,7134,77,64
7134,7140,86,64
7140,7146,76,64
7146,7152,84,64
7152,7158,74,64
7158,7161,84,64
7161,7164,81,64
7164,7170,77,64
7170,7176,76,64
7176,7182,74,64
7182,7188,83,64
7188,7194,72,64
7194,7200,81,64
7200,7206,71,64
7206,7209,77,64
7209,7212,74,64
7212,7218,71,64
7218,7224,69,64
7224,7230,68,64
7230,7236,74,64
7236,7242,66,64
7242,7248,74,64
7248,7254,64,64
7254,7260,68,64
7260,7266,71,64
7266,7272,74,64
7272,7278,77,64
7278,7281,76,64
7281,7284,74,64
7284,7290,72,64
7290,7296,71,64
7296,7302,72,64
7302,7308,68,64
7308,7314,69,64
7314,7320,63,64
7320,7326,64,64
7326,7332,72,64
7332,7338,71,64
7338,7341,69,64
7341,7344,68,64
7344,7350,69,64
7350,7353,65,64
7353,7356,67,64
7356,7362,69,64
7362,7368,65,64
7368,7374,64,64
7374,7380,62,64
7380,7386,60,64
7386,7392,59,64
7392,7395,60,64
7395,7398,64,64
7398,7401,66,64
7401,7404,68,64
7404,7410,69,64
7410,7416,64,64
7416,7422,62,64
7422,7428,60,64
7428,7434,59,64
7434,7440,57,64
7440,7443,59,64
7443,7446,60,64
7446,7449,62,64
7449,7452,64,64
7452,7458,65,64
7458,7464,64,64
7464,7470,62,64
7470,7476,71,64
7476,7482,77,64
7482,7488,69,64
7488,7491,68,64
7491,7494,69,64
7494,7497,71,64
7497,7500,72,64
7500,7506,74,64
7506,7512,72,64
7512,7518,71,64
7518,7521,80,64
7521,7524,81,64
7524,7530,83,64
7530,7536,74,64
7536,7539,72,64
7539,7542,76,64
7542,7545,78,64
7545,7548,80,64
7548,7554,81,64
7554,7560,72,64
7560,7566,64,64
7566,7572,71,64
7572,7578,81,64
7578,7584,80,64
7584,7590,69,64
7590,7596,73,64
7596,7602,79,64
7602,7608,76,64
7608,7614,69,64
7614,7620,74,64
7620,7626,78,64
7626,7632,74,64
7632,7638,68,64
7638,7644,74,64
7644,7650,77,64
7650,7656,74,64
7656,7662,67,64
7662,7668,73,64
7668,7674,76,64
7674,7680,73,64
7680,7686,66,64
7686,7692,69,64
7692,7698,76,64
7698,7704,69,64
7704,7710,65,64
7710,7716,74,64
7716,7722,81,64
7722,7728,74,64
7728,7734,64,64
7734,7740,74,64
7740,7746,83,64
7746,7752,81,64
7752,7758,80,64
7758,7764,77,64
7764,7770,76,64
7770,7776,74,64
7776,7782,72,64
7782,7785,76,64
7785,7788,72,64
7788,7794,69,64
7794,7800,64,64
7800,7806,71,64
7806,7812,74,64
7812,7818,81,64
7818,7824,80,64
7824,7872,57,64
7872,7878,64,64
7878,7884,76,64
7884,7890,79,64
7890,7896,83,64
7896,7902,79,64
7902,7908,76,64
7908,7914,75,64
7914,7920,76,64
7920,7926,64,64
7926,7932,76,64
7932,7938,79,64
7938,7944,83,64
7944,7950,79,64
7950,7956,76,64
7956,7962,75,64
7962,7968,76,64
7968,7974,64,64
7974,7977,67,64
7977,7980,69,64
7980,7986,71,64
7986,7992,59,64
7992,7998,64,64
7998,8004,67,64
8004,8010,71,64
8010,8016,63,64
8016,8022,64,64
8022,8025,67,64
8025,8028,69,64
8028,8034,71,64
8034,8040,59,64
8040,8046,64,64
8046,8052,67,64
8052,8058,71,64
8058,8064,63,64
8064,8070,64,64
8070,8073,66,64
8073,8076,67,64
8076,8082,69,64
8082,8085,67,64
8085,8088,66,64
8088,8094,67,64
8094,8097,69,64
8097,8100,71,64
8100,8106,72,64
8106,8109,71,64
8109,8112,69,64
8112,8118,71,64
8118,8121,67,64
8121,8124,69,64
8124,8130,71,64
8130,8133,73,64
8133,8136,75,64
8136,8142,76,64
8142,8145,71,64
8145,8148,69,64
8148,8154,67,64
8154,8160,66,64
8160,8166,64,64
8166,8169,66,64
8169,8172,67,64
8172,8178,69,64
8178,8181,67,64
8181,8184,66,64
8184,8190,67,64
8190,8193,69,64
8193,8196,71,64
8196,8202,72,64
8202,8205,71,64
8205,8208,69,64
8208,8214,71,64
8214,8217,67,64
8217,8220,69,64
8220,8226,71,64
8226,8229,73,64
8229,8232,75,64
8232,8238,76,64
8238,8241,71,64
8241,8244,69,64
8244,8250,67,64
8250,8256,66,64
8256,8262,64,64
8262,8268,67,64
8268,8274,71,64
8274,8280,76,64
8280,8286,79,64
8286,8292,83,64
8292,8298,79,64
8298,8304,76,64
8304,8310,75,64
8310,8316,78,64
8316,8322,75,64
8322,8328,71,64
8328,8334,66,64
8334,8340,69,64
8340,8346,67,64
8346,8352,66,64
8352,8358,64,64
8358,8364,67,64
8364,8370,71,64
8370,8376,76,64
8376,8382,79,64
8382,8388,83,64
8388,8394,79,64
8394,8400,76,64
8400,8406,75,64
8406,8412,78,64
8412,8418,75,64
8418,8424,71,64
8424,8430,66,64
8430,8436,69,64
8436,8442,67,64
8442,8448,66,64
8448,8454,64,64
8454,8460,67,64
8460,8466,71,64
8466,8472,74,64
8472,8478,72,64
8478,8484,67,64
8484,8490,66,64
8490,8496,64,64
8496,8502,62,64
8502,8508,66,64
8508,8514,69,64
8514,8520,72,64
8520,8526,71,64
8526,8532,66,64
8532,8538,64,64
8538,8544,62,64
8544,8550,60,64
8550,8556,64,64
8556,8562,67,64
8562,8568,71,64
8568,8574,69,64
8574,8580,67,64
8580,8586,66,64
8586,8592,64,64
8592,8598,63,64
8598,8604,71,64
8604,8610,66,64
8610,8616,63,64
8616,8622,59,64
8622,8628,60,64
8628,8634,57,64
8634,8640,59,64
8640,8646,55,64
8646,8649,64,64
8649,8652,66,64
8652,8658,67,64
8658,8664,71,64
8664,8670,76,64
8670,8676,78,64
8676,8682,74,64
8682,8688,76,64
8688,8694,72,64
8694,8697,76,64
8697,8700,74,64
8700,8706,72,64
8706,8712,71,64
8712,8718,69,64
8718,8724,71,64
8724,8730,67,64
8730,8736,69,64
8736,8742,66,64
8742,8745,62,64
8745,8748,64,64
8748,8754,66,64
8754,8760,69,64
8760,8766,74,64
8766,8772,76,64
8772,8778,72,64
8778,8784,74,64
8784,8790,71,64
8790,8793,67,64
8793,8796,69,64
8796,8802,71,64
8802,8808,74,64
8808,8814,79,64
8814,8820,81,64
8820,8826,78,64
8826,8832,79,64
8832,8838,76,64
8838,8844,79,64
8844,8850,76,64
8850,8856,71,64
8856,8862,72,64
8862,8868,64,64
8868,8874,67,64
8874,8880,72,64
8880,8886,74,64
8886,8892,79,64
8892,8898,74,64
8898,8904,69,64
8904,8910,71,64
8910,8916,62,64
8916,8922,67,64
8922,8928,71,64
8928,8934,72,64
8934,8940,79,64
8940,8946,72,64
8946,8952,69,64
8952,8958,62,64
8958,8961,78,64
8961,8964,79,64
8964,8970,81,64
8970,8976,72,64
8976,8982,71,64
8982,8988,79,64
8988,8994,74,64
8994,9000,71,64
9000,9006,67,64
9006,9012,69,64
9012,9018,65,64
9018,9024,67,64
9024,9030,64,64
9030,9036,72,64
9036,9042,79,64
9042,9048,70,64
9048,9054,69,64
9054,9060,65,64
9060,9066,69,64
9066,9072,64,64
9072,9078,62,64
9078,9084,71,64
9084,9090,77,64
9090,9096,69,64
9096,9102,67,64
9102,9108,64,64
9108,9114,67,64
9114,9120,62,64
9120,9126,60,64
9126,9132,69,64
9132,9138,76,64
9138,9144,67,64
9144,9150,65,64
9150,9156,62,64
9156,9162,65,64
9162,9168,60,64
9168,9174,59,64
9174,9180,67,64
9180,9186,74,64
9186,9192,65,64
9192,9198,64,64
9198,9204,60,64
9204,9210,65,64
9210,9216,62,64
9216,9222,67,64
9222,9228,64,64
9228,9234,60,64
9234,9240,64,64
9240,9246,67,64
9246,9252,64,64
9252,9258,69,64
9258,9264,65,64
9264,9270,70,64
9270,9276,67,64
9276,9282,64,64
9282,9288,67,64
9288,9294,70,64
9294,9300,67,64
9300,9306,72,64
9306,9312,67,64
9312,9318,69,64
9318,9324,65,64
9324,9330,69,64
9330,9336,72,64
9336,9342,77,64
9342,9348,74,64
9348,9354,81,64
9354,9360,72,64
9360,9366,71,64
9366,9372,67,64
9372,9378,71,64
9378,9384,74,64
9384,9390,79,64
9390,9396,76,64
9396,9402,83,64
9402,9408,74,64
9408,9414,72,64
9414,9420,69,64
9420,9426,72,64
9426,9432,76,64
9432,9438,81,64
9438,9444,77,64
9444,9450,84,64
9450,9456,76,64
9456,9462,74,64
9462,9468,71,64
9468,9474,74,64
9474,9480,79,64
9480,9486,83,64
9486,9492,79,64
9492,9498,86,64
9498,9504,77,64
9504,9510,76,64
9510,9513,79,64
9513,9516,77,64
9516,9522,76,64
9522,9525,77,64
9525,9528,79,64
9528,9534,81,64
9534,9537,71,64
9537,9540,72,64
9540,9546,74,64
9546,9549,76,64
9549,9552,77,64
9552,9558,79,64
9558,9561,69,64
9561,9564,71,64
9564,9570,72,64
9570,9573,74,64
9573,9576,76,64
9576,9582,77,64
9582,9585,67,64
9585,9588,69,64
9588,9594,71,64
9594,9597,72,64
9597,9600,74,64
9600,9606,76,64
9606,9609,60,64
9609,9612,62,64
9612,9618,64,64
9618,9621,65,64
9621,9624,67,64
9624,9630,69,64
9630,9636,65,64
9636,9642,74,64
9642,9648,65,64
9648,9654,55,64
9654,9660,65,64
9660,9666,71,64
9666,9672,74,64
9672,9678,72,64
9678,9684,71,64
9684,9690,69,64
9690,9696,67,64
9696,9702,65,64
9702,9705,64,64
9705,9708,62,64
9708,9714,64,64
9714,9720,72,64
9720,9726,55,64
9726,9732,62,64
9732,9738,72,64
9738,9744,71,64
9744,9750,72,64
9750,9753,76,64
9753,9756,72,64
9756,9762,67,64
9762,9768,65,64
9768,9774,64,64
9774,9777,67,64
9777,9780,64,64
9780,9786,60,64
9786,9792,58,64
9792,9798,57,64
9798,9804,67,64
9804,9810,73,64
9810,9816,67,64
9816,9822,73,64
9822,9828,67,64
9828,9834,76,64
9834,9840,67,64
9840,9846,65,64
9846,9849,74,64
9849,9852,69,64
9852,9858,65,64
9858,9864,64,64
9864,9870,62,64
9870,9873,69,64
9873,9876,65,64
9876,9882,62,64
9882,9888,60,64
9888,9894,59,64
9894,9900,69,64
9900,9906,75,64
9906,9912,69,64
9912,9918,75,64
9918,9924,69,64
9924,9930,78,64
9930,9936,69,64
9936,9942,68,64
9942,9945,76,64
9945,9948,71,64
9948,9954,68,64
9954,9960,66,64
9960,9966,64,64
9966,9969,71,64
9969,9972,68,64
9972,9978,64,64
9978,9984,62,64
9984,9987,60,64
9987,9990,76,64
9990,9993,74,64
9993,9996,72,64
9996,10002,71,64
10002,10005,72,64
10005,10008,74,64
10008,10014,72,64
10014,10017,71,64
10017,10020,69,64
10020,10026,68,64
10026,10029,69,64
10029,10032,71,64
10032,10035,61,64
10035,10038,69,64
10038,10041,67,64
10041,10044,65,64
10044,10050,64,64
10050,10053,65,64
10053,10056,67,64
10056,10062,65,64
10062,10065,64,64
10065,10068,62,64
10068,10074,61,64
10074,10077,62,64
10077,10080,64,64
10080,10086,62,64
10086,10089,77,64
10089,10092,76,64
10092,10098,74,64
10098,10104,72,64
10104,10110,71,64
10110,10116,74,64
10116,10122,67,64
10122,10125,69,64
10125,10128,71,64
10128,10134,60,64
10134,10137,76,64
10137,10140,74,64
10140,10146,72,64
10146,10152,71,64
10152,10158,69,64
10158,10164,72,64
10164,10170,65,64
10170,10173,67,64
10173,10176,69,64
10176,10182,59,64
10182,10185,74,64
10185,10188,72,64
10188,10194,71,64
10194,10200,69,64
10200,10206,68,64
10206,10212,74,64
10212,10218,83,64
10218,10224,74,64
10224,10230,72,64
10230,10233,69,64
10233,10236,71,64
10236,10242,72,64
10242,10248,77,64
10248,10254,71,64
10254,10257,67,64
10257,10260,69,64
10260,10266,71,64
10266,10272,76,64
10272,10278,69,64
10278,10281,65,64
10281,10284,67,64
10284,10290,69,64
10290,10296,73,64
10296,10302,74,64
10302,10305,71,64
10305,10308,72,64
10308,10314,74,64
10314,10320,77,64
10320,10326,80,64
10326,10329,76,64
10329,10332,78,64
10332,10338,80,64
10338,10344,83,64
10344,10350,86,64
10350,10353,83,64
10353,10356,80,64
10356,10362,76,64
10362,10365,80,64
10365,10368,83,64
10368,10374,84,64
10374,10377,88,64
10377,10380,84,64
10380,10386,81,64
10386,10392,79,64
10392,10398,77,64
10398,10404,86,64
10404,10410,76,64
10410,10416,84,64
10416,10422,74,64
10422,10425,84,64
10425,10428,81,64
10428,10434,77,64
10434,10440,76,64
10440,10446,74,64
10446,10452,83,64
10452,10458,72,64
10458,10464,81,64
10464,10470,71,64
10470,10473,77,64
10473,10476,74,64
10476,10482,71,64
10482,10488,69,64
10488,10494,68,64
10494,10500,74,64
10500,10506,66,64
10506,10512,74,64
10512,10518,64,64
10518,10524,68,64
10524,10530,71,64
10530,10536,74,64
10536,10542,77,64
10542,10545,76,64
10545,10548,74,64
10548,10554,72,64
10554,10560,71,64
10560,10566,72,64
10566,10572,68,64
10572,10578,69,64
10578,10584,63,64
10584,10590,64,64
10590,10596,72,64
10596,10602,71,64
10602,10605,69,64
10605,10608,68,64
10608,10614,69,64
10614,10617,65,64
10617,10620,67,64
10620,10626,69,64
10626,10632,65,64
10632,10638,64,64
10638,10644,62,64
10644,10650,60,64
10650,10656,59,64
10656,10659,60,64
10659,10662,64,64
10662,10665,66,64
10665,10668,68,64
10668,10674,69,64
10674,10680,64,64
10680,10686,62,64
10686,10692,60,64
10692,10698,59,64
10698,10704,57,64
10704,10707,59,64
10707,10710,60,64
10710,10713,62,64
10713,10716,64,64
10716,10722,65,64
10722,10728,64,64
10728,10734,62,64
10734,10740,71,64
10740,10746,77,64
10746,10752,69,64
10752,10755,68,64
10755,10758,69,64
10758,10761,71,64
10761,10764,72,64
10764,10770,74,64
10770,10776,72,64
10776,10782,71,64
10782,10785,80,64
10785,10788,81,64
10788,10794,83,64
10794,10800,74,64
10800,10803,72,64
10803,10806,76,64
10806,10809,78,64
10809,10812,80,64
10812,10818,81,64
10818,10824,72,64
10824,10830,64,64
10830,10836,71,64
10836,10842,81,64
10842,10848,80,64
10848,10854,69,64
10854,10860,73,64
10860,10866,79,64
10866,10872,76,64
10872,10878,69,64
10878,10884,74,64
10884,10890,78,64
10890,10896,74,64
10896,10902,68,64
10902,10908,74,64
10908,10914,77,64
10914,10920,74,64
10920,10926,67,64
10926,10932,73,64
10932,10938,76,64
10938,10944,73,64
10944,10950,66,64
10950,10956,69,64
10956,10962,76,64
10962,10968,69,64
10968,10974,65,64
10974,10980,74,64
10980,10986,81,64
10986,10992,74,64
10992,10998,64,64
10998,11004,74,64
11004,11010,83,64
11010,11016,81,64
11016,11022,80,64
11022,11028,77,64
11028,11034,76,64
11034,11040,74,64
11040,11046,72,64
11046,11049,76,64
11049,11052,72,64
11052,11058,69,64
11058,11064,64,64
11064,11070,71,64
11070,11076,74,64
11076,11082,81,64
11082,11088,80,64
11088,11136,57,64
