onset,offset,pitch,velocity
0,24,62,64
0,24,69,64
0,24,74,64
0,24,77,64
24,60,67,64
24,60,70,64
60,72,70,64
72,96,61,64
72,96,67,64
72,96,70,64
72,96,76,64
96,132,67,64
96,132,69,64
132,144,69,64
144,156,69,64
144,168,62,64
144,168,65,64
156,168,70,64
168,180,70,64
168,192,60,64
168,192,64,64
180,192,69,64
192,204,69,64
192,216,58,64
192,216,62,64
204,216,74,64
216,222,74,64
216,228,63,64
222,228,72,64
228,234,70,64
234,240,69,64
240,264,67,64
240,288,57,64
264,273,66,64
273,276,62,64
276,279,64,64
279,282,66,64
282,285,67,64
285,288,69,64
288,300,55,64
288,300,62,64
288,300,70,64
300,306,74,64
306,312,72,64
312,318,70,64
318,324,69,64
324,330,67,64
330,336,65,64
336,342,64,64
342,348,62,64
348,354,61,64
354,360,62,64
360,366,55,64
366,372,64,64
372,378,73,64
378,384,82,64
384,420,81,64
420,432,67,64
420,432,73,64
432,444,74,64
432,456,65,64
444,456,69,64
456,480,64,64
456,480,73,64
456,480,79,64
480,486,79,64
480,504,62,64
480,504,74,64
486,492,77,64
492,498,76,64
498,504,77,64
504,528,74,64
504,576,69,64
504,576,76,64
528,540,73,64
540,552,71,64
552,576,73,64
576,600,62,64
576,600,69,64
576,600,74,64
576,600,77,64
600,636,67,64
600,636,70,64
636,648,70,64
648,672,61,64
648,672,67,64
648,672,70,64
648,672,76,64
672,708,67,64
672,708,69,64
708,720,69,64
720,732,69,64
720,744,62,64
720,744,65,64
732,744,70,64
744,756,70,64
744,768,60,64
744,768,64,64
756,768,69,64
768,780,69,64
768,792,58,64
768,792,62,64
780,792,74,64
792,798,74,64
792,804,63,64
798,804,72,64
804,810,70,64
810,816,69,64
816,840,67,64
816,864,57,64
840,849,66,64
849,852,62,64
852,855,64,64
855,858,66,64
858,861,67,64
861,864,69,64
864,876,55,64
864,876,62,64
864,876,70,64
876,882,74,64
882,888,72,64
888,894,70,64
894,900,69,64
900,906,67,64
906,912,65,64
912,918,64,64
918,924,62,64
924,930,61,64
930,936,62,64
936,942,55,64
942,948,64,64
948,954,73,64
954,960,82,64
960,996,81,64
996,1008,67,64
996,1008,73,64
1008,1020,74,64
1008,1032,65,64
1020,1032,69,64
1032,1056,64,64
1032,1056,73,64
1032,1056,79,64
1056,1062,79,64
1056,1080,62,64
1056,1080,74,64
1062,1068,77,64
1068,1074,76,64
1074,1080,77,64
1080,1104,74,64
1080,1152,69,64
1080,1152,76,64
1104,1116,73,64
1116,1128,71,64
1128,1152,73,64
1152,1170,76,64
1152,1176,69,64
1152,1176,73,64
1170,1173,77,64
1173,1176,79,64
1176,1212,73,64
1176,1224,67,64
1212,1224,73,64
1224,1230,74,64
1224,1236,66,64
1230,1236,72,64
1236,1242,71,64
1242,1248,72,64
1248,1260,65,64
1248,1266,71,64
1266,1272,74,64
1272,1278,76,64
1278,1284,79,64
1284,1290,77,64
1290,1293,81,64
1293,1296,79,64
1296,1320,64,64
1296,1320,72,64
1296,1320,79,64
1320,1332,77,64
1320,1344,62,64
1320,1344,72,64
1332,1344,76,64
1344,1356,77,64
1344,1368,67,64
1344,1368,71,64
1356,1368,79,64
1368,1380,60,64
1368,1380,67,64
1368,1380,72,64
1368,1380,76,64
1380,1386,74,64
1386,1392,72,64
1392,1422,82,64
1422,1428,80,64
1428,1434,78,64
1434,1440,79,64
1440,1464,72,64
1440,1464,78,64
1464,1476,70,64
1464,1476,79,64
1476,1488,74,64
1488,1500,67,64
1488,1500,75,64
1500,1512,70,64
1512,1524,72,64
1512,1536,67,64
1524,1530,74,64
1530,1536,75,64
1536,1548,66,64
1548,1560,74,64
1560,1566,72,64
1566,1572,70,64
1572,1578,69,64
1578,1584,67,64
1584,1590,72,64
1590,1596,75,64
1596,1602,82,64
1602,1608,81,64
1608,1614,70,64
1614,1620,74,64
1620,1626,81,64
1626,1632,79,64
1632,1638,69,64
1632,1644,62,64
1638,1644,72,64
1644,1650,79,64
1650,1656,78,64
1656,1680,79,64
1680,1710,55,64
1710,1713,67,64
1713,1716,69,64
1716,1719,70,64
1719,1722,72,64
1722,1725,74,64
1725,1728,65,64
1728,1746,64,64
1728,1746,72,64
1728,1746,82,64
1746,1752,81,64
1752,1758,79,64
1758,1764,77,64
1764,1770,76,64
1770,1773,74,64
1773,1776,72,64
1776,1794,70,64
1794,1800,69,64
1800,1812,65,64
1800,1812,69,64
1812,1818,72,64
1818,1824,71,64
1824,1836,66,64
1824,1836,71,64
1836,1848,72,64
1848,1866,62,64
1866,1872,72,64
1872,1884,67,64
1872,1884,71,64
1884,1890,74,64
1890,1896,73,64
1896,1908,68,64
1896,1908,73,64
1908,1920,74,64
1920,1929,64,64
1929,1932,77,64
1932,1938,76,64
1938,1941,77,64
1941,1944,74,64
1944,1950,74,64
1950,1956,73,64
1956,1962,76,64
1962,1968,69,64
1968,1974,69,64
1974,1980,67,64
1980,1986,70,64
1986,1992,62,64
1992,1998,62,64
1998,2004,61,64
2004,2010,64,64
2010,2016,57,64
2016,2040,58,64
2016,2040,67,64
2016,2040,73,64
2016,2040,76,64
2040,2088,57,64
2040,2088,69,64
2040,2088,74,64
2040,2088,77,64
2088,2094,55,64
2094,2100,70,64
2100,2106,75,64
2106,2112,79,64
2112,2118,75,64
2118,2124,70,64
2124,2130,67,64
2130,2136,63,64
2136,2142,82,64
2142,2145,73,64
2145,2148,74,64
2148,2154,76,64
2154,2160,67,64
2160,2166,65,64
2166,2172,69,64
2172,2178,74,64
2178,2184,81,64
2184,2190,79,64
2190,2196,73,64
2196,2202,74,64
2202,2208,77,64
2208,2214,69,64
2214,2220,74,64
2220,2226,76,64
2226,2232,73,64
2232,2250,74,64
2250,2256,72,64
2256,2262,70,64
2262,2268,69,64
2268,2274,67,64
2274,2280,65,64
2280,2286,64,64
2286,2292,62,64
2292,2298,61,64
2298,2301,62,64
2301,2304,64,64
2304,2322,76,64
2304,2328,57,64
2304,2328,69,64
2304,2328,73,64
2322,2325,77,64
2325,2328,79,64
2328,2364,73,64
2328,2376,67,64
2364,2376,73,64
2376,2382,74,64
2376,2388,66,64
2382,2388,72,64
2388,2394,71,64
2394,2400,72,64
2400,2412,65,64
2400,2418,71,64
2418,2424,74,64
2424,2430,76,64
2430,2436,79,64
2436,2442,77,64
2442,2445,81,64
2445,2448,79,64
2448,2472,64,64
2448,2472,72,64
2448,2472,79,64
2472,2484,77,64
2472,2496,62,64
2472,2496,72,64
2484,2496,76,64
2496,2508,77,64
2496,2520,67,64
2496,2520,71,64
2508,2520,79,64
2520,2532,60,64
2520,2532,67,64
2520,2532,72,64
2520,2532,76,64
2532,2538,74,64
2538,2544,72,64
2544,2574,82,64
2574,2580,80,64
2580,2586,78,64
2586,2592,79,64
2592,2616,72,64
2592,2616,78,64
2616,2628,70,64
2616,2628,79,64
2628,2640,74,64
2640,2652,67,64
2640,2652,75,64
2652,2664,70,64
2664,2676,72,64
2664,2688,67,64
2676,2682,74,64
2682,2688,75,64
2688,2700,66,64
2700,2712,74,64
2712,2718,72,64
2718,2724,70,64
2724,2730,69,64
2730,2736,67,64
2736,2742,72,64
2742,2748,75,64
2748,2754,82,64
2754,2760,81,64
2760,2766,70,64
2766,2772,74,64
2772,2778,81,64
2778,2784,79,64
2784,2790,69,64
2784,2796,62,64
2790,2796,72,64
2796,2802,79,64
2802,2808,78,64
2808,2832,79,64
2832,2862,55,64
2862,2865,67,64
2865,2868,69,64
2868,2871,70,64
2871,2874,72,64
2874,2877,74,64
2877,2880,65,64
2880,2898,64,64
2880,2898,72,64
2880,2898,82,64
2898,2904,81,64
2904,2910,79,64
2910,2916,77,64
2916,2922,76,64
2922,2925,74,64
2925,2928,72,64
2928,2946,70,64
2946,2952,69,64
2952,2964,65,64
2952,2964,69,64
2964,2970,72,64
2970,2976,71,64
2976,2988,66,64
2976,2988,71,64
2988,3000,72,64
3000,3018,62,64
3018,3024,72,64
3024,3036,67,64
3024,3036,71,64
3036,3042,74,64
3042,3048,73,64
3048,3060,68,64
3048,3060,73,64
3060,3072,74,64
3072,3081,64,64
3081,3084,77,64
3084,3090,76,64
3090,3093,77,64
3093,3096,74,64
3096,3102,74,64
3102,3108,73,64
3108,3114,76,64
3114,3120,69,64
3120,3126,69,64
3126,3132,67,64
3132,3138,70,64
3138,3144,62,64
3144,3150,62,64
3150,3156,61,64
3156,3162,64,64
3162,3168,57,64
3168,3192,58,64
3168,3192,67,64
3168,3192,73,64
3168,3192,76,64
3192,3240,57,64
3192,3240,69,64
3192,3240,74,64
3192,3240,77,64
3240,3246,55,64
3246,3252,70,64
3252,3258,75,64
3258,3264,79,64
3264,3270,75,64
3270,3276,70,64
3276,3282,67,64
3282,3288,63,64
3288,3294,82,64
3294,3297,73,64
3297,3300,74,64
3300,3306,76,64
3306,3312,67,64
3312,3318,65,64
3318,3324,69,64
3324,3330,74,64
3330,3336,81,64
3336,3342,79,64
3342,3348,73,64
3348,3354,74,64
3354,3360,77,64
3360,3366,69,64
3366,3372,74,64
3372,3378,76,64
3378,3384,73,64
3384,3390,74,64
3390,3396,62,64
3396,3402,65,64
3402,3408,69,64
3408,3414,67,64
3414,3420,65,64
3420,3426,64,64
3426,3432,62,64
3432,3438,60,64
3438,3444,58,64
3444,3450,60,64
3450,3456,57,64
3456,3462,58,64
3462,3468,74,64
3468,3474,72,64
3474,3480,69,64
3480,3486,70,64
3486,3492,66,64
3492,3498,67,64
3498,3504,70,64
3504,3510,74,64
3510,3516,77,64
3516,3522,76,64
3522,3528,73,64
3528,3534,74,64
3534,3540,59,64
3540,3546,62,64
3546,3552,65,64
3552,3558,68,64
3558,3564,71,64
3564,3570,74,64
3570,3576,76,64
3576,3582,77,64
3582,3588,73,64
3588,3594,74,64
3594,3600,68,64
3600,3606,69,64
3606,3609,70,64
3609,3612,69,64
3612,3618,67,64
3618,3624,65,64
3624,3630,64,64
3630,3633,62,64
3633,3636,61,64
3636,3642,62,64
3642,3648,56,64
3648,3654,57,64
3654,3660,64,64
3660,3666,67,64
3666,3672,73,64
3672,3696,74,64
3696,3744,62,64
