onset,offset,pitch,velocity
0,6,78,64
6,12,71,64
12,18,74,64
18,24,78,64
24,30,83,64
30,36,79,64
36,42,76,64
42,48,73,64
48,54,76,64
54,60,70,64
60,66,79,64
66,72,78,64
72,78,76,64
78,84,74,64
84,90,71,64
90,96,66,64
96,102,69,64
102,108,67,64
108,114,78,64
114,120,76,64
120,126,74,64
126,132,73,64
132,138,76,64
138,144,79,64
144,150,71,64
150,156,70,64
156,162,73,64
162,168,66,64
168,174,64,64
174,180,62,64
180,186,71,64
186,192,61,64
192,198,73,64
198,204,74,64
204,210,66,64
210,216,59,64
216,222,61,64
222,228,62,64
228,234,64,64
234,240,66,64
240,246,67,64
246,252,69,64
252,258,62,64
258,264,66,64
264,270,69,64
270,276,74,64
276,282,76,64
282,288,78,64
288,294,69,64
294,300,71,64
300,306,67,64
306,312,71,64
312,318,74,64
318,324,79,64
324,330,71,64
330,336,67,64
336,342,64,64
342,348,61,64
348,354,64,64
354,360,69,64
360,366,79,64
366,372,78,64
372,378,62,64
378,384,67,64
384,390,76,64
390,396,73,64
396,402,69,64
402,408,73,64
408,414,76,64
414,420,81,64
420,426,72,64
426,432,69,64
432,438,66,64
438,444,63,64
444,450,66,64
450,456,71,64
456,462,78,64
462,468,81,64
468,474,84,64
474,480,83,64
480,486,81,64
486,492,79,64
492,498,83,64
498,504,79,64
504,510,76,64
510,516,71,64
516,522,74,64
522,528,73,64
528,534,71,64
534,540,70,64
540,546,79,64
546,552,78,64
552,558,64,64
558,564,62,64
564,570,66,64
570,576,71,64
576,582,74,64
582,588,68,64
588,594,78,64
594,600,76,64
600,606,62,64
606,612,61,64
612,618,64,64
618,624,67,64
624,630,59,64
630,636,58,64
636,642,66,64
642,648,73,64
648,654,76,64
654,660,74,64
660,666,66,64
666,672,59,64
672,678,74,64
678,684,73,64
684,690,78,64
690,696,73,64
696,702,70,64
702,708,66,64
708,714,70,64
714,720,73,64
720,726,64,64
726,732,62,64
732,738,78,64
738,744,74,64
744,750,71,64
750,756,68,64
756,762,71,64
762,768,76,64
768,774,70,64
774,780,71,64
780,786,76,64
786,792,78,64
792,798,73,64
798,804,74,64
804,810,71,64
810,816,80,64
816,822,71,64
822,828,65,64
828,834,73,64
834,840,83,64
840,846,80,64
846,852,81,64
852,858,73,64
858,864,66,64
864,870,81,64
870,876,80,64
876,882,73,64
882,888,77,64
888,894,80,64
894,900,85,64
900,906,76,64
906,912,70,64
912,918,76,64
918,924,59,64
924,930,66,64
930,936,76,64
936,942,73,64
942,948,74,64
948,954,78,64
954,960,83,64
960,966,85,64
966,972,86,64
972,978,77,64
978,984,68,64
984,990,77,64
990,996,61,64
996,1002,86,64
1002,1008,77,64
1008,1014,85,64
1014,1020,83,64
1020,1026,81,64
1026,1032,80,64
1032,1038,78,64
1038,1044,73,64
1044,1050,78,64
1050,1056,80,64
1056,1062,77,64
1062,1068,78,64
1068,1074,73,64
1074,1080,70,64
1080,1086,76,64
1086,1092,74,64
1092,1098,65,64
1098,1104,68,64
1104,1110,71,64
1110,1116,70,64
1116,1122,66,64
1122,1128,70,64
1128,1134,73,64
1134,1152,78,64
1152,1158,73,64
1158,1164,73,64
1164,1170,79,64
1170,1176,76,64
1176,1182,73,64
1182,1188,70,64
1188,1194,66,64
1194,1200,73,64
1200,1206,64,64
1206,1212,62,64
1212,1218,66,64
1218,1224,71,64
1224,1230,62,64
1230,1236,61,64
1236,1242,59,64
1242,1248,58,64
1248,1254,64,64
1254,1260,62,64
1260,1266,59,64
1266,1272,62,64
1272,1278,66,64
1278,1284,71,64
1284,1290,67,64
1290,1296,66,64
1296,1302,64,64
1302,1308,63,64
1308,1314,66,64
1314,1320,69,64
1320,1326,72,64
1326,1332,71,64
1332,1338,69,64
1338,1344,78,64
1344,1350,69,64
1350,1356,67,64
1356,1362,71,64
1362,1368,76,64
1368,1374,79,64
1374,1380,78,64
1380,1386,81,64
1386,1392,75,64
1392,1398,76,64
1398,1404,71,64
1404,1410,76,64
1410,1416,75,64
1416,1422,78,64
1422,1428,83,64
1428,1434,78,64
1434,1440,75,64
1440,1446,69,64
1446,1452,68,64
1452,1458,71,64
1458,1464,76,64
1464,1470,80,64
1470,1476,83,64
1476,1482,86,64
1482,1488,84,64
1488,1494,83,64
1494,1500,84,64
1500,1506,81,64
1506,1512,76,64
1512,1518,72,64
1518,1524,69,64
1524,1530,79,64
1530,1536,78,64
1536,1542,76,64
1542,1548,75,64
1548,1554,78,64
1554,1560,81,64
1560,1566,84,64
1566,1572,83,64
1572,1578,81,64
1578,1584,75,64
1584,1590,81,64
1590,1596,79,64
1596,1602,83,64
1602,1608,79,64
1608,1614,76,64
1614,1620,71,64
1620,1626,79,64
1626,1632,86,64
1632,1638,77,64
1638,1644,76,64
1644,1650,71,64
1650,1656,72,64
1656,1662,76,64
1662,1668,70,64
1668,1674,71,64
1674,1680,63,64
1680,1686,64,64
1686,1692,55,64
1692,1698,64,64
1698,1704,71,64
1704,1710,79,64
1710,1716,78,64
1716,1722,76,64
1722,1728,71,64
1728,1734,75,64
1734,1740,64,64
1740,1746,67,64
1746,1752,71,64
1752,1758,76,64
1758,1764,71,64
1764,1770,67,64
1770,1776,64,64
1776,1782,67,64
1782,1788,61,64
1788,1794,69,64
1794,1800,76,64
1800,1806,67,64
1806,1812,66,64
1812,1818,81,64
1818,1824,64,64
1824,1830,79,64
1830,1836,62,64
1836,1842,79,64
1842,1848,78,64
1848,1854,76,64
1854,1860,74,64
1860,1866,78,64
1866,1872,82,64
1872,1878,83,64
1878,1884,76,64
1884,1890,73,64
1890,1896,70,64
1896,1902,73,64
1902,1908,62,64
1908,1914,78,64
1914,1920,61,64
1920,1926,76,64
1926,1932,59,64
1932,1938,76,64
1938,1944,74,64
1944,1950,73,64
1950,1956,71,64
1956,1962,74,64
1962,1968,78,64
1968,1974,79,64
1974,1980,72,64
1980,1986,69,64
1986,1992,66,64
1992,1998,69,64
1998,2004,62,64
2004,2010,66,64
2010,2016,69,64
2016,2022,72,64
2022,2028,78,64
2028,2034,71,64
2034,2040,63,64
2040,2046,66,64
2046,2052,71,64
2052,2058,75,64
2058,2064,78,64
2064,2070,81,64
2070,2076,79,64
2076,2082,76,64
2082,2088,71,64
2088,2094,74,64
2094,2100,72,64
2100,2106,76,64
2106,2112,79,64
2112,2118,71,64
2118,2124,70,64
2124,2130,79,64
2130,2136,78,64
2136,2142,64,64
2142,2148,62,64
2148,2154,83,64
2154,2160,82,64
2160,2166,83,64
2166,2172,77,64
2172,2178,78,64
2178,2184,70,64
2184,2190,71,64
2190,2196,66,64
2196,2202,74,64
2202,2208,73,64
2208,2214,70,64
2214,2220,71,64
2220,2226,59,64
2226,2232,62,64
2232,2238,66,64
2238,2244,71,64
2244,2250,74,64
2250,2256,78,64
2256,2262,82,64
2262,2268,83,64
2268,2274,78,64
2274,2280,74,64
2280,2286,71,64
2286,2304,59,64
