onset,offset,pitch,velocity
0,12,71,64
12,24,71,64
24,36,59,64
36,48,62,64
48,60,66,64
60,72,71,64
72,84,74,64
84,96,73,64
96,108,66,64
108,120,58,64
120,132,64,64
132,144,62,64
144,156,61,64
156,168,59,64
168,180,62,64
180,192,66,64
192,204,71,64
204,216,74,64
216,228,78,64
228,240,76,64
240,252,69,64
252,264,61,64
264,276,67,64
276,288,66,64
288,300,64,64
300,312,62,64
312,324,66,64
324,336,69,64
336,348,74,64
348,360,78,64
360,372,81,64
372,384,79,64
384,396,71,64
396,408,64,64
408,420,74,64
420,432,73,64
432,444,71,64
444,456,70,64
456,468,79,64
468,480,78,64
480,492,64,64
492,504,63,64
504,516,69,64
516,528,68,64
528,540,78,64
540,552,76,64
552,564,62,64
564,576,61,64
576,588,64,64
588,600,70,64
600,612,76,64
612,624,59,64
612,624,66,64
612,624,76,64
624,636,74,64
636,648,73,64
648,660,74,64
660,672,73,64
672,684,66,64
684,696,58,64
696,708,67,64
708,720,66,64
720,732,64,64
732,744,62,64
744,756,66,64
756,768,71,64
768,780,74,64
780,792,78,64
792,804,83,64
804,816,79,64
816,828,71,64
828,840,64,64
840,852,67,64
852,864,71,64
864,876,74,64
876,888,73,64
888,900,64,64
900,912,57,64
912,924,61,64
924,936,64,64
936,948,67,64
948,960,66,64
960,972,74,64
972,984,81,64
984,996,76,64
996,1008,74,64
1008,1020,72,64
1020,1032,71,64
1032,1044,67,64
1044,1056,71,64
1056,1068,74,64
1068,1080,79,64
1080,1092,83,64
1092,1104,85,64
1104,1116,76,64
1116,1128,67,64
1128,1140,76,64
1140,1152,81,64
1152,1164,85,64
1164,1176,86,64
1176,1188,81,64
1188,1200,78,64
1200,1212,74,64
1212,1224,69,64
1224,1236,85,64
1236,1248,62,64
1248,1260,86,64
1260,1272,85,64
1272,1284,83,64
1284,1296,82,64
1296,1308,83,64
1308,1320,85,64
1320,1332,76,64
1332,1344,70,64
1344,1356,79,64
1356,1368,78,64
1368,1380,76,64
1380,1392,74,64
1392,1404,78,64
1404,1416,83,64
1416,1428,80,64
1428,1440,81,64
1440,1452,78,64
1452,1464,77,64
1464,1476,80,64
1476,1488,83,64
1488,1500,86,64
1500,1512,85,64
1512,1524,71,64
1524,1536,69,64
1536,1548,73,64
1548,1560,78,64
1560,1572,81,64
1572,1584,85,64
1584,1596,76,64
1596,1608,75,64
1608,1620,78,64
1620,1632,81,64
1632,1644,85,64
1644,1656,83,64
1656,1668,69,64
1668,1680,68,64
1680,1692,71,64
1692,1704,77,64
1704,1716,80,64
1716,1728,83,64
1728,1740,66,64
1740,1752,65,64
1752,1764,68,64
1764,1776,73,64
1776,1788,77,64
1788,1800,80,64
1800,1812,83,64
1812,1824,81,64
1824,1836,73,64
1836,1848,66,64
1848,1860,79,64
1860,1872,78,64
1872,1884,76,64
1884,1896,74,64
1896,1908,66,64
1908,1920,59,64
1920,1932,72,64
1932,1944,71,64
1944,1956,69,64
1956,1968,67,64
1968,1980,71,64
1980,1992,74,64
1992,2004,79,64
2004,2016,77,64
2016,2028,78,64
2028,2040,71,64
2040,2052,65,64
2052,2064,56,64
2064,2076,65,64
2076,2088,71,64
2088,2100,74,64
2100,2112,73,64
2112,2124,69,64
2124,2136,68,64
2136,2148,66,64
2148,2160,61,64
2160,2172,65,64
2172,2184,66,64
2184,2196,70,64
2196,2208,73,64
2208,2220,76,64
2220,2232,74,64
2232,2244,71,64
2244,2256,73,64
2256,2268,70,64
2268,2304,66,64
2304,2316,73,64
2316,2328,73,64
2328,2340,78,64
2340,2352,73,64
2352,2364,70,64
2364,2376,66,64
2376,2388,62,64
2388,2400,56,64
2400,2412,64,64
2412,2424,58,64
2424,2436,66,64
2436,2448,73,64
2448,2460,76,64
2460,2472,74,64
2472,2484,66,64
2484,2496,59,64
2496,2508,66,64
2508,2520,71,64
2520,2532,74,64
2532,2544,76,64
2544,2556,69,64
2556,2568,63,64
2568,2580,69,64
2580,2592,78,64
2592,2604,69,64
2604,2616,67,64
2616,2628,64,64
2628,2640,67,64
2640,2652,71,64
2652,2664,76,64
2664,2676,79,64
2676,2688,81,64
2688,2700,74,64
2700,2712,68,64
2712,2724,74,64
2724,2736,83,64
2736,2748,74,64
2748,2760,72,64
2760,2772,76,64
2772,2784,81,64
2784,2796,78,64
2796,2808,79,64
2808,2820,76,64
2820,2832,75,64
2832,2844,78,64
2844,2856,81,64
2856,2868,84,64
2868,2880,83,64
2880,2892,69,64
2892,2904,67,64
2904,2916,83,64
2916,2928,81,64
2928,2940,66,64
2940,2952,64,64
2952,2964,79,64
2964,2976,78,64
2976,2988,71,64
2988,3000,63,64
3000,3012,69,64
3012,3024,67,64
3024,3036,66,64
3036,3048,64,64
3048,3060,79,64
3060,3072,78,64
3072,3084,62,64
3084,3096,60,64
3096,3108,76,64
3108,3120,74,64
3120,3132,68,64
3132,3144,59,64
3144,3156,77,64
3156,3168,76,64
3168,3180,74,64
3180,3192,72,64
3192,3204,69,64
3204,3216,72,64
3216,3228,76,64
3228,3240,77,64
3240,3252,81,64
3252,3264,75,64
3264,3276,66,64
3276,3288,57,64
3288,3300,78,64
3300,3312,75,64
3312,3324,71,64
3324,3336,83,64
3336,3348,79,64
3348,3360,76,64
3360,3372,79,64
3372,3384,71,64
3384,3396,75,64
3396,3408,64,64
3408,3420,66,64
3420,3432,67,64
3432,3444,71,64
3444,3456,75,64
3456,3468,76,64
3468,3480,80,64
3480,3492,71,64
3492,3504,62,64
3504,3516,71,64
3516,3528,76,64
3528,3540,80,64
3540,3552,81,64
3552,3564,76,64
3564,3576,73,64
3576,3588,76,64
3588,3600,73,64
3600,3612,69,64
3612,3624,66,64
3624,3636,74,64
3636,3648,71,64
3648,3660,68,64
3660,3672,76,64
3672,3684,74,64
3684,3696,73,64
3696,3708,76,64
3708,3720,73,64
3720,3732,69,64
3732,3744,64,64
3744,3756,67,64
3756,3768,66,64
3768,3780,81,64
3780,3792,79,64
3792,3804,64,64
3804,3816,62,64
3816,3828,78,64
3828,3840,76,64
3840,3852,69,64
3852,3864,61,64
3864,3876,71,64
3876,3888,69,64
3888,3900,67,64
3900,3912,66,64
3912,3924,74,64
3924,3936,73,64
3936,3948,64,64
3948,3960,62,64
3960,3972,71,64
3972,3984,61,64
3984,3996,64,64
3996,4008,67,64
4008,4020,71,64
4020,4032,69,64
4032,4044,67,64
4044,4056,66,64
4056,4068,60,64
4068,4080,59,64
4080,4092,67,64
4092,4104,69,64
4104,4116,57,64
4116,4128,55,64
4128,4140,62,64
4140,4152,71,64
4152,4164,74,64
4164,4176,73,64
4176,4188,76,64
4188,4200,81,64
4200,4212,67,64
4212,4224,66,64
4224,4236,74,64
4236,4248,57,64
4248,4260,73,64
4260,4272,74,64
4272,4284,62,64
4284,4296,61,64
4296,4308,59,64
4308,4320,58,64
4320,4332,59,64
4332,4344,58,64
4344,4356,61,64
4356,4368,66,64
4368,4380,70,64
4380,4392,73,64
4392,4404,76,64
4404,4416,74,64
4416,4428,78,64
4428,4440,74,64
4440,4452,71,64
4452,4464,68,64
4464,4476,71,64
4476,4488,65,64
4488,4500,68,64
4500,4512,73,64
4512,4524,77,64
4524,4536,80,64
4536,4548,83,64
4548,4560,82,64
4560,4572,85,64
4572,4584,82,64
4584,4596,78,64
4596,4608,73,64
4608,4620,76,64
4620,4632,75,64
4632,4644,84,64
4644,4656,83,64
4656,4668,69,64
4668,4680,68,64
4680,4692,74,64
4692,4704,73,64
4704,4716,83,64
4716,4728,81,64
4728,4740,67,64
4740,4752,66,64
4752,4764,72,64
4764,4776,71,64
4776,4788,81,64
4788,4800,79,64
4800,4812,66,64
4812,4824,64,64
4824,4836,71,64
4836,4848,70,64
4848,4860,79,64
4860,4872,78,64
4872,4884,64,64
4884,4896,63,64
4896,4908,69,64
4908,4920,68,64
4920,4932,71,64
4932,4944,74,64
4944,4956,78,64
4956,4968,76,64
4968,4980,62,64
4980,4992,61,64
4992,5004,59,64
5004,5016,58,64
5016,5028,79,64
5028,5040,78,64
5040,5052,76,64
5052,5064,74,64
5064,5076,78,64
5076,5088,74,64
5088,5100,71,64
5100,5112,66,64
5112,5124,70,64
5124,5136,71,64
5136,5148,69,64
5148,5160,67,64
5160,5172,66,64
5172,5184,64,64
5184,5196,63,64
5196,5208,64,64
5208,5220,63,64
5220,5232,64,64
5232,5244,56,64
5244,5256,64,64
5256,5268,74,64
5268,5280,73,64
5280,5292,71,64
5292,5304,69,64
5304,5316,68,64
5316,5328,66,64
5328,5340,65,64
5340,5352,66,64
5352,5364,65,64
5364,5376,66,64
5376,5388,58,64
5388,5400,66,64
5400,5412,76,64
5412,5424,75,64
5424,5436,78,64
5436,5448,81,64
5448,5460,84,64
5460,5472,83,64
5472,5484,81,64
5484,5496,79,64
5496,5508,78,64
5508,5520,77,64
5520,5532,78,64
5532,5544,73,64
5544,5556,74,64
5556,5568,76,64
5568,5580,70,64
5580,5592,71,64
5592,5604,73,64
5604,5616,66,64
5616,5628,70,64
5628,5640,59,64
5640,5652,62,64
5652,5664,66,64
5664,5676,71,64
5676,5688,74,64
5688,5700,78,64
5700,5748,83,64
