onset,offset,pitch,velocity
0,12,71,64
12,24,74,64
24,36,78,64
36,48,83,64
48,60,78,64
60,72,74,64
72,84,71,64
84,96,74,64
96,108,78,64
108,120,83,64
120,132,78,64
132,144,79,64
144,156,78,64
156,168,76,64
168,180,74,64
180,192,73,64
192,204,71,64
204,216,70,64
216,228,79,64
228,240,78,64
240,252,74,64
252,264,73,64
264,276,76,64
276,288,74,64
288,300,71,64
300,312,66,64
312,324,73,64
324,336,76,64
336,348,74,64
348,360,73,64
360,372,74,64
372,384,71,64
384,396,66,64
396,408,71,64
408,420,73,64
420,432,74,64
432,444,71,64
444,456,66,64
456,468,62,64
468,480,59,64
480,492,62,64
492,504,67,64
504,516,71,64
516,528,73,64
528,540,67,64
540,552,57,64
552,564,67,64
564,576,73,64
576,588,76,64
588,600,81,64
600,612,76,64
612,624,73,64
624,636,69,64
636,648,64,64
648,660,61,64
660,672,57,64
672,684,61,64
684,696,66,64
696,708,69,64
708,720,71,64
720,732,66,64
732,744,55,64
744,756,66,64
756,768,71,64
768,780,74,64
780,792,78,64
792,804,81,64
804,816,83,64
816,828,79,64
828,840,76,64
840,852,79,64
852,864,76,64
864,876,73,64
876,888,76,64
888,900,73,64
900,912,67,64
912,924,69,64
924,936,71,64
936,948,73,64
948,960,74,64
960,972,76,64
972,984,78,64
984,996,79,64
996,1008,81,64
1008,1020,66,64
1020,1032,69,64
1032,1044,74,64
1044,1056,67,64
1056,1068,76,64
1068,1080,69,64
1080,1092,73,64
1092,1104,74,64
1104,1116,69,64
1116,1128,59,64
1128,1140,69,64
1140,1152,74,64
1152,1164,83,64
1164,1176,74,64
1176,1188,68,64
1188,1200,73,64
1200,1212,67,64
1212,1224,57,64
1224,1236,67,64
1236,1248,73,64
1248,1260,81,64
1260,1272,72,64
1272,1284,66,64
1284,1296,67,64
1296,1308,71,64
1308,1320,74,64
1320,1332,66,64
1332,1344,64,64
1344,1356,73,64
1356,1368,74,64
1368,1380,76,64
1380,1392,67,64
1392,1404,66,64
1404,1416,64,64
1416,1428,62,64
1428,1440,61,64
1440,1452,76,64
1452,1464,78,64
1464,1476,79,64
1476,1488,64,64
1488,1500,62,64
1500,1512,61,64
1512,1524,59,64
1524,1536,57,64
1536,1548,79,64
1548,1560,81,64
1560,1572,83,64
1572,1584,85,64
1584,1596,86,64
1596,1608,88,64
1608,1620,86,64
1620,1632,85,64
1632,1644,83,64
1644,1656,81,64
1656,1668,79,64
1668,1680,78,64
1680,1692,76,64
1692,1704,79,64
1704,1716,78,64
1716,1728,76,64
1728,1740,74,64
1740,1752,73,64
1752,1764,71,64
1764,1776,69,64
1776,1788,67,64
1788,1800,66,64
1800,1812,74,64
1812,1824,64,64
1824,1836,74,64
1836,1848,57,64
1848,1860,73,64
1860,1872,74,64
1872,1884,62,64
1884,1896,66,64
1896,1908,69,64
1908,1920,74,64
1920,1932,78,64
1932,1944,81,64
1944,1956,74,64
1944,1956,78,64
1956,1968,73,64
1956,1980,76,64
1968,1980,69,64
1980,1992,74,64
1980,2004,78,64
1992,2004,69,64
2004,2016,76,64
2004,2028,79,64
2016,2028,69,64
2028,2040,74,64
2028,2052,78,64
2040,2052,69,64
2052,2064,76,64
2052,2076,69,64
2052,2076,73,64
2064,2076,74,64
2076,2088,73,64
2088,2100,74,64
2100,2112,76,64
2112,2124,67,64
2124,2136,66,64
2136,2148,74,64
2148,2160,64,64
2148,2172,73,64
2160,2172,57,64
2172,2184,66,64
2172,2196,74,64
2184,2196,57,64
2196,2208,67,64
2196,2220,76,64
2208,2220,57,64
2220,2232,66,64
2220,2244,74,64
2232,2244,57,64
2244,2256,57,64
2244,2256,64,64
2244,2256,73,64
2256,2268,71,64
2268,2280,69,64
2280,2292,71,64
2292,2304,73,64
2304,2316,69,64
2316,2328,66,64
2328,2340,75,64
2340,2352,76,64
2352,2364,71,64
2364,2376,79,64
2376,2388,57,64
2388,2400,59,64
2400,2412,79,64
2412,2424,78,64
2424,2436,75,64
2436,2448,76,64
2448,2460,75,64
2460,2472,76,64
2472,2484,72,64
2484,2496,71,64
2496,2508,69,64
2508,2520,67,64
2520,2532,66,64
2532,2544,67,64
2544,2556,71,64
2556,2568,76,64
2568,2580,83,64
2580,2592,81,64
2592,2604,79,64
2604,2616,78,64
2616,2628,76,64
2628,2640,76,64
2640,2652,71,64
2652,2664,67,64
2664,2676,71,64
2676,2688,64,64
2688,2700,71,64
2700,2712,79,64
2712,2724,74,64
2724,2736,73,64
2736,2748,76,64
2748,2760,69,64
2760,2772,67,64
2772,2784,66,64
2784,2796,81,64
2796,2808,79,64
2808,2820,64,64
2820,2832,62,64
2832,2844,79,64
2844,2856,78,64
2856,2868,76,64
2868,2880,74,64
2880,2892,78,64
2892,2904,83,64
2904,2916,74,64
2916,2928,65,64
2928,2940,73,64
2940,2952,80,64
2952,2964,83,64
2964,2976,81,64
2976,2988,73,64
2988,3000,66,64
3000,3012,81,64
3012,3024,80,64
3024,3036,78,64
3036,3048,77,64
3048,3060,75,64
3060,3072,73,64
3072,3084,80,64
3084,3096,81,64
3096,3108,83,64
3108,3120,85,64
3120,3132,76,64
3132,3144,71,64
3144,3156,76,64
3156,3168,70,64
3168,3180,76,64
3180,3192,85,64
3192,3204,76,64
3204,3216,71,64
3216,3228,76,64
3228,3240,74,64
3240,3252,73,64
3252,3264,74,64
3264,3276,78,64
3276,3288,80,64
3288,3300,81,64
3300,3312,83,64
3312,3324,74,64
3324,3336,69,64
3336,3348,74,64
3348,3360,68,64
3360,3372,74,64
3372,3384,66,64
3384,3396,74,64
3396,3408,65,64
3408,3420,68,64
3420,3432,73,64
3432,3444,75,64
3444,3456,77,64
3456,3468,78,64
3468,3480,80,64
3480,3492,81,64
3492,3504,83,64
3504,3516,81,64
3516,3528,80,64
3528,3540,78,64
3540,3552,73,64
3552,3558,81,64
3558,3564,80,64
3564,3576,78,64
3576,3588,77,64
3588,3600,78,64
3600,3612,71,64
3612,3624,69,64
3624,3636,68,64
3636,3648,66,64
3648,3660,64,64
3660,3672,63,64
3672,3684,61,64
3684,3696,59,64
3696,3708,63,64
3708,3720,66,64
3720,3732,69,64
3732,3744,72,64
3744,3756,75,64
3756,3768,78,64
3768,3780,81,64
3780,3792,64,64
3792,3804,81,64
3804,3816,79,64
3816,3828,78,64
3828,3840,79,64
3840,3852,62,64
3852,3864,61,64
3864,3876,59,64
3876,3888,57,64
3888,3900,61,64
3900,3912,64,64
3912,3924,67,64
3924,3936,70,64
3936,3948,73,64
3948,3960,76,64
3960,3972,79,64
3972,3984,62,64
3984,3996,79,64
3996,4008,78,64
4008,4020,76,64
4020,4032,74,64
4032,4044,73,64
4044,4056,76,64
4056,4068,71,64
4068,4080,71,64
4080,4092,70,64
4092,4104,76,64
4104,4116,69,64
4116,4128,69,64
4128,4140,68,64
4140,4152,76,64
4152,4164,67,64
4164,4176,67,64
4176,4188,66,64
4188,4200,64,64
4200,4212,63,64
4212,4224,64,64
4224,4236,67,64
4236,4248,66,64
4248,4260,64,64
4260,4272,62,64
4272,4284,59,64
4284,4296,62,64
4296,4308,66,64
4308,4320,67,64
4320,4332,70,64
4332,4344,71,64
4344,4356,73,64
4356,4368,66,64
4368,4380,74,64
4380,4392,73,64
4392,4404,71,64
4404,4416,70,64
4416,4428,73,64
4428,4440,66,64
4440,4452,68,64
4452,4464,70,64
4464,4476,71,64
4476,4488,73,64
4488,4500,74,64
4500,4512,76,64
4512,4524,78,64
4524,4536,79,64
4536,4548,78,64
4548,4560,79,64
4560,4572,76,64
4572,4584,70,64
4584,4596,76,64
4596,4608,79,64
4608,4620,76,64
4620,4632,79,64
4632,4644,76,64
4644,4656,79,64
4656,4668,76,64
4668,4680,70,64
4680,4692,71,64
4692,4704,73,64
4704,4716,74,64
4716,4728,76,64
4728,4740,78,64
4740,4752,80,64
4752,4764,77,64
4764,4776,71,64
4776,4788,77,64
4788,4800,80,64
4800,4812,77,64
4812,4824,80,64
4824,4836,77,64
4836,4848,80,64
4848,4860,77,64
4860,4872,71,64
4872,4884,73,64
4884,4896,74,64
4896,4908,77,64
4908,4920,78,64
4920,4932,80,64
4932,4944,82,64
4944,4956,76,64
4956,4968,73,64
4968,4980,74,64
4980,4992,76,64
4992,5004,78,64
5004,5016,80,64
5016,5028,82,64
5028,5040,83,64
5040,5052,85,64
5052,5064,86,64
5064,5076,83,64
5076,5088,78,64
5088,5100,83,64
5100,5112,85,64
5112,5124,82,64
5124,5136,83,64
5136,5148,78,64
5148,5160,76,64
5160,5172,73,64
5172,5184,74,64
5184,5196,71,64
5196,5208,70,64
5208,5220,71,64
5220,5232,55,64
5232,5244,74,64
5244,5256,73,64
5256,5268,71,64
5268,5280,70,64
5280,5292,71,64
5292,5304,76,64
5304,5316,71,64
5316,5328,78,64
5328,5340,74,64
5340,5352,73,64
5352,5364,71,64
5364,5376,70,64
5376,5388,71,64
5388,5400,66,64
5400,5412,67,64
5412,5424,69,64
5424,5436,72,64
5436,5448,71,64
5448,5460,69,64
5460,5472,63,64
5472,5484,69,64
5484,5496,67,64
5496,5508,66,64
5508,5520,64,64
5520,5532,71,64
5532,5544,73,64
5544,5556,74,64
5556,5568,76,64
5568,5580,78,64
5580,5592,80,64
5592,5604,76,64
5604,5616,71,64
5616,5628,74,64
5628,5640,73,64
5640,5652,71,64
5652,5664,65,64
5664,5676,71,64
5676,5688,70,64
5688,5700,68,64
5700,5712,66,64
5712,5724,73,64
5724,5736,74,64
5736,5748,76,64
5748,5760,78,64
5760,5772,80,64
5772,5784,82,64
5784,5796,83,64
5796,5808,85,64
5808,5820,76,64
5820,5832,70,64
5832,5844,76,64
5844,5856,85,64
5856,5868,76,64
5868,5880,85,64
5880,5892,76,64
5892,5904,85,64
5904,5916,76,64
5916,5928,70,64
5928,5940,71,64
5940,5952,73,64
5952,5964,74,64
5964,5976,76,64
5976,5988,78,64
5988,6000,79,64
6000,6012,81,64
6012,6024,79,64
6024,6036,78,64
6036,6048,76,64
6048,6060,74,64
6060,6072,73,64
6072,6084,71,64
6084,6096,82,64
6096,6108,83,64
6108,6120,82,64
6120,6132,80,64
6132,6144,78,64
6144,6156,76,64
6156,6168,74,64
6168,6180,73,64
6180,6192,74,64
6192,6204,71,64
6204,6216,74,64
6216,6228,78,64
6228,6240,83,64
6240,6252,78,64
6252,6264,74,64
6264,6276,71,64
6276,6288,79,64
6288,6300,78,64
6300,6312,76,64
6312,6324,74,64
6324,6336,73,64
6336,6348,71,64
6348,6360,70,64
6360,6372,79,64
6372,6384,78,64
6384,6396,74,64
6396,6408,73,64
6408,6420,76,64
6420,6432,74,64
6432,6444,71,64
6444,6456,66,64
6456,6468,70,64
6468,6516,59,64
