onset,offset,pitch,velocity
0,12,71,64
12,24,74,64
24,36,78,64
36,48,79,64
48,60,76,64
60,72,74,64
72,84,73,64
84,96,81,64
96,108,79,64
108,120,78,64
120,132,74,64
132,144,73,64
144,156,74,64
156,168,69,64
168,180,66,64
180,192,62,64
192,204,74,64
204,216,73,64
216,228,71,64
228,240,67,64
240,252,66,64
252,264,64,64
264,276,76,64
276,288,74,64
288,300,65,64
300,312,73,64
312,324,71,64
324,336,70,64
336,348,78,64
348,360,73,64
360,372,70,64
372,384,67,64
384,396,66,64
396,408,64,64
408,420,62,64
420,432,61,64
432,444,62,64
444,456,66,64
456,468,71,64
468,480,61,64
480,492,71,64
492,504,69,64
504,516,59,64
516,528,69,64
528,540,67,64
540,552,57,64
552,564,61,64
564,576,64,64
576,588,67,64
588,600,73,64
600,612,76,64
612,624,70,64
624,636,78,64
636,648,76,64
648,660,74,64
660,672,71,64
672,684,69,64
684,696,67,64
696,708,76,64
708,720,74,64
720,732,73,64
732,744,70,64
744,756,71,64
756,768,66,64
768,780,70,64
780,792,73,64
792,804,78,64
804,816,79,64
816,828,78,64
828,840,76,64
840,852,74,64
852,864,73,64
864,876,71,64
876,888,74,64
888,900,78,64
900,912,79,64
912,924,76,64
924,936,74,64
936,948,73,64
948,960,81,64
960,972,79,64
972,984,78,64
984,996,74,64
996,1008,73,64
1008,1020,74,64
1020,1032,69,64
1032,1044,66,64
1044,1056,62,64
1056,1068,74,64
1068,1080,73,64
1080,1092,71,64
1092,1104,67,64
1104,1116,66,64
1116,1128,64,64
1128,1140,76,64
1140,1152,74,64
1152,1164,65,64
1164,1176,73,64
1176,1188,71,64
1188,1200,70,64
1200,1212,78,64
1212,1224,73,64
1224,1236,70,64
1236,1248,67,64
1248,1260,66,64
1260,1272,64,64
1272,1284,62,64
1284,1296,61,64
1296,1308,62,64
1308,1320,66,64
1320,1332,71,64
1332,1344,61,64
1344,1356,71,64
1356,1368,69,64
1368,1380,59,64
1380,1392,69,64
1392,1404,67,64
1404,1416,57,64
1416,1428,61,64
1428,1440,64,64
1440,1452,67,64
1452,1464,73,64
1464,1476,76,64
1476,1488,70,64
1488,1500,78,64
1500,1512,76,64
1512,1524,74,64
1524,1536,71,64
1536,1548,69,64
1548,1560,67,64
1560,1572,76,64
1572,1584,74,64
1584,1596,73,64
1596,1608,70,64
1608,1620,71,64
1620,1632,78,64
1632,1644,73,64
1644,1656,70,64
1656,1728,66,64
1728,1740,66,64
1740,1752,73,64
1752,1764,82,64
1764,1776,82,64
1776,1788,73,64
1788,1800,66,64
1800,1812,64,64
1812,1824,62,64
1824,1836,61,64
1836,1848,62,64
1848,1860,66,64
1860,1872,71,64
1872,1884,74,64
1884,1896,78,64
1896,1908,83,64
1908,1920,81,64
1920,1932,80,64
1932,1944,78,64
1944,1956,76,64
1956,1968,68,64
1968,1980,74,64
1980,1992,73,64
1992,2004,69,64
2004,2016,78,64
2016,2028,74,64
2028,2040,71,64
2040,2052,80,64
2052,2064,81,64
2064,2076,76,64
2076,2088,73,64
2088,2100,69,64
2100,2112,73,64
2112,2124,76,64
2124,2136,79,64
2136,2148,78,64
2148,2160,76,64
2160,2172,75,64
2172,2184,69,64
2184,2196,84,64
2196,2208,83,64
2208,2220,76,64
2220,2232,67,64
2232,2244,66,64
2244,2256,75,64
2256,2268,81,64
2268,2280,72,64
2280,2292,69,64
2292,2304,64,64
2304,2316,63,64
2316,2328,71,64
2328,2340,81,64
2340,2352,79,64
2352,2364,75,64
2364,2376,76,64
2376,2388,69,64
2388,2400,79,64
2400,2412,78,64
2412,2424,71,64
2424,2436,67,64
2436,2448,76,64
2448,2460,66,64
2460,2472,69,64
2472,2484,75,64
2484,2496,76,64
2496,2508,71,64
2508,2520,67,64
2520,2532,64,64
2532,2544,67,64
2544,2556,71,64
2556,2568,76,64
2568,2580,78,64
2580,2592,79,64
2592,2604,81,64
2604,2616,76,64
2616,2628,74,64
2628,2640,73,64
2640,2652,71,64
2652,2664,69,64
2664,2676,67,64
2676,2688,66,64
2688,2700,64,64
2700,2712,66,64
2712,2724,69,64
2724,2736,73,64
2736,2748,74,64
2748,2760,78,64
2760,2772,76,64
2772,2784,78,64
2784,2796,69,64
2796,2808,62,64
2808,2820,55,64
2820,2832,62,64
2832,2844,71,64
2844,2856,73,64
2856,2868,83,64
2868,2880,81,64
2880,2892,79,64
2892,2904,76,64
2904,2916,78,64
2916,2928,76,64
2928,2940,73,64
2940,2952,71,64
2952,2964,73,64
2964,2976,69,64
2976,2988,68,64
2988,3000,69,64
3000,3012,64,64
3012,3024,67,64
3024,3036,70,64
3036,3048,73,64
3048,3060,76,64
3060,3072,79,64
3072,3084,78,64
3084,3096,76,64
3096,3108,74,64
3108,3120,76,64
3120,3132,73,64
3132,3144,74,64
3144,3156,71,64
3156,3168,73,64
3168,3180,74,64
3180,3192,78,64
3192,3204,76,64
3204,3216,78,64
3216,3228,69,64
3228,3240,66,64
3240,3252,67,64
3252,3264,71,64
3264,3276,78,64
3276,3288,76,64
3288,3300,73,64
3300,3312,74,64
3312,3324,73,64
3324,3336,70,64
3336,3348,71,64
3348,3360,70,64
3360,3372,73,64
3372,3384,71,64
3384,3396,70,64
3396,3408,68,64
3408,3420,66,64
3420,3432,64,64
3432,3444,62,64
3444,3456,61,64
3456,3468,62,64
3468,3480,66,64
3480,3492,71,64
3492,3504,71,64
3504,3516,70,64
3516,3528,73,64
3528,3540,73,64
3540,3552,71,64
3552,3564,74,64
3564,3576,74,64
3576,3588,71,64
3588,3600,68,64
3600,3612,64,64
3612,3624,68,64
3624,3636,71,64
3636,3648,74,64
3648,3660,80,64
3660,3672,83,64
3672,3684,64,64
3684,3696,67,64
3696,3708,73,64
3708,3720,73,64
3720,3732,71,64
3732,3744,74,64
3744,3756,74,64
3756,3768,73,64
3768,3780,76,64
3780,3792,76,64
3792,3804,73,64
3804,3816,70,64
3816,3828,66,64
3828,3840,70,64
3840,3852,73,64
3852,3864,76,64
3864,3876,82,64
3876,3888,85,64
3888,3900,74,64
3900,3912,83,64
3912,3924,66,64
3924,3936,73,64
3936,3948,81,64
3948,3960,64,64
3960,3972,71,64
3972,3984,79,64
3984,3996,62,64
3996,4008,61,64
4008,4020,64,64
4020,4032,67,64
4032,4044,70,64
4044,4056,73,64
4056,4068,76,64
4068,4080,79,64
4080,4092,78,64
4092,4104,76,64
4104,4116,82,64
4116,4128,83,64
4128,4140,77,64
4140,4152,78,64
4152,4164,73,64
4164,4176,74,64
4176,4188,66,64
4188,4200,71,64
4200,4212,70,64
4212,4224,71,64
4224,4236,66,64
4236,4248,62,64
4248,4260,59,64
4260,4272,62,64
4272,4284,66,64
4284,4296,71,64
4296,4308,73,64
4308,4320,74,64
4320,4332,66,64
4332,4344,73,64
4344,4356,82,64
4356,4368,82,64
4368,4380,73,64
4380,4392,66,64
4392,4404,64,64
4404,4416,62,64
4416,4428,61,64
4428,4440,62,64
4440,4452,66,64
4452,4464,71,64
4464,4476,74,64
4476,4488,78,64
4488,4500,83,64
4500,4512,81,64
4512,4524,80,64
4524,4536,78,64
4536,4548,76,64
4548,4560,68,64
4560,4572,74,64
4572,4584,73,64
4584,4596,69,64
4596,4608,78,64
4608,4620,74,64
4620,4632,71,64
4632,4644,80,64
4644,4656,81,64
4656,4668,76,64
4668,4680,73,64
4680,4692,69,64
4692,4704,73,64
4704,4716,76,64
4716,4728,79,64
4728,4740,78,64
4740,4752,76,64
4752,4764,75,64
4764,4776,69,64
4776,4788,84,64
4788,4800,83,64
4800,4812,76,64
4812,4824,67,64
4824,4836,66,64
4836,4848,75,64
4848,4860,81,64
4860,4872,72,64
4872,4884,69,64
4884,4896,64,64
4896,4908,63,64
4908,4920,71,64
4920,4932,81,64
4932,4944,79,64
4944,4956,75,64
4956,4968,76,64
4968,4980,69,64
4980,4992,79,64
4992,5004,78,64
5004,5016,71,64
5016,5028,67,64
5028,5040,76,64
5040,5052,66,64
5052,5064,69,64
5064,5076,75,64
5076,5088,76,64
5088,5100,71,64
5100,5112,67,64
5112,5124,64,64
5124,5136,67,64
5136,5148,71,64
5148,5160,76,64
5160,5172,78,64
5172,5184,79,64
5184,5196,81,64
5196,5208,76,64
5208,5220,74,64
5220,5232,73,64
5232,5244,71,64
5244,5256,69,64
5256,5268,67,64
5268,5280,66,64
5280,5292,64,64
5292,5304,66,64
5304,5316,69,64
5316,5328,73,64
5328,5340,74,64
5340,5352,78,64
5352,5364,76,64
5364,5376,78,64
5376,5388,69,64
5388,5400,62,64
5400,5412,55,64
5412,5424,62,64
5424,5436,71,64
5436,5448,73,64
5448,5460,83,64
5460,5472,81,64
5472,5484,79,64
5484,5496,76,64
5496,5508,78,64
5508,5520,76,64
5520,5532,73,64
5532,5544,71,64
5544,5556,73,64
5556,5568,69,64
5568,5580,68,64
5580,5592,69,64
5592,5604,64,64
5604,5616,67,64
5616,5628,70,64
5628,5640,73,64
5640,5652,76,64
5652,5664,79,64
5664,5676,78,64
5676,5688,76,64
5688,5700,74,64
5700,5712,76,64
5712,5724,73,64
5724,5736,74,64
5736,5748,71,64
5748,5760,73,64
5760,5772,74,64
5772,5784,78,64
5784,5796,76,64
5796,5808,78,64
5808,5820,69,64
5820,5832,66,64
5832,5844,67,64
5844,5856,71,64
5856,5868,78,64
5868,5880,76,64
5880,5892,73,64
5892,5904,74,64
5904,5916,73,64
5916,5928,70,64
5928,5940,71,64
5940,5952,70,64
5952,5964,73,64
5964,5976,71,64
5976,5988,70,64
5988,6000,68,64
6000,6012,66,64
6012,6024,64,64
6024,6036,62,64
6036,6048,61,64
6048,6060,62,64
6060,6072,66,64
6072,6084,71,64
6084,6096,71,64
6096,6108,70,64
6108,6120,73,64
6120,6132,73,64
6132,6144,71,64
6144,6156,74,64
6156,6168,74,64
6168,6180,71,64
6180,6192,68,64
6192,6204,64,64
6204,6216,68,64
6216,6228,71,64
6228,6240,74,64
6240,6252,80,64
6252,6264,83,64
6264,6276,64,64
6276,6288,67,64
6288,6300,73,64
6300,6312,73,64
6312,6324,71,64
6324,6336,74,64
6336,6348,74,64
6348,6360,73,64
6360,6372,76,64
6372,6384,76,64
6384,6396,73,64
6396,6408,70,64
6408,6420,66,64
6420,6432,70,64
6432,6444,73,64
6444,6456,76,64
6456,6468,82,64
6468,6480,85,64
6480,6492,74,64
6492,6504,83,64
6504,6516,66,64
6516,6528,73,64
6528,6540,81,64
6540,6552,64,64
6552,6564,71,64
6564,6576,79,64
6576,6588,62,64
6588,6600,61,64
6600,6612,64,64
6612,6624,67,64
6624,6636,70,64
6636,6648,73,64
6648,6660,76,64
6660,6672,79,64
6672,6684,78,64
6684,6696,76,64
6696,6708,82,64
6708,6720,83,64
6720,6732,77,64
6732,6744,78,64
6744,6756,73,64
6756,6768,74,64
6768,6780,66,64
6780,6792,71,64
6792,6804,70,64
6804,6816,59,64
6816,6828,62,64
6828,6840,66,64
6840,6852,71,64
6852,6864,74,64
6864,6876,78,64
6876,6912,83,64
