onset,offset,pitch,velocity
0,48,67,64
48,72,69,64
72,84,67,64
84,96,65,64
96,120,64,64
120,144,65,64
144,192,67,64
192,216,62,64
216,240,64,64
240,264,65,64
264,288,64,64
288,312,65,64
312,324,67,64
324,336,65,64
336,360,64,64
360,372,65,64
372,384,67,64
384,432,69,64
384,432,72,64
432,456,76,64
432,480,68,64
456,468,74,64
468,480,72,64
480,504,71,64
480,528,67,64
504,528,73,64
528,576,66,64
528,576,74,64
576,600,69,64
576,624,65,64
600,624,71,64
624,648,64,64
624,648,72,64
648,672,62,64
648,672,71,64
672,696,64,64
672,696,72,64
696,708,74,64
696,720,66,64
708,720,72,64
720,744,67,64
720,744,71,64
744,756,72,64
744,768,65,64
756,768,74,64
768,792,67,64
768,864,76,64
792,816,64,64
816,840,65,64
840,864,64,64
864,888,65,64
864,936,74,64
888,912,62,64
912,960,64,64
936,960,71,64
960,984,76,64
960,1008,64,64
960,1008,79,64
984,1008,74,64
1008,1032,81,64
1008,1056,57,64
1008,1056,64,64
1008,1056,73,64
1032,1044,79,64
1044,1056,77,64
1056,1080,76,64
1056,1104,57,64
1056,1104,69,64
1056,1104,72,64
1080,1104,78,64
1104,1152,55,64
1104,1152,62,64
1104,1152,71,64
1104,1152,79,64
1152,1176,74,64
1152,1200,55,64
1152,1200,70,64
1176,1200,76,64
1200,1224,69,64
1200,1224,77,64
1200,1296,62,64
1224,1248,67,64
1224,1248,76,64
1248,1272,69,64
1248,1272,77,64
1272,1284,79,64
1272,1296,71,64
1284,1296,77,64
1296,1320,76,64
1296,1344,57,64
1296,1344,64,64
1296,1344,72,64
1320,1344,74,64
1344,1368,76,64
1344,1392,69,64
1344,1392,72,64
1368,1392,77,64
1392,1416,79,64
1392,1440,64,64
1392,1440,71,64
1416,1440,77,64
1440,1464,79,64
1440,1488,57,64
1440,1488,64,64
1440,1488,73,64
1464,1476,81,64
1476,1488,79,64
1488,1512,77,64
1488,1536,62,64
1488,1536,74,64
1512,1536,79,64
1536,1560,72,64
1536,1584,65,64
1536,1584,81,64
1560,1584,74,64
1584,1608,76,64
1584,1632,64,64
1584,1632,80,64
1608,1620,74,64
1620,1632,72,64
1632,1656,71,64
1632,1680,79,64
1656,1680,72,64
1680,1728,62,64
1680,1728,74,64
1680,1728,78,64
1728,1752,69,64
1728,1776,77,64
1752,1776,71,64
1776,1800,72,64
1776,1824,69,64
1776,1824,76,64
1800,1824,71,64
1824,1848,72,64
1824,1872,62,64
1824,1872,78,64
1848,1860,74,64
1860,1872,72,64
1872,1920,67,64
1872,1920,71,64
1896,1908,79,64
1908,1920,77,64
1920,1944,76,64
1944,1968,74,64
1968,1992,67,64
1968,1992,73,64
1992,2004,81,64
2004,2016,79,64
2016,2040,81,64
2040,2064,67,64
2040,2064,73,64
2064,2088,65,64
2064,2088,74,64
2088,2100,77,64
2100,2112,76,64
2112,2136,74,64
2136,2160,72,64
2160,2184,65,64
2160,2184,71,64
2184,2196,79,64
2196,2208,77,64
2208,2232,79,64
2232,2256,65,64
2232,2256,71,64
2256,2280,64,64
2256,2280,72,64
2280,2304,65,64
2280,2304,74,64
2304,2352,60,64
2304,2352,67,64
2304,2352,76,64
2352,2376,62,64
2352,2400,66,64
2352,2400,69,64
2376,2388,60,64
2388,2400,59,64
2400,2424,57,64
2400,2448,65,64
2400,2448,74,64
2424,2448,59,64
2448,2496,60,64
2448,2496,64,64
2460,2472,67,64
2472,2484,69,64
2484,2496,71,64
2496,2520,55,64
2496,2544,63,64
2496,2544,72,64
2520,2544,57,64
2544,2568,58,64
2544,2592,62,64
2568,2592,57,64
2592,2616,58,64
2592,2640,64,64
2616,2628,60,64
2628,2640,58,64
2640,2664,65,64
2640,2688,57,64
2664,2688,64,64
2688,2712,65,64
2688,2736,59,64
2712,2724,67,64
2724,2736,65,64
2736,2760,60,64
2736,2784,64,64
2760,2784,59,64
2784,2808,60,64
2784,2832,66,64
2808,2820,62,64
2820,2832,60,64
2832,2856,59,64
2832,2880,67,64
2856,2880,57,64
2880,2928,58,64
2880,2928,67,64
2880,2928,74,64
2928,2952,69,64
2928,2976,57,64
2928,2976,73,64
2952,2964,67,64
2964,2976,65,64
2976,3000,64,64
2976,3024,72,64
3000,3024,66,64
3024,3072,55,64
3024,3072,67,64
3024,3072,71,64
3072,3096,62,64
3072,3120,70,64
3096,3120,64,64
3120,3144,65,64
3120,3168,62,64
3120,3168,69,64
3144,3168,64,64
3168,3192,65,64
3168,3216,55,64
3168,3216,71,64
3192,3204,67,64
3204,3216,65,64
3216,3240,60,64
3216,3240,64,64
3240,3252,72,64
3252,3264,71,64
3264,3288,69,64
3288,3312,67,64
3312,3336,60,64
3312,3336,66,64
3336,3348,74,64
3348,3360,72,64
3360,3384,74,64
3384,3408,60,64
3384,3408,66,64
3408,3432,58,64
3408,3432,67,64
3432,3444,70,64
3444,3456,69,64
3456,3480,67,64
3480,3504,65,64
3504,3528,58,64
3504,3528,64,64
3528,3540,72,64
3540,3552,70,64
3552,3576,72,64
3576,3600,58,64
3576,3600,64,64
3600,3624,57,64
3600,3624,65,64
3624,3636,69,64
3636,3648,67,64
3648,3660,65,64
3660,3672,67,64
3672,3684,64,64
3684,3696,65,64
3696,3708,59,64
3696,3708,62,64
3708,3720,69,64
3720,3732,74,64
3732,3744,72,64
3744,3756,71,64
3756,3768,69,64
3768,3780,67,64
3780,3792,65,64
3792,3816,60,64
3792,3816,64,64
3816,3828,72,64
3828,3840,71,64
3840,3852,69,64
3852,3864,72,64
3864,3876,76,64
3876,3888,67,64
3888,3900,62,64
3888,3900,65,64
3900,3912,69,64
3912,3924,77,64
3924,3936,76,64
3936,3948,74,64
3948,3960,72,64
3960,3972,71,64
3972,3984,69,64
3984,3996,64,64
3984,3996,67,64
3996,4002,69,64
4002,4008,71,64
4008,4020,72,64
4020,4032,74,64
4032,4044,76,64
4044,4056,77,64
4056,4068,79,64
4068,4080,70,64
4080,4092,65,64
4080,4092,69,64
4092,4104,76,64
4104,4116,81,64
4116,4128,79,64
4128,4140,77,64
4140,4146,79,64
4146,4152,81,64
4152,4164,74,64
4164,4170,76,64
4170,4176,77,64
4176,4188,65,64
4176,4188,71,64
4188,4200,74,64
4200,4212,76,64
4212,4224,77,64
4224,4248,64,64
4224,4248,72,64
4224,4272,79,64
4248,4272,62,64
4248,4272,70,64
4272,4284,61,64
4272,4284,64,64
4272,4284,69,64
4284,4296,81,64
4296,4308,79,64
4308,4320,77,64
4320,4344,60,64
4320,4344,64,64
4320,4344,69,64
4320,4344,76,64
4344,4368,78,64
4368,4380,67,64
4368,4392,59,64
4368,4392,74,64
4380,4392,79,64
4392,4404,77,64
4404,4416,76,64
4416,4440,58,64
4416,4440,67,64
4416,4440,74,64
4440,4464,76,64
4464,4488,57,64
4464,4488,65,64
4464,4488,72,64
4464,4488,76,64
4488,4500,77,64
4500,4512,76,64
4512,4536,77,64
4536,4548,79,64
4548,4560,77,64
4560,4584,55,64
4560,4584,67,64
4560,4584,72,64
4560,4584,76,64
4584,4596,67,64
4596,4608,65,64
4608,4632,67,64
4632,4644,69,64
4644,4656,67,64
4656,4680,65,64
4656,4680,69,64
4656,4680,76,64
4680,4692,65,64
4692,4704,64,64
4704,4728,65,64
4704,4728,74,64
4728,4740,67,64
4740,4752,65,64
4752,4776,64,64
4752,4776,74,64
4776,4788,72,64
4788,4800,71,64
4800,4824,69,64
4800,4824,72,64
4824,4836,74,64
4836,4848,76,64
4848,4872,62,64
4848,4872,72,64
4848,4872,77,64
4872,4884,77,64
4884,4896,76,64
4896,4920,67,64
4896,4920,71,64
4896,4920,77,64
4920,4932,79,64
4932,4944,77,64
4944,4968,72,64
4944,4968,76,64
4968,4980,60,64
4980,4992,62,64
4992,5004,64,64
5004,5016,67,64
5016,5028,65,64
5028,5040,69,64
5040,5064,67,64
5040,5064,72,64
5040,5064,76,64
5064,5076,58,64
5076,5088,57,64
5088,5112,58,64
5112,5136,67,64
5112,5136,72,64
5112,5136,76,64
5136,5160,57,64
5136,5160,69,64
5136,5160,72,64
5136,5160,77,64
5160,5172,62,64
5172,5184,64,64
5184,5196,65,64
5196,5208,67,64
5208,5220,65,64
5220,5232,67,64
5232,5256,69,64
5232,5256,74,64
5232,5256,78,64
5256,5268,60,64
5268,5280,59,64
5280,5304,60,64
5304,5328,69,64
5304,5328,72,64
5304,5328,78,64
5328,5352,71,64
5328,5352,79,64
5352,5376,59,64
5376,5400,64,64
5376,5424,71,64
5376,5424,79,64
5400,5424,62,64
5424,5448,61,64
5424,5472,64,64
5424,5472,69,64
5424,5472,79,64
5448,5472,57,64
5472,5496,62,64
5472,5520,69,64
5472,5520,77,64
5496,5520,60,64
5520,5544,59,64
5520,5568,67,64
5520,5568,74,64
5520,5568,77,64
5544,5568,55,64
5568,5592,60,64
5568,5616,67,64
5568,5616,72,64
5568,5616,76,64
5592,5616,58,64
5616,5640,57,64
5616,5640,65,64
5616,5640,72,64
5616,5640,76,64
5640,5652,74,64
5652,5664,76,64
5664,5676,77,64
5676,5688,79,64
5688,5700,81,64
5700,5712,72,64
5712,5724,55,64
5712,5724,65,64
5712,5724,71,64
5724,5736,74,64
5736,5748,72,64
5748,5760,71,64
5760,5772,69,64
5772,5784,67,64
5784,5796,65,64
5796,5808,71,64
5808,5820,79,64
5820,5832,71,64
5832,5844,72,64
5844,5856,64,64
5856,5868,62,64
5868,5880,72,64
5880,5892,77,64
5892,5904,71,64
5904,5916,56,64
5904,5916,63,64
5904,5916,72,64
5916,5928,74,64
5928,5940,75,64
5940,5952,77,64
5952,5964,79,64
5964,5976,81,64
5976,5988,83,64
5988,6000,84,64
6000,6012,78,64
6012,6024,75,64
6024,6036,74,64
6036,6048,72,64
6048,6060,71,64
6060,6072,72,64
6072,6084,66,64
6084,6096,57,64
6096,6108,55,64
6108,6120,60,64
6120,6132,64,64
6132,6144,67,64
6144,6156,72,64
6156,6168,76,64
6168,6180,79,64
6180,6192,76,64
6192,6204,72,64
6204,6216,67,64
6216,6228,64,64
6228,6240,60,64
6240,6264,55,64
6264,6288,65,64
6264,6288,71,64
6288,6300,60,64
6288,6300,64,64
6288,6300,72,64
6300,6306,79,64
6306,6312,77,64
6312,6324,76,64
6324,6336,79,64
6336,6348,72,64
6348,6360,76,64
6360,6372,67,64
6372,6384,72,64
6384,6396,64,64
6396,6408,67,64
6408,6420,60,64
6420,6432,64,64
6432,6444,55,64
6444,6456,76,64
6456,6468,74,64
6468,6480,72,64
6480,6486,74,64
6486,6492,79,64
6492,6498,78,64
6498,6504,76,64
6504,6516,74,64
6516,6528,79,64
6528,6540,71,64
6540,6552,74,64
6552,6564,67,64
6564,6576,71,64
6576,6588,62,64
6588,6600,67,64
6600,6612,59,64
6612,6624,62,64
6624,6636,55,64
6636,6648,74,64
6648,6660,72,64
6660,6672,71,64
6672,6684,72,64
6684,6690,81,64
6690,6696,79,64
6696,6708,78,64
6708,6720,81,64
6720,6732,72,64
6732,6744,78,64
6744,6756,69,64
6756,6768,72,64
6768,6780,66,64
6780,6792,69,64
6792,6804,62,64
6804,6816,66,64
6816,6828,69,64
6828,6840,72,64
6840,6852,78,64
6852,6864,81,64
6864,6876,55,64
6876,6888,62,64
6888,6900,66,64
6900,6912,72,64
6912,6924,71,64
6924,6936,67,64
6936,6948,64,64
6948,6960,67,64
6960,6972,61,64
6972,6978,64,64
6978,6984,65,64
6984,6996,67,64
6996,7008,64,64
7008,7020,70,64
7020,7032,67,64
7032,7044,73,64
7044,7056,76,64
7056,7068,65,64
7068,7080,69,64
7080,7092,79,64
7092,7104,73,64
7104,7116,74,64
7116,7128,69,64
7128,7140,70,64
7140,7152,74,64
7152,7164,68,64
7164,7170,71,64
7170,7176,72,64
7176,7188,74,64
7188,7200,71,64
7200,7212,77,64
7212,7224,74,64
7224,7236,80,64
7236,7248,83,64
7248,7260,64,64
7260,7272,72,64
7272,7284,76,64
7284,7296,80,64
7296,7308,81,64
7308,7320,84,64
7320,7332,78,64
7332,7344,81,64
7344,7356,75,64
7356,7362,78,64
7362,7368,79,64
7368,7380,81,64
7380,7392,78,64
7392,7404,75,64
7404,7416,71,64
7416,7428,72,64
7428,7440,63,64
7440,7452,64,64
7452,7464,71,64
7464,7476,75,64
7476,7488,81,64
7488,7500,79,64
7500,7506,83,64
7506,7512,81,64
7512,7524,79,64
7524,7536,76,64
7536,7548,73,64
7548,7554,70,64
7554,7560,69,64
7560,7572,67,64
7572,7584,64,64
7584,7596,61,64
7596,7602,62,64
7602,7608,64,64
7608,7620,57,64
7620,7626,59,64
7626,7632,61,64
7632,7644,62,64
7644,7656,69,64
7656,7668,73,64
7668,7680,79,64
7680,7692,77,64
7692,7698,81,64
7698,7704,79,64
7704,7716,77,64
7716,7728,74,64
7728,7740,71,64
7740,7746,68,64
7746,7752,67,64
7752,7764,65,64
7764,7776,62,64
7776,7788,59,64
7788,7794,60,64
7794,7800,62,64
7800,7812,55,64
7812,7818,57,64
7818,7824,59,64
7824,7836,60,64
7836,7848,67,64
7848,7860,71,64
7860,7872,77,64
7872,7884,76,64
7884,7890,79,64
7890,7896,77,64
7896,7908,76,64
7908,7920,72,64
7920,7932,77,64
7932,7938,74,64
7938,7944,72,64
7944,7956,71,64
7956,7968,74,64
7968,7980,68,64
7980,7986,69,64
7986,7992,71,64
7992,8004,64,64
8004,8010,66,64
8010,8016,68,64
8016,8028,57,64
8028,8040,64,64
8040,8052,68,64
8052,8064,74,64
8064,8076,72,64
8076,8088,69,64
8088,8100,65,64
8100,8112,69,64
8112,8124,59,64
8124,8136,62,64
8136,8148,68,64
8148,8160,76,64
8160,8172,74,64
8172,8184,71,64
8184,8196,68,64
8196,8208,71,64
8208,8220,60,64
8220,8232,64,64
8232,8244,68,64
8244,8256,77,64
8256,8268,76,64
8268,8280,72,64
8280,8292,69,64
8292,8304,72,64
8304,8316,62,64
8316,8322,81,64
8322,8328,79,64
8328,8340,77,64
8340,8352,76,64
8352,8364,74,64
8364,8370,82,64
8370,8376,81,64
8376,8388,82,64
8388,8400,74,64
8400,8412,64,64
8412,8418,74,64
8418,8424,76,64
8424,8436,77,64
8436,8448,74,64
8448,8460,80,64
8460,8472,74,64
8472,8484,83,64
8484,8496,74,64
8496,8508,64,64
8508,8514,72,64
8514,8520,74,64
8520,8532,76,64
8532,8544,72,64
8544,8556,81,64
8556,8568,76,64
8568,8580,84,64
8580,8592,76,64
8592,8604,64,64
8604,8610,71,64
8610,8616,72,64
8616,8628,74,64
8628,8640,71,64
8640,8652,80,64
8652,8664,76,64
8664,8676,86,64
8676,8688,76,64
8688,8700,64,64
8700,8706,69,64
8706,8712,71,64
8712,8724,72,64
8724,8736,75,64
8736,8748,78,64
8748,8760,81,64
8760,8772,84,64
8772,8784,87,64
8784,8796,88,64
8796,8808,83,64
8808,8820,80,64
8820,8832,76,64
8832,8856,64,64
8856,8880,76,64
8880,8904,77,64
8904,8916,76,64
8916,8928,74,64
8928,8952,72,64
8928,8976,69,64
8952,8976,74,64
8976,9000,72,64
8976,9024,76,64
9000,9012,71,64
9012,9024,69,64
9024,9048,68,64
9024,9048,71,64
9048,9072,69,64
9048,9072,72,64
9072,9096,74,64
9072,9120,71,64
9096,9120,72,64
9120,9144,66,64
9120,9144,74,64
9144,9156,76,64
9144,9168,68,64
9156,9168,74,64
9168,9192,69,64
9168,9216,72,64
9192,9216,67,64
9216,9240,69,64
9216,9288,77,64
9240,9252,70,64
9252,9264,69,64
9264,9288,67,64
9288,9300,76,64
9300,9312,77,64
9312,9324,79,64
9324,9336,76,64
9336,9348,77,64
9348,9360,79,64
9360,9384,73,64
9360,9408,67,64
9384,9396,71,64
9396,9408,69,64
9408,9432,65,64
9408,9456,74,64
9408,9456,81,64
9432,9444,64,64
9444,9456,62,64
9456,9480,67,64
9456,9480,74,64
9456,9480,82,64
9480,9492,81,64
9480,9504,69,64
9492,9504,79,64
9504,9528,77,64
9504,9552,62,64
9504,9552,70,64
9528,9552,79,64
9552,9576,65,64
9552,9600,69,64
9552,9600,81,64
9576,9588,64,64
9588,9600,62,64
9600,9624,61,64
9600,9624,64,64
9600,9624,69,64
9600,9624,76,64
9624,9648,62,64
9624,9648,69,64
9624,9648,77,64
9648,9672,73,64
9648,9672,79,64
9648,9696,64,64
9672,9684,74,64
9672,9696,77,64
9684,9696,73,64
9696,9720,71,64
9696,9720,79,64
9696,9744,64,64
9720,9732,81,64
9720,9744,73,64
9732,9744,79,64
9744,9768,74,64
9744,9792,62,64
9744,9792,77,64
9768,9792,72,64
9792,9816,74,64
9792,9840,67,64
9792,9840,82,64
9816,9828,75,64
9828,9840,74,64
9840,9864,82,64
9840,9888,64,64
9840,9888,73,64
9864,9876,81,64
9876,9888,79,64
9888,9900,81,64
9888,9936,63,64
9888,9936,72,64
9900,9912,82,64
9912,9924,81,64
9924,9936,79,64
9936,9960,72,64
9936,9984,62,64
9936,9984,78,64
9960,9972,70,64
9972,9984,69,64
9984,9996,70,64
9984,10032,79,64
9996,10008,74,64
10008,10020,72,64
10020,10032,70,64
10032,10056,79,64
10032,10080,62,64
10032,10080,69,64
10056,10068,77,64
10068,10080,76,64
10080,10104,69,64
10080,10128,62,64
10080,10128,77,64
10104,10128,71,64
10128,10152,64,64
10128,10152,72,64
10128,10176,76,64
10152,10176,62,64
10152,10176,71,64
10176,10200,64,64
10176,10200,72,64
10176,10224,81,64
10200,10212,74,64
10200,10224,66,64
10212,10224,72,64
10224,10248,71,64
10224,10272,67,64
10248,10272,72,64
10272,10296,74,64
10296,10320,67,64
10296,10320,76,64
10320,10344,69,64
10320,10344,77,64
10344,10368,67,64
10344,10368,76,64
10368,10392,69,64
10368,10392,77,64
10392,10404,79,64
10392,10416,71,64
10404,10416,77,64
10416,10440,72,64
10416,10464,76,64
10440,10464,71,64
10464,10488,60,64
10464,10488,64,64
10464,10488,69,64
10464,10488,76,64
10488,10500,74,64
10488,10512,62,64
10500,10512,72,64
10512,10536,64,64
10512,10536,68,64
10512,10536,71,64
10536,10548,62,64
10536,10560,72,64
10548,10560,60,64
10560,10584,59,64
10560,10608,67,64
10560,10608,74,64
10584,10608,60,64
10608,10656,62,64
10608,10656,66,64
10608,10656,69,64
10656,10680,57,64
10656,10704,65,64
10680,10704,59,64
10704,10728,60,64
10704,10752,64,64
10728,10752,59,64
10752,10776,60,64
10752,10800,66,64
10776,10788,62,64
10788,10800,60,64
10800,10824,59,64
10800,10848,67,64
10824,10836,60,64
10836,10848,62,64
10848,10872,64,64
10848,10896,67,64
10872,10896,62,64
10896,10920,69,64
10896,10944,61,64
10920,10932,67,64
10932,10944,65,64
10944,10968,64,64
10944,10992,60,64
10968,10992,66,64
10992,11040,59,64
10992,11040,67,64
11040,11064,62,64
11040,11088,58,64
11064,11088,64,64
11088,11112,65,64
11088,11136,57,64
11112,11136,64,64
11136,11160,65,64
11136,11208,62,64
11160,11172,67,64
11172,11184,65,64
11184,11232,64,64
11208,11220,60,64
11220,11232,59,64
11232,11256,64,64
11232,11280,60,64
11256,11280,66,64
11280,11304,67,64
11280,11328,59,64
11304,11328,66,64
11328,11352,67,64
11328,11400,64,64
11352,11364,69,64
11364,11376,67,64
11376,11424,65,64
11400,11412,62,64
11412,11424,60,64
11424,11448,65,64
11424,11496,62,64
11448,11460,67,64
11460,11472,65,64
11472,11520,64,64
11496,11508,60,64
11508,11520,59,64
11520,11544,64,64
11520,11592,60,64
11544,11556,65,64
11556,11568,64,64
11568,11616,62,64
11592,11604,59,64
11604,11616,57,64
11616,11640,59,64
11616,11664,67,64
11616,11664,74,64
11640,11664,55,64
11664,11688,60,64
11664,11688,67,64
11664,11688,76,64
11688,11700,74,64
11688,11712,62,64
11700,11712,72,64
11712,11736,71,64
11712,11760,64,64
11712,11760,79,64
11736,11760,72,64
11760,11808,62,64
11760,11808,74,64
11760,11808,78,64
11808,11832,69,64
11808,11856,77,64
11832,11856,71,64
11856,11880,72,64
11856,11904,69,64
11856,11904,76,64
11880,11904,71,64
11904,11928,72,64
11904,11952,62,64
11904,11952,78,64
11928,11940,74,64
11940,11952,72,64
11952,11976,71,64
11952,12000,67,64
11952,12000,79,64
11976,12000,69,64
12000,12024,71,64
12000,12048,64,64
12000,12048,79,64
12024,12036,72,64
12036,12048,71,64
12048,12072,79,64
12048,12096,61,64
12048,12096,64,64
12048,12096,69,64
12072,12084,77,64
12084,12096,76,64
12096,12120,77,64
12096,12144,62,64
12096,12144,69,64
12120,12132,79,64
12132,12144,77,64
12144,12168,62,64
12144,12192,68,64
12144,12192,71,64
12144,12192,76,64
12168,12180,60,64
12180,12192,59,64
12192,12216,60,64
12192,12240,64,64
12192,12240,69,64
12192,12240,76,64
12216,12228,62,64
12228,12240,60,64
12240,12264,66,64
12240,12288,59,64
12240,12288,75,64
12264,12288,64,64
12288,12312,66,64
12288,12336,59,64
12288,12336,74,64
12312,12336,68,64
12336,12384,57,64
12336,12384,69,64
12336,12384,73,64
12384,12408,64,64
12384,12432,57,64
12384,12432,72,64
12408,12432,66,64
12432,12456,67,64
12432,12480,55,64
12432,12480,71,64
12456,12480,66,64
12480,12504,67,64
12480,12528,57,64
12480,12528,73,64
12504,12516,69,64
12516,12528,67,64
12528,12552,74,64
12528,12576,62,64
12528,12576,66,64
12552,12564,72,64
12564,12576,71,64
12576,12600,69,64
12576,12624,62,64
12576,12624,65,64
12600,12624,71,64
12624,12648,72,64
12624,12672,57,64
12624,12672,64,64
12648,12672,71,64
12672,12696,72,64
12672,12720,62,64
12672,12720,66,64
12696,12708,74,64
12708,12720,72,64
12720,12744,67,64
12720,12768,55,64
12720,12768,71,64
12744,12756,65,64
12756,12768,64,64
12768,12792,62,64
12768,12816,55,64
12768,12816,70,64
12792,12816,64,64
12816,12840,65,64
12816,12864,62,64
12816,12864,69,64
12840,12864,64,64
12864,12888,65,64
12864,12912,55,64
12864,12912,71,64
12888,12900,67,64
12900,12912,65,64
12912,12960,60,64
12912,12960,64,64
12912,12960,72,64
12960,12984,62,64
12960,13008,58,64
12960,13008,74,64
12960,13008,79,64
12984,13008,64,64
13008,13032,57,64
13008,13032,65,64
13008,13032,74,64
13008,13032,81,64
13032,13044,79,64
13032,13056,67,64
13032,13056,74,64
13044,13056,77,64
13056,13080,76,64
13056,13104,57,64
13056,13104,69,64
13056,13104,72,64
13080,13104,78,64
13104,13152,55,64
13104,13152,62,64
13104,13152,71,64
13104,13152,79,64
13152,13176,74,64
13176,13200,76,64
13200,13224,77,64
13224,13248,76,64
13248,13272,69,64
13248,13272,77,64
13272,13284,79,64
13272,13296,71,64
13284,13296,77,64
13296,13320,72,64
13296,13344,76,64
13320,13344,71,64
13344,13368,64,64
13344,13368,72,64
13368,13380,74,64
13368,13392,65,64
13380,13392,72,64
13392,13416,67,64
13392,13440,71,64
13416,13440,65,64
13440,13464,59,64
13440,13464,67,64
13464,13476,69,64
13464,13488,60,64
13476,13488,67,64
13488,13512,62,64
13488,13536,65,64
13512,13536,60,64
13536,13560,62,64
13536,13632,70,64
13560,13572,64,64
13572,13584,62,64
13584,13608,60,64
13608,13632,58,64
13632,13656,60,64
13632,13728,69,64
13656,13668,62,64
13668,13680,60,64
13680,13728,58,64
13728,13752,74,64
13728,13776,58,64
13728,13776,67,64
13752,13776,76,64
13776,13800,77,64
13776,13824,57,64
13776,13824,69,64
13776,13824,74,64
13800,13824,76,64
13824,13848,77,64
13824,13872,55,64
13824,13872,62,64
13824,13872,70,64
13848,13860,79,64
13860,13872,77,64
13872,13896,55,64
13872,13896,67,64
13872,13896,70,64
13872,13896,76,64
13896,13920,57,64
13896,13920,67,64
13896,13920,73,64
13920,13944,65,64
13920,13968,58,64
13920,13968,74,64
13944,13956,67,64
13956,13968,65,64
13968,13992,64,64
13968,14016,55,64
13968,14016,74,64
13992,14016,65,64
14016,14040,67,64
14016,14064,57,64
14016,14064,73,64
14040,14052,69,64
14052,14064,67,64
14064,14112,62,64
14064,14112,66,64
14064,14112,74,64
14112,14160,74,64
14160,14184,76,64
14184,14196,74,64
14196,14208,72,64
14208,14232,71,64
14208,14256,79,64
14232,14256,72,64
14256,14280,83,64
14256,14304,74,64
14280,14292,81,64
14292,14304,79,64
14304,14328,69,64
14304,14328,78,64
14328,14352,71,64
14328,14352,79,64
14352,14376,72,64
14352,14400,81,64
14376,14400,71,64
14400,14424,72,64
14400,14424,76,64
14424,14436,74,64
14424,14448,78,64
14436,14448,72,64
14448,14472,79,64
14448,14496,71,64
14472,14496,78,64
14496,14520,79,64
14496,14544,76,64
14520,14532,81,64
14532,14544,79,64
14544,14568,78,64
14544,14592,76,64
14568,14580,79,64
14580,14592,81,64
14592,14640,67,64
14592,14640,74,64
14592,14640,83,64
14640,14664,69,64
14640,14688,73,64
14640,14688,76,64
14664,14676,67,64
14676,14688,65,64
14688,14712,64,64
14688,14736,72,64
14688,14736,81,64
14712,14736,66,64
14736,14784,67,64
14736,14784,71,64
14748,14760,81,64
14760,14772,79,64
14772,14784,78,64
14784,14808,62,64
14784,14832,55,64
14784,14832,70,64
14784,14832,79,64
14808,14832,64,64
14832,14856,65,64
14832,14880,62,64
14832,14880,69,64
14832,14880,77,64
14856,14880,64,64
14880,14904,65,64
14880,14928,55,64
14880,14928,71,64
14904,14916,67,64
14916,14928,65,64
14928,14952,76,64
14928,14976,60,64
14928,14976,64,64
14928,14976,71,64
14952,14976,75,64
14976,15000,76,64
14976,15024,60,64
14976,15024,64,64
14976,15024,69,64
15000,15012,78,64
15012,15024,76,64
15024,15048,66,64
15024,15072,59,64
15024,15072,75,64
15048,15072,64,64
15072,15096,66,64
15072,15120,59,64
15072,15120,74,64
15072,15120,83,64
15096,15120,68,64
15120,15144,84,64
15120,15168,57,64
15120,15168,69,64
15120,15168,72,64
15144,15156,83,64
15156,15168,81,64
15168,15192,79,64
15168,15216,60,64
15168,15216,64,64
15168,15216,72,64
15192,15216,81,64
15216,15264,55,64
15216,15264,64,64
15216,15264,71,64
15216,15264,83,64
15264,15288,78,64
15264,15312,59,64
15264,15312,66,64
15264,15312,75,64
15288,15312,79,64
15312,15336,81,64
15312,15360,57,64
15312,15360,66,64
15312,15360,73,64
15336,15360,79,64
15360,15384,81,64
15360,15408,59,64
15360,15408,66,64
15360,15408,75,64
15384,15396,83,64
15396,15408,81,64
15408,15432,76,64
15408,15456,64,64
15408,15456,79,64
15432,15456,74,64
15456,15480,64,64
15456,15480,72,64
15456,15528,79,64
15480,15504,62,64
15480,15504,71,64
15504,15552,60,64
15504,15552,64,64
15504,15552,69,64
15528,15540,81,64
15540,15552,79,64
15552,15576,78,64
15576,15588,79,64
15588,15600,76,64
15600,15636,83,64
15600,15648,55,64
15600,15648,64,64
15600,15648,71,64
15636,15648,84,64
15648,15672,83,64
15672,15696,57,64
15672,15696,64,64
15672,15696,72,64
15672,15696,81,64
15696,15744,59,64
15696,15744,64,64
15696,15744,71,64
15696,15744,79,64
15744,15792,63,64
15744,15792,69,64
15744,15792,78,64
15792,15816,64,64
15792,15816,76,64
15816,15828,79,64
15828,15840,77,64
15840,15852,76,64
15852,15864,79,64
15864,15876,74,64
15876,15888,79,64
15888,15900,73,64
15900,15912,82,64
15912,15924,79,64
15924,15936,76,64
15936,15948,73,64
15948,15960,76,64
15960,15972,69,64
15972,15984,73,64
15984,15996,62,64
15996,16008,69,64
16008,16020,73,64
16020,16032,79,64
16032,16044,77,64
16044,16056,76,64
16056,16068,74,64
16068,16080,72,64
16080,16092,71,64
16092,16104,68,64
16104,16116,65,64
16116,16128,62,64
16128,16140,59,64
16140,16152,62,64
16152,16164,55,64
16164,16176,65,64
16176,16188,60,64
16188,16200,64,64
16200,16212,57,64
16212,16224,67,64
16224,16236,62,64
16236,16248,65,64
16248,16260,59,64
16260,16272,69,64
16272,16284,64,64
16284,16296,67,64
16296,16308,60,64
16308,16320,70,64
16320,16332,65,64
16332,16344,69,64
16344,16356,62,64
16356,16368,72,64
16368,16380,67,64
16380,16392,71,64
16392,16404,74,64
16404,16416,79,64
16416,16428,74,64
16428,16440,71,64
16440,16452,67,64
16452,16464,64,64
16464,16476,61,64
16476,16488,69,64
16488,16500,67,64
16500,16512,65,64
16512,16524,64,64
16524,16536,60,64
16536,16548,66,64
16548,16560,60,64
16560,16572,59,64
16572,16584,67,64
16584,16596,65,64
16596,16608,64,64
16608,16620,62,64
16620,16632,58,64
16632,16644,64,64
16644,16656,58,64
16656,16668,57,64
16668,16680,60,64
16680,16692,62,64
16692,16704,64,64
16704,16716,65,64
16716,16728,57,64
16728,16740,59,64
16740,16752,65,64
16752,16764,60,64
16764,16776,64,64
16776,16788,66,64
16788,16800,68,64
16800,16812,69,64
16812,16824,61,64
16824,16836,63,64
16836,16848,69,64
16848,16860,64,64
16860,16872,67,64
16872,16884,69,64
16884,16896,71,64
16896,16908,72,64
16908,16920,64,64
16920,16932,66,64
16932,16944,72,64
16944,16956,67,64
16956,16968,71,64
16968,16980,73,64
16980,16992,75,64
16992,17004,76,64
17004,17016,68,64
17016,17028,70,64
17028,17040,76,64
17040,17052,71,64
17052,17064,74,64
17064,17076,76,64
17076,17088,78,64
17088,17100,79,64
17100,17112,71,64
17112,17124,73,64
17124,17136,79,64
17136,17148,74,64
17148,17160,78,64
17160,17172,81,64
17172,17184,86,64
17184,17196,81,64
17196,17208,78,64
17208,17220,74,64
17220,17232,71,64
17232,17244,68,64
17244,17256,76,64
17256,17268,74,64
17268,17280,72,64
17280,17292,71,64
17292,17304,67,64
17304,17316,73,64
17316,17328,67,64
17328,17340,66,64
17340,17352,74,64
17352,17364,72,64
17364,17376,71,64
17376,17388,69,64
17388,17400,65,64
17400,17412,71,64
17412,17424,65,64
17424,17436,64,64
17436,17448,67,64
17448,17460,69,64
17460,17472,71,64
17472,17484,72,64
17484,17496,64,64
17496,17508,66,64
17508,17520,72,64
17520,17532,67,64
17532,17544,71,64
17544,17556,64,64
17556,17568,74,64
17568,17580,69,64
17580,17592,72,64
17592,17604,66,64
17604,17616,76,64
17616,17628,71,64
17628,17640,74,64
17640,17652,67,64
17652,17664,77,64
17664,17676,72,64
17676,17688,76,64
17688,17700,69,64
17700,17712,79,64
17712,17724,74,64
17724,17736,78,64
17736,17748,69,64
17748,17760,74,64
17760,17772,66,64
17772,17784,69,64
17784,17796,62,64
17796,17808,72,64
17808,17820,71,64
17820,17832,76,64
17832,17844,74,64
17844,17856,72,64
17856,17868,71,64
17856,17880,79,64
17868,17880,62,64
17880,17892,72,64
17880,17904,81,64
17892,17904,62,64
17904,17916,74,64
17904,17928,83,64
17916,17928,62,64
17928,17940,72,64
17928,17940,81,64
17940,17952,71,64
17940,17952,79,64
17952,17964,69,64
17952,17976,78,64
17964,17976,62,64
17976,17988,71,64
17976,18000,79,64
17988,18000,62,64
18000,18012,72,64
18000,18048,81,64
18012,18024,62,64
18024,18036,71,64
18036,18048,62,64
18048,18060,72,64
18048,18072,76,64
18060,18072,62,64
18072,18084,74,64
18072,18096,78,64
18084,18096,72,64
18096,18108,71,64
18096,18120,79,64
18108,18120,62,64
18120,18132,69,64
18120,18144,78,64
18132,18144,62,64
18144,18156,71,64
18144,18168,79,64
18156,18168,62,64
18168,18180,81,64
18168,18192,73,64
18180,18192,79,64
18192,18204,74,64
18192,18216,78,64
18204,18216,62,64
18216,18228,74,64
18216,18240,79,64
18228,18240,62,64
18240,18252,72,64
18240,18264,81,64
18252,18264,62,64
18264,18276,74,64
18264,18288,81,64
18276,18288,62,64
18288,18300,76,64
18288,18312,79,64
18300,18312,62,64
18312,18324,76,64
18312,18336,81,64
18324,18336,62,64
18336,18348,74,64
18336,18360,83,64
18348,18360,62,64
18360,18372,76,64
18360,18384,83,64
18372,18384,62,64
18384,18396,78,64
18384,18408,81,64
18396,18408,62,64
18408,18420,78,64
18408,18432,83,64
18420,18432,62,64
18432,18444,76,64
18432,18456,84,64
18444,18456,62,64
18456,18468,78,64
18456,18480,84,64
18468,18480,62,64
18480,18492,79,64
18480,18504,83,64
18492,18504,62,64
18504,18516,79,64
18504,18528,84,64
18516,18528,62,64
18528,18540,78,64
18528,18552,86,64
18540,18552,62,64
18552,18564,77,64
18552,18576,84,64
18564,18576,62,64
18576,18588,76,64
18576,18600,88,64
18588,18600,62,64
18600,18612,86,64
18600,18624,78,64
18612,18624,84,64
18624,18636,79,64
18624,18648,83,64
18636,18648,62,64
18648,18660,79,64
18648,18672,85,64
18660,18672,62,64
18672,18684,78,64
18672,18696,86,64
18684,18696,62,64
18696,18708,78,64
18696,18720,86,64
18708,18720,62,64
18720,18732,77,64
18720,18744,81,64
18732,18744,62,64
18744,18756,77,64
18744,18768,83,64
18756,18768,62,64
18768,18780,76,64
18768,18792,84,64
18780,18792,62,64
18792,18804,76,64
18792,18816,83,64
18804,18816,62,64
18816,18828,75,64
18816,18840,84,64
18828,18840,62,64
18840,18852,86,64
18840,18864,75,64
18852,18864,84,64
18864,18876,74,64
18864,18888,83,64
18876,18888,62,64
18888,18900,72,64
18888,18912,81,64
18900,18912,62,64
18912,18924,74,64
18912,18936,83,64
18924,18936,62,64
18936,18948,76,64
18936,18960,83,64
18948,18960,74,64
18960,18972,73,64
18960,18984,83,64
18972,18984,62,64
18984,18996,71,64
18984,19008,83,64
18996,19008,62,64
19008,19020,72,64
19008,19032,81,64
19020,19032,62,64
19032,19044,74,64
19032,19056,81,64
19044,19056,72,64
19056,19068,71,64
19056,19080,81,64
19068,19080,62,64
19080,19092,69,64
19080,19104,81,64
19092,19104,62,64
19104,19116,70,64
19104,19128,79,64
19116,19128,62,64
19128,19140,72,64
19128,19152,79,64
19140,19152,70,64
19152,19164,69,64
19152,19176,79,64
19164,19176,62,64
19176,19188,71,64
19176,19200,79,64
19188,19200,62,64
19200,19212,72,64
19200,19224,78,64
19212,19224,62,64
19224,19236,74,64
19224,19248,78,64
19236,19248,72,64
19248,19296,55,64
19248,19296,62,64
19248,19296,71,64
19248,19296,79,64
19296,19344,62,64
19344,19368,59,64
19368,19380,60,64
19380,19392,62,64
19392,19416,64,64
19416,19440,62,64
19440,19488,60,64
19488,19512,65,64
19512,19536,64,64
19536,19560,62,64
19560,19572,64,64
19572,19584,62,64
19584,19608,60,64
19608,19632,62,64
19632,19656,64,64
19656,19668,62,64
19668,19680,60,64
19680,19704,59,64
19680,19728,67,64
19704,19728,60,64
19728,19752,66,64
19728,19776,62,64
19752,19764,67,64
19764,19776,69,64
19776,19800,71,64
19776,19824,63,64
19800,19824,69,64
19824,19872,64,64
19824,19872,67,64
19872,19896,72,64
19872,19920,64,64
19896,19920,71,64
19920,19944,69,64
19920,19968,65,64
19944,19956,71,64
19956,19968,69,64
19968,19992,67,64
19992,20016,66,64
19992,20016,69,64
20016,20040,67,64
20016,20064,71,64
20040,20064,65,64
20064,20088,64,64
20064,20112,71,64
20064,20112,79,64
20088,20112,62,64
20112,20136,76,64
20112,20160,60,64
20112,20160,64,64
20112,20160,72,64
20136,20148,77,64
20148,20160,79,64
20160,20184,81,64
20160,20208,57,64
20160,20208,64,64
20160,20208,73,64
20184,20208,79,64
20208,20256,62,64
20208,20256,74,64
20208,20256,77,64
20256,20280,82,64
20256,20304,55,64
20256,20304,67,64
20256,20304,74,64
20280,20304,81,64
20304,20328,79,64
20304,20352,60,64
20304,20352,67,64
20304,20352,75,64
20328,20340,81,64
20340,20352,79,64
20352,20376,77,64
20376,20400,60,64
20376,20400,67,64
20376,20400,76,64
20376,20400,79,64
20400,20424,77,64
20400,20448,65,64
20400,20448,81,64
20424,20448,76,64
20448,20472,74,64
20448,20496,66,64
20472,20496,72,64
20496,20520,71,64
20496,20544,67,64
20520,20532,72,64
20532,20544,74,64
20544,20568,76,64
20544,20592,60,64
20544,20592,67,64
20544,20592,79,64
20568,20592,74,64
20592,20640,65,64
20592,20640,72,64
20592,20640,80,64
20640,20664,77,64
20640,20688,62,64
20640,20688,81,64
20664,20688,76,64
20688,20712,74,64
20688,20736,67,64
20688,20736,82,64
20712,20724,76,64
20724,20736,74,64
20736,20760,72,64
20760,20784,74,64
20760,20784,83,64
20784,20808,84,64
20784,20832,60,64
20784,20832,67,64
20784,20832,76,64
20808,20832,82,64
20832,20856,81,64
20832,20880,63,64
20832,20880,72,64
20856,20880,79,64
20880,20904,78,64
20880,20928,62,64
20880,20928,72,64
20904,20916,76,64
20916,20928,74,64
20928,20952,70,64
20928,20976,79,64
20952,20964,69,64
20964,20976,67,64
20976,21000,79,64
20976,21024,64,64
20976,21024,73,64
21000,21012,81,64
21012,21024,82,64
21024,21048,81,64
21048,21072,57,64
21048,21072,64,64
21048,21072,73,64
21048,21072,79,64
21072,21096,74,64
21072,21120,62,64
21072,21120,77,64
21096,21120,72,64
21120,21144,70,64
21120,21168,62,64
21120,21168,77,64
21144,21168,69,64
21168,21192,68,64
21168,21216,62,64
21168,21216,71,64
21168,21216,76,64
21192,21204,66,64
21204,21216,64,64
21216,21240,60,64
21216,21264,69,64
21216,21264,76,64
21240,21252,59,64
21252,21264,57,64
21264,21288,69,64
21264,21312,63,64
21264,21312,78,64
21288,21300,71,64
21300,21312,72,64
21312,21336,71,64
21336,21360,63,64
21336,21360,69,64
21360,21384,64,64
21360,21384,67,64
21384,21408,65,64
21408,21432,64,64
21408,21456,71,64
21408,21456,79,64
21432,21456,62,64
21456,21480,61,64
21456,21504,64,64
21456,21504,69,64
21456,21504,79,64
21480,21492,59,64
21492,21504,57,64
21504,21528,77,64
21504,21552,62,64
21504,21552,69,64
21528,21540,76,64
21540,21552,74,64
21552,21576,62,64
21552,21600,71,64
21552,21600,80,64
21576,21588,64,64
21588,21600,65,64
21600,21624,64,64
21624,21648,62,64
21624,21648,70,64
21624,21648,79,64
21648,21672,79,64
21648,21696,61,64
21648,21696,64,64
21648,21696,69,64
21672,21684,77,64
21684,21696,76,64
21696,21720,69,64
21696,21744,62,64
21696,21744,77,64
21720,21732,71,64
21732,21744,72,64
21744,21768,77,64
21744,21792,59,64
21744,21792,67,64
21744,21792,74,64
21768,21780,76,64
21780,21792,74,64
21792,21816,76,64
21792,21840,60,64
21792,21840,67,64
21792,21840,72,64
21816,21828,77,64
21828,21840,76,64
21840,21864,65,64
21840,21864,74,64
21864,21876,76,64
21864,21888,64,64
21876,21888,77,64
21888,21912,79,64
21888,21936,55,64
21888,21936,62,64
21888,21936,71,64
21912,21936,77,64
21936,21960,67,64
21936,21984,60,64
21936,21984,76,64
21960,21972,69,64
21972,21984,71,64
21984,22008,72,64
21984,22008,81,64
22008,22032,71,64
22008,22032,79,64
22032,22056,78,64
22032,22080,69,64
22056,22068,79,64
22068,22080,78,64
22080,22104,74,64
22080,22104,76,64
22104,22128,72,64
22104,22128,78,64
22128,22152,71,64
22128,22176,79,64
22152,22164,72,64
22164,22176,71,64
22176,22200,69,64
22176,22200,79,64
22200,22224,71,64
22200,22224,77,64
22224,22248,76,64
22224,22272,72,64
22248,22260,77,64
22260,22272,76,64
22272,22296,74,64
22296,22320,70,64
22296,22320,76,64
22320,22344,69,64
22320,22344,77,64
22344,22356,70,64
22344,22356,79,64
22356,22368,69,64
22356,22368,77,64
22368,22392,67,64
22368,22392,76,64
22392,22404,69,64
22392,22404,77,64
22404,22416,67,64
22404,22416,76,64
22416,22440,65,64
22416,22440,74,64
22440,22452,67,64
22440,22452,76,64
22452,22464,65,64
22452,22464,74,64
22464,22488,64,64
22464,22536,72,64
22488,22500,65,64
22500,22512,64,64
22512,22560,62,64
22536,22548,74,64
22548,22560,72,64
22560,22584,71,64
22560,22608,55,64
22560,22608,62,64
22584,22596,69,64
22596,22608,71,64
22608,22632,72,64
22608,22656,56,64
22608,22656,67,64
22632,22644,74,64
22644,22656,75,64
22656,22680,77,64
22656,22704,57,64
22656,22704,65,64
22656,22704,72,64
22680,22704,75,64
22704,22752,58,64
22704,22752,65,64
22704,22752,74,64
22752,22776,79,64
22776,22800,59,64
22776,22800,67,64
22776,22800,74,64
22776,22800,77,64
22800,22824,76,64
22800,22848,60,64
22800,22848,67,64
22800,22848,72,64
22824,22836,77,64
22836,22848,76,64
22848,22872,74,64
22872,22896,61,64
22872,22896,67,64
22872,22896,70,64
22872,22896,76,64
22896,22920,69,64
22896,22944,62,64
22896,22944,65,64
22896,22944,77,64
22920,22932,71,64
22932,22944,72,64
22944,22968,62,64
22944,22968,71,64
22944,22968,77,64
22968,22992,60,64
22968,22992,62,64
22968,22992,69,64
22968,22992,77,64
22992,23016,59,64
22992,23016,67,64
22992,23016,74,64
22992,23016,77,64
23016,23028,60,64
23028,23040,62,64
23040,23064,60,64
23040,23064,67,64
23040,23064,72,64
23040,23064,76,64
23064,23088,58,64
23088,23112,75,64
23088,23136,57,64
23088,23136,66,64
23112,23124,74,64
23124,23136,72,64
23136,23160,81,64
23160,23184,79,64
23184,23208,78,64
23184,23232,60,64
23184,23232,62,64
23184,23232,69,64
23208,23220,79,64
23220,23232,78,64
23232,23244,76,64
23244,23256,79,64
23256,23268,78,64
23268,23280,81,64
23280,23304,79,64
23304,23328,59,64
23304,23328,67,64
23304,23328,74,64
23328,23352,60,64
23328,23352,67,64
23328,23352,72,64
23328,23352,76,64
23352,23376,57,64
23352,23376,66,64
23352,23376,72,64
23376,23412,72,64
23376,23424,55,64
23376,23424,67,64
23412,23424,74,64
23424,23460,71,64
23424,23472,55,64
23424,23472,62,64
23460,23472,72,64
23472,23496,72,64
23496,23508,60,64
23508,23520,62,64
23520,23532,64,64
23532,23544,60,64
23544,23556,65,64
23556,23568,62,64
23568,23580,67,64
23580,23592,64,64
23592,23604,60,64
23604,23616,64,64
23616,23628,67,64
23628,23640,70,64
23640,23652,69,64
23652,23664,67,64
23664,23676,69,64
23676,23688,65,64
23688,23700,62,64
23700,23712,64,64
23712,23724,66,64
23724,23736,62,64
23736,23748,67,64
23748,23760,64,64
23760,23772,69,64
23772,23784,66,64
23784,23796,62,64
23796,23808,66,64
23808,23820,69,64
23820,23832,72,64
23832,23844,71,64
23844,23856,69,64
23856,23868,71,64
23868,23880,74,64
23880,23892,67,64
23892,23904,69,64
23904,23916,71,64
23916,23928,67,64
23928,23940,72,64
23940,23952,69,64
23952,23964,74,64
23964,23976,71,64
23976,23988,67,64
23988,24000,71,64
24000,24012,74,64
24012,24024,77,64
24024,24036,76,64
24036,24048,74,64
24048,24060,76,64
24060,24072,72,64
24072,24084,67,64
24084,24096,72,64
24096,24108,76,64
24108,24120,79,64
24120,24132,78,64
24132,24144,76,64
24144,24156,78,64
24156,24168,72,64
24168,24180,69,64
24180,24192,72,64
24192,24204,78,64
24204,24216,81,64
24216,24228,79,64
24228,24240,78,64
24240,24252,79,64
24252,24264,74,64
24264,24276,71,64
24276,24288,74,64
24288,24300,79,64
24300,24312,83,64
24312,24324,81,64
24324,24336,79,64
24336,24348,81,64
24348,24360,78,64
24360,24372,72,64
24372,24384,78,64
24384,24396,81,64
24396,24408,84,64
24408,24420,83,64
24420,24432,81,64
24432,24444,83,64
24444,24456,79,64
24456,24468,74,64
24468,24480,79,64
24480,24492,83,64
24492,24504,86,64
24504,24516,79,64
24516,24528,83,64
24528,24540,84,64
24540,24552,81,64
24552,24564,79,64
24564,24576,77,64
24576,24588,76,64
24588,24600,84,64
24600,24612,78,64
24612,24624,84,64
24624,24636,83,64
24636,24648,79,64
24648,24660,77,64
24660,24672,76,64
24672,24684,74,64
24684,24696,82,64
24696,24708,76,64
24708,24720,82,64
24720,24732,77,64
24732,24744,82,64
24744,24756,81,64
24756,24768,79,64
24768,24780,81,64
24780,24792,77,64
24792,24804,83,64
24804,24816,77,64
24816,24828,76,64
24828,24840,79,64
24840,24852,81,64
24852,24864,83,64
24864,24876,84,64
24876,24888,81,64
24888,24900,84,64
24900,24912,79,64
24912,24924,77,64
24924,24936,81,64
24936,24948,83,64
24948,24960,84,64
24960,24972,86,64
24972,24984,83,64
24984,24996,86,64
24996,25008,81,64
25008,25020,79,64
25020,25032,83,64
25032,25044,84,64
25044,25056,86,64
25056,25068,88,64
25068,25080,84,64
25080,25092,88,64
25092,25104,82,64
25104,25116,81,64
25116,25128,84,64
25128,25140,86,64
25140,25152,88,64
25152,25164,89,64
25164,25176,86,64
25176,25188,89,64
25188,25200,84,64
25200,25212,83,64
25212,25224,86,64
25224,25236,88,64
25236,25248,89,64
25248,25260,91,64
25260,25272,88,64
25272,25284,91,64
25284,25296,86,64
25296,25308,84,64
25308,25320,81,64
25320,25332,89,64
25332,25344,86,64
25344,25356,83,64
25356,25368,79,64
25368,25380,88,64
25380,25392,84,64
25392,25404,81,64
25404,25416,77,64
25416,25428,86,64
25428,25440,83,64
25440,25452,79,64
25452,25464,76,64
25464,25476,84,64
25476,25488,81,64
25488,25500,77,64
25500,25512,86,64
25512,25524,84,64
25524,25536,83,64
25536,25548,81,64
25548,25560,77,64
25560,25572,83,64
25572,25584,77,64
25584,25596,76,64
25596,25608,84,64
25608,25620,83,64
25620,25632,81,64
25632,25644,79,64
25644,25656,75,64
25656,25668,81,64
25668,25680,75,64
25680,25692,74,64
25692,25704,82,64
25704,25716,81,64
25716,25728,79,64
25728,25740,78,64
25740,25752,74,64
25752,25764,79,64
25764,25776,74,64
25776,25788,72,64
25788,25800,81,64
25800,25812,79,64
25812,25824,77,64
25824,25836,76,64
25836,25848,72,64
25848,25860,78,64
25860,25872,72,64
25872,25884,71,64
25884,25896,79,64
25896,25908,78,64
25908,25920,76,64
25920,25932,74,64
25932,25944,72,64
25944,25956,71,64
25956,25968,69,64
25968,25980,71,64
25980,25992,67,64
25992,26004,74,64
26004,26016,66,64
26016,26028,67,64
26028,26040,62,64
26040,26052,71,64
26052,26064,67,64
26064,26076,74,64
26076,26088,71,64
26088,26100,79,64
26100,26112,74,64
26112,26124,71,64
26124,26136,67,64
26136,26148,62,64
26148,26160,59,64
26160,26172,55,64
26172,26184,69,64
26184,26196,67,64
26196,26208,65,64
26208,26220,64,64
26208,26232,72,64
26220,26232,55,64
26232,26244,65,64
26232,26256,74,64
26244,26256,55,64
26256,26268,67,64
26256,26280,76,64
26268,26280,55,64
26280,26292,65,64
26280,26292,74,64
26292,26304,64,64
26292,26304,72,64
26304,26316,62,64
26304,26328,71,64
26316,26328,55,64
26328,26340,64,64
26328,26352,72,64
26340,26352,55,64
26352,26364,65,64
26352,26400,74,64
26364,26376,55,64
26376,26388,64,64
26388,26400,55,64
26400,26412,65,64
26400,26424,69,64
26412,26424,55,64
26424,26436,67,64
26424,26448,71,64
26436,26448,65,64
26448,26460,64,64
26448,26472,72,64
26460,26472,55,64
26472,26484,62,64
26472,26496,71,64
26484,26496,55,64
26496,26508,64,64
26496,26520,72,64
26508,26520,55,64
26520,26532,74,64
26520,26544,66,64
26532,26544,72,64
26544,26556,67,64
26544,26568,71,64
26556,26568,55,64
26568,26580,67,64
26568,26592,72,64
26580,26592,55,64
26592,26604,65,64
26592,26616,74,64
26604,26616,55,64
26616,26628,67,64
26616,26640,74,64
26628,26640,55,64
26640,26652,69,64
26640,26664,72,64
26652,26664,55,64
26664,26676,69,64
26664,26688,74,64
26676,26688,55,64
26688,26700,67,64
26688,26712,76,64
26700,26712,55,64
26712,26724,69,64
26712,26736,76,64
26724,26736,55,64
26736,26748,71,64
26736,26760,74,64
26748,26760,55,64
26760,26772,70,64
26760,26784,76,64
26772,26784,55,64
26784,26796,69,64
26784,26808,77,64
26796,26808,55,64
26808,26820,71,64
26808,26832,77,64
26820,26832,55,64
26832,26844,72,64
26832,26856,76,64
26844,26856,55,64
26856,26868,72,64
26856,26880,78,64
26868,26880,55,64
26880,26892,71,64
26880,26904,79,64
26892,26904,55,64
26904,26916,70,64
26904,26928,79,64
26916,26928,55,64
26928,26940,69,64
26928,26952,81,64
26940,26952,55,64
26952,26964,79,64
26952,26976,71,64
26964,26976,77,64
26976,26988,72,64
26976,27000,76,64
26988,27000,55,64
27000,27012,72,64
27000,27024,78,64
27012,27024,55,64
27024,27036,71,64
27024,27048,79,64
27036,27048,55,64
27048,27060,71,64
27048,27072,79,64
27060,27072,55,64
27072,27084,70,64
27072,27096,74,64
27084,27096,55,64
27096,27108,70,64
27096,27120,76,64
27108,27120,55,64
27120,27132,69,64
27120,27144,77,64
27132,27144,55,64
27144,27156,69,64
27144,27168,76,64
27156,27168,55,64
27168,27180,68,64
27168,27192,77,64
27180,27192,55,64
27192,27204,79,64
27192,27216,68,64
27204,27216,77,64
27216,27228,67,64
27216,27240,76,64
27228,27240,55,64
27240,27252,65,64
27240,27264,74,64
27252,27264,55,64
27264,27276,67,64
27264,27288,76,64
27276,27288,55,64
27288,27300,69,64
27288,27312,76,64
27300,27312,67,64
27312,27324,65,64
27312,27336,76,64
27324,27336,55,64
27336,27348,64,64
27336,27360,74,64
27348,27360,55,64
27360,27372,65,64
27360,27384,74,64
27372,27384,55,64
27384,27396,67,64
27384,27408,74,64
27396,27408,65,64
27408,27420,64,64
27408,27432,74,64
27420,27432,55,64
27432,27444,62,64
27432,27456,74,64
27444,27456,55,64
27456,27468,64,64
27456,27480,72,64
27468,27480,55,64
27480,27492,67,64
27480,27492,76,64
27492,27504,65,64
27492,27504,74,64
27504,27516,64,64
27504,27528,72,64
27516,27528,55,64
27528,27540,62,64
27528,27552,71,64
27528,27552,79,64
27540,27552,55,64
27552,27564,64,64
27552,27576,72,64
27552,27576,79,64
27564,27576,55,64
27576,27588,63,64
27576,27600,69,64
27576,27600,78,64
27588,27600,55,64
27600,27648,55,64
27600,27648,62,64
27600,27648,71,64
27600,27648,79,64
27648,27696,67,64
27696,27720,69,64
27720,27732,67,64
27732,27744,65,64
27744,27768,64,64
27744,27792,60,64
27768,27792,65,64
27792,27840,59,64
27792,27840,67,64
27840,27864,62,64
27840,27888,58,64
27864,27888,64,64
27888,27912,57,64
27888,27912,65,64
27912,27936,55,64
27912,27936,64,64
27936,27960,57,64
27936,27960,65,64
27960,27972,67,64
27960,27984,59,64
27972,27984,65,64
27984,28008,60,64
27984,28008,64,64
28008,28032,59,64
28008,28032,62,64
28032,28056,64,64
28032,28056,72,64
28032,28080,57,64
28056,28080,66,64
28056,28080,74,64
28080,28104,76,64
28080,28128,55,64
28080,28128,67,64
28104,28116,74,64
28116,28128,72,64
28128,28152,55,64
28128,28152,67,64
28128,28152,71,64
28152,28176,57,64
28152,28176,67,64
28152,28176,72,64
28176,28200,59,64
28176,28224,66,64
28176,28224,74,64
28200,28224,60,64
28224,28248,69,64
28224,28272,62,64
28224,28272,65,64
28248,28272,71,64
28272,28296,64,64
28272,28296,72,64
28272,28320,57,64
28296,28320,62,64
28296,28320,71,64
28320,28344,64,64
28320,28344,72,64
28320,28368,57,64
28344,28356,74,64
28344,28368,66,64
28356,28368,72,64
28368,28416,55,64
28368,28416,67,64
28368,28416,71,64
28416,28440,67,64
28416,28512,76,64
28440,28464,64,64
28464,28488,65,64
28488,28512,64,64
28512,28536,65,64
28512,28584,74,64
28536,28560,62,64
28560,28608,64,64
28584,28608,71,64
28608,28632,76,64
28608,28656,64,64
28608,28656,79,64
28632,28656,74,64
28656,28680,81,64
28656,28704,57,64
28656,28704,64,64
28656,28704,73,64
28680,28692,79,64
28692,28704,77,64
28704,28728,76,64
28704,28752,57,64
28704,28752,69,64
28704,28752,72,64
28728,28752,78,64
28752,28800,55,64
28752,28800,62,64
28752,28800,71,64
28752,28800,79,64
28800,28824,74,64
28800,28848,55,64
28800,28848,70,64
28824,28848,76,64
28848,28872,69,64
28848,28872,77,64
28848,28944,62,64
28872,28896,67,64
28872,28896,76,64
28896,28920,69,64
28896,28920,77,64
28920,28932,79,64
28920,28944,71,64
28932,28944,77,64
28944,28968,76,64
28944,28992,57,64
28944,28992,64,64
28944,28992,72,64
28968,28992,74,64
28992,29016,76,64
28992,29040,69,64
28992,29040,72,64
29016,29040,77,64
29040,29064,79,64
29040,29088,64,64
29040,29088,71,64
29064,29088,77,64
29088,29112,79,64
29088,29136,57,64
29088,29136,64,64
29088,29136,73,64
29112,29124,81,64
29124,29136,79,64
29136,29160,77,64
29136,29184,62,64
29136,29184,74,64
29160,29184,79,64
29184,29208,72,64
29184,29232,65,64
29184,29232,81,64
29208,29232,74,64
29232,29256,76,64
29232,29280,64,64
29232,29280,80,64
29256,29268,74,64
29268,29280,72,64
29280,29304,71,64
29280,29328,79,64
29304,29328,73,64
29328,29376,62,64
29328,29376,74,64
29328,29376,78,64
29376,29400,69,64
29376,29424,77,64
29400,29424,71,64
29424,29448,72,64
29424,29472,69,64
29424,29472,76,64
29448,29472,71,64
29472,29496,72,64
29472,29520,62,64
29472,29520,78,64
29496,29508,74,64
29508,29520,72,64
29520,29568,67,64
29520,29568,71,64
29544,29556,79,64
29556,29568,77,64
29568,29592,76,64
29592,29616,74,64
29616,29640,67,64
29616,29640,73,64
29640,29652,81,64
29652,29664,79,64
29664,29688,81,64
29688,29712,67,64
29688,29712,73,64
29712,29736,65,64
29712,29736,74,64
29736,29748,77,64
29748,29760,76,64
29760,29784,74,64
29784,29808,72,64
29808,29832,65,64
29808,29832,71,64
29832,29844,79,64
29844,29856,77,64
29856,29880,79,64
29880,29904,65,64
29880,29904,71,64
29904,29928,64,64
29904,29928,72,64
29928,29952,65,64
29928,29952,74,64
29952,30000,60,64
29952,30000,67,64
29952,30000,76,64
30000,30024,62,64
30000,30048,66,64
30000,30048,69,64
30024,30036,60,64
30036,30048,59,64
30048,30072,57,64
30048,30096,65,64
30048,30096,74,64
30072,30096,59,64
30096,30144,60,64
30096,30144,64,64
30108,30120,67,64
30120,30132,69,64
30132,30144,71,64
30144,30168,55,64
30144,30192,63,64
30144,30192,72,64
30168,30192,57,64
30192,30216,58,64
30192,30240,62,64
30216,30240,57,64
30240,30264,58,64
30240,30288,64,64
30264,30276,60,64
30276,30288,58,64
30288,30312,65,64
30288,30336,57,64
30312,30336,64,64
30336,30360,65,64
30336,30384,59,64
30360,30372,67,64
30372,30384,65,64
30384,30408,60,64
30384,30432,64,64
30408,30432,59,64
30432,30456,60,64
30432,30480,66,64
30456,30468,62,64
30468,30480,60,64
30480,30504,59,64
30480,30528,67,64
30504,30528,57,64
30528,30576,58,64
30528,30576,67,64
30528,30576,74,64
30576,30600,69,64
30576,30624,57,64
30576,30624,73,64
30600,30612,67,64
30612,30624,65,64
30624,30648,64,64
30624,30672,72,64
30648,30672,66,64
30672,30720,55,64
30672,30720,67,64
30672,30720,71,64
30720,30744,62,64
30720,30768,70,64
30744,30768,64,64
30768,30792,65,64
30768,30816,62,64
30768,30816,69,64
30792,30816,64,64
30816,30840,65,64
30816,30864,55,64
30816,30864,71,64
30840,30852,67,64
30852,30864,65,64
30864,30888,60,64
30864,30888,64,64
30888,30900,72,64
30900,30912,71,64
30912,30936,69,64
30936,30960,67,64
30960,30984,60,64
30960,30984,66,64
30984,30996,74,64
30996,31008,72,64
31008,31032,74,64
31032,31056,60,64
31032,31056,66,64
31056,31080,58,64
31056,31080,67,64
31080,31092,70,64
31092,31104,69,64
31104,31128,67,64
31128,31152,65,64
31152,31176,58,64
31152,31176,64,64
31176,31188,72,64
31188,31200,70,64
31200,31224,72,64
31224,31248,58,64
31224,31248,64,64
31248,31272,57,64
31248,31272,65,64
31272,31284,69,64
31284,31296,67,64
31296,31308,65,64
31308,31320,67,64
31320,31332,64,64
31332,31344,65,64
31344,31356,59,64
31344,31356,62,64
31356,31368,69,64
31368,31380,74,64
31380,31392,72,64
31392,31404,71,64
31404,31416,69,64
31416,31428,67,64
31428,31440,65,64
31440,31464,60,64
31440,31464,64,64
31464,31476,72,64
31476,31488,71,64
31488,31500,69,64
31500,31512,72,64
31512,31524,76,64
31524,31536,67,64
31536,31548,62,64
31536,31548,65,64
31548,31560,69,64
31560,31572,77,64
31572,31584,76,64
31584,31596,74,64
31596,31608,72,64
31608,31620,71,64
31620,31632,69,64
31632,31644,64,64
31632,31644,67,64
31644,31650,69,64
31650,31656,71,64
31656,31668,72,64
31668,31680,74,64
31680,31692,76,64
31692,31704,77,64
31704,31716,79,64
31716,31728,70,64
31728,31740,65,64
31728,31740,69,64
31740,31752,76,64
31752,31764,81,64
31764,31776,79,64
31776,31788,77,64
31788,31794,79,64
31794,31800,81,64
31800,31812,74,64
31812,31818,76,64
31818,31824,77,64
31824,31836,65,64
31824,31836,71,64
31836,31848,74,64
31848,31860,76,64
31860,31872,77,64
31872,31896,64,64
31872,31896,72,64
31872,31920,79,64
31896,31920,62,64
31896,31920,70,64
31920,31932,61,64
31920,31932,64,64
31920,31932,69,64
31932,31944,81,64
31944,31956,79,64
31956,31968,77,64
31968,31992,60,64
31968,31992,64,64
31968,31992,69,64
31968,31992,76,64
31992,32016,78,64
32016,32028,59,64
32016,32028,67,64
32016,32028,74,64
32028,32040,79,64
32040,32052,77,64
32052,32064,76,64
32064,32088,58,64
32064,32088,67,64
32064,32088,74,64
32088,32112,76,64
32112,32136,57,64
32112,32136,65,64
32112,32136,72,64
32112,32136,76,64
32136,32148,77,64
32148,32160,76,64
32160,32184,77,64
32184,32196,79,64
32196,32208,77,64
32208,32232,55,64
32208,32232,67,64
32208,32232,72,64
32208,32232,76,64
32232,32244,67,64
32244,32256,65,64
32256,32280,67,64
32280,32292,69,64
32292,32304,67,64
32304,32328,65,64
32304,32328,69,64
32304,32328,76,64
32328,32340,65,64
32340,32352,64,64
32352,32376,65,64
32352,32376,74,64
32376,32388,67,64
32388,32400,65,64
32400,32424,64,64
32400,32424,74,64
32424,32436,72,64
32436,32448,71,64
32448,32472,69,64
32448,32472,72,64
32472,32484,74,64
32484,32496,76,64
32496,32520,62,64
32496,32520,72,64
32496,32520,77,64
32520,32532,77,64
32532,32544,76,64
32544,32568,67,64
32544,32568,71,64
32544,32568,77,64
32568,32580,79,64
32580,32592,77,64
32592,32616,72,64
32592,32616,76,64
32616,32628,60,64
32628,32640,62,64
32640,32652,64,64
32652,32664,67,64
32664,32676,65,64
32676,32688,69,64
32688,32712,67,64
32688,32712,72,64
32688,32712,76,64
32712,32724,58,64
32724,32736,57,64
32736,32760,58,64
32760,32784,67,64
32760,32784,72,64
32760,32784,76,64
32784,32808,57,64
32784,32808,69,64
32784,32808,72,64
32784,32808,77,64
32808,32820,62,64
32820,32832,64,64
32832,32844,65,64
32844,32856,67,64
32856,32868,65,64
32868,32880,67,64
32880,32904,69,64
32880,32904,74,64
32880,32904,78,64
32904,32916,60,64
32916,32928,59,64
32928,32952,60,64
32952,32976,69,64
32952,32976,72,64
32952,32976,78,64
32976,33000,71,64
32976,33000,79,64
33000,33024,59,64
33024,33048,64,64
33024,33072,71,64
33024,33072,79,64
33048,33072,62,64
33072,33096,61,64
33072,33120,64,64
33072,33120,69,64
33072,33120,79,64
33096,33120,57,64
33120,33144,62,64
33120,33168,69,64
33120,33168,77,64
33144,33168,60,64
33168,33192,59,64
33168,33216,67,64
33168,33216,74,64
33168,33216,77,64
33192,33216,55,64
33216,33240,60,64
33216,33264,67,64
33216,33264,72,64
33216,33264,76,64
33240,33264,58,64
33264,33288,57,64
33264,33288,65,64
33264,33288,72,64
33264,33288,76,64
33288,33300,74,64
33300,33312,76,64
33312,33324,77,64
33324,33336,79,64
33336,33348,81,64
33348,33360,72,64
33360,33372,55,64
33360,33372,65,64
33360,33372,71,64
33372,33384,74,64
33384,33396,72,64
33396,33408,71,64
33408,33420,69,64
33420,33432,67,64
33432,33444,65,64
33444,33456,71,64
33456,33468,79,64
33468,33480,71,64
33480,33492,72,64
33492,33504,64,64
33504,33516,62,64
33516,33528,72,64
33528,33540,77,64
33540,33552,71,64
33552,33564,56,64
33552,33564,63,64
33552,33564,72,64
33564,33576,74,64
33576,33588,75,64
33588,33600,77,64
33600,33612,79,64
33612,33624,81,64
33624,33636,83,64
33636,33648,84,64
33648,33660,78,64
33660,33672,75,64
33672,33684,74,64
33684,33696,72,64
33696,33708,71,64
33708,33720,72,64
33720,33732,66,64
33732,33744,57,64
33744,33756,55,64
33756,33768,60,64
33768,33780,64,64
33780,33792,67,64
33792,33804,72,64
33804,33816,76,64
33816,33828,79,64
33828,33840,76,64
33840,33852,72,64
33852,33864,67,64
33864,33876,64,64
33876,33888,60,64
33888,33912,55,64
33912,33936,65,64
33912,33936,71,64
33936,33984,60,64
33936,33984,64,64
33936,33984,72,64
33936,33984,79,64
