onset,offset,pitch,velocity
0,12,69,64
12,24,62,64
24,36,65,64
36,48,69,64
48,60,74,64
60,72,76,64
72,84,77,64
84,96,76,64
96,102,79,64
102,108,77,64
108,114,76,64
114,120,74,64
120,132,73,64
132,144,69,64
144,156,64,64
156,168,61,64
168,180,64,64
180,192,69,64
192,204,76,64
204,216,77,64
216,228,79,64
228,240,77,64
240,246,81,64
246,252,79,64
252,258,77,64
258,264,76,64
264,276,74,64
276,288,69,64
288,300,65,64
300,312,62,64
312,318,77,64
318,324,76,64
324,330,74,64
330,336,77,64
336,342,82,64
342,348,81,64
348,354,79,64
354,360,77,64
360,366,76,64
366,372,74,64
372,378,72,64
378,384,74,64
384,390,76,64
390,396,74,64
396,402,72,64
402,408,76,64
408,414,81,64
414,420,79,64
420,426,77,64
426,432,76,64
432,438,74,64
438,444,72,64
444,450,70,64
450,456,72,64
456,462,74,64
462,468,72,64
468,474,70,64
474,480,74,64
480,486,79,64
486,492,77,64
492,498,76,64
498,504,74,64
504,510,73,64
510,516,71,64
516,522,69,64
522,528,71,64
528,534,73,64
534,540,71,64
540,546,69,64
546,552,73,64
552,558,76,64
558,564,74,64
564,570,73,64
570,576,71,64
576,582,69,64
582,588,67,64
588,594,65,64
594,600,69,64
600,606,67,64
606,612,65,64
612,618,64,64
618,624,62,64
624,636,57,64
636,648,74,64
648,660,73,64
660,678,62,64
678,684,64,64
684,690,65,64
690,696,67,64
696,702,69,64
702,708,70,64
708,714,72,64
714,720,74,64
720,726,76,64
726,732,77,64
732,738,79,64
738,744,76,64
744,750,72,64
750,756,67,64
756,762,64,64
762,768,67,64
768,774,72,64
774,780,67,64
780,786,64,64
786,792,60,64
792,798,64,64
798,804,67,64
804,810,69,64
810,816,67,64
816,822,65,64
822,828,67,64
828,834,69,64
834,840,70,64
840,846,72,64
846,852,74,64
852,858,76,64
858,864,77,64
864,870,79,64
870,876,81,64
876,882,82,64
882,888,81,64
888,894,82,64
894,900,86,64
900,906,76,64
906,912,79,64
912,918,81,64
918,924,79,64
924,930,81,64
930,936,84,64
936,942,74,64
942,948,77,64
948,954,79,64
954,960,77,64
960,966,79,64
966,972,82,64
972,978,72,64
978,984,76,64
984,990,77,64
990,996,76,64
996,1002,77,64
1002,1008,81,64
1008,1014,79,64
1014,1020,77,64
1020,1026,76,64
1026,1032,74,64
1032,1038,76,64
1038,1044,77,64
1044,1050,76,64
1050,1056,74,64
1056,1062,72,64
1062,1068,70,64
1068,1074,72,64
1074,1080,74,64
1080,1086,72,64
1086,1092,70,64
1092,1098,69,64
1098,1104,70,64
1104,1110,72,64
1110,1116,77,64
1116,1122,72,64
1122,1128,69,64
1128,1134,65,64
1134,1140,67,64
1140,1146,69,64
1146,1152,72,64
1152,1158,69,64
1158,1164,65,64
1164,1170,62,64
1170,1176,63,64
1176,1182,65,64
1182,1188,70,64
1188,1194,65,64
1194,1200,62,64
1200,1206,58,64
1206,1212,60,64
1212,1218,62,64
1218,1224,65,64
1224,1230,62,64
1230,1236,58,64
1236,1242,55,64
1242,1248,58,64
1248,1254,62,64
1254,1260,67,64
1260,1266,70,64
1266,1272,74,64
1272,1278,79,64
1278,1284,82,64
1284,1290,79,64
1290,1296,74,64
1296,1302,70,64
1302,1308,67,64
1308,1314,64,64
1314,1320,67,64
1320,1326,72,64
1326,1332,76,64
1332,1338,79,64
1338,1344,82,64
1344,1350,72,64
1350,1356,70,64
1356,1362,72,64
1362,1368,82,64
1368,1374,72,64
1374,1380,82,64
1380,1386,65,64
1386,1392,69,64
1392,1398,72,64
1398,1404,76,64
1404,1410,77,64
1410,1416,81,64
1416,1422,72,64
1422,1428,70,64
1428,1434,72,64
1434,1440,81,64
1440,1446,72,64
1446,1452,81,64
1452,1458,64,64
1458,1464,67,64
1464,1470,72,64
1470,1476,76,64
1476,1482,79,64
1482,1488,82,64
1488,1494,72,64
1494,1500,70,64
1500,1506,72,64
1506,1512,82,64
1512,1518,72,64
1518,1524,82,64
1524,1530,65,64
1530,1536,69,64
1536,1542,72,64
1542,1548,76,64
1548,1554,77,64
1554,1560,81,64
1560,1566,72,64
1566,1572,70,64
1572,1578,72,64
1578,1584,81,64
1584,1590,72,64
1590,1596,81,64
1596,1602,70,64
1602,1608,74,64
1608,1614,77,64
1614,1620,81,64
1620,1626,82,64
1626,1632,86,64
1632,1638,76,64
1638,1644,74,64
1644,1650,76,64
1650,1656,86,64
1656,1662,76,64
1662,1668,86,64
1668,1674,69,64
1674,1680,72,64
1680,1686,76,64
1686,1692,79,64
1692,1698,81,64
1698,1704,84,64
1704,1710,74,64
1710,1716,72,64
1716,1722,74,64
1722,1728,84,64
1728,1734,74,64
1734,1740,84,64
1740,1746,67,64
1746,1752,70,64
1752,1758,74,64
1758,1764,77,64
1764,1770,79,64
1770,1776,82,64
1776,1782,72,64
1782,1788,70,64
1788,1794,72,64
1794,1800,82,64
1800,1806,72,64
1806,1812,82,64
1812,1818,65,64
1818,1824,69,64
1824,1830,72,64
1830,1836,76,64
1836,1842,77,64
1842,1848,81,64
1848,1854,72,64
1854,1860,70,64
1860,1866,72,64
1866,1872,81,64
1872,1878,77,64
1878,1884,74,64
1884,1890,70,64
1890,1896,69,64
1896,1902,70,64
1902,1908,72,64
1908,1914,74,64
1914,1920,70,64
1920,1926,67,64
1926,1932,65,64
1932,1938,67,64
1938,1944,69,64
1944,1950,70,64
1950,1956,67,64
1956,1962,64,64
1962,1968,62,64
1968,1974,64,64
1974,1980,65,64
1980,1986,67,64
1986,1992,64,64
1992,1998,60,64
1998,2004,64,64
2004,2010,67,64
2010,2016,72,64
2016,2034,76,64
2034,2040,70,64
2040,2046,69,64
2046,2052,67,64
2052,2058,65,64
2058,2064,64,64
2064,2070,62,64
2070,2076,61,64
2076,2082,59,64
2082,2088,57,64
2088,2094,67,64
2094,2100,64,64
2100,2106,65,64
2106,2112,62,64
2112,2118,65,64
2118,2124,69,64
2124,2130,74,64
2130,2136,73,64
2136,2142,74,64
2142,2148,69,64
2148,2154,74,64
2154,2160,77,64
2160,2166,83,64
2166,2172,81,64
2172,2178,83,64
2178,2184,77,64
2184,2190,76,64
2190,2196,74,64
2196,2202,72,64
2202,2208,71,64
2208,2214,69,64
2214,2220,68,64
2220,2226,66,64
2226,2232,64,64
2232,2238,74,64
2238,2244,71,64
2244,2250,72,64
2250,2256,69,64
2256,2262,72,64
2262,2268,76,64
2268,2274,81,64
2274,2280,80,64
2280,2286,81,64
2286,2292,83,64
2292,2298,84,64
2298,2304,80,64
2304,2310,81,64
2310,2316,84,64
2316,2322,77,64
2322,2328,79,64
2328,2334,81,64
2334,2340,76,64
2340,2346,77,64
2346,2352,81,64
2352,2358,74,64
2358,2364,76,64
2364,2370,77,64
2370,2376,73,64
2376,2382,74,64
2382,2388,77,64
2388,2406,68,64
2406,2412,69,64
2412,2418,71,64
2418,2424,72,64
2424,2430,74,64
2430,2436,76,64
2436,2442,77,64
2442,2448,74,64
2448,2454,83,64
2454,2460,74,64
2460,2466,72,64
2466,2472,74,64
2472,2478,76,64
2478,2484,72,64
2484,2490,81,64
2490,2496,72,64
2496,2502,71,64
2502,2508,72,64
2508,2514,74,64
2514,2520,71,64
2520,2526,80,64
2526,2532,71,64
2532,2538,72,64
2538,2544,74,64
2544,2550,76,64
2550,2556,72,64
2556,2562,81,64
2562,2568,72,64
2568,2574,74,64
2574,2580,76,64
2580,2586,77,64
2586,2592,74,64
2592,2598,83,64
2598,2604,74,64
2604,2610,72,64
2610,2616,74,64
2616,2622,76,64
2622,2628,71,64
2628,2634,72,64
2634,2640,69,64
2640,2646,71,64
2646,2652,72,64
2652,2658,74,64
2658,2664,69,64
2664,2670,71,64
2670,2676,68,64
2676,2682,69,64
2682,2688,57,64
2688,2694,61,64
2694,2700,64,64
2700,2718,67,64
2718,2724,64,64
2724,2730,61,64
2730,2736,57,64
2736,2742,61,64
2742,2748,64,64
2748,2754,65,64
2754,2760,62,64
2760,2766,65,64
2766,2772,69,64
2772,2778,74,64
2778,2784,73,64
2784,2790,74,64
2790,2796,69,64
2796,2802,74,64
2802,2808,77,64
2808,2814,81,64
2814,2820,80,64
2820,2826,81,64
2826,2832,76,64
2832,2838,73,64
2838,2844,69,64
2844,2850,64,64
2850,2856,61,64
2856,2880,57,64
2880,2892,76,64
2892,2904,69,64
2904,2916,73,64
2916,2928,76,64
2928,2940,67,64
2940,2952,69,64
2952,2964,70,64
2964,2976,61,64
2976,2982,64,64
2982,2988,62,64
2988,2994,61,64
2994,3000,59,64
3000,3012,57,64
3012,3024,61,64
3024,3036,64,64
3036,3042,67,64
3042,3048,69,64
3048,3054,70,64
3054,3060,69,64
3060,3066,67,64
3066,3072,70,64
3072,3078,76,64
3078,3084,74,64
3084,3090,73,64
3090,3096,71,64
3096,3102,69,64
3102,3108,67,64
3108,3114,65,64
3114,3120,64,64
3120,3126,65,64
3126,3132,67,64
3132,3138,69,64
3138,3144,65,64
3144,3162,62,64
3162,3168,74,64
3168,3174,72,64
3174,3180,70,64
3180,3186,69,64
3186,3192,72,64
3192,3198,70,64
3198,3204,69,64
3204,3210,67,64
3210,3216,66,64
3216,3222,75,64
3222,3228,74,64
3228,3234,72,64
3234,3240,70,64
3240,3246,69,64
3246,3252,67,64
3252,3258,66,64
3258,3264,69,64
3264,3270,67,64
3270,3276,66,64
3276,3282,64,64
3282,3288,62,64
3288,3294,81,64
3294,3300,79,64
3300,3306,78,64
3306,3312,76,64
3312,3318,74,64
3318,3324,72,64
3324,3330,70,64
3330,3336,74,64
3336,3342,72,64
3342,3348,70,64
3348,3354,69,64
3354,3360,67,64
3360,3366,84,64
3366,3372,82,64
3372,3378,81,64
3378,3384,79,64
3384,3390,78,64
3390,3396,76,64
3396,3402,74,64
3402,3408,76,64
3408,3414,78,64
3414,3420,81,64
3420,3426,79,64
3426,3432,77,64
3432,3438,75,64
3438,3444,74,64
3444,3450,72,64
3450,3456,70,64
3456,3462,69,64
3462,3468,67,64
3468,3474,66,64
3474,3480,69,64
3480,3486,74,64
3486,3492,78,64
3492,3498,81,64
3498,3504,84,64
3504,3510,74,64
3510,3516,72,64
3516,3522,74,64
3522,3528,84,64
3528,3534,74,64
3534,3540,84,64
3540,3546,67,64
3546,3552,70,64
3552,3558,74,64
3558,3564,78,64
3564,3570,79,64
3570,3576,82,64
3576,3582,74,64
3582,3588,72,64
3588,3594,74,64
3594,3600,82,64
3600,3606,74,64
3606,3612,82,64
3612,3618,66,64
3618,3624,69,64
3624,3630,74,64
3630,3636,78,64
3636,3642,81,64
3642,3648,84,64
3648,3654,74,64
3654,3660,72,64
3660,3666,74,64
3666,3672,84,64
3672,3678,74,64
3678,3684,84,64
3684,3690,67,64
3690,3696,70,64
3696,3702,74,64
3702,3708,78,64
3708,3714,79,64
3714,3720,82,64
3720,3726,74,64
3726,3732,72,64
3732,3738,74,64
3738,3744,82,64
3744,3750,74,64
3750,3756,82,64
3756,3762,60,64
3762,3768,63,64
3768,3774,67,64
3774,3780,70,64
3780,3786,72,64
3786,3792,75,64
3792,3798,65,64
3798,3804,63,64
3804,3810,65,64
3810,3816,75,64
3816,3822,65,64
3822,3828,75,64
3828,3834,58,64
3834,3840,62,64
3840,3846,65,64
3846,3852,69,64
3852,3858,70,64
3858,3864,74,64
3864,3870,63,64
3870,3876,62,64
3876,3882,63,64
3882,3888,74,64
3888,3894,63,64
3894,3900,74,64
3900,3906,57,64
3906,3912,60,64
3912,3918,63,64
3918,3924,67,64
3924,3930,69,64
3930,3936,72,64
3936,3942,62,64
3942,3948,60,64
3948,3954,62,64
3954,3960,72,64
3960,3966,62,64
3966,3972,72,64
3972,3978,55,64
3978,3984,58,64
3984,3990,62,64
3990,3996,66,64
3996,4002,67,64
4002,4008,70,64
4008,4014,62,64
4014,4020,66,64
4020,4026,67,64
4026,4032,70,64
4032,4038,74,64
4038,4044,79,64
4044,4050,75,64
4050,4056,74,64
4056,4062,75,64
4062,4068,77,64
4068,4074,79,64
4074,4080,75,64
4080,4086,72,64
4086,4092,70,64
4092,4098,72,64
4098,4104,74,64
4104,4110,75,64
4110,4116,72,64
4116,4122,69,64
4122,4128,67,64
4128,4134,69,64
4134,4140,70,64
4140,4146,72,64
4146,4152,69,64
4152,4158,66,64
4158,4164,69,64
4164,4170,74,64
4170,4176,78,64
4176,4182,81,64
4182,4188,84,64
4188,4194,82,64
4194,4200,81,64
4200,4206,84,64
4206,4212,82,64
4212,4218,81,64
4218,4224,79,64
4224,4230,74,64
4230,4236,79,64
4236,4242,78,64
4242,4248,79,64
4248,4254,81,64
4254,4260,78,64
4260,4266,79,64
4266,4272,75,64
4272,4278,74,64
4278,4284,72,64
4284,4290,70,64
4290,4296,69,64
4296,4302,70,64
4302,4308,67,64
4308,4314,69,64
4314,4320,70,64
4320,4326,72,64
4326,4332,74,64
4332,4338,76,64
4338,4344,77,64
4344,4350,79,64
4350,4356,76,64
4356,4362,70,64
4362,4368,76,64
4368,4374,60,64
4374,4380,64,64
4380,4386,67,64
4386,4392,70,64
4392,4398,69,64
4398,4404,67,64
4404,4410,69,64
4410,4416,70,64
4416,4422,72,64
4422,4428,69,64
4428,4434,65,64
4434,4440,69,64
4440,4446,58,64
4446,4452,62,64
4452,4458,65,64
4458,4464,69,64
4464,4470,65,64
4470,4476,62,64
4476,4482,73,64
4482,4488,74,64
4488,4494,76,64
4494,4500,73,64
4500,4506,67,64
4506,4512,73,64
4512,4518,57,64
4518,4524,61,64
4524,4530,64,64
4530,4536,67,64
4536,4542,65,64
4542,4548,64,64
4548,4554,65,64
4554,4560,62,64
4560,4566,65,64
4566,4572,69,64
4572,4578,74,64
4578,4584,73,64
4584,4590,74,64
4590,4596,69,64
4596,4602,74,64
4602,4608,77,64
4608,4614,81,64
4614,4620,72,64
4620,4626,70,64
4626,4632,81,64
4632,4638,79,64
4638,4644,77,64
4644,4650,76,64
4650,4656,74,64
4656,4662,72,64
4662,4668,74,64
4668,4674,76,64
4674,4680,77,64
4680,4686,79,64
4686,4692,70,64
4692,4698,69,64
4698,4704,79,64
4704,4710,77,64
4710,4716,76,64
4716,4722,74,64
4722,4728,72,64
4728,4734,70,64
4734,4740,72,64
4740,4746,74,64
4746,4752,76,64
4752,4758,77,64
4758,4764,69,64
4764,4770,67,64
4770,4776,77,64
4776,4782,76,64
4782,4788,74,64
4788,4794,73,64
4794,4800,71,64
4800,4806,69,64
4806,4812,71,64
4812,4818,73,64
4818,4824,74,64
4824,4830,76,64
4830,4836,67,64
4836,4842,65,64
4842,4848,69,64
4848,4854,74,64
4854,4860,69,64
4860,4866,65,64
4866,4872,69,64
4872,4878,62,64
4878,4884,65,64
4884,4890,69,64
4890,4896,65,64
4896,4902,62,64
4902,4908,65,64
4908,4914,58,64
4914,4920,65,64
4920,4926,74,64
4926,4932,77,64
4932,4938,76,64
4938,4944,73,64
4944,4950,57,64
4950,4956,65,64
4956,4962,74,64
4962,4968,77,64
4968,4974,76,64
4974,4980,73,64
4980,4986,55,64
4986,4992,65,64
4992,4998,74,64
4998,5004,77,64
5004,5010,76,64
5010,5016,74,64
5016,5022,82,64
5022,5028,81,64
5028,5034,79,64
5034,5040,77,64
5040,5046,76,64
5046,5052,74,64
5052,5058,73,64
5058,5064,76,64
5064,5070,77,64
5070,5076,79,64
5076,5082,81,64
5082,5088,76,64
5088,5094,74,64
5094,5100,73,64
5100,5106,71,64
5106,5112,69,64
5112,5118,76,64
5118,5124,67,64
5124,5130,65,64
5130,5136,67,64
5136,5142,69,64
5142,5148,65,64
5148,5154,74,64
5154,5160,65,64
5160,5166,64,64
5166,5172,65,64
5172,5178,67,64
5178,5184,64,64
5184,5190,72,64
5190,5196,64,64
5196,5202,62,64
5202,5208,64,64
5208,5214,65,64
5214,5220,62,64
5220,5226,70,64
5226,5232,62,64
5232,5238,60,64
5238,5244,62,64
5244,5250,64,64
5250,5256,60,64
5256,5262,69,64
5262,5268,60,64
5268,5274,58,64
5274,5280,60,64
5280,5286,62,64
5286,5292,58,64
5292,5298,67,64
5298,5304,62,64
5304,5310,67,64
5310,5316,69,64
5316,5322,70,64
5322,5328,67,64
5328,5334,75,64
5334,5340,67,64
5340,5346,57,64
5346,5352,59,64
5352,5358,61,64
5358,5364,57,64
5364,5370,67,64
5370,5376,57,64
5376,5382,67,64
5382,5388,69,64
5388,5394,70,64
5394,5400,67,64
5400,5406,73,64
5406,5412,67,64
5412,5418,65,64
5418,5424,67,64
5424,5430,69,64
5430,5436,65,64
5436,5442,74,64
5442,5448,69,64
5448,5454,74,64
5454,5460,76,64
5460,5466,77,64
5466,5472,74,64
5472,5478,83,64
5478,5484,74,64
5484,5490,68,64
5490,5496,69,64
5496,5502,71,64
5502,5508,73,64
5508,5514,74,64
5514,5520,76,64
5520,5526,77,64
5526,5532,76,64
5532,5538,74,64
5538,5544,73,64
5544,5550,74,64
5550,5556,68,64
5556,5562,69,64
5562,5568,73,64
5568,5574,74,64
5574,5580,76,64
5580,5586,77,64
5586,5592,79,64
5592,5598,81,64
5598,5604,82,64
5604,5610,76,64
5610,5616,77,64
5616,5622,79,64
5622,5628,73,64
5628,5634,74,64
5634,5640,62,64
5640,5646,65,64
5646,5652,69,64
5652,5658,74,64
5658,5664,76,64
5664,5670,77,64
5670,5676,74,64
5676,5682,77,64
5682,5688,81,64
5688,5694,86,64
5694,5700,85,64
5700,5706,86,64
5706,5712,81,64
5712,5718,77,64
5718,5724,74,64
5724,5730,69,64
5730,5736,65,64
5736,5760,62,64
