onset,offset,pitch,velocity
0,18,60,64
18,24,62,64
24,42,60,64
42,48,62,64
48,66,60,64
66,72,64,64
72,90,62,64
72,96,60,64
90,96,64,64
96,114,62,64
96,120,60,64
114,120,64,64
120,138,62,64
120,144,60,64
138,144,64,64
144,162,74,64
144,168,59,64
144,168,65,64
162,168,76,64
168,186,74,64
168,192,59,64
168,192,62,64
186,192,76,64
192,210,74,64
192,216,59,64
192,216,67,64
210,216,77,64
216,234,76,64
216,240,58,64
216,240,67,64
216,240,74,64
234,240,77,64
240,258,76,64
240,264,58,64
240,264,67,64
240,264,74,64
258,264,77,64
264,282,76,64
264,288,58,64
264,288,67,64
264,288,74,64
282,288,77,64
288,300,79,64
288,312,57,64
288,312,64,64
288,312,73,64
300,312,82,64
312,324,82,64
312,336,57,64
312,336,64,64
312,336,73,64
324,336,81,64
336,348,81,64
336,360,57,64
336,360,64,64
336,360,73,64
348,360,79,64
360,378,69,64
360,384,62,64
360,384,77,64
378,384,71,64
384,402,69,64
384,408,62,64
384,408,77,64
402,408,71,64
408,426,69,64
408,432,62,64
408,432,77,64
426,432,71,64
432,444,72,64
432,456,62,64
432,456,78,64
444,456,75,64
456,468,75,64
456,480,62,64
456,480,78,64
468,480,74,64
480,492,74,64
480,504,62,64
480,504,78,64
492,504,72,64
504,522,78,64
504,528,63,64
504,528,71,64
522,528,79,64
528,546,78,64
528,552,63,64
528,552,71,64
546,552,79,64
552,570,78,64
552,576,63,64
552,576,71,64
570,576,79,64
576,588,81,64
576,600,63,64
576,600,72,64
588,600,84,64
600,612,84,64
600,624,63,64
600,624,69,64
612,624,83,64
624,636,83,64
624,648,63,64
624,648,71,64
636,648,81,64
648,666,81,64
648,672,63,64
648,672,72,64
666,672,78,64
672,690,79,64
672,696,64,64
672,696,73,64
690,696,82,64
696,702,81,64
696,720,63,64
696,720,72,64
702,708,79,64
708,714,81,64
714,720,78,64
720,732,70,64
720,732,79,64
720,744,62,64
732,744,72,64
732,744,81,64
744,780,78,64
744,792,62,64
744,792,69,64
780,792,79,64
792,801,70,64
801,804,69,64
804,807,67,64
807,810,66,64
810,816,67,64
816,843,61,64
843,846,62,64
846,849,64,64
849,852,66,64
852,855,67,64
855,858,69,64
858,860,70,64
860,862,72,64
861,864,69,64
864,882,67,64
864,882,70,64
882,888,66,64
882,888,69,64
888,906,67,64
888,906,70,64
906,912,66,64
906,912,69,64
912,924,70,64
912,936,67,64
924,936,75,64
936,954,74,64
954,957,75,64
957,960,72,64
960,984,70,64
960,1008,62,64
984,1002,69,64
1002,1008,67,64
1008,1026,55,64
1008,1032,67,64
1026,1032,57,64
1032,1050,55,64
1032,1056,67,64
1050,1056,57,64
1056,1074,55,64
1056,1080,67,64
1074,1080,59,64
1080,1098,67,64
1080,1104,57,64
1080,1104,72,64
1098,1104,69,64
1104,1122,67,64
1104,1128,57,64
1104,1128,72,64
1122,1128,69,64
1128,1146,67,64
1128,1152,57,64
1128,1152,72,64
1146,1152,69,64
1152,1170,72,64
1152,1176,57,64
1152,1176,65,64
1170,1176,74,64
1176,1194,72,64
1176,1200,57,64
1176,1200,65,64
1194,1200,74,64
1200,1218,72,64
1200,1224,57,64
1200,1224,65,64
1218,1224,76,64
1224,1242,57,64
1224,1248,66,64
1224,1248,74,64
1242,1248,59,64
1248,1266,57,64
1248,1272,66,64
1248,1272,74,64
1266,1272,59,64
1272,1290,57,64
1272,1296,66,64
1272,1296,74,64
1290,1296,60,64
1296,1314,74,64
1296,1320,59,64
1296,1320,67,64
1314,1320,76,64
1320,1338,74,64
1320,1344,59,64
1320,1344,67,64
1338,1344,76,64
1344,1362,74,64
1344,1368,59,64
1344,1368,67,64
1362,1368,77,64
1368,1386,74,64
1368,1392,60,64
1368,1392,67,64
1368,1392,76,64
1386,1392,72,64
1392,1410,74,64
1392,1416,60,64
1392,1416,67,64
1392,1416,76,64
1410,1416,72,64
1416,1434,74,64
1416,1440,60,64
1416,1440,67,64
1416,1440,76,64
1434,1440,71,64
1440,1458,76,64
1440,1464,58,64
1440,1464,67,64
1440,1464,72,64
1458,1464,77,64
1464,1482,76,64
1464,1488,58,64
1464,1488,67,64
1464,1488,72,64
1482,1488,77,64
1488,1506,76,64
1488,1512,58,64
1488,1512,67,64
1488,1512,72,64
1506,1512,79,64
1512,1530,69,64
1512,1530,72,64
1512,1536,57,64
1512,1536,77,64
1530,1536,67,64
1530,1536,70,64
1536,1554,69,64
1536,1554,72,64
1554,1560,67,64
1554,1560,70,64
1560,1578,69,64
1560,1578,72,64
1560,1584,62,64
1560,1584,77,64
1578,1584,65,64
1578,1584,69,64
1584,1602,67,64
1584,1602,70,64
1584,1608,55,64
1584,1608,77,64
1602,1608,65,64
1602,1608,69,64
1608,1626,67,64
1608,1626,70,64
1626,1632,65,64
1626,1632,69,64
1632,1650,76,64
1632,1656,55,64
1632,1656,67,64
1632,1656,70,64
1650,1656,77,64
1656,1674,79,64
1656,1680,61,64
1656,1680,64,64
1656,1680,69,64
1674,1680,77,64
1680,1698,79,64
1698,1704,77,64
1704,1722,79,64
1704,1728,61,64
1704,1728,69,64
1704,1728,76,64
1722,1728,76,64
1728,1746,74,64
1728,1746,77,64
1728,1752,62,64
1728,1752,69,64
1746,1752,73,64
1746,1752,76,64
1752,1770,74,64
1752,1770,77,64
1770,1776,73,64
1770,1776,76,64
1776,1794,74,64
1776,1800,77,64
1794,1800,72,64
1800,1818,77,64
1800,1824,55,64
1800,1824,62,64
1800,1824,71,64
1818,1824,76,64
1824,1842,77,64
1824,1848,55,64
1824,1848,62,64
1824,1848,71,64
1842,1848,81,64
1848,1866,79,64
1848,1872,55,64
1848,1872,62,64
1848,1872,71,64
1866,1872,77,64
1872,1890,64,64
1872,1890,72,64
1872,1896,60,64
1872,1896,76,64
1890,1896,62,64
1890,1896,71,64
1896,1914,64,64
1896,1914,72,64
1914,1920,65,64
1914,1920,74,64
1920,1938,72,64
1920,1944,60,64
1920,1944,67,64
1920,1944,76,64
1938,1944,70,64
1944,1962,65,64
1944,1968,69,64
1944,1968,76,64
1962,1968,64,64
1968,1986,65,64
1968,1986,74,64
1986,1992,64,64
1986,1992,72,64
1986,1992,76,64
1992,2010,62,64
1992,2010,71,64
1992,2016,77,64
2010,2016,60,64
2010,2016,69,64
2016,2034,77,64
2016,2040,59,64
2016,2040,67,64
2016,2040,74,64
2034,2040,76,64
2040,2058,77,64
2058,2064,74,64
2064,2082,60,64
2064,2082,67,64
2064,2082,72,64
2064,2082,76,64
2082,2088,59,64
2082,2088,67,64
2088,2106,66,64
2088,2112,57,64
2106,2112,69,64
2112,2130,72,64
2112,2136,57,64
2112,2136,66,64
2130,2136,76,64
2136,2154,74,64
2136,2160,57,64
2136,2160,66,64
2154,2160,72,64
2160,2178,71,64
2160,2184,55,64
2160,2184,67,64
2178,2184,72,64
2184,2202,65,64
2184,2208,55,64
2184,2208,74,64
2202,2208,64,64
2208,2226,65,64
2208,2232,55,64
2208,2232,74,64
2226,2232,62,64
2232,2250,74,64
2232,2256,55,64
2232,2256,64,64
2250,2256,72,64
2256,2274,64,64
2256,2274,74,64
2256,2280,55,64
2274,2280,62,64
2274,2280,71,64
2280,2298,64,64
2280,2298,72,64
2280,2304,55,64
2298,2304,65,64
2298,2304,74,64
2304,2322,76,64
2304,2328,55,64
2304,2328,67,64
2304,2328,72,64
2322,2328,78,64
2328,2346,78,64
2328,2352,55,64
2328,2352,69,64
2328,2352,72,64
2346,2352,79,64
2352,2370,76,64
2352,2376,55,64
2352,2376,69,64
2352,2376,72,64
2370,2376,78,64
2376,2400,55,64
2376,2400,62,64
2376,2400,71,64
2376,2400,79,64
2400,2418,76,64
2400,2472,79,64
2418,2424,74,64
2424,2442,76,64
2442,2448,74,64
2448,2466,73,64
2466,2472,69,64
2472,2490,74,64
2472,2544,77,64
2490,2496,72,64
2496,2514,74,64
2514,2520,72,64
2520,2538,71,64
2538,2544,67,64
2544,2562,72,64
2544,2592,76,64
2562,2568,70,64
2568,2586,69,64
2586,2592,67,64
2592,2610,76,64
2592,2616,67,64
2592,2616,81,64
2610,2616,74,64
2616,2634,76,64
2634,2640,72,64
2634,2640,81,64
2640,2658,74,64
2640,2658,83,64
2658,2664,76,64
2658,2664,84,64
2664,2700,71,64
2664,2700,79,64
2700,2712,64,64
2700,2712,72,64
2700,2712,81,64
2712,2718,79,64
2712,2736,62,64
2712,2736,71,64
2718,2736,77,64
2736,2745,76,64
2736,2748,60,64
2736,2748,67,64
2736,2748,72,64
2745,2748,77,64
2748,2751,79,64
2751,2754,81,64
2754,2757,78,64
2757,2760,79,64
2760,2778,72,64
2760,2784,67,64
2778,2780,71,64
2780,2782,69,64
2782,2784,71,64
2784,2802,71,64
2784,2808,55,64
2784,2808,62,64
2802,2808,72,64
2808,2832,56,64
2808,2838,62,64
2808,2838,72,64
2838,2844,63,64
2844,2850,65,64
2850,2856,67,64
2856,2862,69,64
2862,2868,71,64
2868,2871,72,64
2871,2874,74,64
2874,2877,75,64
2877,2880,71,64
2880,2910,57,64
2880,2910,66,64
2880,2910,72,64
2910,2916,55,64
2916,2922,57,64
2922,2928,59,64
2928,2934,60,64
2934,2940,62,64
2940,2946,63,64
2946,2949,65,64
2949,2952,67,64
2952,2982,59,64
2952,2982,68,64
2952,2982,74,64
2982,2988,75,64
2988,2994,74,64
2994,3000,72,64
3000,3003,71,64
3003,3006,69,64
3006,3009,67,64
3009,3012,65,64
3012,3015,63,64
3015,3018,65,64
3018,3024,62,64
3024,3042,60,64
3024,3042,63,64
3042,3048,59,64
3042,3048,62,64
3048,3066,60,64
3048,3066,63,64
3066,3072,59,64
3066,3072,62,64
3072,3090,60,64
3072,3090,63,64
3090,3096,62,64
3090,3096,71,64
3096,3108,63,64
3096,3108,72,64
3108,3114,75,64
3108,3120,57,64
3108,3120,66,64
3114,3120,74,64
3120,3144,55,64
3120,3144,67,64
3120,3144,72,64
3144,3162,71,64
3144,3168,62,64
3162,3168,72,64
3168,3180,60,64
3168,3180,64,64
3168,3180,72,64
3180,3192,64,64
3192,3204,69,64
3204,3216,60,64
3216,3228,59,64
3228,3240,69,64
3240,3246,74,64
3246,3252,71,64
3252,3258,69,64
3258,3264,67,64
3264,3270,57,64
3270,3276,67,64
3276,3282,72,64
3282,3288,64,64
3288,3294,66,64
3294,3300,72,64
3300,3306,81,64
3306,3312,72,64
3312,3384,55,64
3312,3384,67,64
3312,3384,71,64
