onset,offset,pitch,velocity
12,18,76,64
18,24,75,64
24,36,76,64
36,48,64,64
48,60,69,64
60,72,72,64
72,84,71,64
84,96,74,64
96,108,72,64
108,114,69,64
114,120,68,64
120,132,69,64
132,144,57,64
144,156,64,64
156,168,67,64
156,168,76,64
168,180,66,64
168,180,76,64
180,192,69,64
180,192,75,64
192,204,76,64
192,216,68,64
204,210,71,64
210,216,69,64
216,228,71,64
216,240,67,64
228,240,73,64
240,252,74,64
240,264,66,64
252,258,69,64
258,264,68,64
264,276,69,64
264,288,65,64
276,288,71,64
288,312,64,64
288,312,72,64
300,306,81,64
306,312,80,64
312,324,81,64
324,336,66,64
324,336,69,64
336,348,76,64
336,360,67,64
336,360,71,64
348,360,79,64
360,372,78,64
360,384,63,64
360,384,71,64
372,384,81,64
384,396,71,64
384,408,64,64
384,408,79,64
396,402,76,64
402,408,75,64
408,420,76,64
420,432,64,64
420,432,71,64
420,432,79,64
432,444,79,64
432,456,69,64
432,456,73,64
444,450,81,64
450,456,79,64
456,468,81,64
468,480,69,64
468,480,73,64
468,480,76,64
480,492,69,64
480,504,62,64
480,504,77,64
492,498,74,64
498,504,73,64
504,516,74,64
516,528,62,64
516,528,69,64
516,528,77,64
528,540,77,64
528,552,67,64
528,552,71,64
540,546,79,64
546,552,77,64
552,564,79,64
564,576,67,64
564,576,74,64
576,582,60,64
576,582,67,64
576,582,72,64
576,582,76,64
582,588,77,64
588,594,76,64
594,600,74,64
600,606,72,64
606,612,71,64
612,618,69,64
618,624,67,64
624,636,60,64
624,636,66,64
636,642,74,64
642,648,72,64
648,660,74,64
660,672,60,64
660,672,66,64
672,678,68,64
672,684,59,64
678,684,69,64
684,690,71,64
690,696,72,64
696,708,74,64
708,720,57,64
708,720,65,64
720,732,56,64
720,732,64,64
732,738,74,64
738,744,72,64
744,750,74,64
750,756,77,64
756,762,76,64
762,768,74,64
768,774,57,64
768,774,64,64
768,774,72,64
774,780,74,64
780,786,72,64
786,792,74,64
792,810,74,64
792,816,65,64
810,813,72,64
813,816,74,64
816,828,64,64
816,828,76,64
828,834,71,64
834,840,69,64
840,852,71,64
840,864,79,64
852,864,73,64
864,876,74,64
864,888,78,64
876,882,69,64
882,888,67,64
888,900,69,64
888,912,77,64
900,912,71,64
912,924,72,64
912,936,76,64
924,930,72,64
930,936,71,64
936,948,72,64
936,960,81,64
948,960,74,64
960,972,76,64
960,984,80,64
972,978,71,64
978,984,69,64
984,996,71,64
984,1008,79,64
996,1008,73,64
1008,1020,74,64
1008,1032,78,64
1020,1026,74,64
1026,1032,73,64
1032,1044,74,64
1032,1056,83,64
1044,1056,76,64
1056,1068,78,64
1056,1080,82,64
1068,1074,73,64
1074,1080,71,64
1080,1092,73,64
1080,1104,81,64
1092,1104,75,64
1104,1116,80,64
1104,1128,76,64
1116,1122,79,64
1122,1128,78,64
1128,1140,79,64
1128,1152,76,64
1140,1152,81,64
1152,1164,83,64
1152,1176,75,64
1164,1170,78,64
1170,1176,76,64
1176,1188,78,64
1176,1200,74,64
1188,1200,80,64
1200,1212,81,64
1200,1224,72,64
1212,1218,81,64
1218,1224,80,64
1224,1236,81,64
1224,1248,77,64
1236,1248,83,64
1248,1260,84,64
1248,1272,76,64
1260,1266,79,64
1266,1272,78,64
1272,1284,79,64
1272,1296,75,64
1284,1296,81,64
1296,1308,83,64
1296,1320,74,64
1308,1314,83,64
1314,1320,81,64
1320,1332,83,64
1320,1344,79,64
1332,1344,84,64
1344,1356,86,64
1344,1368,78,64
1356,1362,81,64
1362,1368,80,64
1368,1380,81,64
1368,1392,77,64
1380,1392,83,64
1392,1404,76,64
1392,1404,84,64
1404,1410,81,64
1410,1416,80,64
1416,1428,81,64
1428,1440,69,64
1440,1452,62,64
1452,1458,84,64
1458,1464,81,64
1464,1470,79,64
1470,1476,78,64
1476,1482,76,64
1482,1488,74,64
1488,1500,67,64
1488,1500,74,64
1488,1500,83,64
1500,1506,79,64
1506,1512,78,64
1512,1524,79,64
1524,1536,67,64
1536,1548,60,64
1548,1554,82,64
1554,1560,79,64
1560,1566,77,64
1566,1572,76,64
1572,1578,74,64
1578,1584,72,64
1584,1596,65,64
1584,1596,72,64
1584,1596,81,64
1596,1602,81,64
1602,1608,77,64
1608,1614,76,64
1614,1620,74,64
1620,1626,73,64
1626,1632,71,64
1632,1644,64,64
1632,1644,73,64
1632,1644,79,64
1644,1650,79,64
1650,1656,76,64
1656,1662,74,64
1662,1668,73,64
1668,1674,71,64
1674,1680,69,64
1680,1686,62,64
1680,1686,74,64
1680,1686,77,64
1686,1692,79,64
1692,1698,77,64
1698,1704,76,64
1704,1710,74,64
1710,1716,72,64
1716,1722,70,64
1722,1728,69,64
1728,1740,62,64
1728,1740,70,64
1728,1740,77,64
1740,1746,82,64
1746,1752,77,64
1752,1758,76,64
1758,1764,74,64
1764,1770,72,64
1770,1776,71,64
1776,1788,62,64
1776,1788,71,64
1776,1788,80,64
1788,1794,72,64
1788,1794,81,64
1794,1800,71,64
1794,1800,80,64
1800,1812,72,64
1800,1812,81,64
1812,1824,63,64
1812,1824,72,64
1812,1824,81,64
1824,1836,64,64
1824,1836,71,64
1824,1836,81,64
1836,1842,76,64
1842,1848,75,64
1848,1860,76,64
1860,1872,64,64
1860,1872,74,64
1860,1872,80,64
1872,1884,57,64
1872,1884,64,64
1872,1884,73,64
1872,1884,79,64
1884,1896,61,64
1896,1908,59,64
1896,1908,69,64
1896,1908,74,64
1896,1908,77,64
1908,1920,62,64
1920,1932,61,64
1920,1932,67,64
1920,1932,69,64
1920,1932,76,64
1932,1938,67,64
1938,1944,65,64
1944,1956,67,64
1956,1968,61,64
1956,1968,64,64
1956,1968,69,64
1956,1968,76,64
1968,1980,62,64
1968,1980,65,64
1968,1980,69,64
1968,1980,76,64
1980,1986,74,64
1986,1992,73,64
1992,2004,74,64
2004,2016,62,64
2004,2016,65,64
2004,2016,70,64
2016,2028,62,64
2016,2028,68,64
2028,2040,59,64
2028,2040,68,64
2028,2040,74,64
2028,2040,77,64
2040,2052,60,64
2040,2052,69,64
2040,2052,72,64
2040,2052,76,64
2052,2064,62,64
2052,2064,74,64
2064,2076,64,64
2064,2082,72,64
2076,2088,62,64
2082,2088,74,64
2088,2106,71,64
2088,2112,64,64
2106,2112,69,64
2112,2118,57,64
2112,2118,69,64
2118,2124,76,64
2124,2130,72,64
2130,2136,69,64
2136,2142,68,64
2142,2148,69,64
2148,2154,69,64
2154,2160,69,64
2160,2166,64,64
2166,2172,69,64
2172,2178,65,64
2172,2184,62,64
2178,2184,69,64
2184,2190,64,64
2184,2196,60,64
2190,2196,69,64
2196,2202,62,64
2196,2208,59,64
2202,2208,69,64
2208,2214,57,64
2208,2214,64,64
2208,2214,69,64
2214,2220,76,64
2220,2226,72,64
2226,2232,69,64
2232,2238,68,64
2238,2244,69,64
2244,2250,69,64
2250,2256,69,64
2256,2262,64,64
2262,2268,69,64
2268,2274,65,64
2268,2280,62,64
2274,2280,69,64
2280,2286,64,64
2280,2292,60,64
2286,2292,69,64
2292,2298,62,64
2292,2304,59,64
2298,2304,69,64
2304,2310,57,64
2304,2310,64,64
2310,2316,69,64
2316,2322,68,64
2322,2328,69,64
2328,2334,71,64
2334,2340,69,64
2340,2346,68,64
2346,2352,69,64
2352,2358,59,64
2352,2358,62,64
2358,2364,69,64
2364,2370,68,64
2370,2376,69,64
2376,2382,71,64
2382,2388,69,64
2388,2394,68,64
2394,2400,69,64
2400,2406,60,64
2400,2406,64,64
2406,2412,76,64
2412,2418,72,64
2418,2424,69,64
2424,2430,68,64
2430,2436,69,64
2436,2442,69,64
2442,2448,69,64
2448,2454,63,64
2454,2460,78,64
2460,2466,72,64
2466,2472,69,64
2472,2478,68,64
2478,2484,69,64
2484,2490,63,64
2490,2496,69,64
2496,2502,64,64
2502,2508,83,64
2508,2514,79,64
2514,2520,76,64
2520,2526,75,64
2526,2532,76,64
2532,2538,76,64
2538,2544,76,64
2544,2550,71,64
2550,2556,76,64
2556,2562,72,64
2556,2568,69,64
2562,2568,76,64
2568,2574,71,64
2568,2580,67,64
2574,2580,76,64
2580,2586,69,64
2580,2592,66,64
2586,2592,76,64
2592,2598,64,64
2592,2598,71,64
2592,2598,76,64
2598,2604,83,64
2604,2610,79,64
2610,2616,76,64
2616,2622,75,64
2622,2628,76,64
2628,2634,76,64
2634,2640,76,64
2640,2646,71,64
2646,2652,76,64
2652,2658,72,64
2652,2664,69,64
2658,2664,76,64
2664,2670,71,64
2664,2676,67,64
2670,2676,76,64
2676,2682,69,64
2676,2688,66,64
2682,2688,76,64
2688,2694,64,64
2688,2694,71,64
2694,2700,76,64
2700,2706,75,64
2706,2712,76,64
2712,2718,78,64
2718,2724,76,64
2724,2730,75,64
2730,2736,76,64
2736,2742,66,64
2736,2742,69,64
2742,2748,76,64
2748,2754,75,64
2754,2760,76,64
2760,2766,78,64
2766,2772,76,64
2772,2778,75,64
2778,2784,76,64
2784,2790,67,64
2784,2790,71,64
2790,2796,83,64
2796,2802,79,64
2802,2808,76,64
2808,2814,75,64
2814,2820,76,64
2820,2826,76,64
2826,2832,76,64
2832,2838,72,64
2832,2844,69,64
2838,2844,76,64
2844,2850,71,64
2844,2856,67,64
2850,2856,76,64
2856,2862,69,64
2856,2868,66,64
2862,2868,81,64
2868,2874,72,64
2868,2880,64,64
2874,2880,81,64
2880,2892,63,64
2880,2892,71,64
2892,2898,83,64
2898,2904,81,64
2904,2916,83,64
2916,2928,69,64
2916,2928,71,64
2928,2940,67,64
2928,2940,76,64
2940,2952,79,64
2952,2964,71,64
2952,2964,78,64
2964,2976,81,64
2976,2988,64,64
2976,2988,71,64
2976,2988,79,64
2988,2994,76,64
2994,3000,75,64
3000,3012,76,64
3012,3024,64,64
3012,3024,71,64
3012,3024,79,64
3024,3036,69,64
3024,3048,78,64
3036,3048,72,64
3048,3060,71,64
3048,3072,77,64
3060,3072,74,64
3072,3084,72,64
3072,3084,76,64
3084,3090,81,64
3090,3096,80,64
3096,3102,81,64
3102,3108,78,64
3108,3114,79,64
3108,3120,69,64
3114,3120,76,64
3120,3132,69,64
3120,3132,75,64
3132,3138,71,64
3138,3144,69,64
3144,3150,71,64
3150,3156,67,64
3156,3162,69,64
3156,3168,78,64
3162,3168,66,64
3168,3180,67,64
3168,3180,71,64
3180,3186,76,64
3186,3192,75,64
3192,3198,76,64
3198,3204,72,64
3204,3210,74,64
3204,3216,68,64
3210,3216,71,64
3216,3222,69,64
3216,3228,72,64
3222,3228,64,64
3228,3234,67,64
3228,3240,71,64
3234,3240,64,64
3240,3246,66,64
3240,3252,69,64
3246,3252,64,64
3252,3258,63,64
3258,3264,64,64
3264,3276,63,64
3264,3276,69,64
3276,3282,78,64
3282,3288,76,64
3288,3300,78,64
3300,3312,63,64
3300,3312,66,64
3312,3324,64,64
3312,3324,67,64
3312,3324,71,64
3324,3336,74,64
3336,3348,57,64
3336,3348,67,64
3336,3348,73,64
3348,3360,76,64
3360,3372,57,64
3360,3372,66,64
3360,3372,75,64
3372,3384,78,64
3384,3396,55,64
3384,3396,64,64
3384,3396,71,64
3384,3396,83,64
3396,3408,57,64
3396,3408,64,64
3396,3408,72,64
3396,3408,81,64
3408,3420,59,64
3408,3420,64,64
3408,3420,71,64
3408,3426,79,64
3426,3432,81,64
3432,3444,63,64
3432,3444,69,64
3432,3450,78,64
3450,3456,76,64
3456,3468,64,64
3456,3468,76,64
3468,3474,67,64
3474,3480,66,64
3480,3492,67,64
3480,3504,76,64
3492,3504,69,64
3504,3516,71,64
3504,3528,75,64
3516,3522,66,64
3522,3528,64,64
3528,3540,66,64
3528,3552,74,64
3540,3552,68,64
3552,3564,73,64
3552,3576,69,64
3564,3570,72,64
3570,3576,71,64
3576,3588,72,64
3576,3600,69,64
3588,3600,74,64
3600,3612,76,64
3600,3624,68,64
3612,3618,71,64
3618,3624,69,64
3624,3636,71,64
3624,3648,67,64
3636,3648,73,64
3648,3660,66,64
3648,3672,74,64
3660,3666,65,64
3666,3672,64,64
3672,3684,65,64
3672,3696,74,64
3684,3696,67,64
3696,3708,69,64
3696,3720,73,64
3708,3714,64,64
3714,3720,62,64
3720,3732,64,64
3720,3744,72,64
3732,3744,66,64
3744,3756,71,64
3744,3768,67,64
3756,3762,71,64
3762,3768,69,64
3768,3780,71,64
3768,3792,67,64
3780,3792,72,64
3792,3804,74,64
3792,3816,66,64
3804,3810,69,64
3810,3816,67,64
3816,3828,69,64
3816,3840,65,64
3828,3840,71,64
3840,3852,64,64
3840,3852,72,64
3852,3858,79,64
3858,3864,77,64
3864,3876,79,64
3876,3888,60,64
3876,3888,67,64
3888,3900,57,64
3888,3900,67,64
3888,3900,72,64
3900,3912,76,64
3912,3924,59,64
3912,3924,67,64
3912,3924,74,64
3924,3936,77,64
3936,3948,60,64
3936,3948,67,64
3936,3948,72,64
3936,3948,76,64
3948,3960,79,64
3960,3972,62,64
3960,3972,71,64
3960,3972,77,64
3972,3984,81,64
3984,3996,64,64
3984,3996,72,64
3984,3996,79,64
3996,4002,72,64
4002,4008,71,64
4008,4014,72,64
4014,4020,74,64
4020,4026,76,64
4026,4029,77,64
4029,4032,79,64
4032,4044,65,64
4032,4044,72,64
4032,4044,81,64
4044,4050,77,64
4050,4056,76,64
4056,4068,77,64
4068,4080,72,64
4080,4092,66,64
4080,4092,74,64
4080,4092,81,64
4092,4098,74,64
4098,4104,76,64
4104,4110,78,64
4110,4116,79,64
4116,4122,81,64
4122,4125,83,64
4125,4128,84,64
4128,4140,67,64
4128,4140,74,64
4128,4140,83,64
4140,4146,79,64
4146,4152,78,64
4152,4164,79,64
4164,4176,74,64
4176,4188,72,64
4188,4200,76,64
4188,4200,84,64
4200,4212,74,64
4200,4212,84,64
4212,4224,77,64
4212,4224,83,64
4224,4236,76,64
4224,4236,84,64
4236,4242,84,64
4242,4248,83,64
4248,4254,84,64
4254,4260,79,64
4260,4266,76,64
4266,4272,72,64
4272,4284,79,64
4284,4296,79,64
4284,4296,83,64
4296,4308,79,64
4296,4308,81,64
4308,4320,78,64
4308,4320,84,64
4320,4332,79,64
4320,4332,83,64
4332,4338,67,64
4338,4344,66,64
4344,4356,67,64
4356,4368,55,64
4356,4368,67,64
4356,4368,74,64
4356,4368,83,64
4368,4380,60,64
4368,4380,67,64
4368,4380,76,64
4368,4380,84,64
4380,4392,64,64
4392,4404,62,64
4392,4404,77,64
4392,4404,83,64
4404,4416,65,64
4416,4428,64,64
4416,4428,72,64
4416,4428,82,64
4428,4440,67,64
4440,4452,65,64
4440,4452,72,64
4440,4452,81,64
4452,4464,69,64
4464,4470,71,64
4464,4476,67,64
4470,4476,72,64
4476,4482,74,64
4482,4488,76,64
4488,4494,77,64
4494,4500,79,64
4500,4506,81,64
4506,4512,77,64
4512,4518,79,64
4512,4524,64,64
4512,4524,72,64
4518,4524,81,64
4524,4530,79,64
4530,4536,77,64
4536,4542,76,64
4542,4548,74,64
4548,4554,72,64
4554,4560,76,64
4560,4566,69,64
4560,4572,65,64
4566,4572,71,64
4572,4578,72,64
4578,4584,74,64
4584,4590,76,64
4590,4596,77,64
4596,4602,79,64
4602,4608,76,64
4608,4614,77,64
4608,4620,62,64
4608,4620,69,64
4614,4620,79,64
4620,4626,77,64
4626,4632,76,64
4632,4638,74,64
4638,4644,72,64
4644,4650,71,64
4650,4656,74,64
4656,4662,67,64
4656,4668,59,64
4662,4668,69,64
4668,4674,71,64
4674,4680,72,64
4680,4686,74,64
4686,4692,76,64
4692,4698,77,64
4698,4704,74,64
4704,4716,60,64
4704,4716,67,64
4704,4716,72,64
4704,4716,76,64
4716,4722,58,64
4722,4728,57,64
4728,4740,58,64
4740,4752,55,64
4740,4752,67,64
4740,4752,72,64
4740,4752,76,64
4752,4764,57,64
4752,4764,65,64
4752,4764,72,64
4752,4764,76,64
4764,4770,81,64
4770,4776,79,64
4776,4782,77,64
4782,4788,76,64
4788,4794,74,64
4794,4800,77,64
4800,4806,55,64
4800,4806,65,64
4800,4806,71,64
4806,4812,74,64
4812,4818,72,64
4818,4824,71,64
4824,4830,69,64
4830,4836,67,64
4836,4842,65,64
4842,4848,74,64
4848,4854,64,64
4854,4860,72,64
4860,4866,62,64
4866,4872,60,64
4872,4878,55,64
4878,4884,62,64
4884,4890,72,64
4890,4896,71,64
4896,4908,60,64
4896,4908,64,64
4896,4908,72,64
4908,4914,76,64
4914,4920,74,64
4920,4932,76,64
4932,4944,60,64
4932,4944,64,64
4944,4950,69,64
4944,4956,60,64
4944,4956,66,64
4950,4956,71,64
4956,4962,72,64
4962,4968,69,64
4968,4974,71,64
4968,4980,59,64
4968,4980,68,64
4974,4980,72,64
4980,4986,74,64
4986,4992,71,64
4992,4998,72,64
4992,5004,57,64
4992,5004,69,64
4998,5004,74,64
5004,5010,76,64
5010,5016,72,64
5016,5022,74,64
5016,5028,59,64
5016,5028,69,64
5022,5028,76,64
5028,5034,77,64
5034,5040,74,64
5040,5052,59,64
5040,5052,64,64
5040,5052,69,64
5040,5052,76,64
5052,5058,81,64
5058,5064,80,64
5064,5070,81,64
5070,5076,78,64
5076,5082,79,64
5082,5088,76,64
5088,5100,60,64
5088,5100,62,64
5088,5100,69,64
5088,5100,78,64
5100,5106,62,64
5106,5112,60,64
5112,5118,62,64
5118,5124,59,64
5124,5130,60,64
5130,5136,57,64
5136,5148,59,64
5136,5148,64,64
5136,5148,74,64
5136,5148,80,64
5148,5154,76,64
5154,5160,74,64
5160,5166,76,64
5166,5172,72,64
5172,5178,74,64
5178,5184,71,64
5184,5196,57,64
5184,5196,64,64
5184,5196,72,64
5184,5196,81,64
5196,5202,69,64
5202,5208,67,64
5208,5214,69,64
5214,5220,65,64
5220,5226,67,64
5226,5232,64,64
5232,5238,74,64
5232,5244,57,64
5232,5244,65,64
5232,5244,83,64
5238,5244,76,64
5244,5250,77,64
5250,5256,76,64
5256,5262,74,64
5262,5268,72,64
5268,5274,71,64
5274,5280,69,64
5280,5286,68,64
5286,5292,71,64
5292,5298,76,64
5298,5304,80,64
5304,5310,83,64
5310,5316,84,64
5316,5322,86,64
5322,5328,83,64
5328,5334,84,64
5334,5340,81,64
5340,5346,77,64
5346,5352,76,64
5352,5358,77,64
5358,5364,72,64
5364,5370,69,64
5370,5376,72,64
5376,5382,83,64
5382,5388,77,64
5388,5394,74,64
5394,5400,72,64
5400,5406,74,64
5406,5412,71,64
5412,5418,68,64
5418,5424,71,64
5424,5430,72,64
5430,5436,76,64
5436,5442,81,64
5442,5448,80,64
5448,5454,81,64
5454,5460,76,64
5460,5466,72,64
5466,5472,76,64
5472,5478,79,64
5478,5484,76,64
5484,5490,73,64
5490,5496,71,64
5496,5502,73,64
5502,5508,69,64
5508,5514,64,64
5514,5520,67,64
5520,5526,65,64
5526,5532,74,64
5532,5538,69,64
5538,5544,67,64
5544,5550,69,64
5550,5556,65,64
5556,5562,62,64
5562,5568,65,64
5568,5574,59,64
5574,5580,62,64
5580,5586,68,64
5586,5592,66,64
5592,5598,68,64
5598,5604,71,64
5604,5610,74,64
5610,5616,72,64
5616,5622,74,64
5622,5628,77,64
5628,5634,83,64
5634,5640,81,64
5640,5646,83,64
5646,5652,77,64
5652,5658,76,64
5658,5664,74,64
5664,5670,72,64
5670,5676,71,64
5676,5682,69,64
5682,5688,68,64
5688,5694,69,64
5694,5700,72,64
5700,5706,77,64
5706,5712,72,64
5712,5718,71,64
5718,5724,69,64
5724,5730,67,64
5730,5736,66,64
5736,5742,67,64
5742,5748,71,64
5748,5754,76,64
5754,5760,71,64
5760,5766,69,64
5766,5772,67,64
5772,5778,65,64
5778,5784,64,64
5784,5790,65,64
5790,5796,69,64
5796,5802,74,64
5802,5808,69,64
5808,5814,68,64
5814,5820,69,64
5820,5826,71,64
5826,5832,72,64
5832,5838,74,64
5838,5844,76,64
5844,5850,77,64
5850,5856,76,64
5856,5862,77,64
5862,5868,76,64
5868,5874,74,64
5874,5880,73,64
5880,5886,74,64
5886,5892,80,64
5892,5898,81,64
5898,5904,83,64
5904,5910,72,64
5910,5916,71,64
5916,5922,69,64
5922,5928,71,64
5928,5934,65,64
5934,5940,76,64
5940,5946,81,64
5946,5952,74,64
5952,5964,76,64
5952,5964,80,64
5964,5970,64,64
5970,5976,65,64
5976,5988,64,64
5988,6000,76,64
5988,6000,79,64
6000,6012,69,64
6000,6024,72,64
6012,6024,65,64
6024,6036,67,64
6024,6048,73,64
6036,6048,64,64
6048,6060,65,64
6048,6060,74,64
6060,6066,62,64
6066,6072,64,64
6072,6084,62,64
6084,6096,74,64
6084,6096,77,64
6096,6108,67,64
6096,6120,71,64
6108,6120,64,64
6120,6132,65,64
6120,6156,74,64
6132,6144,62,64
6144,6168,64,64
6156,6162,72,64
6162,6168,74,64
6168,6180,72,64
6180,6192,84,64
6180,6204,76,64
6192,6216,77,64
6204,6228,74,64
6216,6240,76,64
6228,6240,72,64
6240,6252,65,64
6240,6252,74,64
6252,6258,72,64
6252,6264,67,64
6258,6264,71,64
6264,6276,69,64
6264,6276,72,64
6276,6288,65,64
6276,6288,72,64
6276,6288,81,64
6288,6300,67,64
6288,6300,72,64
6288,6300,76,64
6300,6306,74,64
6306,6312,72,64
6312,6324,55,64
6312,6324,65,64
6312,6324,74,64
6324,6336,62,64
6324,6336,71,64
6336,6348,60,64
6336,6348,64,64
6336,6348,72,64
6348,6360,76,64
6360,6372,81,64
6372,6384,72,64
6384,6396,63,64
6384,6396,71,64
6396,6402,81,64
6402,6408,79,64
6408,6420,81,64
6420,6432,69,64
6420,6432,75,64
6432,6444,67,64
6432,6444,76,64
6444,6456,66,64
6444,6456,75,64
6444,6456,84,64
6456,6468,67,64
6456,6468,76,64
6456,6468,83,64
6468,6480,69,64
6468,6480,81,64
6480,6492,71,64
6480,6498,79,64
6492,6504,69,64
6498,6504,81,64
6504,6522,78,64
6504,6528,71,64
6522,6528,76,64
6528,6540,64,64
6528,6540,76,64
6540,6546,83,64
6546,6552,81,64
6552,6564,83,64
6564,6576,71,64
6576,6588,76,64
6588,6600,76,64
6588,6600,79,64
6600,6612,76,64
6600,6612,78,64
6612,6624,75,64
6612,6624,81,64
6624,6636,76,64
6624,6636,79,64
6636,6642,64,64
6642,6648,66,64
6648,6660,64,64
6660,6672,76,64
6672,6684,71,64
6684,6696,67,64
6684,6696,76,64
6696,6708,69,64
6696,6708,76,64
6708,6720,66,64
6708,6720,75,64
6720,6732,67,64
6720,6732,76,64
6732,6738,71,64
6738,6744,72,64
6744,6756,71,64
6756,6768,83,64
6768,6780,68,64
6768,6780,76,64
6780,6792,72,64
6792,6804,64,64
6792,6804,74,64
6804,6816,71,64
6816,6828,69,64
6816,6828,72,64
6828,6834,76,64
6834,6840,75,64
6840,6852,76,64
6852,6864,62,64
6852,6864,64,64
6864,6876,60,64
6864,6876,64,64
6864,6876,69,64
6876,6888,72,64
6876,6888,81,64
6888,6900,64,64
6888,6900,71,64
6888,6900,81,64
6900,6912,74,64
6900,6912,80,64
6912,6924,57,64
6912,6924,64,64
6912,6924,72,64
6912,6924,81,64
6924,6930,69,64
6924,6930,72,64
6930,6936,68,64
6930,6936,71,64
6936,6948,69,64
6936,6948,72,64
6948,6960,57,64
6948,6960,64,64
6948,6960,72,64
6960,6972,62,64
6960,6972,66,64
6960,6972,72,64
6972,6978,74,64
6978,6984,72,64
6984,6996,74,64
6996,7008,62,64
6996,7008,66,64
6996,7008,69,64
7008,7020,55,64
7008,7020,62,64
7008,7020,71,64
7020,7026,67,64
7026,7032,66,64
7032,7044,67,64
7044,7056,55,64
7044,7056,62,64
7044,7056,70,64
7056,7068,60,64
7056,7068,64,64
7056,7068,70,64
7068,7074,72,64
7074,7080,70,64
7080,7092,72,64
7092,7104,60,64
7092,7104,67,64
7104,7116,65,64
7104,7116,69,64
7116,7122,77,64
7122,7128,79,64
7128,7140,69,64
7128,7140,77,64
7140,7152,76,64
7152,7164,70,64
7152,7164,74,64
7164,7170,79,64
7170,7176,81,64
7176,7188,71,64
7176,7188,79,64
7188,7200,77,64
7200,7212,72,64
7200,7212,76,64
7212,7218,72,64
7218,7224,74,64
7224,7236,64,64
7224,7236,72,64
7224,7236,79,64
7236,7248,71,64
7248,7260,65,64
7248,7260,69,64
7248,7260,81,64
7260,7266,74,64
7266,7272,76,64
7272,7284,66,64
7272,7284,74,64
7272,7284,81,64
7284,7296,72,64
7296,7308,67,64
7296,7308,71,64
7308,7314,79,64
7314,7320,81,64
7320,7332,64,64
7320,7332,71,64
7320,7332,79,64
7332,7344,77,64
7344,7356,69,64
7344,7356,72,64
7344,7356,76,64
7356,7362,81,64
7362,7368,82,64
7368,7380,57,64
7368,7380,64,64
7368,7380,73,64
7368,7380,81,64
7380,7392,79,64
7392,7404,62,64
7392,7404,69,64
7392,7404,77,64
7404,7410,74,64
7410,7416,76,64
7416,7428,59,64
7416,7428,62,64
7416,7428,74,64
7416,7428,78,64
7428,7440,72,64
7440,7452,64,64
7440,7452,71,64
7440,7452,79,64
7452,7458,76,64
7458,7464,77,64
7464,7476,64,64
7464,7476,76,64
7464,7476,80,64
7476,7488,74,64
7488,7500,65,64
7488,7500,72,64
7488,7500,81,64
7500,7512,74,64
7500,7512,83,64
7512,7524,76,64
7512,7524,84,64
7524,7536,64,64
7536,7548,62,64
7548,7560,76,64
7548,7560,84,64
7560,7572,74,64
7560,7572,83,64
7572,7584,72,64
7572,7584,81,64
7584,7596,64,64
7584,7596,71,64
7584,7596,80,64
7596,7608,72,64
7596,7608,81,64
7608,7620,74,64
7608,7620,83,64
7620,7632,64,64
7632,7644,57,64
7644,7656,74,64
7644,7656,83,64
7656,7668,72,64
7656,7668,81,64
7668,7680,71,64
7668,7680,79,64
7680,7692,62,64
7680,7692,69,64
7680,7692,78,64
7692,7704,71,64
7692,7704,79,64
7704,7716,72,64
7704,7716,81,64
7716,7728,62,64
7728,7740,55,64
7740,7746,71,64
7740,7746,79,64
7746,7752,69,64
7746,7752,78,64
7752,7764,71,64
7752,7764,79,64
7764,7776,65,64
7764,7776,71,64
7776,7788,64,64
7776,7788,72,64
7788,7800,76,64
7800,7812,59,64
7800,7812,67,64
7800,7812,74,64
7812,7824,77,64
7824,7836,60,64
7824,7836,67,64
7824,7836,72,64
7824,7836,76,64
7836,7848,69,64
7836,7848,78,64
7848,7860,70,64
7848,7860,79,64
7860,7872,61,64
7872,7884,62,64
7872,7884,69,64
7872,7890,79,64
7884,7896,71,64
7890,7896,81,64
7896,7914,78,64
7896,7920,72,64
7914,7920,79,64
7920,7932,55,64
7920,7932,62,64
7920,7932,71,64
7920,7932,79,64
7932,7938,83,64
7938,7944,81,64
7944,7956,83,64
7956,7968,55,64
7956,7968,67,64
7956,7968,71,64
7968,7974,73,64
7968,7980,57,64
7968,7980,67,64
7974,7980,76,64
7980,7986,78,64
7986,7992,79,64
7992,7998,81,64
7998,8004,71,64
8004,8010,69,64
8010,8016,67,64
8016,8028,57,64
8016,8028,66,64
8028,8034,81,64
8034,8040,79,64
8040,8052,81,64
8052,8064,73,64
8064,8070,59,64
8064,8070,66,64
8064,8070,75,64
8070,8076,76,64
8076,8082,75,64
8082,8088,76,64
8088,8094,78,64
8094,8100,79,64
8100,8106,69,64
8106,8112,71,64
8112,8118,72,64
8118,8124,74,64
8124,8130,66,64
8130,8136,67,64
8136,8142,69,64
8142,8148,71,64
8148,8154,63,64
8154,8160,64,64
8160,8166,66,64
8166,8172,67,64
8172,8178,69,64
8178,8184,71,64
8184,8190,73,64
8190,8196,75,64
8196,8202,76,64
8202,8208,78,64
8208,8214,79,64
8208,8220,64,64
8208,8220,71,64
8214,8220,81,64
8220,8226,79,64
8226,8232,81,64
8232,8244,83,64
8244,8256,62,64
8244,8256,71,64
8256,8268,60,64
8256,8268,64,64
8256,8268,71,64
8256,8268,76,64
8268,8274,72,64
8274,8280,71,64
8280,8286,69,64
8286,8292,67,64
8292,8298,66,64
8298,8304,64,64
8304,8316,59,64
8304,8316,66,64
8304,8316,75,64
8316,8322,71,64
8322,8328,72,64
8328,8340,71,64
8340,8352,57,64
8340,8352,66,64
8340,8352,75,64
8340,8352,83,64
8352,8364,55,64
8352,8364,64,64
8352,8364,71,64
8352,8364,76,64
8364,8376,72,64
8376,8388,56,64
8376,8388,64,64
8376,8388,74,64
8388,8400,71,64
8400,8412,57,64
8400,8412,69,64
8400,8424,72,64
8412,8424,66,64
8424,8436,67,64
8424,8448,71,64
8436,8448,64,64
8448,8460,69,64
8448,8484,66,64
8460,8472,71,64
8472,8508,72,64
8484,8496,64,64
8496,8508,63,64
8508,8514,78,64
8514,8520,72,64
8520,8526,71,64
8526,8532,69,64
8532,8538,67,64
8538,8544,66,64
8544,8550,67,64
8550,8556,63,64
8556,8562,64,64
8562,8568,67,64
8568,8574,72,64
8574,8580,64,64
8580,8586,62,64
8586,8592,71,64
8592,8598,69,64
8598,8604,64,64
8604,8610,60,64
8610,8616,64,64
8616,8622,69,64
8622,8628,60,64
8628,8634,59,64
8634,8640,67,64
8640,8646,65,64
8646,8652,60,64
8652,8658,57,64
8658,8664,60,64
8664,8670,65,64
8670,8676,57,64
8676,8682,55,64
8682,8688,64,64
8688,8694,63,64
8694,8700,66,64
8700,8706,69,64
8706,8712,72,64
8712,8718,78,64
8718,8724,71,64
8724,8730,69,64
8730,8736,78,64
8736,8742,67,64
8742,8748,66,64
8748,8754,67,64
8754,8760,71,64
8760,8766,76,64
8766,8772,69,64
8772,8778,68,64
8778,8784,74,64
8784,8790,72,64
8790,8796,71,64
8796,8802,72,64
8802,8808,76,64
8808,8814,77,64
8814,8820,69,64
8820,8826,67,64
8826,8832,76,64
8832,8838,75,64
8838,8844,76,64
8844,8850,78,64
8850,8856,79,64
8856,8862,81,64
8862,8868,66,64
8868,8874,64,64
8874,8880,72,64
8880,8886,63,64
8886,8892,64,64
8892,8898,66,64
8898,8904,67,64
8904,8910,69,64
8910,8916,59,64
8916,8922,63,64
8922,8928,66,64
8928,8934,67,64
8934,8940,72,64
8940,8946,71,64
8946,8952,75,64
8952,8958,76,64
8958,8964,79,64
8964,8970,78,64
8970,8976,82,64
8976,8988,83,64
8988,9000,67,64
8988,9000,76,64
9000,9006,79,64
9000,9012,69,64
9006,9012,78,64
9012,9018,76,64
9012,9024,71,64
9018,9024,75,64
9024,9036,64,64
9024,9036,76,64
9036,9042,67,64
9042,9048,69,64
9048,9060,67,64
9060,9072,64,64
9060,9072,71,64
9060,9072,79,64
9072,9084,57,64
9072,9084,64,64
9072,9084,73,64
9072,9084,79,64
9084,9096,69,64
9096,9108,70,64
9096,9120,73,64
9108,9120,67,64
9120,9126,65,64
9120,9132,74,64
9126,9132,64,64
9132,9138,62,64
9138,9144,64,64
9144,9150,65,64
9150,9156,69,64
9156,9162,74,64
9162,9168,77,64
9168,9180,55,64
9168,9180,62,64
9168,9180,71,64
9168,9180,77,64
9180,9192,67,64
9192,9204,68,64
9192,9216,71,64
9204,9216,65,64
9216,9222,64,64
9216,9228,72,64
9222,9228,62,64
9228,9234,60,64
9234,9240,62,64
9240,9246,64,64
9246,9252,66,64
9252,9258,68,64
9258,9264,69,64
9264,9270,64,64
9264,9276,56,64
9264,9276,71,64
9270,9276,65,64
9276,9282,64,64
9282,9288,60,64
9288,9294,62,64
9294,9300,64,64
9300,9306,62,64
9306,9312,59,64
9312,9318,60,64
9318,9324,62,64
9324,9330,60,64
9330,9336,57,64
9336,9342,64,64
9342,9348,65,64
9348,9354,64,64
9354,9360,60,64
9360,9366,69,64
9366,9372,71,64
9372,9378,69,64
9378,9384,64,64
9384,9390,72,64
9390,9396,74,64
9396,9402,72,64
9402,9408,69,64
9408,9420,64,64
9408,9420,70,64
9420,9426,79,64
9426,9432,77,64
9432,9444,79,64
9444,9456,60,64
9444,9456,67,64
9456,9462,69,64
9456,9468,65,64
9462,9468,72,64
9468,9474,70,64
9474,9480,69,64
9480,9486,70,64
9480,9492,62,64
9480,9492,67,64
9486,9492,74,64
9492,9498,72,64
9498,9504,70,64
9504,9510,72,64
9504,9516,57,64
9504,9516,65,64
9510,9516,75,64
9516,9522,74,64
9522,9528,72,64
9528,9534,74,64
9528,9540,58,64
9528,9540,65,64
9534,9540,77,64
9540,9546,76,64
9546,9552,74,64
9552,9564,67,64
9552,9564,72,64
9552,9564,76,64
9564,9570,58,64
9570,9576,57,64
9576,9588,58,64
9588,9600,67,64
9588,9600,72,64
9588,9600,76,64
9600,9612,69,64
9600,9612,72,64
9600,9612,77,64
9612,9618,57,64
9618,9624,55,64
9624,9636,57,64
9636,9648,69,64
9636,9648,72,64
9636,9648,77,64
9648,9660,64,64
9648,9660,72,64
9648,9660,79,64
9660,9666,70,64
9666,9672,69,64
9672,9684,70,64
9684,9696,64,64
9684,9696,72,64
9684,9696,79,64
9696,9708,65,64
9696,9708,72,64
9696,9708,81,64
9708,9720,76,64
9708,9720,79,64
9720,9732,74,64
9720,9732,82,64
9732,9744,72,64
9732,9744,81,64
9744,9756,70,64
9744,9756,79,64
9756,9762,77,64
9762,9768,76,64
9768,9774,77,64
9768,9780,71,64
9774,9780,81,64
9780,9786,79,64
9786,9792,77,64
9792,9798,76,64
9792,9804,72,64
9798,9804,79,64
9804,9810,77,64
9810,9816,76,64
9816,9822,74,64
9822,9828,72,64
9828,9834,70,64
9834,9840,69,64
9840,9846,70,64
9846,9852,69,64
9852,9858,70,64
9858,9864,62,64
9864,9870,65,64
9870,9876,70,64
9876,9882,74,64
9882,9888,77,64
9888,9894,82,64
9894,9900,81,64
9900,9906,82,64
9906,9912,77,64
9912,9918,74,64
9918,9924,70,64
9924,9930,65,64
9930,9936,62,64
9936,9942,72,64
9942,9948,70,64
9948,9954,72,64
9954,9960,64,64
9960,9966,67,64
9966,9972,72,64
9972,9978,76,64
9978,9984,79,64
9984,9990,82,64
9990,9996,81,64
9996,10002,82,64
10002,10008,79,64
10008,10014,76,64
10014,10020,72,64
10020,10026,67,64
10026,10032,64,64
10032,10038,72,64
10038,10044,70,64
10044,10050,72,64
10050,10056,65,64
10056,10062,69,64
10062,10068,72,64
10068,10074,77,64
10074,10080,79,64
10080,10086,81,64
10086,10092,79,64
10092,10098,81,64
10098,10104,77,64
10104,10110,72,64
10110,10116,69,64
10116,10122,65,64
10122,10128,69,64
10128,10134,72,64
10134,10140,70,64
10140,10146,72,64
10146,10152,66,64
10152,10158,69,64
10158,10164,72,64
10164,10170,75,64
10170,10176,78,64
10176,10182,81,64
10182,10188,79,64
10188,10194,81,64
10194,10200,75,64
10200,10206,72,64
10206,10212,69,64
10212,10218,66,64
10218,10224,69,64
10224,10230,70,64
10230,10236,69,64
10236,10242,70,64
10242,10248,67,64
10248,10254,70,64
10254,10260,74,64
10260,10266,78,64
10266,10272,81,64
10272,10278,79,64
10278,10284,78,64
10284,10290,79,64
10290,10296,74,64
10296,10302,70,64
10302,10308,67,64
10308,10314,63,64
10314,10320,62,64
10320,10326,61,64
10326,10332,59,64
10332,10338,61,64
10338,10344,64,64
10344,10350,69,64
10350,10356,73,64
10356,10362,76,64
10362,10368,77,64
10368,10374,79,64
10374,10380,77,64
10380,10386,79,64
10386,10392,76,64
10392,10398,73,64
10398,10404,69,64
10404,10410,64,64
10410,10416,61,64
10416,10422,62,64
10422,10428,61,64
10428,10434,62,64
10434,10440,65,64
10440,10446,69,64
10446,10452,74,64
10452,10458,77,64
10458,10464,60,64
10464,10470,58,64
10470,10476,57,64
10476,10482,58,64
10482,10488,65,64
10488,10494,70,64
10494,10500,74,64
10500,10506,77,64
10506,10512,57,64
10512,10518,55,64
10518,10524,62,64
10524,10530,67,64
10530,10536,69,64
10536,10542,70,64
10542,10548,74,64
10548,10554,75,64
10554,10560,79,64
10560,10572,55,64
10560,10572,64,64
10560,10572,73,64
10572,10578,81,64
10578,10584,79,64
10584,10596,81,64
10596,10608,67,64
10596,10608,69,64
10608,10620,65,64
10608,10620,74,64
10620,10632,77,64
10632,10644,69,64
10632,10644,76,64
10644,10656,79,64
10656,10668,62,64
10656,10668,69,64
10656,10668,77,64
10668,10674,74,64
10674,10680,73,64
10680,10692,74,64
10692,10704,62,64
10692,10704,69,64
10692,10704,77,64
10704,10716,67,64
10704,10716,70,64
10704,10716,76,64
10716,10728,70,64
10728,10740,69,64
10728,10740,75,64
10740,10752,72,64
10752,10764,58,64
10752,10764,65,64
10752,10764,75,64
10764,10770,74,64
10770,10776,73,64
10776,10788,74,64
10788,10800,86,64
10800,10806,79,64
10800,10812,70,64
10806,10812,77,64
10812,10818,76,64
10818,10824,79,64
10824,10830,77,64
10824,10836,69,64
10830,10836,76,64
10836,10842,74,64
10842,10848,77,64
10848,10854,75,64
10848,10860,67,64
10854,10860,74,64
10860,10866,73,64
10866,10872,74,64
10872,10884,82,64
10884,10896,81,64
10896,10902,75,64
10896,10908,65,64
10902,10908,73,64
10908,10920,74,64
10920,10932,82,64
10932,10944,81,64
10944,10956,64,64
10944,10956,74,64
10956,10968,73,64
10968,10980,79,64
10980,10992,62,64
10980,10992,70,64
10992,11004,61,64
10992,11004,64,64
10992,11004,69,64
11004,11016,79,64
11016,11028,62,64
11016,11028,69,64
11016,11028,77,64
11028,11040,55,64
11028,11040,67,64
11028,11040,70,64
11028,11040,76,64
11040,11052,57,64
11040,11052,65,64
11040,11052,69,64
11052,11064,74,64
11064,11076,57,64
11064,11076,64,64
11076,11088,73,64
11088,11100,62,64
11088,11100,74,64
11100,11106,65,64
11106,11112,64,64
11112,11124,65,64
11112,11136,62,64
11124,11136,67,64
11136,11148,69,64
11136,11160,61,64
11148,11154,64,64
11154,11160,62,64
11160,11172,64,64
11160,11184,60,64
11172,11184,66,64
11184,11196,59,64
11184,11208,67,64
11196,11202,59,64
11202,11208,57,64
11208,11220,59,64
11208,11232,67,64
11220,11232,61,64
11232,11244,62,64
11232,11256,66,64
11244,11250,57,64
11250,11256,55,64
11256,11268,57,64
11256,11280,65,64
11268,11280,59,64
11280,11292,64,64
11280,11304,60,64
11292,11298,64,64
11298,11304,62,64
11304,11316,64,64
11304,11328,60,64
11316,11328,65,64
11328,11340,67,64
11328,11352,59,64
11340,11346,62,64
11346,11352,60,64
11352,11364,62,64
11352,11376,58,64
11364,11376,64,64
11376,11388,57,64
11376,11400,65,64
11388,11394,57,64
11394,11400,55,64
11400,11412,57,64
11400,11424,65,64
11412,11424,59,64
11424,11436,60,64
11424,11448,64,64
11436,11442,55,64
11442,11448,57,64
11448,11460,55,64
11448,11472,63,64
11460,11472,57,64
11472,11484,58,64
11472,11484,62,64
11484,11490,70,64
11490,11496,72,64
11496,11508,70,64
11496,11520,62,64
11508,11520,69,64
11520,11532,67,64
11520,11544,63,64
11532,11538,72,64
11538,11544,74,64
11544,11556,72,64
11544,11568,64,64
11556,11568,70,64
11568,11580,65,64
11568,11592,69,64
11580,11586,65,64
11586,11592,67,64
11592,11604,65,64
11592,11616,69,64
11604,11616,63,64
11616,11628,62,64
11616,11640,70,64
11628,11634,67,64
11634,11640,69,64
11640,11652,67,64
11640,11664,71,64
11652,11664,65,64
11664,11676,72,64
11664,11688,64,64
11676,11682,72,64
11682,11688,74,64
11688,11700,72,64
11688,11712,64,64
11700,11712,70,64
11712,11724,69,64
11712,11736,65,64
11724,11730,74,64
11730,11736,76,64
11736,11748,74,64
11736,11760,66,64
11748,11760,72,64
11760,11772,67,64
11760,11784,70,64
11772,11778,67,64
11778,11784,69,64
11784,11796,67,64
11784,11808,71,64
11796,11808,65,64
11808,11820,64,64
11808,11832,72,64
11820,11826,69,64
11826,11832,70,64
11832,11844,69,64
11832,11856,73,64
11844,11856,67,64
11856,11868,65,64
11856,11868,74,64
11868,11874,69,64
11874,11880,70,64
11880,11892,69,64
11892,11904,81,64
11904,11916,66,64
11904,11916,74,64
11916,11928,70,64
11928,11940,62,64
11928,11940,72,64
11940,11952,69,64
11952,11958,70,64
11952,11964,67,64
11958,11964,69,64
11964,11970,67,64
11970,11976,69,64
11976,11988,70,64
11988,12000,79,64
12000,12012,64,64
12000,12012,72,64
12012,12024,69,64
12024,12036,60,64
12024,12036,64,64
12024,12036,70,64
12036,12048,67,64
12048,12060,65,64
12048,12060,69,64
12060,12066,69,64
12060,12066,72,64
12066,12072,67,64
12066,12072,70,64
12072,12084,65,64
12072,12084,72,64
12084,12096,63,64
12096,12108,62,64
12108,12120,70,64
12108,12120,77,64
12120,12132,60,64
12132,12144,69,64
12132,12144,75,64
12144,12156,58,64
12156,12162,70,64
12156,12162,74,64
12162,12168,69,64
12162,12168,72,64
12168,12180,67,64
12168,12180,74,64
12180,12192,65,64
12192,12204,64,64
12204,12216,72,64
12204,12216,79,64
12216,12228,62,64
12228,12240,71,64
12228,12240,77,64
12240,12252,60,64
12252,12258,72,64
12252,12258,76,64
12258,12264,74,64
12258,12264,77,64
12264,12276,76,64
12264,12276,79,64
12276,12288,74,64
12276,12288,81,64
12288,12300,57,64
12288,12300,64,64
12288,12300,73,64
12288,12300,82,64
12300,12312,81,64
12312,12324,69,64
12312,12324,73,64
12312,12324,81,64
12324,12336,79,64
12336,12348,62,64
12336,12348,69,64
12336,12348,79,64
12348,12360,77,64
12360,12372,60,64
12360,12372,69,64
12360,12372,69,64
12360,12372,77,64
12372,12384,76,64
12384,12390,74,64
12384,12396,59,64
12384,12396,68,64
12390,12396,76,64
12396,12402,74,64
12402,12408,76,64
12408,12420,77,64
12420,12432,57,64
12432,12450,56,64
12450,12456,77,64
12456,12462,76,64
12462,12468,74,64
12468,12474,72,64
12474,12480,71,64
12480,12486,72,64
12486,12492,69,64
12492,12498,65,64
12498,12504,76,64
12504,12510,74,64
12510,12516,72,64
12516,12522,71,64
12522,12528,69,64
12528,12540,64,64
12528,12540,68,64
12540,12546,83,64
12546,12552,81,64
12552,12564,83,64
12564,12576,74,64
12576,12582,72,64
12576,12588,64,64
12582,12588,83,64
12588,12594,81,64
12594,12600,80,64
12600,12612,81,64
12612,12624,72,64
12624,12636,71,64
12624,12648,64,64
12636,12648,81,64
12648,12660,79,64
12660,12672,62,64
12660,12672,70,64
12672,12678,61,64
12672,12678,69,64
12678,12684,79,64
12684,12690,77,64
12690,12696,76,64
12696,12708,74,64
12696,12708,77,64
12708,12720,60,64
12708,12720,69,64
12720,12732,59,64
12720,12732,67,64
12732,12744,74,64
12732,12744,77,64
12744,12756,72,64
12744,12756,76,64
12756,12768,59,64
12756,12768,67,64
12768,12774,57,64
12768,12774,65,64
12774,12780,76,64
12780,12786,74,64
12786,12792,72,64
12792,12804,74,64
12804,12816,57,64
12804,12816,65,64
12816,12828,56,64
12816,12828,64,64
12828,12840,74,64
12840,12852,69,64
12840,12852,72,64
12852,12864,57,64
12852,12864,64,64
12864,12876,62,64
12864,12876,65,64
12876,12882,70,64
12882,12888,69,64
12888,12900,70,64
12900,12912,65,64
12900,12912,74,64
12912,12924,65,64
12912,12924,74,64
12924,12936,70,64
12924,12936,77,64
12936,12948,70,64
12936,12948,77,64
12948,12960,74,64
12948,12960,82,64
12960,12972,64,64
12960,12972,74,64
12960,12972,80,64
12972,12978,77,64
12978,12984,76,64
12984,12996,72,64
12984,12996,81,64
12996,13002,71,64
13002,13008,69,64
13008,13020,71,64
13008,13020,81,64
13020,13026,64,64
13026,13032,65,64
13032,13044,64,64
13044,13056,64,64
13044,13056,74,64
13044,13056,80,64
13056,13068,69,64
13056,13068,72,64
13056,13068,81,64
13068,13080,65,64
13080,13092,67,64
13080,13092,73,64
13080,13092,76,64
13092,13104,64,64
13104,13116,65,64
13104,13116,74,64
13104,13116,81,64
13116,13128,62,64
13128,13140,64,64
13128,13140,73,64
13128,13140,79,64
13140,13152,57,64
13152,13164,62,64
13152,13164,69,64
13152,13164,77,64
13164,13176,67,64
13164,13176,76,64
13176,13188,67,64
13176,13188,76,64
13188,13200,65,64
13188,13200,74,64
13200,13212,65,64
13200,13212,74,64
13212,13218,69,64
13218,13224,67,64
13224,13236,65,64
13236,13248,64,64
13236,13248,72,64
13248,13254,70,64
13248,13272,62,64
13254,13260,72,64
13260,13266,74,64
13266,13272,76,64
13272,13284,77,64
13284,13296,62,64
13284,13296,69,64
13296,13308,62,64
13296,13308,68,64
13308,13320,59,64
13308,13320,68,64
13308,13320,74,64
13308,13320,77,64
13320,13332,60,64
13320,13332,69,64
13320,13332,72,64
13320,13332,76,64
13332,13344,62,64
13332,13344,74,64
13344,13356,64,64
13344,13362,72,64
13356,13368,62,64
13362,13368,74,64
13368,13386,71,64
13368,13392,64,64
13386,13392,69,64
13392,13404,69,64
13392,13404,69,64
13404,13410,57,64
13410,13416,59,64
13416,13428,57,64
13428,13440,69,64
13440,13452,64,64
13440,13452,72,64
13440,13452,81,64
13452,13464,60,64
13464,13476,62,64
13464,13476,71,64
13464,13476,80,64
13476,13488,59,64
13488,13500,60,64
13488,13500,64,64
13488,13500,69,64
13488,13500,81,64
13500,13506,69,64
13506,13512,71,64
13512,13524,69,64
13524,13536,81,64
13536,13548,60,64
13536,13548,64,64
13536,13548,69,64
13536,13548,76,64
13548,13560,72,64
13560,13572,59,64
13560,13572,68,64
13560,13572,74,64
13572,13584,71,64
13584,13596,57,64
13584,13596,69,64
13584,13596,72,64
13596,13608,65,64
13608,13620,67,64
13608,13620,73,64
13620,13632,64,64
13632,13644,57,64
13632,13644,65,64
13632,13644,74,64
13632,13644,81,64
13644,13656,77,64
13656,13668,64,64
13656,13668,73,64
13656,13668,79,64
13668,13680,76,64
13680,13683,77,64
13680,13686,62,64
13680,13686,69,64
13683,13686,79,64
13686,13689,81,64
13689,13692,79,64
13692,13695,77,64
13695,13698,76,64
13698,13701,74,64
13701,13704,73,64
13704,13707,74,64
13707,13710,76,64
13710,13713,77,64
13713,13716,76,64
13716,13719,74,64
13719,13722,72,64
13722,13725,71,64
13725,13728,69,64
13728,13731,71,64
13731,13734,72,64
13734,13737,74,64
13737,13740,72,64
13740,13743,71,64
13743,13746,69,64
13746,13749,68,64
13749,13752,66,64
13752,13755,68,64
13755,13758,69,64
13758,13761,71,64
13761,13764,69,64
13764,13767,68,64
13767,13770,66,64
13770,13773,64,64
13773,13776,62,64
13776,13788,60,64
13788,13800,57,64
13788,13800,64,64
13788,13800,72,64
13788,13800,81,64
13800,13812,64,64
13800,13812,71,64
13800,13812,81,64
13812,13824,64,64
13812,13824,74,64
13812,13824,80,64
13824,13872,57,64
13824,13872,64,64
13824,13872,73,64
13824,13872,81,64
