onset,offset,pitch,velocity
0,12,69,64
12,24,62,64
24,36,65,64
36,48,69,64
48,60,74,64
60,72,76,64
72,84,77,64
84,96,76,64
96,102,79,64
102,108,77,64
108,114,76,64
114,120,74,64
120,132,73,64
132,144,69,64
144,156,64,64
156,168,61,64
168,180,64,64
180,192,69,64
192,204,76,64
204,216,77,64
216,228,79,64
228,240,77,64
240,246,81,64
246,252,79,64
252,258,77,64
258,264,76,64
264,276,74,64
276,288,69,64
288,300,65,64
300,312,62,64
312,318,77,64
318,324,76,64
324,330,74,64
330,336,77,64
336,342,82,64
342,348,81,64
348,354,79,64
354,360,77,64
360,366,76,64
366,372,74,64
372,378,72,64
378,384,74,64
384,390,76,64
390,396,74,64
396,402,72,64
402,408,76,64
408,414,81,64
414,420,79,64
420,426,77,64
426,432,76,64
432,438,74,64
438,444,72,64
444,450,70,64
450,456,72,64
456,462,74,64
462,468,72,64
468,474,70,64
474,480,74,64
480,486,79,64
486,492,77,64
492,498,76,64
498,504,74,64
504,510,73,64
510,516,71,64
516,522,69,64
522,528,71,64
528,534,73,64
534,540,71,64
540,546,69,64
546,552,73,64
552,558,76,64
558,564,74,64
564,570,73,64
570,576,71,64
576,582,69,64
582,588,67,64
588,594,65,64
594,600,69,64
600,606,67,64
606,612,65,64
612,618,64,64
618,624,62,64
624,636,57,64
636,648,74,64
648,660,73,64
660,678,62,64
678,684,64,64
684,690,65,64
690,696,67,64
696,702,69,64
702,708,70,64
708,714,72,64
714,720,74,64
720,726,76,64
726,732,77,64
732,738,79,64
738,744,76,64
744,750,72,64
750,756,67,64
756,762,64,64
762,768,67,64
768,774,72,64
774,780,67,64
780,786,64,64
786,792,60,64
792,798,64,64
798,804,67,64
804,810,69,64
810,816,67,64
816,822,65,64
822,828,67,64
828,834,69,64
834,840,70,64
840,846,72,64
846,852,74,64
852,858,76,64
858,864,77,64
864,870,79,64
870,876,81,64
876,882,82,64
882,888,81,64
888,894,82,64
894,900,86,64
900,906,76,64
906,912,79,64
912,918,81,64
918,924,79,64
924,930,81,64
930,936,84,64
936,942,74,64
942,948,77,64
948,954,79,64
954,960,77,64
960,966,79,64
966,972,82,64
972,978,72,64
978,984,76,64
984,990,77,64
990,996,76,64
996,1002,77,64
1002,1008,81,64
1008,1014,79,64
1014,1020,77,64
1020,1026,76,64
1026,1032,74,64
1032,1038,76,64
1038,1044,77,64
1044,1050,76,64
1050,1056,74,64
1056,1062,72,64
1062,1068,70,64
1068,1074,72,64
1074,1080,74,64
1080,1086,72,64
1086,1092,70,64
1092,1098,69,64
1098,1104,70,64
1104,1110,72,64
1110,1116,77,64
1116,1122,72,64
1122,1128,69,64
1128,1134,65,64
1134,1140,67,64
1140,1146,69,64
1146,1152,72,64
1152,1158,69,64
1158,1164,65,64
1164,1170,62,64
1170,1176,63,64
1176,1182,65,64
1182,1188,70,64
1188,1194,65,64
1194,1200,62,64
1200,1206,58,64
1206,1212,60,64
1212,1218,62,64
1218,1224,65,64
1224,1230,62,64
1230,1236,58,64
1236,1242,55,64
1242,1248,58,64
1248,1254,62,64
1254,1260,67,64
1260,1266,70,64
1266,1272,74,64
1272,1278,79,64
1278,1284,82,64
1284,1290,79,64
1290,1296,74,64
1296,1302,70,64
1302,1308,67,64
1308,1314,64,64
1314,1320,67,64
1320,1326,72,64
1326,1332,76,64
1332,1338,79,64
1338,1344,82,64
1344,1350,72,64
1350,1356,70,64
1356,1362,72,64
1362,1368,82,64
1368,1374,72,64
1374,1380,82,64
1380,1386,65,64
1386,1392,69,64
1392,1398,72,64
1398,1404,76,64
1404,1410,77,64
1410,1416,81,64
1416,1422,72,64
1422,1428,70,64
1428,1434,72,64
1434,1440,81,64
1440,1446,72,64
1446,1452,81,64
1452,1458,64,64
1458,1464,67,64
1464,1470,72,64
1470,1476,76,64
1476,1482,79,64
1482,1488,82,64
1488,1494,72,64
1494,1500,70,64
1500,1506,72,64
1506,1512,82,64
1512,1518,72,64
1518,1524,82,64
1524,1530,65,64
1530,1536,69,64
1536,1542,72,64
1542,1548,76,64
1548,1554,77,64
1554,1560,81,64
1560,1566,72,64
1566,1572,70,64
1572,1578,72,64
1578,1584,81,64
1584,1590,72,64
1590,1596,81,64
1596,1602,70,64
1602,1608,74,64
1608,1614,77,64
1614,1620,81,64
1620,1626,82,64
1626,1632,86,64
1632,1638,76,64
1638,1644,74,64
1644,1650,76,64
1650,1656,86,64
1656,1662,76,64
1662,1668,86,64
1668,1674,69,64
1674,1680,72,64
1680,1686,76,64
1686,1692,79,64
1692,1698,81,64
1698,1704,84,64
1704,1710,74,64
1710,1716,72,64
1716,1722,74,64
1722,1728,84,64
1728,1734,74,64
1734,1740,84,64
1740,1746,67,64
1746,1752,70,64
1752,1758,74,64
1758,1764,77,64
1764,1770,79,64
1770,1776,82,64
1776,1782,72,64
1782,1788,70,64
1788,1794,72,64
1794,1800,82,64
1800,1806,72,64
1806,1812,82,64
1812,1818,65,64
1818,1824,69,64
1824,1830,72,64
1830,1836,76,64
1836,1842,77,64
1842,1848,81,64
1848,1854,72,64
1854,1860,70,64
1860,1866,72,64
1866,1872,81,64
1872,1878,77,64
1878,1884,74,64
1884,1890,70,64
1890,1896,69,64
1896,1902,70,64
1902,1908,72,64
1908,1914,74,64
1914,1920,70,64
1920,1926,67,64
1926,1932,65,64
1932,1938,67,64
1938,1944,69,64
1944,1950,70,64
1950,1956,67,64
1956,1962,64,64
1962,1968,62,64
1968,1974,64,64
1974,1980,65,64
1980,1986,67,64
1986,1992,64,64
1992,1998,60,64
1998,2004,64,64
2004,2010,67,64
2010,2016,72,64
2016,2034,76,64
2034,2040,70,64
2040,2046,69,64
2046,2052,67,64
2052,2058,65,64
2058,2064,64,64
2064,2070,62,64
2070,2076,61,64
2076,2082,59,64
2082,2088,57,64
2088,2094,67,64
2094,2100,64,64
2100,2106,65,64
2106,2112,62,64
2112,2118,65,64
2118,2124,69,64
2124,2130,74,64
2130,2136,73,64
2136,2142,74,64
2142,2148,69,64
2148,2154,74,64
2154,2160,77,64
2160,2166,83,64
2166,2172,81,64
2172,2178,83,64
2178,2184,77,64
2184,2190,76,64
2190,2196,74,64
2196,2202,72,64
2202,2208,71,64
2208,2214,69,64
2214,2220,68,64
2220,2226,66,64
2226,2232,64,64
2232,2238,74,64
2238,2244,71,64
2244,2250,72,64
2250,2256,69,64
2256,2262,72,64
2262,2268,76,64
2268,2274,81,64
2274,2280,80,64
2280,2286,81,64
2286,2292,83,64
2292,2298,84,64
2298,2304,80,64
2304,2310,81,64
2310,2316,84,64
2316,2322,77,64
2322,2328,79,64
2328,2334,81,64
2334,2340,76,64
2340,2346,77,64
2346,2352,81,64
2352,2358,74,64
2358,2364,76,64
2364,2370,77,64
2370,2376,73,64
2376,2382,74,64
2382,2388,77,64
2388,2406,68,64
2406,2412,69,64
2412,2418,71,64
2418,2424,72,64
2424,2430,74,64
2430,2436,76,64
2436,2442,77,64
2442,2448,74,64
2448,2454,83,64
2454,2460,74,64
2460,2466,72,64
2466,2472,74,64
2472,2478,76,64
2478,2484,72,64
2484,2490,81,64
2490,2496,72,64
2496,2502,71,64
2502,2508,72,64
2508,2514,74,64
2514,2520,71,64
2520,2526,80,64
2526,2532,71,64
2532,2538,72,64
2538,2544,74,64
2544,2550,76,64
2550,2556,72,64
2556,2562,81,64
2562,2568,72,64
2568,2574,74,64
2574,2580,76,64
2580,2586,77,64
2586,2592,74,64
2592,2598,83,64
2598,2604,74,64
2604,2610,72,64
2610,2616,74,64
2616,2622,76,64
2622,2628,71,64
2628,2634,72,64
2634,2640,69,64
2640,2646,71,64
2646,2652,72,64
2652,2658,74,64
2658,2664,69,64
2664,2670,71,64
2670,2676,68,64
2676,2682,69,64
2682,2688,57,64
2688,2694,61,64
2694,2700,64,64
2700,2718,67,64
2718,2724,64,64
2724,2730,61,64
2730,2736,57,64
2736,2742,61,64
2742,2748,64,64
2748,2754,65,64
2754,2760,62,64
2760,2766,65,64
2766,2772,69,64
2772,2778,74,64
2778,2784,73,64
2784,2790,74,64
2790,2796,69,64
2796,2802,74,64
2802,2808,77,64
2808,2814,81,64
2814,2820,80,64
2820,2826,81,64
2826,2832,76,64
2832,2838,73,64
2838,2844,69,64
2844,2850,64,64
2850,2856,61,64
2856,2880,57,64
2880,2892,69,64
2892,2904,62,64
2904,2916,65,64
2916,2928,69,64
2928,2940,74,64
2940,2952,76,64
2952,2964,77,64
2964,2976,76,64
2976,2982,79,64
2982,2988,77,64
2988,2994,76,64
2994,3000,74,64
3000,3012,73,64
3012,3024,69,64
3024,3036,64,64
3036,3048,61,64
3048,3060,64,64
3060,3072,69,64
3072,3084,76,64
3084,3096,77,64
3096,3108,79,64
3108,3120,77,64
3120,3126,81,64
3126,3132,79,64
3132,3138,77,64
3138,3144,76,64
3144,3156,74,64
3156,3168,69,64
3168,3180,65,64
3180,3192,62,64
3192,3198,77,64
3198,3204,76,64
3204,3210,74,64
3210,3216,77,64
3216,3222,82,64
3222,3228,81,64
3228,3234,79,64
3234,3240,77,64
3240,3246,76,64
3246,3252,74,64
3252,3258,72,64
3258,3264,74,64
3264,3270,76,64
3270,3276,74,64
3276,3282,72,64
3282,3288,76,64
3288,3294,81,64
3294,3300,79,64
3300,3306,77,64
3306,3312,76,64
3312,3318,74,64
3318,3324,72,64
3324,3330,70,64
3330,3336,72,64
3336,3342,74,64
3342,3348,72,64
3348,3354,70,64
3354,3360,74,64
3360,3366,79,64
3366,3372,77,64
3372,3378,76,64
3378,3384,74,64
3384,3390,73,64
3390,3396,71,64
3396,3402,69,64
3402,3408,71,64
3408,3414,73,64
3414,3420,71,64
3420,3426,69,64
3426,3432,73,64
3432,3438,76,64
3438,3444,74,64
3444,3450,73,64
3450,3456,71,64
3456,3462,69,64
3462,3468,67,64
3468,3474,65,64
3474,3480,69,64
3480,3486,67,64
3486,3492,65,64
3492,3498,64,64
3498,3504,62,64
3504,3516,57,64
3516,3528,74,64
3528,3540,73,64
3540,3558,62,64
3558,3564,64,64
3564,3570,65,64
3570,3576,67,64
3576,3582,69,64
3582,3588,70,64
3588,3594,72,64
3594,3600,74,64
3600,3606,76,64
3606,3612,77,64
3612,3618,79,64
3618,3624,76,64
3624,3630,72,64
3630,3636,67,64
3636,3642,64,64
3642,3648,67,64
3648,3654,72,64
3654,3660,67,64
3660,3666,64,64
3666,3672,60,64
3672,3678,64,64
3678,3684,67,64
3684,3690,69,64
3690,3696,67,64
3696,3702,65,64
3702,3708,67,64
3708,3714,69,64
3714,3720,70,64
3720,3726,72,64
3726,3732,74,64
3732,3738,76,64
3738,3744,77,64
3744,3750,79,64
3750,3756,81,64
3756,3762,82,64
3762,3768,81,64
3768,3774,82,64
3774,3780,86,64
3780,3786,76,64
3786,3792,79,64
3792,3798,81,64
3798,3804,79,64
3804,3810,81,64
3810,3816,84,64
3816,3822,74,64
3822,3828,77,64
3828,3834,79,64
3834,3840,77,64
3840,3846,79,64
3846,3852,82,64
3852,3858,72,64
3858,3864,76,64
3864,3870,77,64
3870,3876,76,64
3876,3882,77,64
3882,3888,81,64
3888,3894,79,64
3894,3900,77,64
3900,3906,76,64
3906,3912,74,64
3912,3918,76,64
3918,3924,77,64
3924,3930,76,64
3930,3936,74,64
3936,3942,72,64
3942,3948,70,64
3948,3954,72,64
3954,3960,74,64
3960,3966,72,64
3966,3972,70,64
3972,3978,69,64
3978,3984,70,64
3984,3990,72,64
3990,3996,77,64
3996,4002,72,64
4002,4008,69,64
4008,4014,65,64
4014,4020,67,64
4020,4026,69,64
4026,4032,72,64
4032,4038,69,64
4038,4044,65,64
4044,4050,62,64
4050,4056,63,64
4056,4062,65,64
4062,4068,70,64
4068,4074,65,64
4074,4080,62,64
4080,4086,58,64
4086,4092,60,64
4092,4098,62,64
4098,4104,65,64
4104,4110,62,64
4110,4116,58,64
4116,4122,55,64
4122,4128,58,64
4128,4134,62,64
4134,4140,67,64
4140,4146,70,64
4146,4152,74,64
4152,4158,79,64
4158,4164,82,64
4164,4170,79,64
4170,4176,74,64
4176,4182,70,64
4182,4188,67,64
4188,4194,64,64
4194,4200,67,64
4200,4206,72,64
4206,4212,76,64
4212,4218,79,64
4218,4224,82,64
4224,4230,72,64
4230,4236,70,64
4236,4242,72,64
4242,4248,82,64
4248,4254,72,64
4254,4260,82,64
4260,4266,65,64
4266,4272,69,64
4272,4278,72,64
4278,4284,76,64
4284,4290,77,64
4290,4296,81,64
4296,4302,72,64
4302,4308,70,64
4308,4314,72,64
4314,4320,81,64
4320,4326,72,64
4326,4332,81,64
4332,4338,64,64
4338,4344,67,64
4344,4350,72,64
4350,4356,76,64
4356,4362,79,64
4362,4368,82,64
4368,4374,72,64
4374,4380,70,64
4380,4386,72,64
4386,4392,82,64
4392,4398,72,64
4398,4404,82,64
4404,4410,65,64
4410,4416,69,64
4416,4422,72,64
4422,4428,76,64
4428,4434,77,64
4434,4440,81,64
4440,4446,72,64
4446,4452,70,64
4452,4458,72,64
4458,4464,81,64
4464,4470,72,64
4470,4476,81,64
4476,4482,70,64
4482,4488,74,64
4488,4494,77,64
4494,4500,81,64
4500,4506,82,64
4506,4512,86,64
4512,4518,76,64
4518,4524,74,64
4524,4530,76,64
4530,4536,86,64
4536,4542,76,64
4542,4548,86,64
4548,4554,69,64
4554,4560,72,64
4560,4566,76,64
4566,4572,79,64
4572,4578,81,64
4578,4584,84,64
4584,4590,74,64
4590,4596,72,64
4596,4602,74,64
4602,4608,84,64
4608,4614,74,64
4614,4620,84,64
4620,4626,67,64
4626,4632,70,64
4632,4638,74,64
4638,4644,77,64
4644,4650,79,64
4650,4656,82,64
4656,4662,72,64
4662,4668,70,64
4668,4674,72,64
4674,4680,82,64
4680,4686,72,64
4686,4692,82,64
4692,4698,65,64
4698,4704,69,64
4704,4710,72,64
4710,4716,76,64
4716,4722,77,64
4722,4728,81,64
4728,4734,72,64
4734,4740,70,64
4740,4746,72,64
4746,4752,81,64
4752,4758,77,64
4758,4764,74,64
4764,4770,70,64
4770,4776,69,64
4776,4782,70,64
4782,4788,72,64
4788,4794,74,64
4794,4800,70,64
4800,4806,67,64
4806,4812,65,64
4812,4818,67,64
4818,4824,69,64
4824,4830,70,64
4830,4836,67,64
4836,4842,64,64
4842,4848,62,64
4848,4854,64,64
4854,4860,65,64
4860,4866,67,64
4866,4872,64,64
4872,4878,60,64
4878,4884,64,64
4884,4890,67,64
4890,4896,72,64
4896,4914,76,64
4914,4920,70,64
4920,4926,69,64
4926,4932,67,64
4932,4938,65,64
4938,4944,64,64
4944,4950,62,64
4950,4956,61,64
4956,4962,59,64
4962,4968,57,64
4968,4974,67,64
4974,4980,64,64
4980,4986,65,64
4986,4992,62,64
4992,4998,65,64
4998,5004,69,64
5004,5010,74,64
5010,5016,73,64
5016,5022,74,64
5022,5028,69,64
5028,5034,74,64
5034,5040,77,64
5040,5046,83,64
5046,5052,81,64
5052,5058,83,64
5058,5064,77,64
5064,5070,76,64
5070,5076,74,64
5076,5082,72,64
5082,5088,71,64
5088,5094,69,64
5094,5100,68,64
5100,5106,66,64
5106,5112,64,64
5112,5118,74,64
5118,5124,71,64
5124,5130,72,64
5130,5136,69,64
5136,5142,72,64
5142,5148,76,64
5148,5154,81,64
5154,5160,80,64
5160,5166,81,64
5166,5172,83,64
5172,5178,84,64
5178,5184,80,64
5184,5190,81,64
5190,5196,84,64
5196,5202,77,64
5202,5208,79,64
5208,5214,81,64
5214,5220,76,64
5220,5226,77,64
5226,5232,81,64
5232,5238,74,64
5238,5244,76,64
5244,5250,77,64
5250,5256,73,64
5256,5262,74,64
5262,5268,77,64
5268,5286,68,64
5286,5292,69,64
5292,5298,71,64
5298,5304,72,64
5304,5310,74,64
5310,5316,76,64
5316,5322,77,64
5322,5328,74,64
5328,5334,83,64
5334,5340,74,64
5340,5346,72,64
5346,5352,74,64
5352,5358,76,64
5358,5364,72,64
5364,5370,81,64
5370,5376,72,64
5376,5382,71,64
5382,5388,72,64
5388,5394,74,64
5394,5400,71,64
5400,5406,80,64
5406,5412,71,64
5412,5418,72,64
5418,5424,74,64
5424,5430,76,64
5430,5436,72,64
5436,5442,81,64
5442,5448,72,64
5448,5454,74,64
5454,5460,76,64
5460,5466,77,64
5466,5472,74,64
5472,5478,83,64
5478,5484,74,64
5484,5490,72,64
5490,5496,74,64
5496,5502,76,64
5502,5508,71,64
5508,5514,72,64
5514,5520,69,64
5520,5526,71,64
5526,5532,72,64
5532,5538,74,64
5538,5544,69,64
5544,5550,71,64
5550,5556,68,64
5556,5562,69,64
5562,5568,57,64
5568,5574,61,64
5574,5580,64,64
5580,5598,67,64
5598,5604,64,64
5604,5610,61,64
5610,5616,57,64
5616,5622,61,64
5622,5628,64,64
5628,5634,65,64
5634,5640,62,64
5640,5646,65,64
5646,5652,69,64
5652,5658,74,64
5658,5664,73,64
5664,5670,74,64
5670,5676,69,64
5676,5682,74,64
5682,5688,77,64
5688,5694,81,64
5694,5700,80,64
5700,5706,81,64
5706,5712,76,64
5712,5718,73,64
5718,5724,69,64
5724,5730,64,64
5730,5736,61,64
5736,5760,57,64
5760,5772,76,64
5772,5784,69,64
5784,5796,73,64
5796,5808,76,64
5808,5820,67,64
5820,5832,69,64
5832,5844,70,64
5844,5856,61,64
5856,5862,64,64
5862,5868,62,64
5868,5874,61,64
5874,5880,59,64
5880,5892,57,64
5892,5904,61,64
5904,5916,64,64
5916,5922,67,64
5922,5928,69,64
5928,5934,70,64
5934,5940,69,64
5940,5946,67,64
5946,5952,70,64
5952,5958,76,64
5958,5964,74,64
5964,5970,73,64
5970,5976,71,64
5976,5982,69,64
5982,5988,67,64
5988,5994,65,64
5994,6000,64,64
6000,6006,65,64
6006,6012,67,64
6012,6018,69,64
6018,6024,65,64
6024,6042,62,64
6042,6048,74,64
6048,6054,72,64
6054,6060,70,64
6060,6066,69,64
6066,6072,72,64
6072,6078,70,64
6078,6084,69,64
6084,6090,67,64
6090,6096,66,64
6096,6102,75,64
6102,6108,74,64
6108,6114,72,64
6114,6120,70,64
6120,6126,69,64
6126,6132,67,64
6132,6138,66,64
6138,6144,69,64
6144,6150,67,64
6150,6156,66,64
6156,6162,64,64
6162,6168,62,64
6168,6174,81,64
6174,6180,79,64
6180,6186,78,64
6186,6192,76,64
6192,6198,74,64
6198,6204,72,64
6204,6210,70,64
6210,6216,74,64
6216,6222,72,64
6222,6228,70,64
6228,6234,69,64
6234,6240,67,64
6240,6246,84,64
6246,6252,82,64
6252,6258,81,64
6258,6264,79,64
6264,6270,78,64
6270,6276,76,64
6276,6282,74,64
6282,6288,76,64
6288,6294,78,64
6294,6300,81,64
6300,6306,79,64
6306,6312,77,64
6312,6318,75,64
6318,6324,74,64
6324,6330,72,64
6330,6336,70,64
6336,6342,69,64
6342,6348,67,64
6348,6354,66,64
6354,6360,69,64
6360,6366,74,64
6366,6372,78,64
6372,6378,81,64
6378,6384,84,64
6384,6390,74,64
6390,6396,72,64
6396,6402,74,64
6402,6408,84,64
6408,6414,74,64
6414,6420,84,64
6420,6426,67,64
6426,6432,70,64
6432,6438,74,64
6438,6444,78,64
6444,6450,79,64
6450,6456,82,64
6456,6462,74,64
6462,6468,72,64
6468,6474,74,64
6474,6480,82,64
6480,6486,74,64
6486,6492,82,64
6492,6498,66,64
6498,6504,69,64
6504,6510,74,64
6510,6516,78,64
6516,6522,81,64
6522,6528,84,64
6528,6534,74,64
6534,6540,72,64
6540,6546,74,64
6546,6552,84,64
6552,6558,74,64
6558,6564,84,64
6564,6570,67,64
6570,6576,70,64
6576,6582,74,64
6582,6588,78,64
6588,6594,79,64
6594,6600,82,64
6600,6606,74,64
6606,6612,72,64
6612,6618,74,64
6618,6624,82,64
6624,6630,74,64
6630,6636,82,64
6636,6642,60,64
6642,6648,63,64
6648,6654,67,64
6654,6660,70,64
6660,6666,72,64
6666,6672,75,64
6672,6678,65,64
6678,6684,63,64
6684,6690,65,64
6690,6696,75,64
6696,6702,65,64
6702,6708,75,64
6708,6714,58,64
6714,6720,62,64
6720,6726,65,64
6726,6732,69,64
6732,6738,70,64
6738,6744,74,64
6744,6750,63,64
6750,6756,62,64
6756,6762,63,64
6762,6768,74,64
6768,6774,63,64
6774,6780,74,64
6780,6786,57,64
6786,6792,60,64
6792,6798,63,64
6798,6804,67,64
6804,6810,69,64
6810,6816,72,64
6816,6822,62,64
6822,6828,60,64
6828,6834,62,64
6834,6840,72,64
6840,6846,62,64
6846,6852,72,64
6852,6858,55,64
6858,6864,58,64
6864,6870,62,64
6870,6876,66,64
6876,6882,67,64
6882,6888,70,64
6888,6894,62,64
6894,6900,66,64
6900,6906,67,64
6906,6912,70,64
6912,6918,74,64
6918,6924,79,64
6924,6930,75,64
6930,6936,74,64
6936,6942,75,64
6942,6948,77,64
6948,6954,79,64
6954,6960,75,64
6960,6966,72,64
6966,6972,70,64
6972,6978,72,64
6978,6984,74,64
6984,6990,75,64
6990,6996,72,64
6996,7002,69,64
7002,7008,67,64
7008,7014,69,64
7014,7020,70,64
7020,7026,72,64
7026,7032,69,64
7032,7038,66,64
7038,7044,69,64
7044,7050,74,64
7050,7056,78,64
7056,7062,81,64
7062,7068,84,64
7068,7074,82,64
7074,7080,81,64
7080,7086,84,64
7086,7092,82,64
7092,7098,81,64
7098,7104,79,64
7104,7110,74,64
7110,7116,79,64
7116,7122,78,64
7122,7128,79,64
7128,7134,81,64
7134,7140,78,64
7140,7146,79,64
7146,7152,75,64
7152,7158,74,64
7158,7164,72,64
7164,7170,70,64
7170,7176,69,64
7176,7182,70,64
7182,7188,67,64
7188,7194,69,64
7194,7200,70,64
7200,7206,72,64
7206,7212,74,64
7212,7218,76,64
7218,7224,77,64
7224,7230,79,64
7230,7236,76,64
7236,7242,70,64
7242,7248,76,64
7248,7254,60,64
7254,7260,64,64
7260,7266,67,64
7266,7272,70,64
7272,7278,69,64
7278,7284,67,64
7284,7290,69,64
7290,7296,70,64
7296,7302,72,64
7302,7308,69,64
7308,7314,65,64
7314,7320,69,64
7320,7326,58,64
7326,7332,62,64
7332,7338,65,64
7338,7344,69,64
7344,7350,65,64
7350,7356,62,64
7356,7362,73,64
7362,7368,74,64
7368,7374,76,64
7374,7380,73,64
7380,7386,67,64
7386,7392,73,64
7392,7398,57,64
7398,7404,61,64
7404,7410,64,64
7410,7416,67,64
7416,7422,65,64
7422,7428,64,64
7428,7434,65,64
7434,7440,62,64
7440,7446,65,64
7446,7452,69,64
7452,7458,74,64
7458,7464,73,64
7464,7470,74,64
7470,7476,69,64
7476,7482,74,64
7482,7488,77,64
7488,7494,81,64
7494,7500,72,64
7500,7506,70,64
7506,7512,81,64
7512,7518,79,64
7518,7524,77,64
7524,7530,76,64
7530,7536,74,64
7536,7542,72,64
7542,7548,74,64
7548,7554,76,64
7554,7560,77,64
7560,7566,79,64
7566,7572,70,64
7572,7578,69,64
7578,7584,79,64
7584,7590,77,64
7590,7596,76,64
7596,7602,74,64
7602,7608,72,64
7608,7614,70,64
7614,7620,72,64
7620,7626,74,64
7626,7632,76,64
7632,7638,77,64
7638,7644,69,64
7644,7650,67,64
7650,7656,77,64
7656,7662,76,64
7662,7668,74,64
7668,7674,73,64
7674,7680,71,64
7680,7686,69,64
7686,7692,71,64
7692,7698,73,64
7698,7704,74,64
7704,7710,76,64
7710,7716,67,64
7716,7722,65,64
7722,7728,69,64
7728,7734,74,64
7734,7740,69,64
7740,7746,65,64
7746,7752,69,64
7752,7758,62,64
7758,7764,65,64
7764,7770,69,64
7770,7776,65,64
7776,7782,62,64
7782,7788,65,64
7788,7794,58,64
7794,7800,65,64
7800,7806,74,64
7806,7812,77,64
7812,7818,76,64
7818,7824,73,64
7824,7830,57,64
7830,7836,65,64
7836,7842,74,64
7842,7848,77,64
7848,7854,76,64
7854,7860,73,64
7860,7866,55,64
7866,7872,65,64
7872,7878,74,64
7878,7884,77,64
7884,7890,76,64
7890,7896,74,64
7896,7902,82,64
7902,7908,81,64
7908,7914,79,64
7914,7920,77,64
7920,7926,76,64
7926,7932,74,64
7932,7938,73,64
7938,7944,76,64
7944,7950,77,64
7950,7956,79,64
7956,7962,81,64
7962,7968,76,64
7968,7974,74,64
7974,7980,73,64
7980,7986,71,64
7986,7992,69,64
7992,7998,76,64
7998,8004,67,64
8004,8010,65,64
8010,8016,67,64
8016,8022,69,64
8022,8028,65,64
8028,8034,74,64
8034,8040,65,64
8040,8046,64,64
8046,8052,65,64
8052,8058,67,64
8058,8064,64,64
8064,8070,72,64
8070,8076,64,64
8076,8082,62,64
8082,8088,64,64
8088,8094,65,64
8094,8100,62,64
8100,8106,70,64
8106,8112,62,64
8112,8118,60,64
8118,8124,62,64
8124,8130,64,64
8130,8136,60,64
8136,8142,69,64
8142,8148,60,64
8148,8154,58,64
8154,8160,60,64
8160,8166,62,64
8166,8172,58,64
8172,8178,67,64
8178,8184,62,64
8184,8190,67,64
8190,8196,69,64
8196,8202,70,64
8202,8208,67,64
8208,8214,75,64
8214,8220,67,64
8220,8226,57,64
8226,8232,59,64
8232,8238,61,64
8238,8244,57,64
8244,8250,67,64
8250,8256,57,64
8256,8262,67,64
8262,8268,69,64
8268,8274,70,64
8274,8280,67,64
8280,8286,73,64
8286,8292,67,64
8292,8298,65,64
8298,8304,67,64
8304,8310,69,64
8310,8316,65,64
8316,8322,74,64
8322,8328,69,64
8328,8334,74,64
8334,8340,76,64
8340,8346,77,64
8346,8352,74,64
8352,8358,83,64
8358,8364,74,64
8364,8370,68,64
8370,8376,69,64
8376,8382,71,64
8382,8388,73,64
8388,8394,74,64
8394,8400,76,64
8400,8406,77,64
8406,8412,76,64
8412,8418,74,64
8418,8424,73,64
8424,8430,74,64
8430,8436,68,64
8436,8442,69,64
8442,8448,73,64
8448,8454,74,64
8454,8460,76,64
8460,8466,77,64
8466,8472,79,64
8472,8478,81,64
8478,8484,82,64
8484,8490,76,64
8490,8496,77,64
8496,8502,79,64
8502,8508,73,64
8508,8514,74,64
8514,8520,62,64
8520,8526,65,64
8526,8532,69,64
8532,8538,74,64
8538,8544,76,64
8544,8550,77,64
8550,8556,74,64
8556,8562,77,64
8562,8568,81,64
8568,8574,86,64
8574,8580,85,64
8580,8586,86,64
8586,8592,81,64
8592,8598,77,64
8598,8604,74,64
8604,8610,69,64
8610,8616,65,64
8616,8640,62,64
8640,8652,76,64
8652,8664,69,64
8664,8676,73,64
8676,8688,76,64
8688,8700,67,64
8700,8712,69,64
8712,8724,70,64
8724,8736,61,64
8736,8742,64,64
8742,8748,62,64
8748,8754,61,64
8754,8760,59,64
8760,8772,57,64
8772,8784,61,64
8784,8796,64,64
8796,8802,67,64
8802,8808,69,64
8808,8814,70,64
8814,8820,69,64
8820,8826,67,64
8826,8832,70,64
8832,8838,76,64
8838,8844,74,64
8844,8850,73,64
8850,8856,71,64
8856,8862,69,64
8862,8868,67,64
8868,8874,65,64
8874,8880,64,64
8880,8886,65,64
8886,8892,67,64
8892,8898,69,64
8898,8904,65,64
8904,8922,62,64
8922,8928,74,64
8928,8934,72,64
8934,8940,70,64
8940,8946,69,64
8946,8952,72,64
8952,8958,70,64
8958,8964,69,64
8964,8970,67,64
8970,8976,66,64
8976,8982,75,64
8982,8988,74,64
8988,8994,72,64
8994,9000,70,64
9000,9006,69,64
9006,9012,67,64
9012,9018,66,64
9018,9024,69,64
9024,9030,67,64
9030,9036,66,64
9036,9042,64,64
9042,9048,62,64
9048,9054,81,64
9054,9060,79,64
9060,9066,78,64
9066,9072,76,64
9072,9078,74,64
9078,9084,72,64
9084,9090,70,64
9090,9096,74,64
9096,9102,72,64
9102,9108,70,64
9108,9114,69,64
9114,9120,67,64
9120,9126,84,64
9126,9132,82,64
9132,9138,81,64
9138,9144,79,64
9144,9150,78,64
9150,9156,76,64
9156,9162,74,64
9162,9168,76,64
9168,9174,78,64
9174,9180,81,64
9180,9186,79,64
9186,9192,77,64
9192,9198,75,64
9198,9204,74,64
9204,9210,72,64
9210,9216,70,64
9216,9222,69,64
9222,9228,67,64
9228,9234,66,64
9234,9240,69,64
9240,9246,74,64
9246,9252,78,64
9252,9258,81,64
9258,9264,84,64
9264,9270,74,64
9270,9276,72,64
9276,9282,74,64
9282,9288,84,64
9288,9294,74,64
9294,9300,84,64
9300,9306,67,64
9306,9312,70,64
9312,9318,74,64
9318,9324,78,64
9324,9330,79,64
9330,9336,82,64
9336,9342,74,64
9342,9348,72,64
9348,9354,74,64
9354,9360,82,64
9360,9366,74,64
9366,9372,82,64
9372,9378,66,64
9378,9384,69,64
9384,9390,74,64
9390,9396,78,64
9396,9402,81,64
9402,9408,84,64
9408,9414,74,64
9414,9420,72,64
9420,9426,74,64
9426,9432,84,64
9432,9438,74,64
9438,9444,84,64
9444,9450,67,64
9450,9456,70,64
9456,9462,74,64
9462,9468,78,64
9468,9474,79,64
9474,9480,82,64
9480,9486,74,64
9486,9492,72,64
9492,9498,74,64
9498,9504,82,64
9504,9510,74,64
9510,9516,82,64
9516,9522,60,64
9522,9528,63,64
9528,9534,67,64
9534,9540,70,64
9540,9546,72,64
9546,9552,75,64
9552,9558,65,64
9558,9564,63,64
9564,9570,65,64
9570,9576,75,64
9576,9582,65,64
9582,9588,75,64
9588,9594,58,64
9594,9600,62,64
9600,9606,65,64
9606,9612,69,64
9612,9618,70,64
9618,9624,74,64
9624,9630,63,64
9630,9636,62,64
9636,9642,63,64
9642,9648,74,64
9648,9654,63,64
9654,9660,74,64
9660,9666,57,64
9666,9672,60,64
9672,9678,63,64
9678,9684,67,64
9684,9690,69,64
9690,9696,72,64
9696,9702,62,64
9702,9708,60,64
9708,9714,62,64
9714,9720,72,64
9720,9726,62,64
9726,9732,72,64
9732,9738,55,64
9738,9744,58,64
9744,9750,62,64
9750,9756,66,64
9756,9762,67,64
9762,9768,70,64
9768,9774,62,64
9774,9780,66,64
9780,9786,67,64
9786,9792,70,64
9792,9798,74,64
9798,9804,79,64
9804,9810,75,64
9810,9816,74,64
9816,9822,75,64
9822,9828,77,64
9828,9834,79,64
9834,9840,75,64
9840,9846,72,64
9846,9852,70,64
9852,9858,72,64
9858,9864,74,64
9864,9870,75,64
9870,9876,72,64
9876,9882,69,64
9882,9888,67,64
9888,9894,69,64
9894,9900,70,64
9900,9906,72,64
9906,9912,69,64
9912,9918,66,64
9918,9924,69,64
9924,9930,74,64
9930,9936,78,64
9936,9942,81,64
9942,9948,84,64
9948,9954,82,64
9954,9960,81,64
9960,9966,84,64
9966,9972,82,64
9972,9978,81,64
9978,9984,79,64
9984,9990,74,64
9990,9996,79,64
9996,10002,78,64
10002,10008,79,64
10008,10014,81,64
10014,10020,78,64
10020,10026,79,64
10026,10032,75,64
10032,10038,74,64
10038,10044,72,64
10044,10050,70,64
10050,10056,69,64
10056,10062,70,64
10062,10068,67,64
10068,10074,69,64
10074,10080,70,64
10080,10086,72,64
10086,10092,74,64
10092,10098,76,64
10098,10104,77,64
10104,10110,79,64
10110,10116,76,64
10116,10122,70,64
10122,10128,76,64
10128,10134,60,64
10134,10140,64,64
10140,10146,67,64
10146,10152,70,64
10152,10158,69,64
10158,10164,67,64
10164,10170,69,64
10170,10176,70,64
10176,10182,72,64
10182,10188,69,64
10188,10194,65,64
10194,10200,69,64
10200,10206,58,64
10206,10212,62,64
10212,10218,65,64
10218,10224,69,64
10224,10230,65,64
10230,10236,62,64
10236,10242,73,64
10242,10248,74,64
10248,10254,76,64
10254,10260,73,64
10260,10266,67,64
10266,10272,73,64
10272,10278,57,64
10278,10284,61,64
10284,10290,64,64
10290,10296,67,64
10296,10302,65,64
10302,10308,64,64
10308,10314,65,64
10314,10320,62,64
10320,10326,65,64
10326,10332,69,64
10332,10338,74,64
10338,10344,73,64
10344,10350,74,64
10350,10356,69,64
10356,10362,74,64
10362,10368,77,64
10368,10374,81,64
10374,10380,72,64
10380,10386,70,64
10386,10392,81,64
10392,10398,79,64
10398,10404,77,64
10404,10410,76,64
10410,10416,74,64
10416,10422,72,64
10422,10428,74,64
10428,10434,76,64
10434,10440,77,64
10440,10446,79,64
10446,10452,70,64
10452,10458,69,64
10458,10464,79,64
10464,10470,77,64
10470,10476,76,64
10476,10482,74,64
10482,10488,72,64
10488,10494,70,64
10494,10500,72,64
10500,10506,74,64
10506,10512,76,64
10512,10518,77,64
10518,10524,69,64
10524,10530,67,64
10530,10536,77,64
10536,10542,76,64
10542,10548,74,64
10548,10554,73,64
10554,10560,71,64
10560,10566,69,64
10566,10572,71,64
10572,10578,73,64
10578,10584,74,64
10584,10590,76,64
10590,10596,67,64
10596,10602,65,64
10602,10608,69,64
10608,10614,74,64
10614,10620,69,64
10620,10626,65,64
10626,10632,69,64
10632,10638,62,64
10638,10644,65,64
10644,10650,69,64
10650,10656,65,64
10656,10662,62,64
10662,10668,65,64
10668,10674,58,64
10674,10680,65,64
10680,10686,74,64
10686,10692,77,64
10692,10698,76,64
10698,10704,73,64
10704,10710,57,64
10710,10716,65,64
10716,10722,74,64
10722,10728,77,64
10728,10734,76,64
10734,10740,73,64
10740,10746,55,64
10746,10752,65,64
10752,10758,74,64
10758,10764,77,64
10764,10770,76,64
10770,10776,74,64
10776,10782,82,64
10782,10788,81,64
10788,10794,79,64
10794,10800,77,64
10800,10806,76,64
10806,10812,74,64
10812,10818,73,64
10818,10824,76,64
10824,10830,77,64
10830,10836,79,64
10836,10842,81,64
10842,10848,76,64
10848,10854,74,64
10854,10860,73,64
10860,10866,71,64
10866,10872,69,64
10872,10878,76,64
10878,10884,67,64
10884,10890,65,64
10890,10896,67,64
10896,10902,69,64
10902,10908,65,64
10908,10914,74,64
10914,10920,65,64
10920,10926,64,64
10926,10932,65,64
10932,10938,67,64
10938,10944,64,64
10944,10950,72,64
10950,10956,64,64
10956,10962,62,64
10962,10968,64,64
10968,10974,65,64
10974,10980,62,64
10980,10986,70,64
10986,10992,62,64
10992,10998,60,64
10998,11004,62,64
11004,11010,64,64
11010,11016,60,64
11016,11022,69,64
11022,11028,60,64
11028,11034,58,64
11034,11040,60,64
11040,11046,62,64
11046,11052,58,64
11052,11058,67,64
11058,11064,62,64
11064,11070,67,64
11070,11076,69,64
11076,11082,70,64
11082,11088,67,64
11088,11094,75,64
11094,11100,67,64
11100,11106,57,64
11106,11112,59,64
11112,11118,61,64
11118,11124,57,64
11124,11130,67,64
11130,11136,57,64
11136,11142,67,64
11142,11148,69,64
11148,11154,70,64
11154,11160,67,64
11160,11166,73,64
11166,11172,67,64
11172,11178,65,64
11178,11184,67,64
11184,11190,69,64
11190,11196,65,64
11196,11202,74,64
11202,11208,69,64
11208,11214,74,64
11214,11220,76,64
11220,11226,77,64
11226,11232,74,64
11232,11238,83,64
11238,11244,74,64
11244,11250,68,64
11250,11256,69,64
11256,11262,71,64
11262,11268,73,64
11268,11274,74,64
11274,11280,76,64
11280,11286,77,64
11286,11292,76,64
11292,11298,74,64
11298,11304,73,64
11304,11310,74,64
11310,11316,68,64
11316,11322,69,64
11322,11328,73,64
11328,11334,74,64
11334,11340,76,64
11340,11346,77,64
11346,11352,79,64
11352,11358,81,64
11358,11364,82,64
11364,11370,76,64
11370,11376,77,64
11376,11382,79,64
11382,11388,73,64
11388,11394,74,64
11394,11400,62,64
11400,11406,65,64
11406,11412,69,64
11412,11418,74,64
11418,11424,76,64
11424,11430,77,64
11430,11436,74,64
11436,11442,77,64
11442,11448,81,64
11448,11454,86,64
11454,11460,85,64
11460,11466,86,64
11466,11472,81,64
11472,11478,77,64
11478,11484,74,64
11484,11490,69,64
11490,11496,65,64
11496,11520,62,64
